<?xml version="1.0" encoding="UTF-8"?>
<svg width="392px" height="478px" viewBox="0 0 392 478" version="1.1" xmlns="http://www.w3.org/2000/svg" xmlns:xlink="http://www.w3.org/1999/xlink">
    <!-- Generator: Sketch 44.1 (41455) - http://www.bohemiancoding.com/sketch -->
    <title>Verärgert</title>
    <desc>Created with Sketch.</desc>
    <defs></defs>
    <g id="Page-1" stroke="none" stroke-width="1" fill="none" fill-rule="evenodd">
        <g id="Verärgert">
            <g id="Group-33" transform="translate(0.000000, 0.890000)">
                <path d="M314.212,402.798 C302.802,432.128 272.122,471.688 234.042,475.698 C193.382,479.978 140.282,462.408 124.282,452.508 C114.912,446.708 104.262,439.898 100.682,430.948 C100.682,430.948 99.472,425.728 103.942,419.568 C106.832,415.578 114.722,414.328 119.922,413.948 C124.952,406.058 127.902,397.908 127.902,397.908 C130.072,387.598 128.082,371.858 126.082,360.658 C130.112,364.728 133.872,368.298 137.032,370.888 C149.822,381.348 176.052,407.758 198.472,399.608 C214.972,393.608 220.232,390.068 235.452,376.618 C241.332,372.028 266.202,350.888 278.582,325.298 C278.842,338.798 280.592,360.358 288.882,377.098 C298.532,381.078 318.632,390.958 314.212,402.798" id="Fill-1" fill="#D0C7B2"></path>
                <path d="M197.7398,399.1523 C214.2398,393.1523 219.4998,389.6103 234.7208,376.1563 C241.2008,371.0953 270.7678,345.9243 281.2328,316.8543 C291.6978,287.7843 306.8138,265.6913 306.8138,238.9473 C306.8138,212.2033 314.5748,188.6173 316.5698,153.9103 C318.4488,121.2203 318.2858,67.7373 269.4488,29.3653 C241.8058,7.6463 196.5028,-3.8077 174.3678,2.0783 C153.0688,7.7423 120.7878,11.2903 93.0158,31.2293 C66.3498,50.3743 54.3138,97.7143 50.8258,124.4583 C47.3378,151.2023 52.6898,182.3913 58.1128,199.3393 C63.4758,216.0983 62.0818,241.8463 65.5708,256.9633 C69.0588,272.0793 79.9628,312.4913 90.4278,322.9563 C100.8928,333.4213 123.5138,359.9643 136.3048,370.4293 C149.0948,380.8943 175.3218,407.3043 197.7398,399.1523" id="Fill-3" fill="#D0C7B2"></path>
                <path d="M197.7398,399.1523 C214.2398,393.1523 219.4998,389.6103 234.7208,376.1563 C241.2008,371.0953 270.7678,345.9243 281.2328,316.8543 C291.6978,287.7843 306.8138,265.6913 306.8138,238.9473 C306.8138,212.2033 314.5748,188.6173 316.5698,153.9103 C318.4488,121.2203 318.2858,67.7373 269.4488,29.3653 C241.8058,7.6463 196.5028,-3.8077 174.3678,2.0783 C153.0688,7.7423 120.7878,11.2903 93.0158,31.2293 C66.3498,50.3743 54.3138,97.7143 50.8258,124.4583 C47.3378,151.2023 52.6898,182.3913 58.1128,199.3393 C63.4758,216.0983 62.0818,241.8463 65.5708,256.9633 C69.0588,272.0793 79.9628,312.4913 90.4278,322.9563 C100.8928,333.4213 123.5138,359.9643 136.3048,370.4293 C149.0948,380.8943 175.3218,407.3043 197.7398,399.1523 Z" id="Stroke-5" stroke="#1A1918" stroke-width="2"></path>
                <g id="Group-10" transform="translate(300.000000, 179.000000)">
                    <path d="M12.6524,11.0156 C12.6524,11.0156 18.0214,-1.5324 23.0924,1.2126 C28.1634,3.9576 29.6544,24.7396 26.0754,32.1896 C22.4954,39.6406 15.6354,47.8746 14.4424,59.2466 C13.2494,70.6176 14.4034,74.3466 9.9294,83.3646 C5.4554,92.3836 0.4184,92.8756 0.4184,92.8756" id="Fill-7" fill="#D0C7B2"></path>
                    <path d="M12.6524,11.0156 C12.6524,11.0156 18.0214,-1.5324 23.0924,1.2126 C28.1634,3.9576 29.6544,24.7396 26.0754,32.1896 C22.4954,39.6406 15.6354,47.8746 14.4424,59.2466 C13.2494,70.6176 14.4034,74.3466 9.9294,83.3646 C5.4554,92.3836 0.4184,92.8756 0.4184,92.8756" id="Stroke-9" stroke="#1A1918" stroke-width="2.293" stroke-linecap="round"></path>
                </g>
                <g id="Group-14" transform="translate(38.000000, 192.000000)">
                    <path d="M22.3899,17.5104 C22.3899,17.5104 15.8419,-6.4906 8.6309,1.8104 C1.4199,10.1104 -2.4991,24.5264 4.9669,40.1134 C9.5909,49.7654 13.0509,56.6814 17.3779,73.9204 C21.7039,91.1594 26.3729,97.8914 34.2989,91.6824" id="Fill-11" fill="#D0C7B2"></path>
                    <path d="M22.3899,17.5104 C22.3899,17.5104 15.8419,-6.4906 8.6309,1.8104 C1.4199,10.1104 -2.4991,24.5264 4.9669,40.1134 C9.5909,49.7654 13.0509,56.6814 17.3779,73.9204 C21.7039,91.1594 26.3729,97.8914 34.2989,91.6824" id="Stroke-13" stroke="#1A1918" stroke-width="2.305" stroke-linecap="round" stroke-linejoin="round"></path>
                </g>
                <path d="M278.0571,326.1534 C278.1021,331.6214 277.6831,387.8644 313.4831,402.3364" id="Stroke-15" stroke="#1A1918" stroke-width="2" stroke-linecap="round" stroke-linejoin="round"></path>
                <path d="M125.3319,360.5694 C125.3319,360.5694 130.8659,379.9404 127.1719,397.4474 C127.1719,397.4474 119.1339,419.6534 106.9729,426.2674" id="Stroke-17" stroke="#1A1918" stroke-width="2" stroke-linecap="round" stroke-linejoin="round"></path>
                <path d="M286.8491,374.9914 C286.8491,374.9914 319.2481,386.8804 313.4831,402.3374 C302.0741,431.6724 271.3931,471.2294 233.3081,475.2374 C192.6481,479.5174 139.5491,461.9464 123.5531,452.0504 C114.1831,446.2524 103.5351,439.4374 99.9551,430.4864 C99.9551,430.4864 98.7451,425.2674 103.2071,419.1054 C107.6691,412.9434 118.9311,412.9434 118.9311,412.9434" id="Stroke-19" stroke="#1A1918" stroke-width="2" stroke-linecap="round" stroke-linejoin="round"></path>
                <path d="M278.0902,322.2203 C278.1012,322.2133 278.0662,322.2343 278.1152,322.1973 C278.2032,322.1423 278.3572,322.0353 278.6582,322.0183 C278.9632,321.9913 279.3262,322.1873 279.4602,322.3643 C279.5472,322.4703 279.5392,322.4663 279.5722,322.5123 C279.6142,322.5733 279.6772,322.6643 279.7592,322.7843 C279.9172,323.0093 280.1512,323.3433 280.4552,323.7783 C281.0762,324.6383 282.0172,325.8853 283.3202,327.3903 C285.9212,330.3833 289.9882,334.4753 295.7932,338.0913 C298.6912,339.8873 302.0172,341.5513 305.7202,342.8053 C309.4782,344.0603 313.4712,345.3943 317.5622,346.8593 C321.6612,348.3013 325.8622,349.8913 330.1102,351.5583 C334.3562,353.2313 338.6252,355.0453 342.8482,356.9633 C351.2912,360.7933 359.5052,365.1983 366.6472,370.1803 C370.2152,372.6723 373.5042,375.3153 376.3922,378.0693 C379.2822,380.8203 381.7642,383.6853 383.7702,386.5313 C385.7732,389.3783 387.3262,392.1853 388.4272,394.7883 C389.5032,397.4003 390.2772,399.7463 390.7042,401.7293 C390.9712,402.7073 391.0932,403.6063 391.2412,404.3783 C391.3962,405.1503 391.4712,405.8153 391.5292,406.3543 C391.6552,407.4323 391.7222,408.0063 391.7222,408.0063 C391.7222,408.0063 391.6472,407.4333 391.5052,406.3573 C391.4402,405.8193 391.3552,405.1563 391.1892,404.3873 C391.0302,403.6183 390.8962,402.7233 390.6152,401.7503 C390.1612,399.7793 389.3552,397.4503 388.2472,394.8673 C387.1142,392.2923 385.5302,389.5233 383.4992,386.7243 C381.4672,383.9273 378.9622,381.1193 376.0542,378.4293 C373.1482,375.7363 369.8442,373.1593 366.2652,370.7353 C359.0992,365.8883 350.8712,361.6263 342.4132,357.9343 C338.1832,356.0863 333.9072,354.3413 329.6532,352.7353 C325.3982,351.1353 321.1902,349.6123 317.0842,348.2333 C312.9872,346.8313 309.0052,345.5673 305.2032,344.3543 C301.3562,343.0963 297.8942,341.4113 294.8772,339.5853 C288.8322,335.9083 284.5912,331.7313 281.8672,328.6633 C280.5022,327.1213 279.5112,325.8363 278.8532,324.9453 C278.5312,324.4963 278.2842,324.1513 278.1182,323.9193 C278.0412,323.8093 277.9822,323.7253 277.9432,323.6693 C277.9362,323.6563 277.8952,323.6103 277.9612,323.6873 C278.0882,323.8583 278.4462,324.0483 278.7462,324.0163 C279.0432,323.9943 279.1932,323.8833 279.2782,323.8253 C279.3242,323.7923 279.2892,323.8213 279.3002,323.8133 C278.8602,324.1473 278.2332,324.0613 277.8992,323.6213 C277.5642,323.1813 277.6502,322.5543 278.0902,322.2203" id="Fill-21" fill="#1A1918"></path>
                <path d="M120.5959,357.426 C120.5959,357.426 120.4499,357.492 120.1669,357.62 C119.8119,357.772 119.4329,357.919 118.8999,358.124 C117.8549,358.516 116.3229,359.091 114.3719,359.823 C110.4829,361.277 104.9359,363.362 98.3279,365.99 C85.1189,371.241 67.6379,378.662 50.8849,387.542 C42.5189,391.988 34.3409,396.804 27.0599,401.889 C19.8019,406.986 13.4189,412.368 8.8509,417.808 C6.5709,420.524 4.7489,423.241 3.4689,425.822 C2.1789,428.4 1.4549,430.835 1.1429,432.88 C0.9479,433.9 0.9489,434.829 0.8929,435.632 C0.9189,436.436 0.9369,437.123 0.9859,437.676 C1.1449,438.777 1.2289,439.365 1.2289,439.365 C1.2289,439.365 1.1329,438.779 0.9529,437.68 C0.8929,437.127 0.8609,436.439 0.8189,435.632 C0.8589,434.826 0.8399,433.891 1.0159,432.862 C1.2889,430.798 1.9699,428.328 3.2189,425.701 C4.4599,423.072 6.2439,420.294 8.4889,417.51 C12.9879,411.933 19.3079,406.388 26.5079,401.117 C33.7299,395.858 41.8539,390.856 50.1689,386.224 C66.8199,376.973 84.2179,369.179 97.3699,363.647 C103.9489,360.879 109.4749,358.677 113.3399,357.144 C115.2659,356.378 116.7779,355.775 117.8099,355.365 C118.2859,355.166 118.6509,355.014 118.8969,354.911 C119.0979,354.827 119.2719,354.731 119.2589,354.74 C120.0009,354.371 120.9009,354.673 121.2709,355.415 C121.6399,356.156 121.3379,357.057 120.5959,357.426" id="Fill-23" fill="#1A1918"></path>
                <path d="M99.3125,218.8276 C99.3125,218.8276 111.3055,205.4236 120.4765,208.2456 C129.6475,211.0676 155.0435,220.9436 157.1595,223.0606 C159.2765,225.1766 159.2765,229.4096 151.5165,227.2926 C143.7565,225.1766 133.8795,226.5876 127.5305,227.9986 C121.1815,229.4096 108.4835,230.8206 105.6615,226.5876 C102.8395,222.3546 97.1965,225.8826 99.3125,218.8276" id="Fill-25" fill="#FFFFFF"></path>
                <path d="M224.8838,216.0058 C224.8838,216.0058 259.4508,200.4858 264.3898,201.8968 C269.3278,203.3078 273.5598,208.9508 275.6768,211.7728 C277.7928,214.5948 266.5058,215.3008 256.6298,218.1218 C246.7528,220.9438 241.1088,222.3548 234.0548,220.2388 C226.9998,218.1218 224.1788,220.2388 224.8838,216.0058" id="Fill-27" fill="#FFFFFF"></path>
                <path d="M153.7729,329.3068 C153.7729,329.3068 174.8429,316.2438 178.6349,318.7718 C182.4279,321.2998 189.5919,325.9358 193.3839,324.2498 C197.1769,322.5648 198.8619,312.8728 205.6049,316.2438 C212.3469,319.6148 223.3029,321.2998 224.9889,322.9858 C226.6739,324.6718 230.4669,328.8858 221.6179,331.4138 C212.7679,333.9418 173.1569,336.8918 168.0999,335.6278 C163.0439,334.3638 153.7729,329.3068 153.7729,329.3068" id="Fill-29" fill="#FFFFFF"></path>
                <path d="M153.7729,329.3068 C153.7729,329.3068 174.8429,316.2438 178.6349,318.7718 C182.4279,321.2998 189.5919,325.9358 193.3839,324.2498 C197.1769,322.5648 198.8619,312.8728 205.6049,316.2438 C212.3469,319.6148 223.3029,321.2998 224.9889,322.9858 C226.6739,324.6718 230.4669,328.8858 221.6179,331.4138 C212.7679,333.9418 173.1569,336.8918 168.0999,335.6278 C163.0439,334.3638 153.7729,329.3068 153.7729,329.3068 Z" id="Stroke-31" stroke="#1A1918" stroke-width="2"></path>
            </g>
            <g id="Group-104" transform="translate(79.000000, 169.890000)">
                <path d="M94.6657,90.3491 C94.6657,90.3491 94.1977,90.5281 93.3467,90.9231 C92.4977,91.3191 91.2637,91.9311 89.7697,92.8281 C88.2767,93.7191 86.5057,94.8931 84.7417,96.5171 C82.9987,98.1261 81.1927,100.2391 80.3377,102.9451 C79.9187,104.2891 79.7517,105.7561 79.9377,107.2481 C80.1177,108.7401 80.6217,110.2471 81.3857,111.6861 C81.7717,112.4011 82.1837,113.1321 82.6957,113.7951 C83.1867,114.4421 83.7067,115.0181 84.3317,115.4971 C85.5547,116.4651 87.0907,116.8241 88.8767,116.8971 C90.6497,116.9781 92.6367,116.9331 94.6807,117.2211 C96.7257,117.4921 98.8027,118.1361 100.6827,119.1301 C101.6207,119.6041 102.5347,120.2371 103.3427,120.8031 C103.7577,121.1011 104.1377,121.3541 104.5257,121.6081 C104.9237,121.8631 105.3267,122.1071 105.7337,122.3421 C107.3617,123.2711 109.0837,123.9791 110.8297,124.2721 C112.5717,124.5691 114.3287,124.4441 116.0037,123.8611 C117.6817,123.2941 119.2607,122.3151 120.7227,121.1701 L120.9967,120.9551 L121.3447,120.6961 C121.5127,120.5611 121.8087,120.3791 122.0747,120.2161 C122.5987,119.9041 123.0897,119.6891 123.6047,119.4801 C124.6247,119.0871 125.6387,118.8291 126.6327,118.6231 C128.6207,118.2181 130.5417,118.0241 132.3747,117.7691 C134.1937,117.5081 135.9727,117.2331 137.4187,116.6361 C138.1387,116.3371 138.7177,115.9321 139.1077,115.4471 C139.5207,114.9411 139.6267,114.4261 139.8097,113.4841 C140.4787,110.1751 140.9137,106.9941 140.5967,104.1581 C140.4277,102.7521 140.0667,101.4441 139.4407,100.3571 C138.8147,99.2701 137.9447,98.4051 136.9817,97.7501 C135.0437,96.4421 133.0077,95.7031 131.4207,94.9611 C129.8097,94.2491 128.5987,93.5551 127.8047,93.0481 C127.4057,92.7981 127.1127,92.5861 126.9167,92.4431 C126.7187,92.3021 126.6167,92.2291 126.6167,92.2291 C126.6167,92.2291 126.7257,92.2901 126.9377,92.4101 C127.1477,92.5321 127.4597,92.7101 127.8807,92.9151 C128.7157,93.3401 129.9807,93.8661 131.6307,94.4361 C133.2637,95.0461 135.3547,95.5481 137.5717,96.8311 C138.6737,97.4671 139.7707,98.3911 140.6057,99.6271 C141.4517,100.8571 141.9527,102.3621 142.2267,103.9161 C142.5007,105.4781 142.5497,107.1111 142.4827,108.7751 C142.4247,110.4261 142.2217,112.1751 141.9347,113.8711 C141.8297,114.6061 141.6467,115.8881 140.9437,116.7931 C140.2747,117.7261 139.3427,118.3801 138.4187,118.8171 C136.5507,119.6931 134.6427,120.0251 132.7657,120.3451 C130.8887,120.6571 129.0127,120.9051 127.2247,121.3231 C126.3327,121.5331 125.4637,121.7861 124.6687,122.1191 C123.8317,122.4841 123.2927,122.7931 122.5197,123.4331 C120.8977,124.7281 119.0717,125.9101 116.9707,126.6481 C114.8847,127.3971 112.5237,127.6261 110.3217,127.2181 C108.1137,126.8221 106.0917,125.9411 104.2717,124.8811 C103.8177,124.6131 103.3707,124.3361 102.9347,124.0491 C102.4927,123.7551 102.0497,123.4501 101.6617,123.1651 C100.8527,122.5841 100.1367,122.0861 99.3247,121.6491 C97.7447,120.7511 96.0487,120.1611 94.2727,119.8641 C92.4937,119.5401 90.6477,119.5571 88.6797,119.3561 C87.6987,119.2511 86.6787,119.0881 85.6807,118.7441 C84.6847,118.3971 83.7397,117.8561 82.9587,117.1831 C82.1827,116.5201 81.5337,115.7231 81.0147,114.9241 C80.5137,114.1411 80.0797,113.3411 79.6937,112.5191 C78.9207,110.8831 78.4187,109.1381 78.2917,107.4051 C78.1607,105.6721 78.4247,103.9681 78.9987,102.4801 C80.1597,99.4781 82.2277,97.3751 84.1367,95.8131 C86.0867,94.2621 87.9687,93.2041 89.5417,92.4111 C91.1267,91.6341 92.4157,91.1311 93.2997,90.8081 C94.1837,90.4871 94.6657,90.3491 94.6657,90.3491" id="Fill-34" fill="#1A1918"></path>
                <path d="M79.4216,96.6719 C79.4216,96.6719 78.9326,97.3899 78.2126,98.6699 C77.4976,99.9629 76.5306,101.8229 75.3916,104.0799 C74.7926,105.1919 74.2086,106.4339 73.4866,107.7099 C73.3066,108.0309 73.1236,108.3579 72.9386,108.6879 C72.7436,109.0219 72.5006,109.3919 72.2806,109.7159 C71.8246,110.3749 71.3636,111.0269 70.8626,111.6589 C68.8676,114.1859 66.7016,116.7829 64.4896,119.3409 C62.2746,121.8829 60.0596,124.4249 57.9836,126.8089 C55.9036,129.1809 54.0056,131.4249 52.4396,133.3899 C50.8726,135.3529 49.6666,137.0629 48.9696,138.3449 C48.2496,139.6189 48.1306,140.4789 48.1306,140.4789 C48.1306,140.4789 48.1016,140.2669 48.1286,139.8619 C48.1616,139.4599 48.2476,138.8629 48.4736,138.1379 C48.9096,136.6809 49.8276,134.7119 51.1346,132.4949 C52.4376,130.2739 54.1326,127.8069 56.0266,125.2359 C56.9846,123.9589 58.0006,122.6629 59.0336,121.3479 C60.0606,120.0279 61.1496,118.7279 62.2256,117.4209 C64.3836,114.8139 66.6376,112.2859 68.6106,109.8639 C69.0986,109.2569 69.5926,108.6759 70.0326,108.0969 C70.2566,107.8019 70.4426,107.5509 70.6436,107.2529 C70.8496,106.9479 71.0526,106.6459 71.2536,106.3489 C72.0416,105.1409 72.8656,104.0219 73.6006,102.9749 C75.1136,100.9059 76.5156,99.2579 77.6036,98.2029 C78.1446,97.6749 78.6026,97.2809 78.9226,97.0369 C79.2486,96.7989 79.4216,96.6719 79.4216,96.6719" id="Fill-36" fill="#1A1918"></path>
                <path d="M130.9632,94.6052 C130.9632,94.6052 131.6772,94.6702 132.9142,94.8932 C134.1462,95.1192 135.9182,95.4912 137.9622,96.2992 C138.9832,96.6992 140.0762,97.2012 141.1652,97.8482 C142.2602,98.4742 143.4092,99.2832 144.4302,100.1882 C145.4662,101.0952 146.4992,102.0442 147.4652,103.0432 C147.9582,103.5392 148.4562,104.0382 148.9552,104.5402 C149.4352,105.0192 149.9622,105.5972 150.4572,106.1762 C151.4012,107.3292 152.2562,108.5452 152.9902,109.7942 C153.7402,111.0342 154.3462,112.3172 154.9122,113.5542 C156.0252,116.0392 156.8012,118.4332 157.3822,120.4932 C157.6802,121.5162 157.9182,122.4112 158.2452,123.1512 C158.5742,123.8872 158.9652,124.4762 159.3692,124.9122 C159.7742,125.3472 160.1462,125.6592 160.4172,125.8472 C160.6952,126.0332 160.8432,126.1322 160.8432,126.1322 C160.8432,126.1322 160.6652,126.1032 160.3412,126.0012 C160.0202,125.8952 159.5382,125.7262 158.9882,125.3712 C158.4372,125.0242 157.7972,124.4882 157.2572,123.7332 C156.7022,122.9882 156.2242,122.0662 155.7742,121.1062 C155.3112,120.1602 154.8102,119.1352 154.2802,118.0512 C153.7462,116.9762 153.1502,115.8662 152.5462,114.7252 C151.9362,113.5852 151.2352,112.4572 150.5192,111.3302 C149.7882,110.2112 149.0052,109.1132 148.1462,108.0872 C147.7342,107.5822 147.3232,107.1002 146.8192,106.5712 C146.3372,106.0622 145.8572,105.5552 145.3812,105.0522 C144.4162,104.0462 143.5462,103.0222 142.6362,102.1272 C141.7182,101.2232 140.8602,100.4242 139.9232,99.7172 C138.9892,99.0162 138.0742,98.3902 137.1962,97.8462 C135.4312,96.7812 133.8462,96.0042 132.7282,95.4622 C131.6052,94.9172 130.9632,94.6052 130.9632,94.6052" id="Fill-38" fill="#1A1918"></path>
                <path d="M50.625,48.235 C48.635,48.235 47.874,48.255 47.874,46.266 C47.874,44.276 47.891,44.359 49.881,44.359 C51.871,44.359 53.625,42.745 53.625,44.735 C53.625,46.725 52.615,48.235 50.625,48.235 M43.022,48.707 C42.07,48.707 41.298,47.936 41.298,46.984 C41.298,46.032 42.585,44.526 43.537,44.526 C44.488,44.526 46.504,45.964 46.504,46.916 C46.504,47.868 43.973,48.707 43.022,48.707 M57,43.61 C55.665,42.608 55.333,42.277 51.76,40.885 C48.461,39.6 39.827,44.127 39.827,44.127 C39.827,44.127 37.975,44.986 36.639,46.655 C35.304,48.325 35.112,53.763 38.618,56.768 C42.123,59.773 51.427,58.748 55.934,57.579 C60.441,56.411 59.384,52.756 60.719,49.751 C62.055,46.746 58.336,44.612 57,43.61" id="Fill-40" fill="#000105"></path>
                <path d="M50.625,48.235 C48.635,48.235 47.874,48.255 47.874,46.266 C47.874,44.276 47.891,44.359 49.881,44.359 C51.871,44.359 53.625,42.745 53.625,44.735 C53.625,46.725 52.615,48.235 50.625,48.235 Z M43.022,48.707 C42.07,48.707 41.298,47.936 41.298,46.984 C41.298,46.032 42.585,44.526 43.537,44.526 C44.488,44.526 46.504,45.964 46.504,46.916 C46.504,47.868 43.973,48.707 43.022,48.707 Z M57,43.61 C55.665,42.608 55.333,42.277 51.76,40.885 C48.461,39.6 39.827,44.127 39.827,44.127 C39.827,44.127 37.975,44.986 36.639,46.655 C35.304,48.325 35.112,53.763 38.618,56.768 C42.123,59.773 51.427,58.748 55.934,57.579 C60.441,56.411 59.384,52.756 60.719,49.751 C62.055,46.746 58.336,44.612 57,43.61 Z" id="Stroke-42" stroke="#1A1918" stroke-width="0.803" stroke-linecap="round" stroke-linejoin="round"></path>
                <path d="M172.168,40.9465 C170.289,40.9465 168.766,40.1445 168.766,39.1565 C168.766,38.1675 170.289,37.3655 172.168,37.3655 C174.047,37.3655 175.57,38.1675 175.57,39.1565 C175.57,40.1445 174.047,40.9465 172.168,40.9465 M165.288,45.4355 C163.607,45.4355 160.241,44.0745 160.241,42.4925 C160.241,40.9105 163.325,38.7975 165.006,38.7975 C166.687,38.7975 168.05,40.0805 168.05,41.6625 C168.05,43.2445 166.969,45.4355 165.288,45.4355 M173.685,35.4955 C170.679,35.4955 154.743,42.6895 154.743,42.6895 C154.743,45.3615 155.745,48.3675 159.085,50.3715 C162.425,52.3755 171.789,50.2295 176.131,49.5615 C180.473,48.8935 180.127,47.6995 180.796,44.3595 C181.464,41.0195 176.691,35.4955 173.685,35.4955" id="Fill-44" fill="#000105"></path>
                <path d="M172.168,40.9465 C170.289,40.9465 168.766,40.1445 168.766,39.1565 C168.766,38.1675 170.289,37.3655 172.168,37.3655 C174.047,37.3655 175.57,38.1675 175.57,39.1565 C175.57,40.1445 174.047,40.9465 172.168,40.9465 Z M165.288,45.4355 C163.607,45.4355 160.241,44.0745 160.241,42.4925 C160.241,40.9105 163.325,38.7975 165.006,38.7975 C166.687,38.7975 168.05,40.0805 168.05,41.6625 C168.05,43.2445 166.969,45.4355 165.288,45.4355 Z M173.685,35.4955 C170.679,35.4955 154.743,42.6895 154.743,42.6895 C154.743,45.3615 155.745,48.3675 159.085,50.3715 C162.425,52.3755 171.789,50.2295 176.131,49.5615 C180.473,48.8935 180.127,47.6995 180.796,44.3595 C181.464,41.0195 176.691,35.4955 173.685,35.4955 Z" id="Stroke-46" stroke="#1A1918" stroke-width="0.929" stroke-linecap="round" stroke-linejoin="round"></path>
                <path d="M143.028,46.5278 C143.028,46.5278 143.964,46.0948 145.603,45.3378 C147.241,44.5758 149.607,43.5458 152.446,42.3098 C155.286,41.0748 158.612,39.6578 162.208,38.2188 C165.794,36.7538 169.66,35.2968 173.534,33.8568 C175.467,33.1198 177.4,32.3828 179.302,31.6568 C181.201,30.9148 183.085,30.2298 184.933,29.6448 C186.788,29.0858 188.599,28.6048 190.337,28.2198 C192.06,27.8138 193.761,27.4988 195.349,27.2778 C196.936,27.0418 198.438,26.9638 199.766,26.9708 C201.097,26.9908 202.256,27.1108 203.195,27.2948 C204.134,27.4768 204.85,27.6908 205.328,27.8618 C205.801,28.0438 206.053,28.1418 206.053,28.1418 C206.184,28.1928 206.25,28.3408 206.199,28.4728 C206.164,28.5628 206.084,28.6218 205.995,28.6338 L205.979,28.6358 C205.979,28.6358 205.721,28.6718 205.235,28.7368 C204.755,28.8048 204.058,28.9158 203.196,29.0878 C202.334,29.2698 201.306,29.5208 200.15,29.8688 C198.99,30.2048 197.709,30.6578 196.299,31.1638 C194.876,31.6948 193.334,32.2698 191.703,32.8778 C190.046,33.4868 188.282,34.0728 186.444,34.6298 C182.757,35.7128 178.718,36.5328 174.769,37.6618 C170.821,38.7968 166.872,39.9308 163.17,40.9948 C159.47,42.0878 156.017,43.1078 153.058,43.9818 C147.147,45.7898 143.206,46.9948 143.206,46.9948 C143.074,47.0358 142.934,46.9608 142.893,46.8288 C142.856,46.7078 142.916,46.5798 143.028,46.5278" id="Fill-48" fill="#1A1918"></path>
                <path d="M150.0511,51.0825 L150.8311,50.7985 L151.6711,50.5245 C152.2241,50.3615 152.7811,50.2175 153.3401,50.0925 C154.4591,49.8485 155.5921,49.6925 156.7231,49.6245 C158.9861,49.4885 161.2481,49.7015 163.3991,50.2555 L163.4101,50.2585 C163.4491,50.2685 163.4731,50.3095 163.4631,50.3485 L163.4561,50.3655 L162.9141,51.3515 L163.3141,50.3005 L163.3711,50.4095 C161.1801,50.1605 158.9761,50.2665 156.8611,50.6935 C155.8031,50.9075 154.7681,51.2015 153.7671,51.5705 C153.2681,51.7585 152.7771,51.9625 152.2941,52.1805 L151.5971,52.5205 L150.8651,52.9095 C150.3761,53.1695 149.7691,52.9835 149.5091,52.4945 C149.2491,52.0055 149.4351,51.3985 149.9241,51.1395 C149.9641,51.1175 150.0101,51.0975 150.0511,51.0825" id="Fill-50" fill="#1A1918"></path>
                <path d="M152.5318,57.4434 C152.5318,57.4434 152.7298,57.3054 153.1008,57.0484 C153.4768,56.7964 154.0058,56.3954 154.7228,55.9504 C155.4338,55.4954 156.3048,54.9364 157.3278,54.3574 C157.8348,54.0554 158.3818,53.7484 158.9608,53.4284 C159.5408,53.1084 160.2178,52.9384 160.8798,52.6554 C166.2438,50.5264 173.5808,48.2644 180.9428,46.2484 C182.7898,45.7414 184.6018,45.2264 186.4518,44.7454 C188.2998,44.2754 190.1998,43.8924 192.1158,43.8664 C194.0308,43.8204 195.9388,44.2344 197.5408,44.9684 C199.1348,45.6804 200.4698,46.5414 201.6838,47.2674 C201.9878,47.4494 202.2808,47.6294 202.5758,47.7844 C202.8718,47.9264 203.1528,48.0934 203.4138,48.2784 C203.9118,48.6284 204.4238,48.9524 204.9068,49.2164 C205.8788,49.7494 206.7838,50.1084 207.5668,50.2954 C208.3468,50.4854 208.9968,50.5324 209.4398,50.5154 C209.8848,50.5044 210.1258,50.4684 210.1258,50.4684 C210.1258,50.4684 209.9098,50.5714 209.4748,50.7154 C209.0418,50.8584 208.3708,51.0354 207.4908,51.0484 C206.6128,51.0754 205.5298,50.9614 204.3438,50.6314 C203.7458,50.4704 203.1378,50.2654 202.4828,50.0094 C202.1678,49.8914 201.8638,49.7334 201.5678,49.5324 C201.2698,49.3524 200.9648,49.1684 200.6528,48.9814 C199.4168,48.2394 198.1338,47.4224 196.7328,46.7974 C195.3518,46.1704 193.8058,45.8304 192.1428,45.8654 C190.4788,45.8864 188.7278,46.2284 186.9448,46.6844 C185.1618,47.1474 183.3068,47.6734 181.4768,48.1754 C174.1328,50.1864 166.8798,52.4254 161.6078,54.5184 C160.9338,54.7444 160.3418,55.0904 159.7188,55.2704 C159.0908,55.4414 158.4958,55.6084 157.9418,55.7784 C156.8278,56.1154 155.8578,56.4094 155.0588,56.6504 C153.4508,57.1554 152.5318,57.4434 152.5318,57.4434" id="Fill-52" fill="#1A1918"></path>
                <path d="M186.4036,33.1373 C186.4036,33.1373 186.4616,33.1473 186.5696,33.1673 C186.6796,33.1883 186.8216,33.2083 187.0786,33.2713 C187.5676,33.3823 188.1826,33.5753 188.8876,33.9393 C189.5856,34.2973 190.3396,34.8193 191.0066,35.5153 C191.6756,36.2003 192.2486,37.0813 192.6106,38.0033 C192.9686,38.9083 193.2166,39.7743 193.7066,40.4173 C194.1906,41.0623 194.8966,41.4913 195.4956,41.8393 C196.7196,42.5303 197.5366,42.9913 197.5366,42.9913 C197.5366,42.9913 196.6646,42.6423 195.3576,42.1203 C194.7106,41.8473 193.9136,41.5173 193.2296,40.8333 C192.5486,40.1453 192.1496,39.2133 191.7086,38.4353 C190.8646,36.8793 189.3786,35.8763 188.2056,35.4823 C187.6266,35.2733 187.0956,35.1883 186.7786,35.1613 C186.6346,35.1423 186.4546,35.1373 186.3476,35.1323 C186.2376,35.1273 186.1796,35.1243 186.1796,35.1243 C185.6266,35.0993 185.1986,34.6313 185.2236,34.0783 C185.2486,33.5253 185.7176,33.0973 186.2706,33.1223 C186.3136,33.1243 186.3616,33.1303 186.4036,33.1373" id="Fill-54" fill="#1A1918"></path>
                <path d="M25.7758,58.2751 C25.7758,58.2751 26.6628,58.2361 28.2168,58.1671 C28.9768,58.1281 29.9008,58.0811 30.9598,58.0271 C31.4848,57.9881 32.0438,57.9471 32.6328,57.9031 C33.2168,57.8621 33.8068,58.0591 34.4418,58.0781 C35.7038,58.1861 37.0748,58.2671 38.5258,58.2981 C39.9778,58.3291 41.5088,58.3151 43.0908,58.2391 C46.2538,58.0831 49.6198,57.6911 52.9258,57.0001 C56.2338,56.3291 59.5848,55.3331 62.9638,54.8921 C64.6458,54.6681 66.3288,54.5831 67.9438,54.7161 C69.5468,54.8381 71.1158,55.2211 72.4088,55.7191 C72.7418,55.8521 73.0668,55.9821 73.3848,56.1091 C73.6988,56.2161 73.9938,56.3531 74.2368,56.5541 C74.7418,56.9301 75.1948,57.2941 75.6138,57.6321 C76.4548,58.3021 77.1518,58.8991 77.7538,59.3581 C78.9488,60.2851 79.7338,60.7231 79.7338,60.7231 C79.7338,60.7231 79.5108,60.7071 79.0928,60.6781 C78.6778,60.6301 78.0498,60.5711 77.2798,60.3891 C76.5058,60.2191 75.5748,59.9661 74.5518,59.6531 C74.0388,59.5021 73.4998,59.3431 72.9418,59.2021 C72.6578,59.1391 72.4008,59.0261 72.1508,58.8731 C71.8948,58.7411 71.6198,58.6291 71.3688,58.5331 C70.2438,58.1041 69.0558,57.8161 67.6958,57.7061 C66.3478,57.5941 64.8848,57.6631 63.3568,57.8661 C60.2968,58.2581 56.9918,59.2291 53.5288,59.9391 C50.0668,60.6611 46.5448,61.0731 43.2358,61.2361 C41.5798,61.3151 39.9778,61.3301 38.4588,61.2971 C36.9408,61.2641 35.5058,61.1801 34.1858,61.0671 C33.8558,61.0351 33.5328,61.0021 33.2148,60.9921 C32.8958,60.9921 32.5858,60.9741 32.2938,60.8711 C31.7098,60.6801 31.1568,60.4981 30.6378,60.3271 C29.6058,59.9781 28.7188,59.6231 27.9958,59.3121 C27.2688,59.0261 26.7318,58.7321 26.3508,58.5601 C25.9758,58.3741 25.7758,58.2751 25.7758,58.2751" id="Fill-56" fill="#1A1918"></path>
                <path d="M52.0793,86.1555 C52.0793,86.1555 52.5773,85.9485 53.3393,85.4685 C54.1073,84.9825 55.1383,84.1975 56.2363,83.0835 C57.3343,81.9805 58.5453,80.5645 59.9223,79.1185 C61.2833,77.6505 62.7833,76.1415 64.2983,74.6405 C65.0503,73.8825 65.8013,73.1245 66.5413,72.3785 C67.2763,71.6255 68.0193,70.9045 68.7723,70.2475 C69.5363,69.6015 70.2943,69.0015 71.0513,68.4785 C71.7983,67.9445 72.5203,67.4595 73.2073,67.0385 C75.9263,65.3185 78.0243,64.5665 78.0243,64.5665 C78.1063,64.5375 78.1963,64.5805 78.2253,64.6625 C78.2433,64.7105 78.2333,64.7645 78.2073,64.8045 C78.2073,64.8045 77.8963,65.2685 77.2973,66.0035 C76.7063,66.7495 75.8173,67.7515 74.7173,68.9035 C74.1673,69.4805 73.5613,70.0895 72.9033,70.7135 C72.2603,71.3555 71.5463,71.9865 70.7973,72.6275 C70.0373,73.2575 69.2253,73.8755 68.3903,74.4945 C67.5553,75.1135 66.7313,75.7725 65.9023,76.4255 C64.2663,77.7565 62.6563,79.1255 61.1383,80.3935 C59.6243,81.6705 58.2333,82.8995 56.9383,83.8885 C55.6493,84.8745 54.4663,85.5735 53.5873,85.9375 C53.1533,86.1245 52.7893,86.2515 52.5543,86.3245 C52.3153,86.3965 52.1883,86.4345 52.1883,86.4345 L52.1803,86.4375 C52.1013,86.4615 52.0173,86.4165 51.9933,86.3375 C51.9713,86.2635 52.0093,86.1845 52.0793,86.1555" id="Fill-58" fill="#1A1918"></path>
                <path d="M88.0818,56.1964 C89.2538,56.8984 90.1508,58.0634 90.6768,59.3854 C90.9438,60.0484 91.1128,60.7564 91.1738,61.4814 C91.2518,62.1924 91.2038,62.9454 91.0878,63.6334 C90.9748,64.3344 90.7898,65.0034 90.5588,65.6524 C90.4568,65.9494 90.3188,66.3024 90.1808,66.6034 C90.0388,66.9144 89.8938,67.2234 89.7368,67.5264 C89.5888,67.8324 89.4018,68.1204 89.2228,68.4094 C89.0368,68.6954 88.8618,68.9854 88.6488,69.2514 C88.2418,69.7964 87.7898,70.3044 87.2968,70.7684 L87.2048,70.8554 C87.0948,70.9584 86.9228,70.9534 86.8198,70.8434 C86.7508,70.7704 86.7308,70.6694 86.7568,70.5794 C86.8658,70.2094 86.9868,69.8394 87.1268,69.4714 C87.2168,69.8544 87.2888,70.2374 87.3488,70.6184 L86.8088,70.4304 C87.0538,69.8194 87.2948,69.2224 87.5178,68.6254 C87.7458,68.0304 87.9558,67.4364 88.1528,66.8424 C88.2578,66.5484 88.3508,66.2504 88.4408,65.9524 L88.7008,65.0544 C88.8678,64.4634 89.0188,63.8694 89.1318,63.2864 C89.2428,62.6914 89.3158,62.1384 89.3438,61.5464 C89.3628,60.9684 89.3158,60.3814 89.2398,59.7874 C89.1408,59.1994 89.0138,58.5994 88.8168,58.0034 C88.6238,57.4014 88.3738,56.8194 88.0818,56.1964" id="Fill-60" fill="#1A1918"></path>
                <path d="M75.843,34.3167 C76.464,34.2697 77.125,34.3387 77.748,34.4827 C78.376,34.6297 78.991,34.8417 79.574,35.1127 C80.171,35.3797 80.702,35.6747 81.276,36.0377 C81.795,36.3787 82.287,36.6927 82.798,37.0957 C83.832,37.8807 84.749,38.7417 85.567,39.7107 C86.388,40.6717 87.1,41.7137 87.79,42.7577 C88.463,43.8147 89.106,44.8847 89.666,45.9967 C90.242,47.0987 90.747,48.2337 91.215,49.3787 C92.14,51.6747 92.815,54.0547 93.347,56.4477 L92.923,56.5257 L92.832,54.4877 C92.83,54.4327 92.873,54.3857 92.928,54.3837 C92.979,54.3807 93.024,54.4177 93.031,54.4677 L93.354,56.4817 C93.372,56.5987 93.293,56.7097 93.175,56.7277 C93.07,56.7447 92.97,56.6817 92.938,56.5837 L92.93,56.5597 C92.545,55.4057 92.147,54.2587 91.681,53.1397 C91.233,52.0147 90.715,50.9207 90.195,49.8347 C89.655,48.7577 89.083,47.6997 88.449,46.6827 C87.826,45.6587 87.143,44.6767 86.412,43.7377 C86.052,43.2647 85.658,42.8187 85.274,42.3677 C84.861,41.9417 84.478,41.4917 84.056,41.0797 C83.643,40.6587 83.24,40.2307 82.816,39.8247 C82.409,39.3927 81.983,39.0117 81.574,38.6017 C81.175,38.1897 80.665,37.8027 80.232,37.3797 C79.824,37.0197 79.344,36.6277 78.889,36.2767 C77.956,35.5677 76.965,34.9577 75.81,34.5137 C75.757,34.4937 75.731,34.4347 75.751,34.3817 C75.766,34.3437 75.805,34.3197 75.843,34.3167" id="Fill-62" fill="#1A1918"></path>
                <path d="M88.689,30.0586 C90.36,31.1636 91.825,32.4396 93.228,33.7656 C93.923,34.4346 94.603,35.1166 95.256,35.8196 C95.589,36.1786 95.899,36.5036 96.236,36.9026 C96.555,37.2676 96.871,37.6456 97.175,38.0436 C97.793,38.8366 98.376,39.6816 98.858,40.6656 C99.059,41.0586 99.306,41.6446 99.466,42.1096 C99.641,42.6006 99.782,43.0996 99.898,43.5966 C100.367,45.5946 100.422,47.5746 100.303,49.5356 L99.522,49.5746 C99.669,49.1046 99.825,48.6346 100.014,48.1676 C100.137,48.6566 100.227,49.1426 100.308,49.6286 C100.342,49.8316 100.204,50.0236 100.001,50.0566 C99.828,50.0856 99.663,49.9896 99.597,49.8346 L99.527,49.6676 C98.76,47.8536 98.164,46.0416 97.451,44.3876 C97.28,43.9706 97.082,43.5726 96.896,43.1766 C96.682,42.7586 96.531,42.4716 96.274,42.0236 C95.856,41.3126 95.337,40.5806 94.8,39.8466 L93.116,37.5896 C92.548,36.8156 92.006,36.0206 91.479,35.2126 C90.439,33.5856 89.461,31.9076 88.689,30.0586" id="Fill-64" fill="#1A1918"></path>
                <path d="M95.2451,0.7698 C95.2491,0.7748 95.3191,0.7378 95.4921,0.7318 C95.6541,0.7298 95.9281,0.7778 96.1921,0.9748 C96.4591,1.1618 96.7331,1.4498 96.9701,1.8138 C97.2001,2.1738 97.4511,2.5358 97.6971,2.9828 C98.2131,3.8718 98.7191,4.9408 99.1631,6.1338 C99.3751,6.7328 99.5981,7.3528 99.7681,7.9988 C99.9431,8.6438 100.0961,9.3068 100.2191,9.9748 C100.3391,10.6428 100.4381,11.3158 100.4951,11.9818 C100.5721,12.6458 100.5711,13.3058 100.5921,13.9408 C100.6051,15.2118 100.4941,16.3968 100.3351,17.3978 C100.2501,17.8988 100.1691,18.3548 100.0631,18.7548 C99.9751,19.1418 99.8591,19.5298 99.8001,19.7538 C99.7651,19.9808 99.8181,20.0958 99.9561,19.9928 C100.0811,19.9038 99.9721,19.8198 99.9741,19.8308 C99.9741,19.8308 99.9961,19.8268 100.0351,19.8548 C100.0761,19.8848 100.0871,19.9768 100.0431,20.0588 C100.0071,20.1258 99.9031,20.2808 99.6871,20.2008 C99.5261,20.1368 99.4271,19.9378 99.4021,19.7698 C99.3571,19.4178 99.3271,19.1088 99.3001,18.6948 C99.2671,18.2958 99.2291,17.8468 99.1881,17.3558 C99.1401,16.8708 99.0871,16.3448 99.0321,15.7878 C98.9691,15.2368 98.9031,14.6558 98.8351,14.0548 C98.7491,13.4588 98.6591,12.8438 98.5691,12.2178 C98.4721,11.5948 98.3761,10.9618 98.2521,10.3338 C98.1471,9.7018 98.0091,9.0768 97.8861,8.4578 C97.7481,7.8428 97.6321,7.2308 97.4831,6.6458 C97.3241,6.0658 97.2091,5.4898 97.0571,4.9548 C96.9121,4.4178 96.7761,3.9098 96.6501,3.4418 C96.5141,2.9758 96.3791,2.5168 96.2831,2.1418 C96.1741,1.7808 96.0591,1.4738 95.9141,1.2558 C95.7701,1.0388 95.6091,0.8988 95.4711,0.8378 C95.3371,0.7778 95.2411,0.7738 95.2451,0.7698" id="Fill-66" fill="#1A1918"></path>
                <path d="M123.7431,1.8898 C123.2641,2.0648 122.9361,2.3708 122.6801,2.7178 C122.4311,3.0748 122.2221,3.4518 122.0541,3.8718 L120.9741,6.4598 C120.6201,7.3158 120.2951,8.1758 119.9751,9.0308 L119.5181,10.3088 C119.3611,10.7798 119.2331,11.1508 119.1031,11.5858 C118.8561,12.4218 118.6641,13.2388 118.5801,14.0338 C118.5451,14.4308 118.5171,14.8228 118.5391,15.2098 L118.5481,15.3548 L118.5491,15.3918 C118.5471,15.3808 118.5561,15.4418 118.5431,15.3718 L118.5461,15.3938 L118.5551,15.4838 L118.5931,15.8278 C118.6131,15.9968 118.6441,16.1818 118.6871,16.3898 C119.0091,18.0028 119.8601,19.7138 120.5951,21.5378 L120.6471,21.6688 C120.6941,21.7858 120.6371,21.9198 120.5201,21.9668 C120.4921,21.9778 120.4631,21.9828 120.4351,21.9828 C120.1001,21.9838 119.7621,21.9688 119.4211,21.9458 C119.7101,21.7628 120.0001,21.5898 120.2951,21.4308 L120.1351,21.8758 C119.3671,21.2538 118.6451,20.5838 117.9791,19.8188 C117.3211,19.0528 116.7271,18.1778 116.2951,17.1638 C116.1901,16.9178 116.0961,16.6418 116.0071,16.3458 L115.9061,15.9868 L115.8811,15.9008 L115.8751,15.8788 L115.8631,15.8148 L115.8531,15.7618 L115.8141,15.5518 C115.7181,14.9918 115.6651,14.4248 115.6851,13.8688 C115.7101,12.7548 115.9331,11.6908 116.2491,10.7028 C116.4021,10.2258 116.5931,9.6958 116.7791,9.2758 C116.9811,8.7948 117.1841,8.3528 117.4161,7.9048 C117.8641,7.0098 118.3941,6.1588 118.9651,5.3438 C119.2611,4.9418 119.5591,4.5438 119.8831,4.1648 C120.2071,3.7728 120.5291,3.4258 120.8971,3.0568 C121.2781,2.6978 121.6851,2.3298 122.1871,2.0928 C122.6731,1.8458 123.2601,1.7378 123.7431,1.8898" id="Fill-68" fill="#1A1918"></path>
                <path d="M127.3013,30.5157 C127.3293,30.4427 127.2993,30.4647 127.3053,30.5017 C127.3143,30.5357 127.3143,30.5317 127.2923,30.5317 C127.2443,30.5307 127.1663,30.5427 127.1003,30.5677 C126.9373,30.6317 126.9393,30.6737 126.7913,30.8617 L126.0693,31.7847 C125.5943,32.4027 125.1303,33.0287 124.6793,33.6607 C123.7673,34.9177 122.8933,36.1917 122.0423,37.4717 C121.8323,37.7907 121.6303,38.1077 121.4263,38.4447 C121.2403,38.7617 121.0653,39.0927 120.9003,39.4247 C120.5773,40.0907 120.2923,40.7447 119.9733,41.3497 C119.6563,41.9567 119.3353,42.5397 119.0553,43.1477 C118.7753,43.7567 118.5223,44.3887 118.3403,45.1127 L118.2203,45.5887 C118.1353,45.9287 117.7913,46.1347 117.4513,46.0487 C117.1363,45.9697 116.9363,45.6627 116.9783,45.3477 C117.0403,44.9007 117.0953,44.4557 117.2263,43.9927 C117.2513,43.9017 117.3463,43.8487 117.4363,43.8747 C117.4693,43.8837 117.4973,43.9017 117.5183,43.9257 C117.8363,44.2867 118.0783,44.6647 118.3273,45.0417 L116.9663,45.2767 C116.7973,44.8617 116.6493,44.4197 116.5843,43.9657 C116.5103,43.5117 116.4833,43.0457 116.5173,42.5897 C116.5433,42.1317 116.6163,41.6777 116.7293,41.2447 C116.8383,40.8077 116.9843,40.3857 117.1713,39.9907 C117.5333,39.1917 118.0543,38.5047 118.6023,37.8767 L120.2323,36.0577 C121.3023,34.8777 122.4393,33.7617 123.6213,32.7037 C124.2163,32.1787 124.8213,31.6667 125.4333,31.1657 L126.3583,30.4257 C126.4453,30.3657 126.4893,30.3157 126.6423,30.2227 C126.7723,30.1537 126.8973,30.1277 127.0223,30.1177 C127.1473,30.1107 127.2693,30.1177 127.4093,30.1717 C127.4773,30.2047 127.5713,30.2497 127.6203,30.3767 C127.6653,30.5087 127.5873,30.6287 127.5743,30.6407 L127.5303,30.6777 C127.4703,30.7297 127.3783,30.7227 127.3263,30.6627 C127.2903,30.6207 127.2833,30.5637 127.3013,30.5157" id="Fill-70" fill="#1A1918"></path>
                <path d="M132.4358,41.5897 C132.4358,41.5897 132.5458,41.8107 132.7508,42.2267 C132.9458,42.6637 133.2078,43.3127 133.4288,44.1797 C133.6548,45.0467 133.8248,46.1367 133.8398,47.4137 C133.8398,48.6847 133.6868,50.1507 133.2078,51.6917 C133.0878,52.0627 132.9358,52.4937 132.8088,52.8287 C132.6548,53.2007 132.4978,53.5807 132.3388,53.9667 C132.0088,54.6917 131.6788,55.3977 131.4298,56.0767 C131.1808,56.7607 131.0078,57.3987 130.9528,57.9797 C130.9488,58.1227 130.9338,58.2667 130.9458,58.4047 L130.9468,58.5087 L130.9458,58.5347 L130.9458,58.5477 C130.9358,58.3567 130.9438,58.5067 130.9418,58.4687 L130.9488,58.5517 L130.9748,58.8827 C131.0038,59.0657 131.0088,59.0687 131.0428,59.2197 C131.0788,59.3557 131.1128,59.4937 131.1708,59.6307 C131.5388,60.7407 132.5108,61.9467 133.7918,62.8507 C135.1118,63.7817 136.7688,64.3727 138.5978,64.9797 C140.4258,65.5457 142.3738,66.1987 144.1688,67.0697 C145.9588,67.9117 147.6078,68.9017 149.1548,69.8947 C150.7028,70.8977 152.1358,71.8867 153.5088,72.8627 C154.8538,73.8337 156.1248,74.7517 157.2978,75.5997 C161.9998,78.9777 165.1028,81.2777 165.1028,81.2777 C165.1918,81.3427 165.2108,81.4687 165.1448,81.5577 C165.0838,81.6397 164.9708,81.6607 164.8838,81.6117 C164.8838,81.6117 161.5188,79.7117 156.5168,76.7907 C155.2648,76.0637 153.9078,75.2757 152.4728,74.4427 C151.0508,73.6397 149.5358,72.7497 147.9658,71.9227 C146.3938,71.0917 144.7488,70.3047 143.0558,69.6357 C141.3768,68.9637 139.6218,68.5037 137.7298,68.0597 C136.7808,67.8377 135.8048,67.5987 134.8148,67.2847 C134.3118,67.1217 133.8418,66.9607 133.3088,66.7397 C132.8328,66.5497 132.3348,66.3257 131.8378,66.0477 C129.8988,64.9847 128.1218,63.3557 127.2498,61.0427 C127.1428,60.7587 127.0638,60.4607 126.9918,60.1617 C126.9218,59.8777 126.8608,59.4377 126.8358,59.1807 L126.8138,58.8497 L126.8078,58.7667 L126.8028,58.6187 L126.8028,58.5627 L126.8098,58.3367 C126.8148,58.0337 126.8558,57.7437 126.8928,57.4537 C127.0728,56.3077 127.4648,55.3207 127.8978,54.4977 C128.3248,53.6637 128.7698,52.9537 129.1648,52.2987 C129.3598,51.9907 129.5508,51.6877 129.7388,51.3907 C129.9408,51.0487 130.0778,50.8007 130.2368,50.5047 C130.8228,49.3537 131.2498,48.2107 131.5168,47.1487 C131.7888,46.0897 131.9278,45.1197 132.0008,44.3077 C132.0698,43.4947 132.0658,42.8417 132.0708,42.3957 C132.0558,41.9347 132.0478,41.6887 132.0478,41.6887 C132.0438,41.5757 132.1318,41.4807 132.2448,41.4757 C132.3268,41.4727 132.4008,41.5207 132.4358,41.5897" id="Fill-72" fill="#1A1918"></path>
                <path d="M5.0683,18.5349 C5.0683,18.5349 14.2733,14.0639 28.2133,13.8009 C42.1523,13.5379 67.1383,25.8989 72.1353,24.5839 C77.1323,23.2689 90.2823,21.1649 94.7533,20.1129 C99.2243,19.0609 102.3813,18.7979 98.9613,21.6909 C95.5423,24.5839 87.8433,32.7569 82.3203,32.7569 C76.7973,32.7569 63.7193,30.3699 59.7733,27.2139 C55.8283,24.0579 40.0483,18.0089 31.6323,17.7459 C23.2153,17.4829 14.0103,19.8499 5.8573,23.0059 C-2.2957,26.1619 0.3343,23.2689 5.0683,18.5349" id="Fill-74" fill="#000105"></path>
                <path d="M5.0683,18.5349 C5.0683,18.5349 14.2733,14.0639 28.2133,13.8009 C42.1523,13.5379 67.1383,25.8989 72.1353,24.5839 C77.1323,23.2689 90.2823,21.1649 94.7533,20.1129 C99.2243,19.0609 102.3813,18.7979 98.9613,21.6909 C95.5423,24.5839 87.8433,32.7569 82.3203,32.7569 C76.7973,32.7569 63.7193,30.3699 59.7733,27.2139 C55.8283,24.0579 40.0483,18.0089 31.6323,17.7459 C23.2153,17.4829 14.0103,19.8499 5.8573,23.0059 C-2.2957,26.1619 0.3343,23.2689 5.0683,18.5349 Z" id="Stroke-76" stroke="#1A1918" stroke-linecap="round"></path>
                <path d="M124.5627,21.9243 C124.5627,21.9243 132.9957,23.2733 141.4297,20.9123 C149.1617,18.7473 162.6097,13.9763 168.6587,11.3463 C174.7077,8.7163 196.5377,2.6673 202.5867,4.5083 C208.6357,6.3493 214.4217,7.9273 207.3207,9.2423 C200.2197,10.5573 180.7567,10.8203 173.6557,14.2393 C166.5547,17.6583 158.7597,22.3243 153.2367,27.3213 C147.7137,32.3193 144.8627,37.5793 139.6027,36.5273 C134.3417,35.4753 127.0227,33.4153 128.6007,29.9963 C130.1787,26.5763 122.4587,24.2913 124.5627,21.9243" id="Fill-78" fill="#000105"></path>
                <path d="M124.5627,21.9243 C124.5627,21.9243 132.9957,23.2733 141.4297,20.9123 C149.1617,18.7473 162.6097,13.9763 168.6587,11.3463 C174.7077,8.7163 196.5377,2.6673 202.5867,4.5083 C208.6357,6.3493 214.4217,7.9273 207.3207,9.2423 C200.2197,10.5573 180.7567,10.8203 173.6557,14.2393 C166.5547,17.6583 158.7597,22.3243 153.2367,27.3213 C147.7137,32.3193 144.8627,37.5793 139.6027,36.5273 C134.3417,35.4753 127.0227,33.4153 128.6007,29.9963 C130.1787,26.5763 122.4587,24.2913 124.5627,21.9243 Z" id="Stroke-80" stroke="#1A1918" stroke-width="0.803" stroke-linecap="round" stroke-linejoin="round"></path>
                <path d="M17.9436,37.254 C17.9436,37.254 18.2106,37.282 18.7116,37.334 C19.2336,37.413 19.8766,37.425 20.7596,37.439 C21.6306,37.443 22.6736,37.399 23.8646,37.257 C25.0536,37.143 26.3936,36.922 27.8886,36.692 C29.3816,36.431 31.0356,36.174 32.8676,35.988 C33.7796,35.899 34.7476,35.835 35.7506,35.848 L35.9376,35.847 L36.1806,35.855 L36.5326,35.867 L37.2406,35.909 C37.7756,35.967 38.3156,36.026 38.8596,36.085 C40.9376,36.401 42.9886,36.98 45.0006,37.657 C47.0136,38.338 48.9986,39.106 50.9476,39.923 C54.8426,41.562 58.5686,43.445 61.9996,45.283 C65.4086,47.131 68.5886,48.855 71.3156,50.334 C74.0386,51.798 76.3496,52.922 77.9776,53.694 C79.6096,54.454 80.5656,54.839 80.5656,54.839 C80.6946,54.89 80.7566,55.036 80.7046,55.164 C80.6576,55.282 80.5256,55.343 80.4056,55.312 C80.4056,55.312 79.3986,55.052 77.6616,54.502 C75.9216,53.961 73.4816,53.054 70.5876,51.902 C67.6956,50.747 64.3456,49.353 60.7836,47.858 C57.2106,46.392 53.4146,44.837 49.5776,43.556 C47.6616,42.916 45.7286,42.362 43.8186,41.966 C41.9106,41.567 40.0356,41.315 38.2656,41.176 C37.8456,41.147 37.4296,41.118 37.0176,41.09 C36.5686,41.075 36.1246,41.059 35.6846,41.044 C34.8056,41.037 33.9446,41.03 33.1076,41.024 C31.3936,41.009 29.7006,41.031 28.0996,40.921 C26.5006,40.85 24.9956,40.657 23.6726,40.384 C22.3516,40.087 21.2136,39.732 20.3286,39.305 C19.8856,39.119 19.4906,38.909 19.1596,38.704 C18.8216,38.514 18.5596,38.351 18.3686,38.19 C17.9706,37.882 17.7576,37.718 17.7576,37.718 C17.6436,37.63 17.6236,37.467 17.7106,37.354 C17.7676,37.28 17.8576,37.245 17.9436,37.254" id="Fill-82" fill="#1A1918"></path>
                <path d="M19.9048,51.3498 C19.9048,51.3498 19.9988,51.0758 20.1888,50.6158 C20.2798,50.3848 20.4138,50.1118 20.5898,49.8048 C20.7548,49.4878 20.9618,49.1478 21.2138,48.7978 C21.4488,48.4308 21.7468,48.0698 22.0708,47.6898 C22.4068,47.3258 22.7518,46.9198 23.1688,46.5718 C23.5748,46.2078 24.0038,45.8398 24.4728,45.5098 C24.9428,45.1828 25.4298,44.8588 25.9448,44.5858 C26.9638,44.0178 28.0588,43.5918 29.1148,43.3168 C29.6338,43.1518 30.1598,43.0788 30.6488,42.9928 C31.1418,42.9208 31.6108,42.8798 32.0448,42.8678 C32.9058,42.8318 33.6418,42.9228 34.1158,42.9868 C34.3188,43.0108 34.5058,42.9918 34.5888,42.9218 C34.6788,42.8508 34.6648,42.7558 34.6678,42.7608 C34.6588,42.7598 34.7308,42.8228 34.6798,42.9818 C34.6188,43.1328 34.4368,43.2948 34.1608,43.3828 C33.9058,43.4628 33.6378,43.5608 33.3108,43.6508 C32.9888,43.7378 32.6348,43.8888 32.2468,43.9988 C31.4778,44.2738 30.5968,44.5848 29.6858,44.9828 C29.2208,45.1568 28.7728,45.4118 28.2968,45.6148 C27.8378,45.8558 27.3598,46.0738 26.9058,46.3398 C26.4348,46.5748 25.9938,46.8628 25.5458,47.1228 C25.1098,47.4018 24.6638,47.6568 24.2608,47.9478 C23.4408,48.5078 22.6888,49.0668 22.0518,49.5748 C21.4098,50.0858 20.8938,50.5148 20.5108,50.8468 C20.1348,51.1738 19.9048,51.3498 19.9048,51.3498" id="Fill-84" fill="#1A1918"></path>
                <path d="M66.395,37.3448 C66.395,37.3448 67.387,37.2008 68.825,37.2438 C69.545,37.2548 70.378,37.3118 71.261,37.4138 C72.145,37.5118 73.081,37.6508 74.009,37.8348 C74.471,37.9318 74.935,38.0258 75.387,38.1378 C75.854,38.2478 76.241,38.3528 76.783,38.5278 C77.045,38.6258 77.342,38.7478 77.6,38.9688 C77.653,39.0128 77.749,39.0988 77.771,39.1278 C77.841,39.1978 77.896,39.2608 77.94,39.3198 C78.033,39.4408 78.108,39.5598 78.17,39.6738 C78.414,40.1298 78.495,40.4618 78.623,40.8118 C79.098,42.1688 79.259,43.1588 79.259,43.1588 C79.259,43.1588 78.509,42.4928 77.617,41.3648 C77.393,41.0998 77.136,40.7388 76.936,40.5138 C76.709,40.2888 76.62,40.3038 76.287,40.2178 C75.973,40.1578 75.453,40.1238 75.01,40.0418 C74.549,39.9728 74.085,39.8828 73.62,39.7958 C72.692,39.6128 71.774,39.3838 70.919,39.1368 C70.064,38.8948 69.273,38.6298 68.602,38.3648 C67.257,37.8568 66.395,37.3448 66.395,37.3448" id="Fill-86" fill="#1A1918"></path>
                <path d="M54.6918,163.7299 C54.6918,163.7299 55.1268,163.4959 55.9608,163.1109 C56.7958,162.7349 58.0118,162.1489 59.5768,161.4729 C62.6988,160.0989 67.1818,158.2329 72.5608,156.0969 C75.2418,155.0399 78.1458,153.8949 81.2168,152.6839 C84.2608,151.4789 87.4988,150.2029 90.6048,148.8019 C91.3818,148.4529 92.1178,148.0729 92.8068,147.7159 C92.9808,147.6269 93.1168,147.5389 93.2738,147.4509 L93.5028,147.3209 L93.6618,147.2079 C93.7678,147.1369 93.9088,147.0459 93.8618,147.0539 C93.8628,147.0479 93.8658,147.0469 93.8718,147.0479 L94.3638,146.6369 C96.1148,145.1819 98.5758,144.8389 100.2208,145.1059 C101.9368,145.3429 103.1418,145.8909 104.2248,146.3969 C106.3468,147.4479 107.9988,148.5499 109.5108,149.4729 C110.2578,149.9269 110.9658,150.3239 111.5438,150.5819 C112.1048,150.8529 112.5618,150.8839 112.3108,150.8549 C112.2618,150.8609 112.1458,150.8629 112.0398,150.9059 C112.3638,150.8029 111.5708,151.0579 111.6738,151.0239 L111.7158,151.0079 L111.8008,150.9769 L111.9708,150.9149 L112.3108,150.7919 L112.4808,150.7299 C112.5498,150.7059 112.4888,150.7109 112.4988,150.7029 C112.4868,150.6919 112.4758,150.6869 112.4678,150.6869 C112.4588,150.6869 112.4528,150.6919 112.4508,150.7009 C112.4338,150.7249 112.5368,150.6369 112.5748,150.6129 C112.9698,150.3769 113.5648,149.8119 114.1518,149.2559 C115.3958,148.0349 116.7998,146.4839 118.8118,144.9829 C119.3488,144.6149 119.8428,144.2439 120.4798,143.9179 C120.7888,143.7539 121.0748,143.5819 121.4068,143.4369 L122.4328,143.0329 C123.1088,142.7679 123.9008,142.6509 124.6318,142.5039 C125.3848,142.4649 126.1688,142.3749 126.8888,142.4639 L127.9718,142.6009 L128.2408,142.6399 L128.3748,142.6609 L128.5538,142.6979 L128.5958,142.7089 L128.9318,142.7969 C129.3928,142.9229 129.7938,143.0129 130.2998,143.1669 C131.2978,143.4599 132.2998,143.7859 133.1418,144.0879 C136.6578,145.3019 139.9068,146.5909 142.9978,147.8209 C146.0778,149.0619 148.9688,150.2599 151.6338,151.3729 C154.2968,152.4819 156.7378,153.4979 158.9018,154.3979 C161.0678,155.2879 162.9658,156.0559 164.5418,156.6279 C165.3308,156.9259 166.0378,157.1829 166.6578,157.3799 C167.2798,157.5759 167.8128,157.7879 168.2498,157.8709 C169.1378,158.0969 169.6108,158.2169 169.6108,158.2169 C169.6108,158.2169 169.1218,158.2759 168.2048,158.3869 C167.7348,158.4549 167.1728,158.4319 166.4958,158.4539 C165.8148,158.4839 165.0428,158.4549 164.1808,158.3999 C163.3098,158.3709 162.3598,158.2799 161.3268,158.1709 C160.2848,158.0839 159.1798,157.9159 157.9918,157.7549 C155.6188,157.4189 152.9718,156.9379 150.1008,156.3589 C147.2368,155.7659 144.1538,155.0639 140.9228,154.2719 C137.7318,153.4689 134.3678,152.6209 130.8868,151.7449 C129.9998,151.5149 129.2398,151.3739 128.4648,151.1839 C128.0868,151.0919 127.5808,151.0109 127.1428,150.9229 L126.8018,150.8579 L126.7588,150.8499 C126.6308,150.8239 126.8838,150.8749 126.8528,150.8709 L126.8138,150.8739 L126.7368,150.8769 C126.6338,150.8809 126.5338,150.8779 126.4338,150.8689 C126.2288,150.8419 126.0788,150.9409 125.8988,150.9239 C125.7298,151.0219 125.5708,151.0049 125.3848,151.1229 C125.2918,151.1719 125.1978,151.2129 125.1008,151.2499 C125.0018,151.2949 124.8918,151.3849 124.7848,151.4449 C124.5748,151.5459 124.3258,151.7699 124.0828,151.9429 C123.0638,152.7429 121.9258,154.0879 120.4508,155.5749 C120.0448,155.9659 119.6878,156.3439 119.2088,156.7569 L118.5048,157.3669 L117.6668,157.9879 C117.2498,158.3389 115.8458,159.0709 115.4178,159.2199 L115.0798,159.3479 L114.9108,159.4129 L114.8258,159.4449 L114.7838,159.4609 C114.8598,159.4389 114.0368,159.6989 114.3308,159.6019 C113.7518,159.7429 113.1638,159.8409 112.6298,159.8469 C111.5508,159.8769 110.6118,159.7079 109.8588,159.4899 C109.0718,159.2739 108.4318,159.0069 107.8348,158.7349 C106.6618,158.1869 105.7058,157.6089 104.8178,157.0549 C103.0618,155.9599 101.5728,154.8529 100.3058,154.1829 C99.6948,153.8419 99.1338,153.6419 98.9808,153.6059 C98.8898,153.5709 98.9388,153.5749 99.0758,153.5359 C99.1318,153.5029 99.2198,153.4909 99.2848,153.4349 C99.3478,153.4039 99.4698,153.3429 99.5458,153.2749 C99.5858,153.2419 99.6328,153.1969 99.6578,153.1649 L99.5158,153.2679 L99.3748,153.3699 L99.3048,153.4209 L99.2688,153.4469 C99.3578,153.3719 99.0218,153.6509 99.4578,153.2849 L98.9138,153.7009 C98.5098,154.0079 98.2468,154.1439 97.9568,154.3119 L97.5228,154.5569 L97.1378,154.7449 C96.8838,154.8659 96.6178,155.0009 96.3758,155.1059 C95.4028,155.5329 94.4648,155.8769 93.5598,156.1909 C89.9388,157.4499 86.5158,158.3239 83.2418,159.1219 C79.9718,159.9029 76.8728,160.5409 74.0028,161.0839 C68.2638,162.1609 63.4388,162.8199 60.0448,163.2089 C58.3508,163.4129 57.0048,163.5119 56.0948,163.6079 C55.1798,163.6869 54.6918,163.7299 54.6918,163.7299" id="Fill-88" fill="#1A1918"></path>
                <path d="M95.804,183.3171 C95.804,183.3171 96.493,183.3501 97.66,183.4731 C98.833,183.5801 100.485,183.7831 102.438,183.9981 C104.389,184.2181 106.639,184.4681 109.009,184.5981 C111.378,184.7221 113.87,184.7441 116.283,184.4461 C117.488,184.2901 118.673,184.0731 119.814,183.7691 C120.385,183.6171 120.94,183.4341 121.488,183.2461 C121.752,183.1421 122.044,183.0521 122.284,182.9391 C122.561,182.8151 122.835,182.6921 123.107,182.5711 C124.152,182.0841 125.24,181.5341 126.256,181.0361 C127.285,180.5401 128.269,180.0701 129.203,179.6741 C130.135,179.2761 131.014,178.9501 131.801,178.6821 C132.586,178.4121 133.303,178.2481 133.888,178.1251 C134.478,178.0131 134.946,177.9611 135.267,177.9541 C135.584,177.9481 135.753,177.9451 135.753,177.9451 C135.753,177.9451 135.6,178.0161 135.314,178.1491 C135.027,178.2641 134.628,178.4961 134.133,178.7801 C133.635,179.0641 133.057,179.4491 132.403,179.9021 C131.742,180.3431 131.023,180.8841 130.236,181.4751 C129.444,182.0661 128.586,182.7071 127.678,183.3851 C126.749,184.0591 125.794,184.7631 124.669,185.4751 C124.376,185.6641 124.105,185.8291 123.835,185.9821 C123.52,186.1671 123.223,186.3151 122.912,186.4851 C122.291,186.8091 121.639,187.0861 120.972,187.3361 C119.636,187.8311 118.229,188.1831 116.815,188.3841 C113.982,188.7981 111.147,188.6581 108.596,188.2251 C106.038,187.7941 103.75,187.0851 101.853,186.3521 C98.064,184.8601 95.804,183.3171 95.804,183.3171" id="Fill-90" fill="#1A1918"></path>
                <path d="M124.6852,147.5865 C125.8812,147.5865 128.0562,147.9895 130.5532,148.5615 C127.9182,147.2175 124.2382,145.7445 122.6262,146.9985 C121.3872,147.9625 120.1462,149.6975 118.8162,151.2735 C120.8552,149.3325 122.9252,147.5865 124.6852,147.5865" id="Fill-92" fill="#000105"></path>
                <path d="M124.6852,147.5865 C125.8812,147.5865 128.0562,147.9895 130.5532,148.5615 C127.9182,147.2175 124.2382,145.7445 122.6262,146.9985 C121.3872,147.9625 120.1462,149.6975 118.8162,151.2735 C120.8552,149.3325 122.9252,147.5865 124.6852,147.5865 Z" id="Stroke-94" stroke="#1A1918" stroke-linecap="round" stroke-linejoin="round"></path>
                <path d="M159.5925,155.5851 C159.0725,155.4121 152.1205,154.0601 143.0555,152.0171 C143.4715,154.4211 135.9355,157.8381 133.0515,158.6241 C129.8165,159.5071 111.5755,162.8191 108.3405,163.1131 C105.1055,163.4071 90.6745,162.9581 87.7175,161.9421 C78.5315,158.7831 75.9585,158.1501 76.4355,158.2271 C76.4355,158.2271 92.0235,150.2861 95.5525,150.5801 C99.0825,150.8741 107.0235,156.1681 110.2585,155.5801 C111.3425,155.3831 112.6595,154.3221 114.0725,153.0061 C113.3315,153.5011 112.5555,153.8151 111.7295,153.8151 C108.1995,153.8151 105.8465,149.6981 101.4355,149.1101 C97.0235,148.5211 91.4355,150.2861 87.0235,152.6391 C82.6125,154.9921 62.2875,160.4621 62.2875,160.4621 L52.0015,168.3271 C52.0015,168.3271 57.1865,163.8571 69.2455,166.2101 C81.3035,168.5631 100.8465,172.9331 105.5525,172.3441 C110.2585,171.7561 138.9965,167.1501 145.4665,164.7971 C151.8345,162.4821 171.8215,159.0421 173.2065,159.1681 C172.2995,158.9261 160.3525,155.8381 159.5925,155.5851" id="Fill-96" fill="#000105"></path>
                <path d="M159.5925,155.5851 C159.0725,155.4121 152.1205,154.0601 143.0555,152.0171 C143.4715,154.4211 135.9355,157.8381 133.0515,158.6241 C129.8165,159.5071 111.5755,162.8191 108.3405,163.1131 C105.1055,163.4071 90.6745,162.9581 87.7175,161.9421 C78.5315,158.7831 75.9585,158.1501 76.4355,158.2271 C76.4355,158.2271 92.0235,150.2861 95.5525,150.5801 C99.0825,150.8741 107.0235,156.1681 110.2585,155.5801 C111.3425,155.3831 112.6595,154.3221 114.0725,153.0061 C113.3315,153.5011 112.5555,153.8151 111.7295,153.8151 C108.1995,153.8151 105.8465,149.6981 101.4355,149.1101 C97.0235,148.5211 91.4355,150.2861 87.0235,152.6391 C82.6125,154.9921 62.2875,160.4621 62.2875,160.4621 L52.0015,168.3271 C52.0015,168.3271 57.1865,163.8571 69.2455,166.2101 C81.3035,168.5631 100.8465,172.9331 105.5525,172.3441 C110.2585,171.7561 138.9965,167.1501 145.4665,164.7971 C151.8345,162.4821 171.8215,159.0421 173.2065,159.1681 C172.2995,158.9261 160.3525,155.8381 159.5925,155.5851 Z" id="Stroke-98" stroke="#1A1918" stroke-linecap="round" stroke-linejoin="round"></path>
                <path d="M172.9193,159.645 C172.9053,159.64 172.8753,159.641 172.8523,159.639 C172.9993,159.678 173.0423,159.686 172.9193,159.645" id="Fill-100" fill="#000105"></path>
                <path d="M172.9193,159.645 C172.9053,159.64 172.8753,159.641 172.8523,159.639 C172.9993,159.678 173.0423,159.686 172.9193,159.645 Z" id="Stroke-102" stroke="#1A1918" stroke-linecap="round" stroke-linejoin="round"></path>
            </g>
        </g>
    </g>
</svg>