<?xml version="1.0" encoding="UTF-8"?>
<svg width="367px" height="423px" viewBox="0 0 367 423" version="1.1" xmlns="http://www.w3.org/2000/svg" xmlns:xlink="http://www.w3.org/1999/xlink">
    <!-- Generator: Sketch 44.1 (41455) - http://www.bohemiancoding.com/sketch -->
    <title>Nervös</title>
    <desc>Created with Sketch.</desc>
    <defs></defs>
    <g id="Page-1" stroke="none" stroke-width="1" fill="none" fill-rule="evenodd">
        <g id="Nervös" transform="translate(0.000000, 1.000000)">
            <path d="M290.8533,382.2108 C270.2493,435.1838 155.9093,421.2178 126.8073,413.7678 C97.7043,406.3258 85.6073,406.7888 84.0263,392.5698 C84.0263,392.5698 82.1663,384.6388 86.0703,379.2498 C88.8483,375.4158 103.6083,369.0218 111.8623,365.6678 C112.7273,362.9778 113.0763,361.1528 113.0763,361.1528 C114.7103,350.9338 114.9023,329.9188 115.1383,317.1148 C120.9283,322.8968 126.6583,328.2328 131.0783,331.8408 C142.2493,340.9768 165.5783,360.4978 186.1213,357.0388 C201.2403,354.4968 214.6993,351.2038 227.9933,339.4478 C232.5873,335.8668 250.4403,319.8828 263.2183,300.9828 C262.5803,314.0228 262.2753,338.9148 269.4103,357.3178 C270.1093,359.1348 270.8873,360.8908 271.7513,362.5588 C278.5293,364.8038 294.8623,371.4418 290.8533,382.2108" id="Fill-1" fill="#D0C7B2"></path>
            <g id="Group-6" transform="translate(290.000000, 171.890000)">
                <path d="M11.1384,9.275 C11.1384,9.275 18.6154,-1.688 23.0444,0.709 C27.4734,3.107 28.7764,21.258 25.6504,27.766 C22.5234,34.273 16.5314,41.465 15.4894,51.397 C14.4474,61.329 14.3124,63.912 10.4044,71.79 C6.4964,79.667 0.0434,79.56 0.0434,79.56" id="Fill-3" fill="#D0C7B2"></path>
                <path d="M11.1384,9.275 C11.1384,9.275 18.6154,-1.688 23.0444,0.709 C27.4734,3.107 28.7764,21.258 25.6504,27.766 C22.5234,34.273 16.5314,41.465 15.4894,51.397 C14.4474,61.329 14.3124,63.912 10.4044,71.79 C6.4964,79.667 0.0434,79.56 0.0434,79.56" id="Stroke-5" stroke="#1A1918" stroke-width="2.293" stroke-linecap="round"></path>
            </g>
            <g id="Group-10" transform="translate(49.000000, 166.890000)">
                <path d="M20.879,16.653 C20.879,16.653 14.002,-5.091 7.704,2.159 C1.406,9.409 -2.017,22 4.504,35.614 C8.542,44.044 5.533,50.535 9.312,65.592 C13.091,80.649 17.128,87.093 24.051,81.67" id="Fill-7" fill="#D0C7B2"></path>
                <path d="M20.879,16.653 C20.879,16.653 14.002,-5.091 7.704,2.159 C1.406,9.409 -2.017,22 4.504,35.614 C8.542,44.044 5.533,50.535 9.312,65.592 C13.091,80.649 17.128,87.093 24.051,81.67" id="Stroke-9" stroke="#1A1918" stroke-width="2.305" stroke-linecap="round" stroke-linejoin="round"></path>
            </g>
            <path d="M262.4187,303.6877 C262.4587,308.4637 260.4427,365.5867 291.7107,378.2267" id="Stroke-11" stroke="#1A1918" stroke-width="2" stroke-linecap="round" stroke-linejoin="round"></path>
            <path d="M115.2678,315.9666 C115.2678,315.9666 116.5308,345.4526 113.3038,360.7446 C113.3038,360.7446 109.0488,383.1066 93.1578,386.7026" id="Stroke-13" stroke="#1A1918" stroke-width="2" stroke-linecap="round" stroke-linejoin="round"></path>
            <path d="M273.9115,361.5542 C273.9115,361.5542 296.1115,368.2992 291.0765,381.7992 C270.4745,434.7762 156.1355,420.8042 127.0325,413.3592 C97.9295,405.9142 85.8325,406.3732 84.2525,392.1602 C84.2525,392.1602 82.3945,384.2232 86.2915,378.8412 C90.1885,373.4592 111.8675,363.3262 111.8675,363.3262" id="Stroke-15" stroke="#1A1918" stroke-width="2" stroke-linecap="round" stroke-linejoin="round"></path>
            <path d="M263.1179,323.6075 C263.1179,323.6075 263.1349,323.5795 263.1699,323.5225 C263.2529,323.3835 263.4789,323.1455 263.8049,323.0675 C264.2259,323.0025 264.1329,323.0535 264.1889,323.0425 C264.3719,323.0625 264.4579,323.0885 264.6099,323.1255 C264.8889,323.1975 265.2489,323.3075 265.7119,323.4605 C266.6359,323.7655 267.9579,324.2375 269.6259,324.8685 C272.9619,326.1295 277.6779,328.0245 283.2669,330.4585 C294.4389,335.3245 309.1249,342.3575 323.0529,350.7475 C330.0119,354.9395 336.7759,359.4725 342.7589,364.1945 C348.7429,368.9075 353.9339,373.8365 357.7479,378.6005 C359.6569,380.9775 361.2209,383.3055 362.4199,385.4735 C363.6219,387.6395 364.4479,389.6455 364.9919,391.3355 C365.5379,393.0275 365.7959,394.4045 365.9399,395.3425 C366.0129,395.8125 366.0519,396.1745 366.0759,396.4195 C366.1009,396.6635 366.1149,396.7895 366.1149,396.7895 C366.1149,396.7895 366.0989,396.6635 366.0699,396.4205 C366.0429,396.1765 365.9979,395.8145 365.9179,395.3465 C365.7599,394.4105 365.4799,393.0405 364.9109,391.3625 C364.3419,389.6855 363.4889,387.7015 362.2589,385.5635 C361.0329,383.4255 359.4409,381.1335 357.5049,378.7975 C353.6389,374.1175 348.3999,369.2935 342.3709,364.6945 C336.3439,360.0855 329.5389,355.6765 322.5429,351.6075 C308.5439,343.4655 293.8019,336.6835 282.6059,332.0105 C277.0049,329.6745 272.2829,327.8615 268.9629,326.6635 C267.3029,326.0645 265.9919,325.6205 265.1069,325.3425 C264.6659,325.2045 264.3259,325.1075 264.1289,325.0605 C264.0429,325.0385 263.9469,325.0235 264.0049,325.0325 C264.0299,325.0185 263.9099,325.0645 264.3079,325.0025 C264.6099,324.9265 264.8159,324.6905 264.8839,324.5525 C264.9359,324.4505 264.9099,324.4975 264.9139,324.4905 L264.9099,324.4965 L264.9069,324.5015 L264.8149,324.6505 C264.5249,325.1185 263.9109,325.2625 263.4439,324.9725 C262.9779,324.6845 262.8329,324.0745 263.1179,323.6075" id="Fill-17" fill="#1A1918"></path>
            <path d="M115.4207,335.5834 C115.4207,335.5834 113.3067,336.3294 109.6157,337.7174 C105.9247,339.1054 100.6647,341.1334 94.4017,343.6894 C81.8827,348.8084 65.3197,356.0294 49.3947,364.5114 C41.4367,368.7534 33.6367,373.3024 26.6477,378.0554 C19.6677,382.8084 13.4897,387.7784 8.8887,392.7314 C6.5937,395.2074 4.7117,397.6834 3.3207,400.0464 C1.9227,402.4054 1.0417,404.6544 0.5897,406.5704 C0.0977,408.4884 0.1397,410.0594 0.1397,411.1124 C0.2507,412.1644 0.3097,412.7264 0.3097,412.7264 C0.3097,412.7264 0.2387,412.1654 0.1057,411.1144 C0.0837,410.0604 0.0087,408.4824 0.4637,406.5424 C0.8787,404.6044 1.7197,402.3174 3.0807,399.9084 C4.4347,397.4964 6.2807,394.9584 8.5417,392.4164 C13.0737,387.3304 19.1877,382.1994 26.1057,377.2764 C33.0327,372.3524 40.7737,367.6204 48.6757,363.1954 C64.4907,354.3464 80.9597,346.7554 93.4207,341.3564 C99.6547,338.6594 104.8947,336.5134 108.5767,335.0404 C112.2587,333.5684 114.3907,332.7664 114.3907,332.7664 C115.1647,332.4724 116.0307,332.8624 116.3247,333.6374 C116.6177,334.4124 116.2277,335.2784 115.4527,335.5714 C115.4457,335.5744 115.4277,335.5804 115.4207,335.5834" id="Fill-19" fill="#1A1918"></path>
            <path d="M297.9657,196.3337 C301.0227,193.2327 304.0787,190.1307 307.1357,187.0297 C308.2947,185.8537 309.8017,184.5747 311.3927,185.0177 C312.2967,185.2687 313.0027,186.1167 313.0867,187.0507 C313.1427,187.6727 312.9027,188.3557 312.3637,188.6707" id="Stroke-21" stroke="#1A1918" stroke-linecap="round" stroke-linejoin="round"></path>
            <path d="M298.0081,211.6647 C299.6211,211.1697 301.3281,212.5357 301.8321,214.1467 C302.3361,215.7567 301.9731,217.4957 301.6081,219.1427 C301.1111,221.3847 300.6141,223.6267 300.1171,225.8677" id="Stroke-23" stroke="#1A1918" stroke-linecap="round" stroke-linejoin="round"></path>
            <path d="M67.9145,189.7923 C65.2855,186.1923 62.6565,182.5923 60.0265,178.9923 C59.6435,178.4663 59.2195,177.9113 58.6015,177.7093 C56.9655,177.1753 55.8205,179.3093 55.4215,180.9833 C54.6775,184.1133 53.9335,187.2433 53.1885,190.3733" id="Stroke-25" stroke="#1A1918" stroke-linecap="round" stroke-linejoin="round"></path>
            <path d="M65.4417,206.6604 C63.4377,206.5944 61.6467,208.1324 60.8457,209.9714 C60.0457,211.8104 60.0487,213.8914 60.1927,215.8914 C60.4007,218.7704 60.8727,221.6304 61.6017,224.4234" id="Stroke-27" stroke="#1A1918" stroke-linecap="round" stroke-linejoin="round"></path>
            <path d="M186.3497,356.6289 C201.4607,354.0879 214.9217,350.7909 228.2157,339.0399 C233.8757,334.6199 259.7117,311.3509 271.3127,287.0039 C282.9197,262.6419 297.6477,245.9879 297.6477,222.6289 C297.6477,213.9019 297.2527,201.9629 299.4697,188.9619 C303.1867,167.1619 316.4237,135.3789 314.5157,117.5649 C311.4687,89.1279 307.6047,54.6269 264.9497,21.1119 C240.8067,2.1419 184.5817,-3.2701 165.2487,1.8719 C146.6457,6.8189 123.6217,16.5239 99.3647,33.9389 C76.0737,50.6609 67.8037,86.6769 64.7567,110.0359 C61.7107,133.3949 71.9107,168.3089 69.8787,183.5429 C67.8477,198.7769 62.8897,218.7799 65.8967,231.9919 C68.8277,244.8679 81.4687,276.3289 92.8177,291.6859 C100.5007,302.0819 120.1317,322.2849 131.3027,331.4259 C142.4747,340.5659 165.8037,360.0839 186.3497,356.6289" id="Fill-29" fill="#D0C7B2"></path>
            <path d="M186.3497,356.6289 C201.4607,354.0879 214.9217,350.7909 228.2157,339.0399 C233.8757,334.6199 259.7117,311.3509 271.3127,287.0039 C282.9197,262.6419 297.6477,245.9879 297.6477,222.6289 C297.6477,213.9019 297.2527,201.9629 299.4697,188.9619 C303.1867,167.1619 316.4237,135.3789 314.5157,117.5649 C311.4687,89.1279 307.6047,54.6269 264.9497,21.1119 C240.8067,2.1419 184.5817,-3.2701 165.2487,1.8719 C146.6457,6.8189 123.6217,16.5239 99.3647,33.9389 C76.0737,50.6609 67.8037,86.6769 64.7567,110.0359 C61.7107,133.3949 71.9107,168.3089 69.8787,183.5429 C67.8477,198.7769 62.8897,218.7799 65.8967,231.9919 C68.8277,244.8679 81.4687,276.3289 92.8177,291.6859 C100.5007,302.0819 120.1317,322.2849 131.3027,331.4259 C142.4747,340.5659 165.8037,360.0839 186.3497,356.6289 Z" id="Stroke-31" stroke="#1A1918" stroke-width="2"></path>
            <path d="M96.0172,196.3719 C96.0172,196.3719 107.2622,182.5709 114.4182,180.5269 C121.5742,178.4819 132.3082,179.5039 137.9302,182.0599 C143.5532,184.6159 154.7982,193.8159 154.7982,197.3939 C154.7982,200.9719 145.5972,208.1279 138.4412,209.6619 C131.2852,211.1949 113.3962,211.7059 110.3292,210.6839 C107.2622,209.6619 97.0392,206.0839 96.0172,196.3719" id="Fill-33" fill="#FFFFFF"></path>
            <path d="M203.7327,192.3493 C203.7327,192.3493 210.1517,184.5543 213.8207,183.1783 C217.4887,181.8033 230.3277,176.7593 233.0787,178.1353 C235.8297,179.5103 245.9177,183.6373 249.5857,185.4713 C253.2537,187.3053 256.9217,185.4713 259.2147,190.0563 C261.5067,194.6423 263.7997,195.5593 258.2977,200.1443 C252.7947,204.7293 246.3757,203.8123 241.3317,207.0223 C236.2877,210.2323 224.3667,210.6903 220.6987,208.8563 C217.0297,207.0223 201.8987,201.0613 203.7327,192.3493" id="Fill-35" fill="#FFFFFF"></path>
            <path d="M144.3465,224.2327 C144.3465,224.2327 144.6025,224.2277 145.0475,224.1937 C145.4875,224.1457 146.1145,224.0287 146.8135,223.7587 C147.1615,223.6187 147.5255,223.4447 147.8915,223.2347 C148.2525,223.0147 148.6035,222.7337 148.9195,222.4047 C149.2445,222.0917 149.5635,221.7637 149.8445,221.4027 C150.1145,221.0467 150.3875,220.6857 150.6615,220.3247 C150.7925,220.1447 150.9435,219.9767 151.0565,219.7867 C151.1955,219.6107 151.3205,219.4277 151.4395,219.2397 C151.5105,219.1327 151.5595,219.0837 151.6245,218.9647 L151.8045,218.6517 C151.9115,218.4657 152.0165,218.2557 152.1185,218.0477 C152.5175,217.2097 152.8505,216.3517 153.2085,215.6447 C153.5535,214.9317 153.9345,214.3767 154.2415,214.0357 C154.3925,213.8627 154.5175,213.7357 154.6095,213.6547 C154.6975,213.5727 154.7445,213.5277 154.7445,213.5277 C154.7445,213.5277 154.1625,214.4037 153.8905,215.8817 C153.7365,216.6177 153.6435,217.4967 153.4635,218.4807 C153.4165,218.7267 153.3665,218.9777 153.2955,219.2507 L153.1975,219.6257 C153.1715,219.7387 153.1045,219.9117 153.0645,220.0287 C152.8855,220.5697 152.5885,221.0677 152.2535,221.5337 C151.8975,221.9827 151.4845,222.3877 151.0125,222.6917 C150.5515,223.0067 150.0785,223.2767 149.5935,223.4707 C149.1065,223.6597 148.6275,223.7927 148.1885,223.9287 C147.7465,224.0587 147.3235,224.1487 146.9325,224.2077 C146.1485,224.3227 145.4975,224.3137 145.0465,224.2967 C144.6005,224.2647 144.3465,224.2327 144.3465,224.2327" id="Fill-37" fill="#1A1918"></path>
            <path d="M166.1241,215.6413 C166.1241,215.6413 166.1841,215.3933 166.3171,214.9763 C166.4441,214.5733 166.6261,213.9963 166.8441,213.3043 C166.9481,212.9653 167.0621,212.5993 167.1811,212.2113 C167.3091,211.8303 167.3961,211.4113 167.5371,211.0023 C167.7671,210.1623 167.9881,209.2693 168.2021,208.3753 C168.4001,207.4773 168.5871,206.5773 168.7481,205.7213 C168.8201,205.2903 168.8891,204.8743 168.9551,204.4793 C169.0171,204.0773 169.0751,203.6983 169.1291,203.3483 C169.2351,202.6303 169.3241,202.0313 169.3861,201.6123 C169.4501,201.1843 169.5041,200.9313 169.5041,200.9313 C169.5041,200.9313 169.6171,201.1573 169.7821,201.5673 C169.9431,201.9773 170.1451,202.5783 170.2771,203.3183 C170.4371,204.0583 170.5071,204.9393 170.5011,205.8843 C170.4751,206.3543 170.4821,206.8473 170.4041,207.3383 C170.3581,207.8343 170.2461,208.3273 170.1511,208.8233 C170.0191,209.3113 169.9041,209.8033 169.7291,210.2693 C169.5821,210.7443 169.3631,211.1853 169.1811,211.6193 C168.7721,212.4723 168.3251,213.2333 167.8591,213.8293 C167.4191,214.4353 166.9661,214.9033 166.6501,215.1913 C166.3251,215.4843 166.1241,215.6413 166.1241,215.6413" id="Fill-39" fill="#1A1918"></path>
            <path d="M190.4979,199.3012 C190.4979,199.3012 190.5189,199.6652 190.5229,200.2962 C190.5089,200.6132 190.5429,200.9952 190.5739,201.4142 C190.5939,201.8352 190.6369,202.3022 190.7109,202.8192 C190.7579,203.3332 190.8749,203.8792 190.9789,204.4542 C191.0689,205.0302 191.2769,205.6182 191.4109,206.2332 C191.6059,206.8362 191.7959,207.4582 192.0509,208.0702 C192.2689,208.6942 192.5749,209.2932 192.8459,209.9062 C193.1689,210.4932 193.4599,211.0992 193.8229,211.6512 C194.1559,212.2242 194.5329,212.7542 194.8939,213.2752 C195.3009,213.7552 195.6429,214.2752 196.0459,214.6972 C196.4389,215.1292 196.8029,215.5522 197.1819,215.9032 C197.5439,216.2742 197.8959,216.5962 198.2209,216.8702 C198.5419,217.1532 198.8209,217.4092 199.0729,217.5872 C199.5639,217.9702 199.8459,218.2112 199.8459,218.2112 C199.8459,218.2112 199.4969,218.1252 198.8839,217.9372 C198.5729,217.8512 198.2109,217.7122 197.8099,217.5162 C197.6049,217.4222 197.3869,217.3222 197.1579,217.2162 C196.9349,217.1002 196.7159,216.9522 196.4779,216.8102 C195.9909,216.5362 195.5039,216.1822 195.0119,215.7742 C194.5009,215.3862 194.0279,214.9022 193.5399,214.4002 C193.0939,213.8642 192.5879,213.3362 192.1969,212.7102 C191.7539,212.1172 191.4209,211.4442 191.0539,210.7922 C190.7579,210.1032 190.4269,209.4292 190.2249,208.7182 C189.9679,208.0262 189.8529,207.3042 189.6979,206.6242 C189.5959,205.9322 189.4999,205.2622 189.5009,204.6212 C189.4759,203.9822 189.4909,203.3802 189.5679,202.8272 C189.5999,202.5512 189.6139,202.2892 189.6589,202.0392 C189.7139,201.7902 189.7669,201.5542 189.8169,201.3312 C189.9049,200.8872 190.0149,200.5192 190.1329,200.2272 C190.3539,199.6362 190.4979,199.3012 190.4979,199.3012" id="Fill-41" fill="#1A1918"></path>
            <path d="M202.151,212.6629 C202.151,212.6629 202.699,213.3599 203.636,214.2969 C203.874,214.5279 204.132,214.7769 204.405,215.0409 C204.68,215.3019 205.009,215.5429 205.349,215.7889 C205.674,216.0449 206.01,216.3089 206.352,216.5769 C206.695,216.8409 207.026,217.1219 207.317,217.4399 C207.921,218.0539 208.393,218.7999 208.901,219.4469 C209.406,220.0969 209.89,220.6989 210.322,221.2019 C211.198,222.2079 211.781,222.8779 211.781,222.8779 C211.781,222.8779 211.586,222.7699 211.243,222.5809 C210.898,222.3939 210.416,222.1089 209.849,221.7479 C209.277,221.3919 208.624,220.9539 207.927,220.4709 C207.241,219.9779 206.471,219.4749 205.862,218.8119 C205.245,218.1559 204.808,217.3399 204.385,216.6039 C204.199,216.2139 204.011,215.8469 203.817,215.5139 C203.622,215.1819 203.438,214.8689 203.268,214.5799 C202.598,213.4299 202.151,212.6629 202.151,212.6629" id="Fill-43" fill="#1A1918"></path>
            <path d="M214.0123,174.4129 C214.0123,174.4129 214.2053,174.4289 214.5663,174.4599 C214.9303,174.4949 215.4533,174.5239 216.1263,174.5349 C217.4683,174.5569 219.3993,174.4769 221.6393,173.9909 C222.7573,173.7509 223.9513,173.4119 225.1703,172.9489 C226.3983,172.4859 227.6213,171.9129 228.8863,171.2029 C230.1493,170.5209 231.5913,169.7389 233.2733,169.5639 C234.9883,169.3879 236.6363,169.8299 238.1323,170.4219 C239.6403,171.0219 240.9943,171.7459 242.3853,172.4919 C243.7533,173.2249 245.0263,174.0449 246.2583,174.8219 C248.6813,176.4379 250.8463,178.0079 252.7693,179.2399 C253.7313,179.8569 254.6263,180.3929 255.4363,180.8469 C256.2503,181.2869 256.9683,181.6689 257.5763,181.9509 C258.1773,182.2579 258.6753,182.4279 259.0073,182.5799 C259.3413,182.7249 259.5203,182.8019 259.5203,182.8019 L259.5263,182.8049 C259.5773,182.8269 259.6003,182.8859 259.5783,182.9369 C259.5603,182.9789 259.5153,183.0029 259.4723,182.9959 C259.4723,182.9959 259.2783,182.9689 258.9153,182.9179 C258.5503,182.8669 258.0133,182.7849 257.3453,182.6149 C256.6663,182.4769 255.8653,182.2289 254.9533,181.9119 C254.0513,181.5749 253.0413,181.1639 251.9843,180.6339 C249.8573,179.5969 247.5163,178.1549 245.1103,176.5609 C243.9173,175.7459 242.6873,174.9139 241.4293,174.1029 C240.1923,173.3149 238.8443,172.5169 237.5073,171.8949 C236.1723,171.2829 234.7483,170.8599 233.4073,170.9329 C232.0243,171.0009 230.7153,171.6079 229.4133,172.2349 C228.1133,172.8779 226.7703,173.4559 225.4763,173.8399 C224.1803,174.2379 222.9273,174.5079 221.7633,174.6799 C219.4323,175.0289 217.4663,174.9819 216.1103,174.8729 C215.4313,174.8169 214.8943,174.7519 214.5393,174.6949 C214.1803,174.6399 213.9893,174.6119 213.9893,174.6119 C213.9343,174.6029 213.8963,174.5519 213.9053,174.4979 C213.9123,174.4449 213.9603,174.4089 214.0123,174.4129" id="Fill-45" fill="#1A1918"></path>
            <path d="M87.953,193.4631 C87.953,193.4631 87.961,193.2001 87.975,192.7071 C88.047,192.1961 88.212,191.4341 88.717,190.5971 C89.209,189.7531 90.048,188.8921 91.126,188.1181 C92.201,187.3351 93.496,186.6051 94.925,185.9151 C96.352,185.2351 97.854,184.4941 99.363,183.6291 C100.886,182.7421 102.482,181.7661 104.109,180.6921 C107.408,178.6251 110.933,176.2751 114.796,174.4421 C116.719,173.5231 118.731,172.7441 120.781,172.2351 C122.809,171.7251 124.924,171.4571 126.912,171.4221 C128.916,171.4061 130.848,171.5901 132.643,171.9371 C134.443,172.2731 136.087,172.8211 137.574,173.3741 C139.043,173.9821 140.363,174.6001 141.461,175.2741 C142.023,175.5891 142.528,175.9151 142.982,176.2381 C143.446,176.5451 143.863,176.8381 144.219,177.1331 C144.956,177.6871 145.495,178.1691 145.856,178.5061 C146.221,178.8361 146.416,179.0121 146.416,179.0121 C146.457,179.0491 146.46,179.1121 146.423,179.1531 C146.387,179.1931 146.327,179.1971 146.286,179.1641 L146.28,179.1591 C146.28,179.1591 146.079,178.9941 145.701,178.6841 C145.329,178.3681 144.773,177.9171 144.019,177.4051 C143.656,177.1321 143.23,176.8621 142.759,176.5821 C142.298,176.2861 141.787,175.9891 141.22,175.7071 C140.113,175.0971 138.79,174.5551 137.334,174.0311 C135.857,173.5621 134.238,173.1071 132.483,172.8661 C130.732,172.6211 128.87,172.4911 126.95,172.5811 C125.015,172.6901 123.094,173.0001 121.145,173.5621 C119.214,174.1161 117.33,174.9231 115.512,175.8731 C111.877,177.7911 108.542,180.2901 105.234,182.4441 C103.557,183.4851 101.93,184.5131 100.284,185.3301 C98.63,186.1791 97.028,186.8351 95.566,187.3811 C94.123,187.9531 92.809,188.4611 91.749,189.0791 C90.687,189.6871 89.853,190.3471 89.291,191.0041 C88.722,191.6671 88.489,192.3201 88.322,192.7531 C88.211,193.2321 88.151,193.4881 88.151,193.4881 C88.139,193.5421 88.086,193.5761 88.031,193.5641 C87.984,193.5531 87.952,193.5101 87.953,193.4631" id="Fill-47" fill="#1A1918"></path>
            <path d="M97.9418,193.867 C97.9418,193.867 98.6668,192.603 100.2278,190.601 C100.9898,189.581 101.9988,188.411 103.2128,187.108 C103.8428,186.48 104.4968,185.79 105.2508,185.127 C105.6238,184.791 106.0068,184.446 106.3998,184.093 C106.8048,183.753 107.2378,183.427 107.6718,183.082 C108.1008,182.73 108.5578,182.395 109.0428,182.074 C109.5248,181.75 109.9998,181.397 110.5148,181.08 C111.5668,180.479 112.6478,179.84 113.8588,179.337 C116.2378,178.301 119.0038,177.486 121.9878,177.594 C124.7248,177.717 127.5188,177.939 130.3708,178.352 C133.2148,178.761 136.1238,179.319 138.9558,180.307 C140.3668,180.814 141.7558,181.427 143.0638,182.206 C144.3628,182.997 145.5628,183.962 146.5928,185.061 C148.5288,187.237 150.2738,189.324 151.9958,191.445 C152.8448,192.502 153.6618,193.563 154.4158,194.653 C155.1558,195.759 155.8958,196.822 156.2798,198.254 C156.3338,198.656 156.4478,199.044 156.1478,199.593 C155.9148,200.014 155.7038,200.224 155.4688,200.475 C155.0098,200.945 154.5348,201.323 154.0608,201.688 C153.1118,202.409 152.1648,203.032 151.2428,203.607 C147.5448,205.88 144.2958,207.443 141.9548,208.396 C140.7848,208.872 139.8338,209.178 139.1628,209.328 C138.4948,209.485 138.1048,209.467 138.1048,209.467 L138.0978,209.467 C138.0148,209.463 137.9508,209.393 137.9548,209.31 C137.9588,209.23 138.0248,209.167 138.1048,209.167 C138.1048,209.167 138.4418,209.168 139.0768,208.985 C139.7098,208.808 140.6258,208.461 141.7528,207.932 C144.0058,206.875 147.1538,205.151 150.6658,202.73 C151.5378,202.121 152.4308,201.462 153.2918,200.734 C153.7188,200.37 154.1468,199.986 154.5038,199.578 C154.6728,199.39 154.8558,199.135 154.9088,199.02 C154.9098,199.004 154.9238,199.027 154.9408,198.987 L154.9588,198.874 L154.9678,198.817 L154.9728,198.789 C154.9568,199.004 154.9658,198.838 154.9608,198.881 L154.9058,198.582 C154.5988,197.635 153.8728,196.573 153.1288,195.576 C152.3708,194.567 151.5348,193.563 150.6598,192.559 C148.9158,190.572 147.0078,188.47 145.1138,186.501 C144.1768,185.579 143.1098,184.786 141.9438,184.136 C140.7688,183.498 139.5048,182.997 138.2018,182.586 C135.5738,181.807 132.8048,181.373 130.0448,181.143 C127.2888,180.926 124.5358,180.758 121.9018,180.717 C119.4818,180.617 117.1268,181.249 114.9568,182.023 C112.7788,182.814 110.8178,183.935 109.0568,185.042 C107.2838,186.145 105.7598,187.342 104.4018,188.398 C103.0758,189.493 101.9258,190.475 101.0048,191.316 C100.0738,192.147 99.3938,192.855 98.9058,193.319 C98.4328,193.795 98.1798,194.049 98.1798,194.049 C98.1208,194.108 98.0258,194.109 97.9658,194.05 C97.9168,194 97.9088,193.925 97.9418,193.867" id="Fill-49" fill="#1A1918"></path>
            <path d="M241.9091,206.8174 C241.9091,206.8174 242.3331,206.6124 243.1291,206.2274 C243.9191,205.8294 245.0901,205.2774 246.5431,204.5064 C247.9931,203.7314 249.7451,202.7784 251.6791,201.5974 C253.5851,200.4094 255.7761,198.9904 257.5531,197.1124 C257.9861,196.6454 258.3591,196.1364 258.6071,195.6374 C258.6711,195.5124 258.7321,195.3884 258.7601,195.2704 C258.8041,195.1414 258.8351,195.0644 258.8821,194.8544 C258.9831,194.4634 259.0251,194.2094 259.0831,193.8584 C259.1811,193.2054 259.2061,192.5714 259.0851,192.0614 C258.9621,191.5514 258.7271,191.1654 258.2981,190.7784 C257.4281,190.0034 255.9061,189.4024 254.3731,188.8264 C253.5741,188.5374 252.7661,188.2464 251.9511,187.9524 C251.0711,187.6114 250.2351,187.2304 249.4151,186.8294 C246.1591,185.1864 243.0761,183.2404 239.8631,181.5784 C238.2601,180.7594 236.6141,180.0134 234.9491,179.5784 C234.1131,179.3604 233.3011,179.2284 232.4781,179.2314 C231.6721,179.2374 230.7451,179.3504 229.8541,179.4844 C226.2421,180.0724 222.6261,181.0834 219.1801,182.2894 C215.7401,183.5134 212.4191,184.9654 209.5341,186.8244 C208.1001,187.7544 206.7751,188.8024 205.7641,190.0164 C204.7551,191.2324 204.1251,192.6184 204.2891,194.0514 C204.4301,195.4544 205.1491,196.8314 206.0161,197.9914 C206.8901,199.1654 207.9161,200.1894 208.9581,201.1074 C211.0551,202.9384 213.2111,204.3714 215.1551,205.5674 C217.1061,206.7594 218.8681,207.7044 220.3331,208.4534 C223.2691,209.9444 225.0111,210.6584 225.0111,210.6584 C225.0881,210.6894 225.1241,210.7774 225.0931,210.8544 C225.0621,210.9284 224.9761,210.9644 224.9011,210.9374 C224.9011,210.9374 223.1221,210.2884 220.1141,208.9054 C218.6121,208.2094 216.8021,207.3294 214.7841,206.2024 C212.7701,205.0684 210.5301,203.7074 208.2891,201.8994 C207.1741,200.9914 206.0571,199.9674 205.0591,198.7304 C204.0751,197.4954 203.1671,196.0254 202.9011,194.1884 C202.7711,193.3144 202.8741,192.3144 203.1841,191.4424 C203.4931,190.5574 203.9771,189.7584 204.5351,189.0364 C205.6651,187.5954 207.0741,186.4274 208.5681,185.3874 C211.5761,183.3214 214.9561,181.7284 218.4631,180.3564 C221.9851,179.0054 225.6301,177.8584 229.4461,177.1154 C230.4141,176.9384 231.3581,176.7774 232.4371,176.7284 C233.5001,176.6864 234.5661,176.8244 235.5551,177.0474 C237.5451,177.5024 239.3601,178.2444 241.0961,179.0364 C244.5641,180.6234 247.7051,182.5384 250.7921,184.0274 C251.5591,184.4064 252.3191,184.7554 253.0571,185.0454 C253.8691,185.3574 254.6731,185.6674 255.4691,185.9724 C257.0771,186.6444 258.7531,187.2534 260.2871,188.6954 C261.0431,189.4134 261.6371,190.4814 261.8061,191.5224 C261.9861,192.5634 261.8791,193.5054 261.7011,194.3464 C261.6141,194.7434 261.4861,195.2274 261.3761,195.5554 C261.2651,195.9154 261.0511,196.4774 260.8231,196.8334 C260.3601,197.6224 259.8101,198.2424 259.2491,198.7794 C258.1241,199.8514 256.9391,200.6314 255.8061,201.3324 C254.6681,202.0234 253.5681,202.6134 252.5131,203.1184 C250.4101,204.1384 248.5311,204.8894 246.9681,205.4594 C243.8521,206.6214 242.0131,207.0984 242.0131,207.0984 C241.9321,207.1204 241.8501,207.0714 241.8291,206.9914 C241.8101,206.9204 241.8461,206.8484 241.9091,206.8174" id="Fill-51" fill="#1A1918"></path>
            <path d="M99.1581,204.3804 C99.1581,204.3804 99.4891,204.5454 100.0681,204.8344 C100.3561,204.9764 100.7051,205.1494 101.1061,205.3474 C101.3071,205.4434 101.5201,205.5454 101.7451,205.6534 C101.9701,205.7604 102.1581,205.9454 102.3901,206.0844 C102.8471,206.3724 103.3431,206.6834 103.8661,207.0134 C104.4041,207.3194 104.9551,207.6714 105.5561,207.9784 C106.7391,208.6284 108.0351,209.2544 109.3661,209.7864 C110.0211,210.0834 110.7131,210.2704 111.3731,210.5154 C112.0421,210.7294 112.7161,210.8804 113.3601,211.0604 C114.0151,211.1734 114.6481,211.2914 115.2501,211.3804 C115.8551,211.4204 116.4271,211.4574 116.9551,211.4924 C117.2181,211.4924 117.4671,211.4224 117.7091,211.4554 C117.9521,211.4824 118.1831,211.5074 118.4011,211.5304 C118.8431,211.6064 119.2141,211.5274 119.5341,211.5334 C120.1701,211.5114 120.5511,211.5114 120.5511,211.5114 C120.5511,211.5114 120.2201,211.6604 119.6081,211.8994 C119.3001,211.9974 118.9301,212.2044 118.4791,212.2764 C118.2531,212.3264 118.0131,212.3794 117.7601,212.4364 C117.5041,212.4984 117.2311,212.4614 116.9491,212.4924 C116.3871,212.4554 115.7781,212.4154 115.1341,212.3734 C114.4991,212.2804 113.8331,212.1564 113.1431,212.0364 C112.4721,211.8504 111.7661,211.6914 111.0711,211.4684 C110.3871,211.2164 109.6671,211.0194 108.9931,210.7144 C107.6201,210.1654 106.2891,209.5214 105.0781,208.8574 C104.4621,208.5424 103.9001,208.1824 103.3501,207.8694 C102.8141,207.5324 102.3081,207.2144 101.8411,206.9204 C101.6201,206.7544 101.3731,206.6474 101.1851,206.4764 C101.0001,206.3024 100.8251,206.1364 100.6611,205.9804 C100.3321,205.6684 100.0571,205.3854 99.8361,205.1464 C99.3891,204.6724 99.1581,204.3804 99.1581,204.3804" id="Fill-53" fill="#1A1918"></path>
            <path d="M166.2619,249.1961 C166.2619,249.1961 166.2569,248.7711 166.2079,247.9771 C166.1569,247.1851 166.0619,246.0171 165.8099,244.5761 C165.6719,243.8691 165.4959,243.0531 165.1169,242.3521 C164.9309,242.0041 164.6569,241.7431 164.4599,241.7611 C164.2539,241.7431 163.8889,241.9701 163.5739,242.2871 C163.2249,242.6291 162.8599,243.0331 162.4459,243.4141 C162.0229,243.8091 161.5849,244.1971 161.1379,244.5711 C160.2439,245.3321 159.2739,246.0761 158.3329,246.8891 C157.4019,247.7001 156.4589,248.5831 155.8069,249.5801 C155.4659,250.0741 155.2739,250.5931 155.1539,251.0961 C155.1519,251.3511 155.1089,251.6001 155.1499,251.8531 C155.2359,252.1041 155.2049,252.3601 155.3689,252.6141 C155.5569,253.1181 155.9699,253.6531 156.3469,254.1051 C156.6019,254.3731 156.8599,254.6671 157.1159,254.9191 L157.8679,255.5791 C158.9639,256.4641 160.2119,257.2741 161.5569,257.9961 C164.2439,259.4711 167.3219,260.5701 170.3989,262.1281 C171.1689,262.5171 171.9449,262.9291 172.7059,263.4111 C173.4659,263.8601 174.2439,264.4581 174.8869,264.9431 C176.2069,265.9411 177.5419,266.9051 178.8839,267.5661 C180.2179,268.2541 181.5399,268.4981 183.0309,268.3851 C183.7529,268.3431 184.5759,268.1831 185.2789,268.0301 C186.1519,267.8251 186.7479,267.6281 187.5219,267.3441 C188.9949,266.7911 190.4499,266.0831 191.9239,265.3851 C193.4169,264.6891 194.8549,263.9191 196.6599,263.4351 C196.9019,263.3871 197.1359,263.3351 197.3859,263.2981 C197.6279,263.2771 197.9819,263.2531 198.1319,263.2511 C198.5439,263.2541 198.8909,263.2351 199.2329,263.2181 C199.9599,263.1571 200.6899,263.0881 201.3999,262.9651 C202.8179,262.7301 204.1879,262.3621 205.3659,261.7891 C206.5469,261.2221 207.5169,260.4391 208.0729,259.4841 L208.2839,259.1251 C208.3409,259.0011 208.3719,258.8661 208.4199,258.7381 L208.5559,258.3501 C208.5859,258.2161 208.5929,258.0761 208.6139,257.9391 L208.6719,257.5281 L208.6879,257.4261 C208.6939,257.5691 208.6889,257.4481 208.6899,257.4721 L208.6879,257.4411 L208.6849,257.3801 L208.6719,257.1361 C208.6449,256.8241 208.6579,256.4651 208.5989,256.2001 C208.4399,255.1671 208.0149,254.0071 207.5809,252.9971 C207.3619,252.4821 207.1019,251.9941 206.8729,251.5101 C206.6099,251.0391 206.3539,250.5821 206.1069,250.1391 C205.0629,248.3901 204.0379,246.9131 203.1579,245.7261 C201.3959,243.3471 200.2719,242.0651 200.2719,242.0651 C200.2719,242.0651 200.5859,242.3521 201.1739,242.8911 C201.7509,243.4421 202.6049,244.2461 203.6169,245.3451 C204.6319,246.4401 205.8419,247.8021 207.0669,249.5111 C207.3659,249.9461 207.6729,250.3951 207.9899,250.8571 C208.2779,251.3421 208.5959,251.8271 208.8809,252.3561 C209.1549,252.8931 209.4589,253.4301 209.6809,254.0391 C209.7949,254.3461 209.9359,254.6241 210.0309,254.9651 C210.1229,255.3101 210.2169,255.6571 210.3109,256.0091 C210.4009,256.3621 210.4049,256.6541 210.4569,256.9851 L210.4879,257.2271 L210.4949,257.2881 L210.4989,257.3191 C210.5019,257.3631 210.4989,257.2621 210.5059,257.4261 L210.4989,257.5681 L210.4659,258.1411 C210.4499,258.3331 210.4479,258.5271 210.4179,258.7201 L210.2709,259.2981 C210.2169,259.4911 210.1749,259.6901 210.1049,259.8791 L209.8439,260.4301 C209.1119,261.9131 207.7909,263.0121 206.3959,263.7781 C204.9839,264.5541 203.4479,265.0421 201.8669,265.3921 C201.0759,265.5761 200.2679,265.6891 199.4399,265.7781 C199.0029,265.8151 198.5669,265.8461 198.1899,265.8551 C197.9459,265.8661 197.9069,265.8881 197.7539,265.8951 L197.3149,265.9941 C196.0469,266.3681 194.6139,267.1421 193.1729,267.8831 C191.7169,268.6411 190.2039,269.4231 188.5509,270.0521 C187.7649,270.3591 186.7629,270.6811 185.9989,270.8631 C185.0639,271.0791 184.2259,271.2481 183.2619,271.3251 C181.3869,271.5191 179.2429,271.1411 177.5599,270.2561 C175.8649,269.3931 174.4569,268.3271 173.0929,267.2791 C172.3919,266.7411 171.8349,266.2991 171.1529,265.8841 C170.4989,265.4581 169.7949,265.0741 169.0789,264.7031 C166.2059,263.2281 163.1289,261.9501 160.2689,260.2951 C158.8419,259.4611 157.4639,258.5461 156.2409,257.4271 C155.9349,257.1251 155.6309,256.8241 155.3279,256.5251 C155.0609,256.2311 154.8359,255.9461 154.5899,255.6581 C154.0449,254.9431 153.5759,254.2651 153.2759,253.3871 C153.0779,252.9941 153.0649,252.4941 152.9829,252.0501 C152.9419,251.5961 153.0159,251.1211 153.0749,250.6791 C153.3059,249.8101 153.6859,249.0361 154.1719,248.4311 C155.1249,247.1951 156.2239,246.3391 157.2609,245.5501 C158.3099,244.7751 159.3159,244.0911 160.2559,243.4301 C161.2169,242.7791 161.9849,242.1471 162.8179,241.4311 C163.2649,241.0911 163.8039,240.6751 164.5849,240.7631 C164.9739,240.8071 165.2709,241.0511 165.4749,241.2701 C165.6679,241.5041 165.8039,241.7441 165.8949,241.9761 C166.2649,242.9071 166.3299,243.7461 166.3979,244.5011 C166.5069,246.0091 166.4139,247.1811 166.3699,247.9771 C166.3139,248.7741 166.2619,249.1961 166.2619,249.1961" id="Fill-55" fill="#1A1918"></path>
            <path d="M133.8978,302.9535 C133.8978,302.9535 136.6408,295.8225 141.0288,294.1765 C145.4168,292.5315 173.9418,285.4005 176.6838,287.0455 C179.4268,288.6915 181.0728,290.8855 183.8158,290.8855 C186.5578,290.8855 187.1068,286.4975 194.2378,286.4975 C201.3688,286.4975 221.6428,288.2705 227.6988,289.2395 C233.8528,290.2255 242.9048,291.7665 244.0018,295.0585 C245.0988,298.3495 230.4288,290.3945 222.2008,290.3945 C213.9728,290.3945 199.7948,288.8025 196.4318,290.8855 C189.7918,294.9995 182.8118,297.1935 179.5208,294.9995 C176.2298,292.8045 176.1358,290.3365 171.1988,290.3365 C166.2618,290.3365 148.7008,292.3985 143.2158,296.2385 C137.7308,300.0785 132.7668,310.5835 133.8978,302.9535" id="Fill-57" fill="#000105"></path>
            <path d="M133.8978,302.9535 C133.8978,302.9535 136.6408,295.8225 141.0288,294.1765 C145.4168,292.5315 173.9418,285.4005 176.6838,287.0455 C179.4268,288.6915 181.0728,290.8855 183.8158,290.8855 C186.5578,290.8855 187.1068,286.4975 194.2378,286.4975 C201.3688,286.4975 221.6428,288.2705 227.6988,289.2395 C233.8528,290.2255 242.9048,291.7665 244.0018,295.0585 C245.0988,298.3495 230.4288,290.3945 222.2008,290.3945 C213.9728,290.3945 199.7948,288.8025 196.4318,290.8855 C189.7918,294.9995 182.8118,297.1935 179.5208,294.9995 C176.2298,292.8045 176.1358,290.3365 171.1988,290.3365 C166.2618,290.3365 148.7008,292.3985 143.2158,296.2385 C137.7308,300.0785 132.7668,310.5835 133.8978,302.9535 Z" id="Stroke-59" stroke="#1A1918" stroke-linecap="round" stroke-linejoin="round"></path>
            <path d="M168.4561,306.7933 C168.4561,306.7933 170.6301,306.7693 173.8521,306.8663 C175.4591,306.9163 177.3341,306.9753 179.3441,307.0383 C180.3451,307.0713 181.3801,307.1053 182.4311,307.1393 C183.4811,307.1813 184.5471,307.2063 185.6131,307.2233 C189.8721,307.3323 194.1201,307.3203 197.2691,306.9773 C198.0541,306.8863 198.7751,306.7903 199.4051,306.6653 C200.0371,306.5443 200.5851,306.4123 201.0261,306.2713 C201.2491,306.2003 201.4481,306.1373 201.6211,306.0823 C201.7881,306.0113 201.9301,305.9513 202.0451,305.9023 C202.2801,305.8023 202.4051,305.7483 202.4051,305.7483 C202.4051,305.7483 202.3001,305.8343 202.1021,305.9943 C201.9081,306.1643 201.6091,306.3983 201.1891,306.6343 C200.7761,306.8823 200.2511,307.1583 199.6241,307.3983 C199.0021,307.6573 198.2811,307.9013 197.4821,308.1053 C196.6851,308.3223 195.8121,308.5183 194.8821,308.6593 C193.9531,308.8183 192.9701,308.9503 191.9501,309.0283 C190.9311,309.1113 189.8781,309.1963 188.8071,309.2103 C187.7371,309.2323 186.6511,309.2343 185.5661,309.2213 C184.4821,309.1813 183.3991,309.1323 182.3361,309.0663 C181.2711,309.0083 180.2281,308.8903 179.2191,308.7913 C177.2021,308.5763 175.3301,308.2973 173.7341,308.0033 C170.5391,307.4323 168.4561,306.7933 168.4561,306.7933" id="Fill-61" fill="#1A1918"></path>
            <path d="M82.7017,179.6959 C82.7017,179.6959 120.5517,151.1719 139.2017,151.7199 C157.8527,152.2689 158.9497,162.1429 157.8527,164.3369 C156.7557,166.5309 151.2697,157.7539 145.2357,157.2059 C139.2017,156.6569 129.8767,155.5599 125.4877,158.8509 C121.0997,162.1429 79.9587,186.8269 82.7017,179.6959" id="Fill-63" fill="#000105"></path>
            <path d="M82.7017,179.6959 C82.7017,179.6959 120.5517,151.1719 139.2017,151.7199 C157.8527,152.2689 158.9497,162.1429 157.8527,164.3369 C156.7557,166.5309 151.2697,157.7539 145.2357,157.2059 C139.2017,156.6569 129.8767,155.5599 125.4877,158.8509 C121.0997,162.1429 79.9587,186.8269 82.7017,179.6959 Z" id="Stroke-65" stroke="#1A1918" stroke-linecap="round" stroke-linejoin="round"></path>
            <path d="M203.0144,166.9144 C203.0144,166.9144 212.3394,150.4584 216.7284,150.4584 C221.1164,150.4584 253.4804,159.2344 258.4174,163.6234 C263.3544,168.0114 279.2624,174.0454 274.3254,175.1424 C269.3884,176.2394 228.2474,154.2974 223.3104,156.4924 C218.3734,158.6864 201.3684,173.4974 203.0144,166.9144" id="Fill-67" fill="#000105"></path>
            <path d="M203.0144,166.9144 C203.0144,166.9144 212.3394,150.4584 216.7284,150.4584 C221.1164,150.4584 253.4804,159.2344 258.4174,163.6234 C263.3544,168.0114 279.2624,174.0454 274.3254,175.1424 C269.3884,176.2394 228.2474,154.2974 223.3104,156.4924 C218.3734,158.6864 201.3684,173.4974 203.0144,166.9144 Z" id="Stroke-69" stroke="#1A1918" stroke-linecap="round" stroke-linejoin="round"></path>
            <path d="M232.4922,188.7966 L227.9742,186.9896 C229.5552,188.5706 227.2962,191.0556 224.8112,192.4116 C222.3262,193.7666 218.9372,192.1856 219.1632,188.7966 C219.1632,188.7966 220.7562,185.8096 222.2602,184.5096 C221.7352,184.4886 221.2222,184.5466 220.7442,184.7306 C217.8072,185.8596 210.3522,192.6376 210.3522,192.6376 C210.3522,192.6376 207.1892,198.9626 210.3522,201.2216 C213.5152,203.4816 218.7112,206.1926 222.3262,206.8696 C225.9402,207.5476 233.8472,204.6106 235.2032,201.4476 C236.5592,198.2856 237.0102,190.6036 232.4922,188.7966" id="Fill-71" fill="#000105"></path>
            <path d="M232.4922,188.7966 L227.9742,186.9896 C229.5552,188.5706 227.2962,191.0556 224.8112,192.4116 C222.3262,193.7666 218.9372,192.1856 219.1632,188.7966 C219.1632,188.7966 220.7562,185.8096 222.2602,184.5096 C221.7352,184.4886 221.2222,184.5466 220.7442,184.7306 C217.8072,185.8596 210.3522,192.6376 210.3522,192.6376 C210.3522,192.6376 207.1892,198.9626 210.3522,201.2216 C213.5152,203.4816 218.7112,206.1926 222.3262,206.8696 C225.9402,207.5476 233.8472,204.6106 235.2032,201.4476 C236.5592,198.2856 237.0102,190.6036 232.4922,188.7966 Z" id="Stroke-73" stroke="#1A1918" stroke-linecap="round" stroke-linejoin="round"></path>
            <path d="M125.7867,189.0483 L121.2687,187.2413 C122.8497,188.8223 120.5907,191.3073 118.1057,192.6633 C115.6207,194.0183 112.2317,192.4373 112.4577,189.0483 C112.4577,189.0483 114.0507,186.0613 115.5547,184.7613 C115.0297,184.7403 114.5167,184.7983 114.0387,184.9813 C111.1017,186.1113 103.6467,192.8893 103.6467,192.8893 C103.6467,192.8893 100.4837,199.2143 103.6467,201.4733 C106.8097,203.7333 112.0057,206.4443 115.6207,207.1213 C119.2347,207.7993 127.1417,204.8623 128.4977,201.6993 C129.8527,198.5363 130.3047,190.8553 125.7867,189.0483" id="Fill-75" fill="#000105"></path>
            <path d="M125.7867,189.0483 L121.2687,187.2413 C122.8497,188.8223 120.5907,191.3073 118.1057,192.6633 C115.6207,194.0183 112.2317,192.4373 112.4577,189.0483 C112.4577,189.0483 114.0507,186.0613 115.5547,184.7613 C115.0297,184.7403 114.5167,184.7983 114.0387,184.9813 C111.1017,186.1113 103.6467,192.8893 103.6467,192.8893 C103.6467,192.8893 100.4837,199.2143 103.6467,201.4733 C106.8097,203.7333 112.0057,206.4443 115.6207,207.1213 C119.2347,207.7993 127.1417,204.8623 128.4977,201.6993 C129.8527,198.5363 130.3047,190.8553 125.7867,189.0483 Z" id="Stroke-77" stroke="#1A1918" stroke-linecap="round" stroke-linejoin="round"></path>
        </g>
    </g>
</svg>