<?xml version="1.0" encoding="UTF-8"?>
<svg width="432px" height="503px" viewBox="0 0 432 503" version="1.1" xmlns="http://www.w3.org/2000/svg" xmlns:xlink="http://www.w3.org/1999/xlink">
    <!-- Generator: Sketch 44.1 (41455) - http://www.bohemiancoding.com/sketch -->
    <title>Gestresst</title>
    <desc>Created with Sketch.</desc>
    <defs></defs>
    <g id="Page-1" stroke="none" stroke-width="1" fill="none" fill-rule="evenodd">
        <g id="Gestresst">
            <g id="Group-37" transform="translate(0.000000, 0.890000)">
                <path d="M336.1483,438.8993 C312.5583,499.5493 181.6483,483.5593 148.3283,475.0293 C115.0083,466.5093 101.1583,467.0393 99.3483,450.7593 C99.3483,450.7593 97.2183,441.6793 101.6883,435.5093 C104.8683,431.1193 121.7683,423.7993 131.2183,419.9593 C132.2083,416.8793 132.6083,414.7893 132.6083,414.7893 C134.4783,403.0893 134.6983,379.0293 134.9683,364.3693 C141.5983,370.9893 148.1583,377.0993 153.2183,381.2293 C166.0083,391.6893 192.7183,414.0393 216.2383,410.0793 C233.5483,407.1693 248.9583,403.3993 264.1783,389.9393 C269.4383,385.8393 289.8783,367.5393 304.5083,345.8993 C303.7783,360.8293 303.4283,389.3293 311.5983,410.3993 C312.3983,412.4793 313.2883,414.4893 314.2783,416.3993 C322.0383,418.9693 340.7383,426.5693 336.1483,438.8993" id="Fill-1" fill="#D0C7B2"></path>
                <g id="Group-6" transform="translate(335.000000, 198.000000)">
                    <path d="M1.0294,13.5714 C1.0294,13.5714 10.9224,-1.6716 15.9934,1.0734 C21.0644,3.8184 26.7374,25.5884 23.1584,33.0394 C19.5794,40.4894 19.0984,47.5734 17.9054,58.9444 C16.7124,70.3164 16.5584,73.2734 12.0834,82.2924 C7.6094,91.3104 0.2214,91.1884 0.2214,91.1884" id="Fill-3" fill="#D0C7B2"></path>
                    <path d="M1.0294,13.5714 C1.0294,13.5714 10.9224,-1.6716 15.9934,1.0734 C21.0644,3.8184 26.7374,25.5884 23.1584,33.0394 C19.5794,40.4894 19.0984,47.5734 17.9054,58.9444 C16.7124,70.3164 16.5584,73.2734 12.0834,82.2924 C7.6094,91.3104 0.2214,91.1884 0.2214,91.1884" id="Stroke-5" stroke="#1A1918" stroke-width="2.293" stroke-linecap="round"></path>
                </g>
                <g id="Group-10" transform="translate(63.000000, 193.000000)">
                    <path d="M23.4572,18.9917 C23.4572,18.9917 15.5842,-5.9033 8.3732,2.3967 C1.1622,10.6977 -2.7568,25.1137 4.7092,40.7007 C9.3322,50.3527 5.8882,57.7837 10.2142,75.0227 C14.5412,92.2617 22.1382,99.3607 30.0652,93.1517" id="Fill-7" fill="#D0C7B2"></path>
                    <path d="M23.4572,18.9917 C23.4572,18.9917 15.5842,-5.9033 8.3732,2.3967 C1.1622,10.6977 -2.7568,25.1137 4.7092,40.7007 C9.3322,50.3527 5.8882,57.7837 10.2142,75.0227 C14.5412,92.2617 22.1382,99.3607 30.0652,93.1517" id="Stroke-9" stroke="#1A1918" stroke-width="2.305" stroke-linecap="round" stroke-linejoin="round"></path>
                </g>
                <path d="M303.5929,348.9967 C303.6379,354.4647 301.3309,419.8657 337.1299,434.3377" id="Stroke-11" stroke="#1A1918" stroke-width="2" stroke-linecap="round" stroke-linejoin="round"></path>
                <path d="M135.117,363.0549 C135.117,363.0549 136.563,396.8139 132.868,414.3219 C132.868,414.3219 127.997,439.9249 109.803,444.0419" id="Stroke-13" stroke="#1A1918" stroke-width="2" stroke-linecap="round" stroke-linejoin="round"></path>
                <path d="M316.7513,415.2491 C316.7513,415.2491 342.1693,422.9721 336.4043,438.4281 C312.8163,499.0821 181.9073,483.0851 148.5863,474.5611 C115.2663,466.0381 101.4153,466.5631 99.6073,450.2901 C99.6073,450.2901 97.4793,441.2041 101.9413,435.0421 C106.4033,428.8801 131.2243,417.2781 131.2243,417.2781" id="Stroke-15" stroke="#1A1918" stroke-width="2" stroke-linecap="round" stroke-linejoin="round"></path>
                <path d="M313.6537,411.1003 L313.6547,411.0933 L313.6547,411.0893 L313.6697,411.0073 C313.6817,410.9523 313.7007,410.8903 313.7287,410.8253 C313.7837,410.6943 313.8867,410.5453 314.0227,410.4363 C314.1307,410.3333 314.3777,410.2443 314.3497,410.2583 C314.6547,410.1743 314.7587,410.2143 314.8417,410.2143 C315.0137,410.2343 315.1307,410.2643 315.2927,410.3043 C315.6047,410.3843 316.0157,410.5093 316.5447,410.6833 C317.5997,411.0303 319.1127,411.5693 321.0227,412.2893 C324.8397,413.7293 330.2407,415.8923 336.6407,418.6723 C349.4337,424.2293 366.2527,432.2633 382.2037,441.8513 C390.1747,446.6413 397.9227,451.8223 404.7767,457.2203 C411.6317,462.6083 417.5777,468.2433 421.9477,473.6933 C424.1357,476.4113 425.9297,479.0743 427.3027,481.5543 C428.6807,484.0333 429.6327,486.3253 430.2547,488.2613 C430.8797,490.1983 431.1847,491.7723 431.3457,492.8473 C431.5077,493.9243 431.5437,494.5043 431.5437,494.5043 C431.5437,494.5043 431.4997,493.9253 431.3237,492.8513 C431.1477,491.7793 430.8217,490.2113 430.1737,488.2883 C429.5277,486.3663 428.5477,484.0953 427.1427,481.6453 C425.7407,479.1943 423.9197,476.5673 421.7057,473.8903 C417.2827,468.5243 411.2877,462.9943 404.3877,457.7203 C397.4897,452.4363 389.7017,447.3783 381.6947,442.7123 C365.6707,433.3713 348.7967,425.5883 335.9787,420.2243 C329.5677,417.5413 324.1617,415.4603 320.3587,414.0843 C318.4587,413.3973 316.9557,412.8853 315.9397,412.5663 C315.4327,412.4063 315.0437,412.2953 314.8097,412.2393 C314.6997,412.2113 314.6077,412.1973 314.6377,412.2023 C314.6497,412.1933 314.6987,412.2353 314.9697,412.1593 C314.9367,412.1733 315.1807,412.0893 315.2857,411.9873 C315.4177,411.8803 315.5177,411.7333 315.5697,411.6043 C315.5967,411.5403 315.6137,411.4793 315.6247,411.4253 L315.6377,411.3493 C315.6387,411.3413 315.6377,411.3463 315.6377,411.3463 L315.6377,411.3503 L315.6367,411.3563 C315.5977,411.9073 315.1197,412.3213 314.5687,412.2813 C314.0187,412.2423 313.6047,411.7643 313.6437,411.2133 C313.6447,411.2113 313.6447,411.2083 313.6447,411.2053 L313.6537,411.1003 Z" id="Fill-17" fill="#1A1918"></path>
                <path d="M132.1783,413.4212 C132.1783,413.4212 129.7563,414.2792 125.5313,415.8752 C121.3063,417.4702 115.2863,419.8002 108.1173,422.7372 C93.7873,428.6182 74.8313,436.9122 56.6063,446.6512 C47.4993,451.5202 38.5733,456.7412 30.5763,462.1962 C22.5883,467.6502 15.5193,473.3522 10.2573,479.0322 C7.6323,481.8712 5.4803,484.7122 3.8893,487.4202 C2.2923,490.1252 1.2863,492.7022 0.7713,494.8982 C0.2103,497.0952 0.2613,498.8942 0.2623,500.0992 C0.3913,501.3052 0.4603,501.9482 0.4603,501.9482 C0.4603,501.9482 0.3793,501.3052 0.2293,500.1022 C0.2053,498.8952 0.1223,497.0892 0.6463,494.8702 C1.1233,492.6522 2.0893,490.0362 3.6493,487.2822 C5.2033,484.5242 7.3193,481.6232 9.9103,478.7172 C15.1033,472.9032 22.1083,467.0412 30.0343,461.4162 C37.9693,455.7912 46.8363,450.3872 55.8873,445.3342 C74.0023,435.2292 92.8643,426.5652 107.1363,420.4042 C114.2763,417.3262 120.2763,414.8782 124.4923,413.1982 C128.7083,411.5182 131.1483,410.6042 131.1483,410.6042 C131.9233,410.3112 132.7883,410.7022 133.0813,411.4782 C133.3733,412.2532 132.9823,413.1182 132.2073,413.4112 C132.2003,413.4132 132.1843,413.4192 132.1783,413.4212" id="Fill-19" fill="#1A1918"></path>
                <path d="M336.5755,225.5337 C340.0755,221.9827 343.5745,218.4317 347.0745,214.8807 C348.4015,213.5347 350.1275,212.0707 351.9485,212.5777 C352.9835,212.8657 353.7915,213.8357 353.8885,214.9057 C353.9525,215.6177 353.6765,216.3997 353.0595,216.7597" id="Stroke-21" stroke="#1A1918" stroke-linecap="round" stroke-linejoin="round"></path>
                <path d="M341.0332,240.8976 C342.8802,240.2166 344.8342,242.0966 345.4112,244.3136 C345.9882,246.5316 345.5732,248.9246 345.1552,251.1926 C344.5862,254.2786 344.0172,257.3646 343.4482,260.4506" id="Stroke-23" stroke="#1A1918" stroke-width="1.097" stroke-linecap="round" stroke-linejoin="round"></path>
                <path d="M84.2079,219.1466 C83.6889,216.7586 85.7319,216.1526 75.1769,206.7816 C74.6209,206.2866 74.2529,205.5436 73.5449,205.3126 C71.6719,204.7016 70.3609,207.1436 69.9049,209.0606 C69.0529,212.6446 68.1999,216.2286 67.3479,219.8116" id="Stroke-25" stroke="#1A1918" stroke-linecap="round" stroke-linejoin="round"></path>
                <path d="M81.3768,238.4592 C79.0818,238.3832 77.0318,240.1442 76.1148,242.2502 C75.1978,244.3552 75.2018,246.7382 75.3668,249.0282 C75.6048,252.3242 76.1458,255.5982 76.9798,258.7962" id="Stroke-27" stroke="#1A1918" stroke-linecap="round" stroke-linejoin="round"></path>
                <path d="M216.5,409.61 C233.801,406.7 249.212,402.926 264.433,389.472 C270.913,384.411 300.494,357.77 313.776,329.895 C327.065,302.003 339.731,283.351 339.731,256.607 C339.731,246.616 337.057,226.636 336.029,211.571 C334.179,184.427 342.816,163.452 344.049,135.69 C345.503,102.978 349.602,69.68 306.491,25.47 C281.948,0.302 214.476,-2.445 192.341,3.441 C171.042,9.105 144.681,20.217 116.909,40.156 C90.243,59.301 80.775,100.537 77.286,127.281 C73.798,154.025 84.825,193.764 86.769,211.252 C88.786,229.406 95.24,253.208 93.223,271.362 C91.554,286.388 96.42,317.673 109.413,335.255 C118.209,347.158 140.685,370.289 153.476,380.754 C166.267,391.219 192.977,413.566 216.5,409.61" id="Fill-29" fill="#D0C7B2"></path>
                <path d="M216.5,409.61 C233.801,406.7 249.212,402.926 264.433,389.472 C270.913,384.411 300.494,357.77 313.776,329.895 C327.065,302.003 339.731,283.351 339.731,256.607 C339.731,246.616 337.057,226.636 336.029,211.571 C334.179,184.427 342.816,163.452 344.049,135.69 C345.503,102.978 349.602,69.68 306.491,25.47 C281.948,0.302 214.476,-2.445 192.341,3.441 C171.042,9.105 144.681,20.217 116.909,40.156 C90.243,59.301 80.775,100.537 77.286,127.281 C73.798,154.025 84.825,193.764 86.769,211.252 C88.786,229.406 95.24,253.208 93.223,271.362 C91.554,286.388 96.42,317.673 109.413,335.255 C118.209,347.158 140.685,370.289 153.476,380.754 C166.267,391.219 192.977,413.566 216.5,409.61 Z" id="Stroke-31" stroke="#1A1918" stroke-width="2"></path>
                <path d="M120.6432,211.9014 C120.6432,211.9014 146.9352,193.1214 152.5692,193.7474 C158.2032,194.3734 176.9832,201.8854 178.2352,204.3894 L179.4872,206.8934 C179.4872,206.8934 188.8772,210.6494 170.0972,219.4134 C151.3172,228.1774 141.9272,223.7954 135.6672,222.5434 C129.4072,221.2914 119.3912,216.9094 120.6432,211.9014" id="Fill-33" fill="#FFFFFF"></path>
                <path d="M243.9645,198.1295 C243.9645,198.1295 259.6145,180.6015 270.2565,183.1055 C280.8985,185.6095 305.9385,195.6255 312.8245,203.7635 C319.7105,211.9015 286.5325,221.9175 279.0205,221.9175 C271.5085,221.9175 245.8425,207.5195 243.9645,198.1295" id="Fill-35" fill="#FFFFFF"></path>
            </g>
            <g id="Group-90" transform="translate(104.000000, 154.890000)">
                <path d="M0.8407,27.3471 C0.8407,27.3471 29.7737,14.5971 36.1487,15.5781 C42.5237,16.5581 57.7267,20.9721 61.1587,19.9911 C64.5917,19.0101 78.8127,17.5391 80.7747,13.1261 C82.7367,8.7121 91.5637,1.8471 91.5637,6.7511 C91.5637,11.6541 89.1117,19.0101 77.8327,21.9531 C66.5537,24.8951 49.3897,23.4241 40.5627,21.9531 C31.7357,20.4811 25.3607,20.9721 17.5137,24.8951 C9.6677,28.8181 -2.5923,35.1931 0.8407,27.3471" id="Fill-38" fill="#1A1918"></path>
                <path d="M0.8407,27.3471 C0.8407,27.3471 29.7737,14.5971 36.1487,15.5781 C42.5237,16.5581 57.7267,20.9721 61.1587,19.9911 C64.5917,19.0101 78.8127,17.5391 80.7747,13.1261 C82.7367,8.7121 91.5637,1.8471 91.5637,6.7511 C91.5637,11.6541 89.1117,19.0101 77.8327,21.9531 C66.5537,24.8951 49.3897,23.4241 40.5627,21.9531 C31.7357,20.4811 25.3607,20.9721 17.5137,24.8951 C9.6677,28.8181 -2.5923,35.1931 0.8407,27.3471 Z" id="Stroke-40" stroke="#1A1918" stroke-linecap="round" stroke-linejoin="round"></path>
                <path d="M123.4388,4.7891 C123.4388,4.7891 128.3428,4.2991 130.7948,8.2221 C133.2468,12.1451 138.1508,15.0871 142.5638,15.0871 C146.9778,15.0871 168.5548,7.2411 173.4588,3.8081 C178.3628,0.3751 193.5648,-0.6049 200.4308,2.3371 C207.2958,5.2791 218.5748,2.8271 215.1418,5.2791 C211.7098,7.7311 190.6228,1.8471 184.2478,5.2791 C177.8728,8.7121 163.1608,19.9911 156.7858,20.9721 C150.4108,21.9531 134.2278,23.4241 130.7948,20.4821 C127.3618,17.5391 121.4768,10.6741 123.4388,4.7891" id="Fill-42" fill="#1A1918"></path>
                <path d="M123.4388,4.7891 C123.4388,4.7891 128.3428,4.2991 130.7948,8.2221 C133.2468,12.1451 138.1508,15.0871 142.5638,15.0871 C146.9778,15.0871 168.5548,7.2411 173.4588,3.8081 C178.3628,0.3751 193.5648,-0.6049 200.4308,2.3371 C207.2958,5.2791 218.5748,2.8271 215.1418,5.2791 C211.7098,7.7311 190.6228,1.8471 184.2478,5.2791 C177.8728,8.7121 163.1608,19.9911 156.7858,20.9721 C150.4108,21.9531 134.2278,23.4241 130.7948,20.4821 C127.3618,17.5391 121.4768,10.6741 123.4388,4.7891 Z" id="Stroke-44" stroke="#1A1918" stroke-linecap="round" stroke-linejoin="round"></path>
                <path d="M81.7555,102.3772 C81.7555,102.3772 81.3045,102.3282 80.4575,102.2972 C79.6145,102.2682 78.3615,102.2532 76.8285,102.4652 C76.0845,102.5882 75.1935,102.7742 74.5745,103.2792 C74.5055,103.3452 74.4215,103.4012 74.3615,103.4712 C74.3145,103.5492 74.2655,103.6232 74.2135,103.6952 C74.1015,103.8732 73.9845,104.1292 73.8665,104.3482 C73.6225,104.8062 73.3695,105.2802 73.1085,105.7702 C72.5875,106.7412 72.0235,107.7632 71.5345,108.8562 C71.0515,109.9422 70.5995,111.1192 70.5675,112.2772 C70.5165,112.8602 70.6595,113.4002 70.8535,113.9112 C71.0005,114.1502 71.0895,114.4122 71.2995,114.6262 L71.5715,114.9662 L71.9165,115.2712 L72.0875,115.4262 L72.1525,115.4852 L72.2635,115.5672 L72.7085,115.8992 C73.0055,116.1182 73.3075,116.3572 73.6065,116.5652 C74.2015,116.9512 74.7865,117.3592 75.4425,117.7092 C76.7275,118.4342 78.1075,119.0102 79.6065,119.4472 C81.1025,119.8862 82.7285,120.2432 84.4265,120.7532 C86.1215,121.2662 87.8335,121.9812 89.4395,122.8872 C90.1985,123.3442 90.9615,123.8042 91.7285,124.2662 C92.1135,124.5072 92.4785,124.7142 92.8355,124.8922 C93.2045,125.0782 93.5405,125.2872 93.9375,125.4552 C96.9945,126.9022 100.3795,127.9042 103.7835,128.2402 C105.4775,128.4182 107.1885,128.4442 108.7865,128.1932 C109.5925,128.0842 110.3395,127.8572 111.0235,127.5842 C111.3675,127.4232 111.6185,127.2802 111.9825,127.0642 L113.0985,126.3262 C116.0455,124.3282 119.1975,122.4762 122.3955,121.0972 C123.9725,120.4102 125.6305,119.7852 127.1185,119.2892 C127.4965,119.1472 127.8955,119.0102 128.2495,118.8652 C128.5815,118.7162 128.9115,118.5682 129.2405,118.4202 C129.5675,118.2442 129.8925,118.0702 130.2155,117.8972 C130.5225,117.7012 130.8285,117.5062 131.1315,117.3132 C133.4925,115.7062 135.1525,113.3272 135.1225,110.9732 C135.1165,110.6832 135.0695,110.3982 135.0425,110.1132 C134.9605,109.8392 134.9135,109.5552 134.8135,109.2902 C134.7005,109.0462 134.5935,108.7282 134.4845,108.5472 C134.3175,108.2852 134.1625,107.9892 133.9975,107.7592 C133.3955,106.8882 132.5215,106.0522 131.7405,105.3452 C130.1065,103.9382 128.5305,102.8442 127.2115,101.9852 C124.5615,100.2742 122.9485,99.4352 122.9485,99.4352 C122.9485,99.4352 123.3685,99.6042 124.1575,99.9232 C124.9395,100.2562 126.0925,100.7402 127.5095,101.4682 C128.9265,102.1972 130.6385,103.1172 132.4605,104.4512 C134.1775,105.7692 136.5795,107.6492 136.8425,110.8802 C136.9685,112.4332 136.5405,114.0552 135.7405,115.4662 C134.9405,116.8862 133.7795,118.1032 132.4545,119.1202 C132.1135,119.3612 131.7705,119.6042 131.4245,119.8482 C131.0635,120.0662 130.7005,120.2842 130.3355,120.5042 C129.9445,120.7022 129.5515,120.9012 129.1565,121.1012 C128.7725,121.2792 128.4075,121.4232 128.0295,121.5872 C126.4545,122.2182 124.9965,122.7832 123.4865,123.5032 C121.9905,124.2032 120.5225,125.0042 119.0695,125.8852 C117.6215,126.7752 116.1835,127.7432 114.7065,128.7352 L113.5985,129.4842 C113.2025,129.7332 112.6755,130.0432 112.2075,130.2562 C111.2365,130.6662 110.2475,130.9552 109.2695,131.1022 C107.3085,131.4262 105.3705,131.4082 103.4715,131.2222 C99.6775,130.8052 96.0325,129.6852 92.6735,128.0582 C92.2515,127.8742 91.8295,127.6162 91.4105,127.3962 C90.9795,127.1672 90.5745,126.9392 90.2185,126.6982 C89.4885,126.2272 88.7615,125.7592 88.0385,125.2942 C86.6255,124.4452 85.1585,123.7792 83.6225,123.2622 C82.0885,122.7422 80.4565,122.3602 78.8475,121.7892 C77.2365,121.2352 75.6835,120.5002 74.3035,119.6272 C73.6055,119.2092 72.9515,118.7122 72.3045,118.2392 C71.9955,118.0002 71.7205,117.7592 71.4305,117.5222 L71.0035,117.1662 L70.8985,117.0762 C70.8165,117.0072 70.8105,116.9922 70.7635,116.9472 L70.5395,116.7192 L70.1005,116.2632 L69.7265,115.7352 C69.4595,115.4012 69.3085,114.9802 69.1305,114.5942 C68.8635,113.7812 68.7445,112.9252 68.8565,112.1542 C69.0285,110.5932 69.6365,109.3272 70.2455,108.2102 C70.8665,107.0922 71.5255,106.1092 72.1275,105.1852 C72.4255,104.7252 72.7145,104.2802 72.9925,103.8502 C73.1385,103.6282 73.2445,103.4272 73.4165,103.1992 L73.7185,102.8392 C73.8275,102.7372 73.9515,102.6642 74.0665,102.5802 C75.0265,101.9812 75.9635,101.9392 76.7675,101.8752 C78.3915,101.8062 79.6315,102.0122 80.4735,102.1362 C81.3145,102.2722 81.7555,102.3772 81.7555,102.3772" id="Fill-46" fill="#1A1918"></path>
                <path d="M62.5088,172.5105 C62.5088,172.5105 77.2188,158.5605 83.0218,158.5605 C88.8248,158.5605 94.3678,159.8285 97.9598,161.8815 C100.4578,163.3085 99.8488,165.1935 103.1288,165.6985 C106.4088,166.2035 115.2388,158.3815 117.7618,158.6345 C120.2848,158.8865 129.8728,158.3815 132.3958,161.6615 C134.9188,164.9415 143.7488,171.5015 142.7398,172.2585 C141.7308,173.0155 128.3588,162.4185 126.3398,162.1665 C124.3218,161.9135 118.7708,161.4095 117.0048,163.1755 C115.2388,164.9415 104.8948,170.7445 102.3718,170.2395 C99.8488,169.7355 88.2428,161.6615 83.1968,162.9235 C78.1508,164.1845 62.5088,177.3045 62.5088,172.5105" id="Fill-48" fill="#1A1918"></path>
                <path d="M62.5088,172.5105 C62.5088,172.5105 77.2188,158.5605 83.0218,158.5605 C88.8248,158.5605 94.3678,159.8285 97.9598,161.8815 C100.4578,163.3085 99.8488,165.1935 103.1288,165.6985 C106.4088,166.2035 115.2388,158.3815 117.7618,158.6345 C120.2848,158.8865 129.8728,158.3815 132.3958,161.6615 C134.9188,164.9415 143.7488,171.5015 142.7398,172.2585 C141.7308,173.0155 128.3588,162.4185 126.3398,162.1665 C124.3218,161.9135 118.7708,161.4095 117.0048,163.1755 C115.2388,164.9415 104.8948,170.7445 102.3718,170.2395 C99.8488,169.7355 88.2428,161.6615 83.1968,162.9235 C78.1508,164.1845 62.5088,177.3045 62.5088,172.5105 Z" id="Stroke-50" stroke="#1A1918" stroke-linecap="round" stroke-linejoin="round"></path>
                <path d="M8.4068,51.2018 C8.4068,51.2018 9.6788,48.9298 12.2158,46.0348 C12.8488,45.3078 13.5668,44.5468 14.3698,43.7788 C15.2268,42.9578 16.0058,42.2778 17.0238,41.5198 C18.0188,40.7798 19.0738,40.1168 20.1868,39.4898 C21.2948,38.8608 22.4248,38.2368 23.5818,37.6668 C25.8798,36.4998 28.2508,35.4988 30.5168,34.7008 C31.6488,34.3018 32.7538,33.9488 33.8118,33.6548 C34.8758,33.3748 35.8798,33.1208 36.8168,32.9268 C37.7478,32.7118 38.6148,32.5778 39.3748,32.4318 C40.1418,32.3158 40.8068,32.2098 41.3588,32.1458 C42.4618,32.0278 43.0928,31.9608 43.0928,31.9608 C43.1748,31.9518 43.2488,32.0118 43.2578,32.0938 C43.2658,32.1698 43.2158,32.2378 43.1438,32.2558 L43.1388,32.2568 C43.1388,32.2568 42.5278,32.4058 41.4578,32.6668 C40.3948,32.9538 38.8758,33.3468 37.1008,33.9568 C36.2098,34.2508 35.2598,34.6108 34.2618,34.9978 C33.2718,35.4098 32.2228,35.8228 31.1658,36.3138 C29.0458,37.2808 26.8538,38.4478 24.7588,39.7578 C23.7168,40.4208 22.6908,41.1058 21.7258,41.8418 C20.7728,42.5758 19.8338,43.2998 18.9258,43.9988 C17.0678,45.3878 15.3338,46.6838 13.8478,47.7948 C12.3438,48.9168 11.0608,49.8538 10.1208,50.4688 C9.1888,51.0928 8.6188,51.4148 8.6188,51.4148 C8.5438,51.4568 8.4488,51.4298 8.4068,51.3548 C8.3788,51.3068 8.3818,51.2478 8.4068,51.2018" id="Fill-52" fill="#1A1918"></path>
                <path d="M186.5807,21.6967 C186.5807,21.6967 188.3957,22.7927 191.0807,24.4877 C192.4267,25.3307 193.9997,26.3117 195.6657,27.3867 C197.3427,28.4487 199.1047,29.6177 200.8757,30.7747 C201.7707,31.3397 202.6657,31.9037 203.5477,32.4597 C204.4377,33.0037 205.3017,33.5547 206.1107,34.1267 C206.9107,34.7107 207.6697,35.2937 208.3557,35.8937 C209.0537,36.4777 209.6987,37.0507 210.2787,37.5997 C212.6227,39.7657 213.9367,41.5517 213.9367,41.5517 C213.9887,41.6217 213.9737,41.7207 213.9037,41.7717 C213.8607,41.8037 213.8067,41.8097 213.7607,41.7947 C213.7607,41.7947 211.6547,41.0987 208.8697,39.5417 C208.1677,39.1607 207.4227,38.7247 206.6517,38.2427 C205.8687,37.7757 205.0787,37.2347 204.2747,36.6557 C203.4817,36.0637 202.6887,35.4127 201.8967,34.7347 C201.0947,34.0687 200.2807,33.3927 199.4657,32.7167 C197.8167,31.3917 196.1597,30.0787 194.6307,28.8137 C193.0917,27.5627 191.6717,26.3717 190.4527,25.3527 C188.0087,23.3257 186.4047,21.9397 186.4047,21.9397 C186.3417,21.8847 186.3347,21.7897 186.3887,21.7267 C186.4377,21.6707 186.5187,21.6597 186.5807,21.6967" id="Fill-54" fill="#1A1918"></path>
                <path d="M87.2166,31.5251 C87.2166,31.5251 87.6546,31.4741 88.4016,31.3431 C89.1446,31.2091 90.2066,31.0141 91.3906,30.6231 C91.9856,30.4381 92.5916,30.1631 93.1846,29.8501 C93.7826,29.5361 94.2986,29.0831 94.6986,28.5821 C94.8906,28.3691 95.0936,27.9831 95.3146,27.6301 C95.5116,27.2831 95.7116,26.9301 95.9126,26.5751 C96.3276,25.8481 96.7386,25.0951 97.1456,24.3391 C97.5666,23.5881 97.9886,22.8371 98.4026,22.0981 C98.8026,21.3501 99.2486,20.6411 99.6456,19.9361 C100.4606,18.5361 101.2496,17.2421 101.9556,16.1481 C103.3506,13.9491 104.4246,12.5521 104.4246,12.5521 C104.4246,12.5521 103.9516,14.2511 102.9776,16.6721 C102.5006,17.8871 101.9006,19.2831 101.2046,20.7551 C100.8506,21.4871 100.5066,22.2571 100.1046,23.0111 C99.7056,23.7681 99.2996,24.5381 98.8946,25.3071 C98.4606,26.0631 98.0226,26.8181 97.5726,27.5571 C97.3576,27.9281 97.0976,28.3061 96.8566,28.6651 C96.6036,28.9981 96.4036,29.3401 96.0376,29.7191 C95.3806,30.4451 94.5766,30.9141 93.8156,31.1971 C93.0546,31.4941 92.3176,31.6621 91.6406,31.7381 C90.2896,31.9241 89.1756,31.8251 88.4096,31.7391 C87.6426,31.6411 87.2166,31.5251 87.2166,31.5251" id="Fill-56" fill="#1A1918"></path>
                <path d="M111.9253,16.5234 C111.9253,16.5234 112.8033,17.6934 113.9443,19.5044 C114.5253,20.4044 115.1693,21.4674 115.8553,22.5984 C116.5443,23.7274 117.2693,24.9314 118.0153,26.0894 C118.3873,26.6654 118.7763,27.2244 119.1663,27.7264 C119.3673,27.9474 119.5643,28.2264 119.7463,28.3734 L119.8833,28.5084 L119.9173,28.5424 C119.9083,28.5394 119.9593,28.5744 119.9033,28.5394 L119.9293,28.5574 L120.0353,28.6294 L120.4483,28.9044 C120.9153,29.1834 121.4853,29.4794 122.0083,29.7194 C122.5483,29.9464 123.0673,30.1674 123.5583,30.3524 C124.5413,30.7194 125.3883,31.0034 125.9833,31.2064 C126.5843,31.4094 126.9273,31.5254 126.9273,31.5254 C126.9273,31.5254 125.4703,31.7524 123.2823,31.4664 C122.7343,31.3984 122.1413,31.2944 121.5203,31.1294 C120.8913,30.9554 120.2563,30.7764 119.5473,30.4174 L119.0933,30.1764 L118.9813,30.1154 L118.9523,30.1004 L118.8893,30.0574 L118.8253,30.0094 L118.5673,29.8144 C118.1903,29.5524 117.9653,29.2694 117.6853,28.9804 C117.1763,28.4054 116.7493,27.7924 116.3383,27.1784 C115.9493,26.5544 115.5683,25.9294 115.2353,25.2974 C114.8893,24.6714 114.5963,24.0334 114.3053,23.4234 C113.7303,22.1984 113.2693,21.0244 112.9153,20.0024 C112.1923,17.9654 111.9253,16.5234 111.9253,16.5234" id="Fill-58" fill="#1A1918"></path>
                <path d="M118.9849,54.4688 C118.9849,54.4688 118.9099,54.5388 118.7859,54.6838 C118.6559,54.8178 118.4949,55.0488 118.2729,55.3128 C118.0719,55.5998 117.8159,55.9278 117.5699,56.3378 C117.3009,56.7288 117.0739,57.2178 116.7949,57.7158 C116.5779,58.2518 116.2979,58.8008 116.1159,59.4278 C115.8799,60.0328 115.7719,60.7118 115.6019,61.3908 C115.4919,62.0838 115.4009,62.8048 115.3649,63.5408 C115.3549,64.2808 115.2969,65.0288 115.4109,65.7838 L115.4849,66.9158 C115.5359,67.2908 115.6169,67.6628 115.6809,68.0328 C115.7519,68.4028 115.8119,68.7718 115.8629,69.1388 C115.9339,69.5028 116.0439,69.8558 116.1309,70.2078 C116.3439,70.8998 116.4259,71.6108 116.6709,72.2398 C116.8909,72.8738 117.0769,73.4868 117.2469,74.0568 C117.4049,74.6308 117.6219,75.1318 117.7839,75.5908 C117.9569,76.0448 118.0909,76.4508 118.2059,76.7858 C118.4299,77.4568 118.5439,77.8538 118.5439,77.8538 C118.5439,77.8538 118.2849,77.5428 117.8559,76.9758 C117.6439,76.6908 117.3819,76.3448 117.0999,75.9358 C116.8189,75.5268 116.4679,75.0798 116.2009,74.5288 C115.9059,73.9928 115.5889,73.4058 115.2759,72.7728 C114.9279,72.1558 114.7149,71.4318 114.4419,70.7068 C114.3159,70.3398 114.1679,69.9728 114.0549,69.5878 C113.9559,69.1978 113.8649,68.7998 113.7839,68.3968 C113.7029,67.9928 113.6039,67.5898 113.5369,67.1778 L113.4169,65.9198 C113.3199,65.0818 113.4009,64.2288 113.4409,63.3948 C113.4379,62.9768 113.5479,62.5678 113.6259,62.1638 C113.7179,61.7628 113.7649,61.3598 113.8939,60.9788 C114.1349,60.2138 114.3899,59.4868 114.7479,58.8448 C115.0389,58.1768 115.4739,57.6258 115.8259,57.1088 C116.2289,56.6198 116.5999,56.1818 116.9869,55.8478 C117.3419,55.4878 117.7179,55.2418 118.0009,55.0238 C118.6059,54.6218 118.9849,54.4688 118.9849,54.4688" id="Fill-60" fill="#1A1918"></path>
                <path d="M86.7754,51.8215 C86.7754,51.8215 87.9714,52.6875 89.3314,54.4035 C89.6684,54.8325 90.0424,55.2965 90.3754,55.8275 C90.7324,56.3445 91.0824,56.9085 91.4054,57.5155 C91.7434,58.1125 92.0414,58.7605 92.3484,59.4175 C92.6094,60.0935 92.8914,60.7755 93.1024,61.4845 C93.2894,62.2015 93.5274,62.9035 93.6254,63.6315 C93.7654,64.3485 93.8584,65.0615 93.8834,65.7595 C93.9014,66.1075 93.9344,66.4475 93.9384,66.7815 C93.9394,67.1165 93.9014,67.4455 93.8844,67.7635 C93.8454,68.3995 93.8114,68.9965 93.6684,69.5395 C93.5614,70.0835 93.4414,70.5745 93.3334,71.0055 C93.1834,71.4295 93.0324,71.7915 92.9124,72.0875 C92.6674,72.6775 92.5114,73.0005 92.5114,73.0005 C92.5114,73.0005 92.5054,72.6275 92.5234,72.0015 C92.5354,71.6885 92.5444,71.3115 92.5774,70.8885 C92.5544,70.4565 92.5274,69.9735 92.5234,69.4555 C92.5364,68.9385 92.4384,68.3785 92.3924,67.7915 C92.3584,67.2045 92.2394,66.5935 92.1344,65.9625 C92.0604,65.3285 91.8744,64.6905 91.7284,64.0365 C91.5994,63.3795 91.3724,62.7305 91.1914,62.0735 C91.0084,61.4155 90.7484,60.7785 90.5484,60.1335 C90.2814,59.5115 90.0944,58.8665 89.8224,58.2775 C89.5594,57.6855 89.3354,57.0945 89.0774,56.5545 C88.8244,56.0075 88.5854,55.4905 88.3654,55.0135 C87.9034,54.0665 87.5134,53.2645 87.2264,52.7075 C86.9394,52.1435 86.7754,51.8215 86.7754,51.8215" id="Fill-62" fill="#1A1918"></path>
                <path d="M46.1825,86.2372 C46.1825,86.2372 48.4575,85.2332 51.6665,83.3542 C52.4685,82.8852 53.3275,82.3612 54.2275,81.7982 C55.1265,81.2302 56.0355,80.5672 56.9555,79.8592 C57.8815,79.1622 58.8495,78.4702 59.8005,77.7282 C60.7545,76.9892 61.7215,76.2512 62.7175,75.5592 C63.7155,74.8742 64.7145,74.1902 65.6985,73.5162 C66.6855,72.8472 67.6465,72.1682 68.5355,71.4622 C69.4285,70.7602 70.2715,70.0512 71.0185,69.3262 C71.4035,68.9742 71.7595,68.6132 72.0915,68.2532 C72.4375,67.9032 72.7495,67.5462 73.0375,67.1942 C73.3395,66.8512 73.6115,66.5092 73.8495,66.1692 C74.0955,65.8332 74.3405,65.5192 74.5265,65.1992 C74.7195,64.8822 74.9205,64.5932 75.0825,64.3142 C75.2345,64.0282 75.3735,63.7652 75.4995,63.5282 C75.7705,63.0572 75.8875,62.6472 76.0135,62.3832 C76.1265,62.1132 76.1855,61.9702 76.1855,61.9702 C76.1855,61.9702 76.1535,62.1222 76.0925,62.4062 C76.0175,62.6872 75.9745,63.1252 75.7935,63.6432 C75.6375,64.1712 75.4345,64.8122 75.1165,65.5152 C74.9775,65.8782 74.7825,66.2382 74.5855,66.6252 C74.3955,67.0172 74.1735,67.4162 73.9215,67.8202 C73.6825,68.2342 73.4195,68.6572 73.1225,69.0772 C72.8385,69.5072 72.5305,69.9432 72.1925,70.3732 C71.5395,71.2542 70.7875,72.1332 69.9805,73.0142 C69.1765,73.9012 68.2985,74.7692 67.3875,75.6342 C66.9235,76.0562 66.4425,76.4632 65.9595,76.8742 C65.4545,77.2522 64.9555,77.6472 64.4395,78.0142 C63.4005,78.7392 62.3085,79.3842 61.1915,79.9362 C60.0835,80.5032 58.9825,81.0322 57.8975,81.5002 C56.8015,81.9472 55.7425,82.3682 54.7575,82.7982 C53.7745,83.2292 52.8415,83.6272 51.9745,83.9772 C48.5165,85.3992 46.1825,86.2372 46.1825,86.2372" id="Fill-64" fill="#1A1918"></path>
                <path d="M143.2524,58.4399 C143.2524,58.4399 144.2054,59.8869 145.8204,61.9249 C146.2304,62.4289 146.6734,62.9749 147.1424,63.5529 C147.6184,64.1249 148.1694,64.6939 148.7554,65.2669 C149.3114,65.8559 149.8864,66.4659 150.4704,67.0839 C151.0584,67.6959 151.6234,68.3359 152.1364,69.0109 C153.1814,70.3459 154.0214,71.8359 154.9544,73.1239 C155.8724,74.4209 156.8094,75.5679 157.7154,76.4289 C158.1684,76.8539 158.6084,77.2299 159.0374,77.4749 C159.4584,77.7479 159.8614,77.9049 160.2134,77.9739 C160.5584,78.0249 160.8624,78.0199 161.0434,77.9439 C161.2384,77.8849 161.3424,77.8539 161.3424,77.8539 C161.3424,77.8539 161.2494,77.9119 161.0754,78.0199 C160.9074,78.1489 160.6014,78.2409 160.2014,78.2889 C159.8004,78.3159 159.2904,78.2719 158.7634,78.0849 C158.2194,77.9239 157.6604,77.6359 157.0704,77.2989 C155.8934,76.6149 154.6404,75.6539 153.3854,74.5499 C152.1394,73.4389 150.8004,72.2429 149.7514,70.8279 C149.2164,70.1299 148.7534,69.3789 148.3514,68.6079 C147.9404,67.8429 147.5434,67.0899 147.1954,66.3379 C146.8624,65.5769 146.5414,64.8439 146.1984,64.1779 C145.8564,63.5109 145.5334,62.8809 145.2354,62.2999 C144.0454,59.9839 143.2524,58.4399 143.2524,58.4399" id="Fill-66" fill="#1A1918"></path>
                <path d="M151.1945,56.2338 C151.1945,56.2338 151.6415,56.3838 152.3985,56.6638 C152.7765,56.8058 153.2355,56.9738 153.7485,57.1828 C154.0065,57.2838 154.2815,57.3918 154.5715,57.5058 C154.8575,57.6228 155.0595,57.8838 155.3455,58.0518 C157.5005,59.5768 160.4365,61.5328 163.4915,63.2448 C166.5325,64.9618 169.7435,66.4038 172.1845,66.9008 C172.3365,66.9308 172.4835,66.9668 172.6315,66.9838 C172.7795,66.9838 172.9175,67.0008 173.0485,67.0668 C173.3145,67.1888 173.5685,67.2858 173.8105,67.3568 C174.0565,67.4468 174.2875,67.5068 174.5035,67.5528 C174.7205,67.6038 174.9305,67.6648 175.1125,67.6728 C175.3045,67.6938 175.4765,67.7138 175.6255,67.7298 C175.7765,67.7258 175.9045,67.7228 176.0085,67.7198 C176.2275,67.7108 176.3445,67.7058 176.3445,67.7058 C176.3445,67.7058 176.2525,67.7768 176.0805,67.9098 C175.9885,67.9778 175.8755,68.0628 175.7435,68.1608 C175.6025,68.2408 175.4335,68.3248 175.2375,68.4188 C174.8505,68.5948 174.3385,68.7838 173.7485,68.8778 C173.4485,68.9428 173.1295,68.9898 172.7945,69.0158 C172.4495,69.0708 172.1275,68.9038 171.7765,68.8588 C168.9795,68.2788 165.6535,66.7548 162.5145,64.9898 C159.3695,63.2268 156.3855,61.2368 154.1915,59.6858 C153.9345,59.4668 153.6135,59.3628 153.4085,59.1228 C153.2065,58.8798 153.0155,58.6498 152.8355,58.4338 C152.4735,58.0058 152.1755,57.6108 151.9315,57.2848 C151.4465,56.6328 151.1945,56.2338 151.1945,56.2338" id="Fill-68" fill="#1A1918"></path>
                <path d="M139.5744,44.1863 C139.5744,44.1863 140.3964,43.1853 141.9464,41.5363 C143.4944,39.8863 145.7974,37.6093 148.8014,35.1193 C150.3084,33.8793 151.9994,32.5973 153.8904,31.3643 C155.7754,30.1243 157.8904,28.9763 160.2354,28.0573 C161.4094,27.6053 162.6414,27.2043 163.9444,26.9493 C165.2404,26.6783 166.6044,26.5233 168.0014,26.5933 L168.5264,26.6113 L169.0994,26.6973 L170.0434,26.8443 C170.6744,26.9453 171.2934,27.0143 171.9754,27.2333 L173.9854,27.7973 C174.6694,27.9793 175.2454,28.2423 175.8824,28.4623 L177.7514,29.1483 L179.5594,29.9253 C180.7744,30.4303 181.9514,30.9793 183.1134,31.5363 C184.2864,32.0773 185.4324,32.6413 186.5374,33.2403 C187.6604,33.8143 188.7434,34.4263 189.7924,35.0463 C191.8944,36.2893 193.8624,37.5803 195.6844,38.8693 C196.5914,39.5173 197.4734,40.1483 198.3264,40.7583 C199.1584,41.3973 199.9614,42.0143 200.7334,42.6063 C202.2684,43.7993 203.6414,44.9383 204.8404,45.9673 C206.0404,46.9973 207.0634,47.9233 207.8934,48.7013 C209.5524,50.2573 210.4394,51.2213 210.4394,51.2213 C210.5154,51.3033 210.5104,51.4323 210.4284,51.5083 C210.3644,51.5673 210.2714,51.5763 210.1984,51.5393 C210.1984,51.5393 209.0324,50.9533 207.0504,49.8623 C206.0534,49.3253 204.8624,48.6493 203.4944,47.8793 C202.1374,47.0983 200.6074,46.2173 198.9384,45.2553 C197.2824,44.2853 195.4894,43.2343 193.5924,42.1233 C191.6834,41.0403 189.7154,39.8313 187.6614,38.6273 C186.6524,37.9893 185.6064,37.3833 184.5604,36.7503 C183.5134,36.1143 182.4614,35.4623 181.3764,34.8573 C180.3014,34.2253 179.2104,33.6053 178.0874,33.0563 L176.4114,32.1973 L174.7054,31.4373 C174.1394,31.2043 173.5524,30.8993 173.0014,30.7233 L171.3374,30.1393 C170.8114,29.9143 170.1614,29.7993 169.5394,29.6633 L168.6064,29.4613 L168.3734,29.4113 L168.2564,29.3853 L168.1984,29.3733 L168.1694,29.3663 C168.1374,29.3613 168.3424,29.3903 168.2434,29.3773 L167.8184,29.3403 C166.6894,29.2133 165.5284,29.2723 164.3854,29.4433 C163.2394,29.5963 162.1094,29.8923 161.0124,30.2423 C158.8134,30.9473 156.7604,31.9413 154.8624,32.9843 C152.9634,34.0293 151.2274,35.1513 149.6664,36.2513 C146.5434,38.4573 144.1194,40.5593 142.4404,42.0433 C140.7664,43.5383 139.8704,44.4553 139.8704,44.4553 C139.7934,44.5343 139.6664,44.5353 139.5874,44.4583 C139.5134,44.3853 139.5094,44.2653 139.5744,44.1863" id="Fill-70" fill="#1A1918"></path>
                <path d="M15.1707,59.6082 C15.1707,59.6082 17.9937,56.1402 23.0087,51.8282 C23.6397,51.2942 24.2967,50.7372 24.9777,50.1622 C25.6767,49.6102 26.4007,49.0392 27.1447,48.4522 C28.6317,47.2752 30.2707,46.1242 32.0087,44.9882 C33.7597,43.8732 35.6297,42.8042 37.5897,41.8092 C39.5527,40.8172 41.5667,39.8292 43.7057,39.0182 C44.7647,38.5982 45.8757,38.2442 47.0277,37.9622 C48.1607,37.6942 49.4767,37.5132 50.7767,37.7162 C51.3197,37.8192 51.8077,37.8452 52.3907,38.0092 C52.9617,38.1652 53.5297,38.3202 54.0937,38.4752 C55.1287,38.8592 56.1607,39.2012 57.1097,39.6522 C59.0477,40.4842 60.8147,41.4412 62.4687,42.3822 C64.1057,43.3472 65.6237,44.2952 66.9987,45.2052 C69.7477,47.0282 71.9687,48.6332 73.4907,49.8012 C75.0147,50.9652 75.8637,51.6602 75.8637,51.6602 C75.9487,51.7302 75.9617,51.8562 75.8917,51.9422 C75.8257,52.0222 75.7107,52.0382 75.6257,51.9822 C75.6257,51.9822 74.7177,51.3812 73.0907,50.3852 C71.4587,49.3972 69.1347,47.9752 66.2667,46.4282 C64.8347,45.6522 63.2647,44.8532 61.5897,44.0542 C59.9007,43.2942 58.1357,42.4532 56.2537,41.8072 C55.3237,41.4392 54.3547,41.1972 53.3937,40.9092 C52.9347,40.8142 52.4737,40.7192 52.0097,40.6232 C51.5617,40.5142 50.9687,40.5112 50.4517,40.4492 C48.8257,40.3172 46.8157,41.1062 44.9517,41.9652 C43.0717,42.8632 41.2197,43.9222 39.4517,45.0612 C37.6897,46.2272 35.9557,47.3732 34.2777,48.4832 C32.5837,49.5792 30.9457,50.6462 29.3607,51.6232 C28.5737,52.1212 27.8087,52.6062 27.0677,53.0742 C26.3197,53.5352 25.5967,53.9802 24.9017,54.4072 C23.5187,55.2732 22.2267,56.0382 21.0847,56.7242 C19.9367,57.4022 18.9307,57.9922 18.0897,58.4622 C16.4147,59.4132 15.4227,59.9192 15.4227,59.9192 C15.3227,59.9702 15.1987,59.9312 15.1477,59.8312 C15.1097,59.7562 15.1217,59.6692 15.1707,59.6082" id="Fill-72" fill="#1A1918"></path>
                <path d="M32.0633,69.4706 C32.0633,69.4706 32.6423,69.3806 33.6543,69.2236 C34.1553,69.1486 34.7623,69.0566 35.4603,68.9526 C35.8063,68.8976 36.1753,68.8396 36.5633,68.7786 C36.9513,68.7186 37.3523,68.8336 37.7753,68.8166 C38.6203,68.8196 39.5353,68.8566 40.5033,68.8336 C41.4723,68.8226 42.4923,68.8106 43.5463,68.7516 C44.6023,68.7196 45.6883,68.6296 46.7913,68.5386 C47.8983,68.4716 49.0063,68.2916 50.1243,68.1726 C51.2343,68.0126 52.3383,67.8166 53.4243,67.6306 C54.4953,67.3796 55.5633,67.1786 56.5713,66.9046 C57.5693,66.5996 58.5573,66.3646 59.4523,66.0366 C60.3423,65.6966 61.1993,65.4056 61.9633,65.0846 C62.3503,64.9356 62.6643,64.6696 63.0433,64.5906 C63.4203,64.4976 63.7773,64.4106 64.1133,64.3276 C64.7963,64.1716 65.3383,63.9276 65.8263,63.7846 C66.7843,63.4676 67.3613,63.2936 67.3613,63.2936 C67.3613,63.2936 66.9643,63.7116 66.2183,64.4316 C65.8343,64.7716 65.4033,65.2706 64.8143,65.6786 C64.5233,65.8946 64.2133,66.1236 63.8863,66.3656 C63.5613,66.6216 63.1343,66.7056 62.7493,66.9236 C61.9393,67.2646 61.0393,67.5716 60.0993,67.9296 C59.1543,68.2736 58.1273,68.5206 57.0813,68.8386 C56.0283,69.1246 54.9223,69.3346 53.8083,69.5926 C52.6843,69.7866 51.5413,69.9896 50.3953,70.1536 C49.2463,70.2766 48.1003,70.4616 46.9663,70.5316 C45.8323,70.6246 44.7173,70.7156 43.6363,70.7496 C42.5553,70.8096 41.5103,70.8226 40.5193,70.8336 C39.5283,70.8566 38.5913,70.8196 37.7263,70.8156 C37.2953,70.7756 36.8773,70.8556 36.4863,70.7686 C36.0963,70.6736 35.7263,70.5836 35.3793,70.4986 C34.6853,70.3256 34.0863,70.1546 33.5943,69.9986 C32.6103,69.6956 32.0633,69.4706 32.0633,69.4706" id="Fill-74" fill="#1A1918"></path>
                <path d="M84.5692,181.1009 C84.5692,181.1009 85.0592,181.2169 85.9172,181.4199 C86.3442,181.5189 86.8622,181.6389 87.4562,181.7769 C88.0482,181.9099 88.7162,182.0599 89.4442,182.2239 C90.9052,182.5239 92.5972,182.8879 94.4182,183.1909 C94.8722,183.2679 95.3342,183.3469 95.8022,183.4259 C96.2702,183.4899 96.7452,183.5539 97.2232,183.6189 C98.1762,183.7819 99.1502,183.8499 100.1222,183.9419 C101.0922,184.0659 102.0642,184.0619 103.0212,184.1289 C103.9762,184.1259 104.9162,184.1219 105.8262,184.1189 C106.7232,184.0169 107.6092,184.0019 108.4362,183.8999 C109.2602,183.7629 110.0392,183.6349 110.7582,183.5159 C111.4552,183.3129 112.1072,183.1459 112.6922,182.9979 C112.9912,182.9379 113.2492,182.8309 113.4882,182.7319 C113.7312,182.6359 113.9542,182.5479 114.1552,182.4689 C114.9682,182.1539 115.4552,181.9829 115.4552,181.9829 C115.4552,181.9829 115.0662,182.2929 114.3452,182.8189 C113.9722,183.0559 113.5642,183.4549 112.9932,183.7009 C112.4372,183.9789 111.8022,184.2929 111.0942,184.6139 C110.3712,184.8759 109.5682,185.1159 108.7122,185.3669 C107.8522,185.5779 106.9282,185.7179 105.9712,185.8739 C105.0122,185.9479 104.0152,186.0499 103.0032,186.0599 C101.9962,186.0149 100.9632,186.0429 99.9472,185.9329 C98.9312,185.8139 97.9122,185.7169 96.9272,185.5249 C95.9332,185.3789 94.9762,185.1389 94.0522,184.9089 C93.1202,184.7089 92.2502,184.3989 91.4172,184.1489 C90.5862,183.8869 89.8182,183.5889 89.1102,183.3169 C86.2842,182.1979 84.5692,181.1009 84.5692,181.1009" id="Fill-76" fill="#1A1918"></path>
                <path d="M142.3699,113.5932 C142.3699,113.5932 143.0809,115.3232 144.1949,117.9052 C144.4689,118.5532 144.7649,119.2552 145.0779,119.9972 C145.3949,120.7382 145.7619,121.5082 146.1459,122.3052 C146.5219,123.1042 146.8739,123.9432 147.2419,124.7932 C147.6229,125.6392 147.9389,126.5232 148.2409,127.4112 C148.5279,128.3052 148.7779,129.2122 148.9979,130.1112 C149.2019,131.0152 149.4029,131.9052 149.5969,132.7662 C149.9679,134.4942 150.2839,136.1132 150.5179,137.5082 C150.6189,138.2082 150.7119,138.8502 150.7939,139.4192 C150.8439,139.9922 150.8879,140.4912 150.9239,140.9022 C150.9209,141.7272 150.9189,142.1982 150.9189,142.1982 C150.9189,142.1982 150.8449,141.7372 150.7159,140.9302 C150.5219,140.1332 150.2369,139.0082 149.8149,137.6752 C149.3889,136.3432 148.8499,134.8032 148.2409,133.1642 C147.9269,132.3482 147.6029,131.5042 147.2729,130.6462 C146.9349,129.7922 146.6349,128.9112 146.3399,128.0272 C145.7669,126.2552 145.3749,124.4202 144.9529,122.7142 C144.7669,121.8532 144.5819,121.0212 144.3639,120.2472 C144.1419,119.4742 143.9309,118.7432 143.7369,118.0692 C142.9679,115.3662 142.3699,113.5932 142.3699,113.5932" id="Fill-78" fill="#1A1918"></path>
                <path d="M61.6923,117.0314 C61.6923,117.0314 61.1523,119.4454 60.4993,123.0974 C60.3353,124.0104 60.1573,124.9994 59.9693,126.0444 C59.7873,127.0914 59.6393,128.2044 59.5003,129.3584 C59.1633,131.6524 58.8723,134.1094 58.4073,136.5274 C58.1573,137.7344 57.9243,138.9424 57.6413,140.1224 C57.3533,141.3024 57.1123,142.4694 56.8553,143.5974 C56.6093,144.7264 56.4073,145.8224 56.1963,146.8614 C56.0193,147.9044 55.8523,148.8904 55.6973,149.8004 C55.5853,150.7164 55.4823,151.5554 55.3913,152.2994 C55.3503,153.0464 55.3143,153.6984 55.2843,154.2354 C55.2853,154.7704 55.3503,155.1894 55.3643,155.4794 C55.3883,155.7704 55.4003,155.9254 55.4003,155.9254 C55.4003,155.9254 55.3693,155.7744 55.3103,155.4914 C55.2603,155.2064 55.1433,154.7884 55.0743,154.2474 C55.0383,153.7024 54.9953,153.0414 54.9453,152.2834 C54.9553,151.5244 54.9663,150.6684 54.9783,149.7344 C55.0333,148.8024 55.0933,147.7934 55.1563,146.7254 C55.2543,145.6634 55.3363,144.5364 55.4593,143.3774 C55.7123,141.0614 55.9563,138.5814 56.4453,136.1494 C56.6923,134.9334 56.9573,133.7214 57.2963,132.5464 C57.6173,131.3674 57.9283,130.2064 58.2673,129.0924 C58.6113,127.9794 58.9463,126.9054 59.2313,125.8794 C59.5133,124.8534 59.7793,123.8844 60.0253,122.9884 L61.6923,117.0314 Z" id="Fill-80" fill="#1A1918"></path>
                <path d="M54.2378,49.2505 C53.4248,49.8025 52.1948,50.1065 51.2978,50.1065 C49.5828,50.1065 49.0928,51.5765 47.0108,52.4335 C44.9288,53.2915 42.8468,53.0465 41.8678,51.2095 C41.3468,50.2325 41.4778,48.7255 41.7138,47.5245 C36.8618,48.8115 33.3868,52.2195 33.3868,56.2335 C33.3868,61.3515 39.0248,65.4995 45.9788,65.4995 C52.9328,65.4995 58.5708,61.3515 58.5708,56.2335 C58.5708,53.4445 56.8878,50.9495 54.2378,49.2505" id="Fill-82" fill="#1A1918"></path>
                <path d="M54.2378,49.2505 C53.4248,49.8025 52.1948,50.1065 51.2978,50.1065 C49.5828,50.1065 49.0928,51.5765 47.0108,52.4335 C44.9288,53.2915 42.8468,53.0465 41.8678,51.2095 C41.3468,50.2325 41.4778,48.7255 41.7138,47.5245 C36.8618,48.8115 33.3868,52.2195 33.3868,56.2335 C33.3868,61.3515 39.0248,65.4995 45.9788,65.4995 C52.9328,65.4995 58.5708,61.3515 58.5708,56.2335 C58.5708,53.4445 56.8878,50.9495 54.2378,49.2505 Z" id="Stroke-84" stroke="#1A1918" stroke-width="1.077" stroke-linecap="round" stroke-linejoin="round"></path>
                <path d="M181.3099,41.6807 C180.4969,42.2327 179.9109,43.4787 179.0129,43.4787 C177.2979,43.4787 175.7169,43.8777 174.7179,44.1777 C172.5609,44.8247 171.1029,45.2157 170.1229,43.3787 C169.6029,42.4027 170.9859,40.1847 171.2219,38.9837 C166.3699,40.2707 158.9869,44.2267 158.9869,48.2407 C158.9869,53.3587 164.6249,57.5067 171.5789,57.5067 C178.5339,57.5067 184.1709,53.3587 184.1709,48.2407 C184.1709,45.4517 183.9599,43.3797 181.3099,41.6807" id="Fill-86" fill="#1A1918"></path>
                <path d="M181.3099,41.6807 C180.4969,42.2327 179.9109,43.4787 179.0129,43.4787 C177.2979,43.4787 175.7169,43.8777 174.7179,44.1777 C172.5609,44.8247 171.1029,45.2157 170.1229,43.3787 C169.6029,42.4027 170.9859,40.1847 171.2219,38.9837 C166.3699,40.2707 158.9869,44.2267 158.9869,48.2407 C158.9869,53.3587 164.6249,57.5067 171.5789,57.5067 C178.5339,57.5067 184.1709,53.3587 184.1709,48.2407 C184.1709,45.4517 183.9599,43.3797 181.3099,41.6807 Z" id="Stroke-88" stroke="#1A1918" stroke-width="1.077" stroke-linecap="round" stroke-linejoin="round"></path>
            </g>
        </g>
    </g>
</svg>