<?xml version="1.0" encoding="UTF-8"?>
<svg width="432px" height="503px" viewBox="0 0 432 503" version="1.1" xmlns="http://www.w3.org/2000/svg" xmlns:xlink="http://www.w3.org/1999/xlink">
    <!-- Generator: Sketch 44.1 (41455) - http://www.bohemiancoding.com/sketch -->
    <title>Entspannt</title>
    <desc>Created with Sketch.</desc>
    <defs></defs>
    <g id="Page-1" stroke="none" stroke-width="1" fill="none" fill-rule="evenodd">
        <g id="Entspannt" transform="translate(0.000000, 1.000000)">
            <path d="M336.1483,438.7893 C312.5583,499.4393 181.6483,483.4493 148.3283,474.9193 C115.0083,466.3993 101.1583,466.9293 99.3483,450.6493 C99.3483,450.6493 97.2183,441.5693 101.6883,435.3993 C104.8683,431.0093 121.7683,423.6893 131.2183,419.8493 C132.2083,416.7693 132.6083,414.6793 132.6083,414.6793 C134.4783,402.9793 134.6983,378.9193 134.9683,364.2593 C141.5983,370.8793 148.1583,376.9893 153.2183,381.1193 C166.0083,391.5793 192.7183,413.9293 216.2383,409.9693 C233.5483,407.0593 248.9583,403.2893 264.1783,389.8293 C269.4383,385.7293 289.8783,367.4293 304.5083,345.7893 C303.7783,360.7193 303.4283,389.2193 311.5983,410.2893 C312.3983,412.3693 313.2883,414.3793 314.2783,416.2893 C322.0383,418.8593 340.7383,426.4593 336.1483,438.7893" id="Fill-1" fill="#D0C7B2"></path>
            <g id="Group-6" transform="translate(335.000000, 197.890000)">
                <path d="M1.0294,13.5714 C1.0294,13.5714 10.9224,-1.6716 15.9934,1.0734 C21.0644,3.8184 26.7374,25.5884 23.1584,33.0394 C19.5784,40.4894 19.0984,47.5734 17.9054,58.9444 C16.7124,70.3164 16.5584,73.2734 12.0834,82.2924 C7.6094,91.3104 0.2214,91.1884 0.2214,91.1884" id="Fill-3" fill="#D0C7B2"></path>
                <path d="M1.0294,13.5714 C1.0294,13.5714 10.9224,-1.6716 15.9934,1.0734 C21.0644,3.8184 26.7374,25.5884 23.1584,33.0394 C19.5784,40.4894 19.0984,47.5734 17.9054,58.9444 C16.7124,70.3164 16.5584,73.2734 12.0834,82.2924 C7.6094,91.3104 0.2214,91.1884 0.2214,91.1884" id="Stroke-5" stroke="#1A1918" stroke-width="2.293" stroke-linecap="round"></path>
            </g>
            <g id="Group-10" transform="translate(63.000000, 192.890000)">
                <path d="M23.4572,18.9917 C23.4572,18.9917 15.5842,-5.9033 8.3732,2.3967 C1.1622,10.6977 -2.7568,25.1137 4.7092,40.7007 C9.3322,50.3527 5.8882,57.7837 10.2142,75.0227 C14.5412,92.2617 22.1382,99.3607 30.0652,93.1517" id="Fill-7" fill="#D0C7B2"></path>
                <path d="M23.4572,18.9917 C23.4572,18.9917 15.5842,-5.9033 8.3732,2.3967 C1.1622,10.6977 -2.7568,25.1137 4.7092,40.7007 C9.3322,50.3527 5.8882,57.7837 10.2142,75.0227 C14.5412,92.2617 22.1382,99.3607 30.0652,93.1517" id="Stroke-9" stroke="#1A1918" stroke-width="2.305" stroke-linecap="round" stroke-linejoin="round"></path>
            </g>
            <path d="M303.593,348.8867 C303.638,354.3547 301.331,419.7557 337.13,434.2277" id="Stroke-11" stroke="#1A1918" stroke-width="2" stroke-linecap="round" stroke-linejoin="round"></path>
            <path d="M135.117,362.9449 C135.117,362.9449 136.563,396.7039 132.868,414.2119 C132.868,414.2119 127.997,439.8149 109.803,443.9319" id="Stroke-13" stroke="#1A1918" stroke-width="2" stroke-linecap="round" stroke-linejoin="round"></path>
            <path d="M316.7513,415.1391 C316.7513,415.1391 342.1693,422.8621 336.4043,438.3181 C312.8163,498.9721 181.9073,482.9751 148.5863,474.4511 C115.2663,465.9281 101.4153,466.4531 99.6073,450.1801 C99.6073,450.1801 97.4793,441.0941 101.9413,434.9321 C106.4033,428.7701 131.2243,417.1681 131.2243,417.1681" id="Stroke-15" stroke="#1A1918" stroke-width="2" stroke-linecap="round" stroke-linejoin="round"></path>
            <path d="M313.6537,410.9903 L313.6547,410.9833 L313.6547,410.9793 L313.6697,410.8973 C313.6817,410.8423 313.7007,410.7803 313.7287,410.7153 C313.7837,410.5843 313.8867,410.4353 314.0227,410.3263 C314.1307,410.2233 314.3777,410.1343 314.3497,410.1483 C314.6547,410.0643 314.7587,410.1043 314.8417,410.1043 C315.0137,410.1243 315.1307,410.1543 315.2927,410.1943 C315.6047,410.2743 316.0157,410.3993 316.5447,410.5733 C317.5997,410.9203 319.1127,411.4593 321.0227,412.1793 C324.8397,413.6193 330.2407,415.7823 336.6407,418.5623 C349.4337,424.1193 366.2527,432.1533 382.2037,441.7413 C390.1747,446.5313 397.9227,451.7123 404.7767,457.1103 C411.6317,462.4983 417.5777,468.1333 421.9477,473.5833 C424.1357,476.3013 425.9297,478.9643 427.3027,481.4443 C428.6807,483.9233 429.6327,486.2153 430.2547,488.1513 C430.8797,490.0883 431.1847,491.6623 431.3457,492.7373 C431.5077,493.8143 431.5437,494.3943 431.5437,494.3943 C431.5437,494.3943 431.4997,493.8153 431.3237,492.7413 C431.1477,491.6693 430.8217,490.1013 430.1737,488.1783 C429.5277,486.2563 428.5477,483.9853 427.1427,481.5353 C425.7407,479.0843 423.9197,476.4573 421.7057,473.7803 C417.2827,468.4143 411.2877,462.8843 404.3877,457.6103 C397.4897,452.3263 389.7017,447.2683 381.6947,442.6023 C365.6707,433.2613 348.7967,425.4783 335.9787,420.1143 C329.5677,417.4313 324.1617,415.3503 320.3587,413.9743 C318.4587,413.2873 316.9557,412.7753 315.9397,412.4563 C315.4327,412.2963 315.0437,412.1853 314.8097,412.1293 C314.6997,412.1013 314.6077,412.0873 314.6377,412.0923 C314.6497,412.0833 314.6987,412.1253 314.9697,412.0493 C314.9367,412.0633 315.1807,411.9793 315.2857,411.8773 C315.4177,411.7703 315.5177,411.6233 315.5697,411.4943 C315.5967,411.4303 315.6137,411.3693 315.6247,411.3153 L315.6377,411.2393 C315.6387,411.2313 315.6377,411.2363 315.6377,411.2363 L315.6377,411.2403 L315.6367,411.2463 C315.5977,411.7973 315.1197,412.2113 314.5687,412.1713 C314.0187,412.1323 313.6047,411.6543 313.6437,411.1033 C313.6447,411.1013 313.6447,411.0983 313.6447,411.0953 L313.6537,410.9903 Z" id="Fill-17" fill="#1A1918"></path>
            <path d="M132.1784,413.3112 C132.1784,413.3112 129.7564,414.1692 125.5314,415.7652 C121.3064,417.3602 115.2864,419.6902 108.1174,422.6272 C93.7874,428.5082 74.8314,436.8022 56.6064,446.5412 C47.4994,451.4102 38.5734,456.6312 30.5764,462.0862 C22.5884,467.5402 15.5194,473.2422 10.2574,478.9222 C7.6324,481.7612 5.4804,484.6022 3.8894,487.3102 C2.2924,490.0152 1.2864,492.5922 0.7714,494.7882 C0.2104,496.9852 0.2614,498.7842 0.2624,499.9892 C0.3914,501.1952 0.4604,501.8382 0.4604,501.8382 C0.4604,501.8382 0.3794,501.1952 0.2294,499.9922 C0.2054,498.7852 0.1214,496.9792 0.6464,494.7602 C1.1234,492.5422 2.0894,489.9262 3.6494,487.1722 C5.2034,484.4142 7.3194,481.5132 9.9104,478.6072 C15.1034,472.7932 22.1084,466.9312 30.0344,461.3062 C37.9694,455.6812 46.8364,450.2772 55.8874,445.2242 C74.0024,435.1192 92.8644,426.4552 107.1364,420.2942 C114.2764,417.2162 120.2764,414.7682 124.4924,413.0882 C128.7084,411.4082 131.1484,410.4942 131.1484,410.4942 C131.9234,410.2012 132.7884,410.5922 133.0814,411.3682 C133.3734,412.1432 132.9824,413.0082 132.2074,413.3012 C132.2004,413.3032 132.1844,413.3092 132.1784,413.3112" id="Fill-19" fill="#1A1918"></path>
            <path d="M336.5756,225.4237 C340.0756,221.8727 343.5746,218.3217 347.0746,214.7707 C348.4016,213.4247 350.1276,211.9607 351.9486,212.4677 C352.9836,212.7557 353.7916,213.7257 353.8886,214.7957 C353.9526,215.5077 353.6766,216.2897 353.0596,216.6497" id="Stroke-21" stroke="#1A1918" stroke-linecap="round" stroke-linejoin="round"></path>
            <path d="M341.0332,240.7876 C342.8802,240.1066 344.8342,241.9866 345.4112,244.2036 C345.9882,246.4216 345.5732,248.8146 345.1552,251.0826 C344.5862,254.1686 344.0172,257.2546 343.4482,260.3406" id="Stroke-23" stroke="#1A1918" stroke-width="1.097" stroke-linecap="round" stroke-linejoin="round"></path>
            <path d="M84.208,219.0366 C83.689,216.6486 85.732,216.0426 75.177,206.6716 C74.621,206.1766 74.253,205.4336 73.545,205.2026 C71.672,204.5916 70.361,207.0336 69.905,208.9506 L67.348,219.7016" id="Stroke-25" stroke="#1A1918" stroke-linecap="round" stroke-linejoin="round"></path>
            <path d="M81.3768,238.3492 C79.0818,238.2732 77.0318,240.0342 76.1148,242.1402 C75.1978,244.2452 75.2018,246.6282 75.3668,248.9182 C75.6048,252.2142 76.1458,255.4882 76.9798,258.6862" id="Stroke-27" stroke="#1A1918" stroke-linecap="round" stroke-linejoin="round"></path>
            <path d="M216.5,409.5 C233.801,406.59 249.212,402.816 264.433,389.362 C270.913,384.301 300.494,357.66 313.776,329.785 C327.065,301.893 339.731,283.241 339.731,256.497 C339.731,246.506 337.057,226.526 336.029,211.461 C334.179,184.317 342.816,163.342 344.049,135.58 C345.503,102.868 349.602,69.57 306.491,25.36 C281.948,0.192 214.476,-2.555 192.341,3.331 C171.042,8.995 144.681,20.107 116.909,40.046 C90.243,59.191 80.775,100.427 77.286,127.171 C73.798,153.915 84.825,193.654 86.769,211.142 C88.786,229.296 95.24,253.098 93.223,271.252 C91.554,286.278 96.42,317.563 109.413,335.145 C118.209,347.048 140.685,370.179 153.476,380.644 C166.267,391.109 192.977,413.456 216.5,409.5" id="Fill-29" fill="#D0C7B2"></path>
            <path d="M216.5,409.5 C233.801,406.59 249.212,402.816 264.433,389.362 C270.913,384.301 300.494,357.66 313.776,329.785 C327.065,301.893 339.731,283.241 339.731,256.497 C339.731,246.506 337.057,226.526 336.029,211.461 C334.179,184.317 342.816,163.342 344.049,135.58 C345.503,102.868 349.602,69.57 306.491,25.36 C281.948,0.192 214.476,-2.555 192.341,3.331 C171.042,8.995 144.681,20.107 116.909,40.046 C90.243,59.191 80.775,100.427 77.286,127.171 C73.798,153.915 84.825,193.654 86.769,211.142 C88.786,229.296 95.24,253.098 93.223,271.252 C91.554,286.278 96.42,317.563 109.413,335.145 C118.209,347.048 140.685,370.179 153.476,380.644 C166.267,391.109 192.977,413.456 216.5,409.5 Z" id="Stroke-31" stroke="#1A1918" stroke-width="2"></path>
            <path d="M186.7582,256.918 C186.7582,256.918 184.9052,257.619 181.8692,259.209 C180.3682,260.021 178.5492,261.051 176.7312,262.511 C175.8312,263.242 174.9362,264.102 174.2502,265.118 C173.9142,265.625 173.6372,266.172 173.4872,266.739 C173.4102,267.013 173.3792,267.333 173.3642,267.576 C173.3682,267.75 173.3602,267.953 173.3732,268.106 C173.3932,268.252 173.3902,268.388 173.4232,268.543 C173.7292,271.019 176.5202,272.768 179.3312,274.448 C182.2182,276.109 185.3642,277.835 188.5592,279.721 C190.1492,280.654 191.7962,281.66 193.3682,282.651 C194.1882,283.168 194.9562,283.606 195.7732,284.055 C196.5892,284.502 197.4232,284.92 198.2682,285.316 C201.6512,286.891 205.3072,287.957 208.9852,288.158 C212.6242,288.345 216.3622,287.348 220.0122,286.269 C223.6692,285.19 227.2262,283.901 230.6532,282.586 C232.4832,281.847 234.2892,281.479 235.9692,281.001 C237.6612,280.539 239.2842,280.047 240.7952,279.441 C242.3012,278.834 243.6992,278.119 244.8872,277.249 C246.0742,276.379 247.0042,275.312 247.5592,274.118 L247.7382,273.707 L247.9022,273.187 C247.9542,272.901 248.0162,272.646 248.0252,272.323 C248.0512,271.71 248.0112,271.086 247.8562,270.482 C247.5782,269.27 247.0372,268.149 246.4632,267.14 C245.2712,265.133 243.9382,263.523 242.7942,262.256 C240.4862,259.723 238.9542,258.465 238.9542,258.465 C238.9542,258.465 239.3632,258.739 240.1042,259.293 C240.8392,259.855 241.9242,260.677 243.1982,261.855 C244.4632,263.038 245.9882,264.52 247.3932,266.552 C248.0782,267.576 248.7592,268.732 249.1932,270.119 C249.4182,270.806 249.5512,271.567 249.5562,272.363 C249.5692,272.748 249.5082,273.199 249.4352,273.623 L249.3022,274.151 C249.2222,274.428 249.1592,274.555 249.0852,274.767 C248.4862,276.294 247.4002,277.673 246.0842,278.761 C244.7702,279.862 243.2442,280.717 241.6462,281.438 C240.0452,282.16 238.3592,282.747 236.6482,283.293 C234.9362,283.856 233.1922,284.305 231.6102,284.987 C228.1842,286.402 224.6022,287.805 220.8562,289.013 C218.9742,289.597 217.0632,290.139 215.0632,290.55 C213.0652,290.969 210.9662,291.208 208.8592,291.124 C204.6572,290.96 200.6412,289.683 197.0252,287.975 C196.1202,287.542 195.2332,287.088 194.3692,286.606 C193.5082,286.124 192.6222,285.604 191.8402,285.103 C190.2472,284.079 188.6732,283.068 187.1252,282.074 C184.0302,280.104 180.9522,278.341 178.0832,276.452 C176.6502,275.505 175.2482,274.539 174.0022,273.339 C173.3832,272.738 172.8092,272.055 172.3772,271.269 C171.9482,270.48 171.6902,269.595 171.6242,268.743 C171.5982,268.533 171.6082,268.3 171.6022,268.083 C171.6032,267.871 171.6232,267.711 171.6322,267.524 C171.6832,267.048 171.7612,266.66 171.8972,266.259 C172.1622,265.475 172.5712,264.805 173.0162,264.221 C173.9322,263.067 174.9922,262.24 176.0082,261.541 C178.0542,260.149 179.9992,259.297 181.6022,258.636 C183.2102,257.98 184.5092,257.575 185.3942,257.304 C186.2802,257.037 186.7582,256.918 186.7582,256.918" id="Fill-33" fill="#1A1918"></path>
            <path d="M109.3334,207.6667 C109.3334,207.6667 138.0004,188.3337 150.0004,191.6667 C162.0004,194.9997 161.3334,199.6667 166.0004,200.9997 C170.6664,202.3337 178.6664,203.6667 176.0004,205.6667 C173.3334,207.6667 168.6664,206.9997 162.0004,204.9997 C155.3334,202.9997 153.7844,199.9447 147.0004,201.4997 C140.7904,202.9227 136.6384,199.9117 127.0004,204.4997 C121.5824,207.0797 106.0004,212.3337 109.3334,207.6667" id="Fill-35" fill="#1A1918"></path>
            <path d="M109.3334,207.6667 C109.3334,207.6667 138.0004,188.3337 150.0004,191.6667 C162.0004,194.9997 161.3334,199.6667 166.0004,200.9997 C170.6664,202.3337 178.6664,203.6667 176.0004,205.6667 C173.3334,207.6667 168.6664,206.9997 162.0004,204.9997 C155.3334,202.9997 153.7844,199.9447 147.0004,201.4997 C140.7904,202.9227 136.6384,199.9117 127.0004,204.4997 C121.5824,207.0797 106.0004,212.3337 109.3334,207.6667 Z" id="Stroke-37" stroke="#1A1918" stroke-linecap="round" stroke-linejoin="round"></path>
            <path d="M243.8333,200.8333 C247.2323,197.4343 254.5003,189.5003 264.5003,189.5003 C274.5003,189.5003 287.1663,188.8333 292.5003,192.1663 C297.8333,195.5003 298.5003,199.5003 304.5003,203.5003 C310.5003,207.5003 317.1663,212.8333 318.5003,214.1663 C319.8333,215.5003 307.1663,208.8333 303.1663,207.5003 C299.1663,206.1663 297.6663,203.0003 293.0003,203.0003 C288.3333,203.0003 278.1663,198.3333 271.5003,199.0003 C264.8333,199.6663 253.8333,201.5003 247.8333,203.5003 C241.8333,205.5003 241.8333,202.8333 243.8333,200.8333" id="Fill-39" fill="#1A1918"></path>
            <path d="M243.8333,200.8333 C247.2323,197.4343 254.5003,189.5003 264.5003,189.5003 C274.5003,189.5003 287.1663,188.8333 292.5003,192.1663 C297.8333,195.5003 298.5003,199.5003 304.5003,203.5003 C310.5003,207.5003 317.1663,212.8333 318.5003,214.1663 C319.8333,215.5003 307.1663,208.8333 303.1663,207.5003 C299.1663,206.1663 297.6663,203.0003 293.0003,203.0003 C288.3333,203.0003 278.1663,198.3333 271.5003,199.0003 C264.8333,199.6663 253.8333,201.5003 247.8333,203.5003 C241.8333,205.5003 241.8333,202.8333 243.8333,200.8333 Z" id="Stroke-41" stroke="#1A1918" stroke-linecap="round" stroke-linejoin="round"></path>
            <path d="M104.6667,180.3333 C104.6667,180.3333 128.6667,163.0003 135.3337,163.0003 C141.9997,163.0003 153.9997,163.6663 158.6667,165.6663 C163.3337,167.6663 175.9997,175.0003 175.9997,177.6663 C175.9997,180.3333 175.3337,185.6663 171.9997,181.6663 C168.6667,177.6663 161.9997,171.0003 156.6667,170.3333 C151.3337,169.6663 137.9997,168.3333 132.6667,169.6663 C127.3337,171.0003 120.6667,175.6663 114.6667,179.0003 C108.6667,182.3333 101.9997,185.0003 104.6667,180.3333" id="Fill-43" fill="#1A1918"></path>
            <path d="M104.6667,180.3333 C104.6667,180.3333 128.6667,163.0003 135.3337,163.0003 C141.9997,163.0003 153.9997,163.6663 158.6667,165.6663 C163.3337,167.6663 175.9997,175.0003 175.9997,177.6663 C175.9997,180.3333 175.3337,185.6663 171.9997,181.6663 C168.6667,177.6663 161.9997,171.0003 156.6667,170.3333 C151.3337,169.6663 137.9997,168.3333 132.6667,169.6663 C127.3337,171.0003 120.6667,175.6663 114.6667,179.0003 C108.6667,182.3333 101.9997,185.0003 104.6667,180.3333 Z" id="Stroke-45" stroke="#1A1918" stroke-linecap="round" stroke-linejoin="round"></path>
            <path d="M232,175 C232,175 252.667,161 263.333,162.333 C274,163.667 298.5,165.667 301.833,169 C305.167,172.333 321.167,184.333 318.5,187 C315.833,189.667 308.5,183.5 304.5,179.5 C300.5,175.5 290.667,171.333 284,170 C277.333,168.667 268,165 261.333,167 C254.667,169 229.333,181 232,175" id="Fill-47" fill="#1A1918"></path>
            <path d="M232,175 C232,175 252.667,161 263.333,162.333 C274,163.667 298.5,165.667 301.833,169 C305.167,172.333 321.167,184.333 318.5,187 C315.833,189.667 308.5,183.5 304.5,179.5 C300.5,175.5 290.667,171.333 284,170 C277.333,168.667 268,165 261.333,167 C254.667,169 229.333,181 232,175 Z" id="Stroke-49" stroke="#1A1918" stroke-linecap="round" stroke-linejoin="round"></path>
            <path d="M128.6667,229 C128.6667,229 131.4637,228.76 135.6007,228.031 C136.6357,227.856 137.7537,227.647 138.9337,227.419 C140.1117,227.181 141.3447,226.879 142.6107,226.538 C143.8787,226.208 145.1897,225.883 146.5087,225.51 C147.8277,225.136 149.1677,224.776 150.5087,224.423 C153.1867,223.712 155.8847,223.068 158.3547,222.254 C159.5907,221.853 160.7757,221.429 161.8747,220.971 C162.9797,220.525 164.0077,220.058 164.9287,219.576 C165.3967,219.346 165.8357,219.11 166.2427,218.865 C166.6517,218.626 167.0507,218.41 167.3967,218.168 C167.7517,217.935 168.0827,217.716 168.3897,217.515 C168.6837,217.294 168.9537,217.092 169.1977,216.909 C169.6997,216.556 170.0307,216.206 170.2877,215.999 C170.5347,215.782 170.6667,215.667 170.6667,215.667 C170.6667,215.667 170.5487,215.796 170.3257,216.038 C170.0947,216.27 169.7977,216.661 169.3357,217.068 C168.8917,217.497 168.3377,218.004 167.6557,218.532 C167.3257,218.812 166.9467,219.068 166.5537,219.351 C166.1637,219.64 165.7407,219.923 165.2887,220.202 C164.3987,220.783 163.3987,221.359 162.3177,221.921 C161.2417,222.496 160.0777,223.045 158.8577,223.574 C157.6407,224.113 156.3607,224.614 155.0507,225.1 C154.3947,225.341 153.7247,225.551 153.0537,225.776 C152.3757,225.969 151.6947,226.163 151.0137,226.357 C149.6407,226.7 148.2577,227.003 146.8807,227.21 C145.5077,227.436 144.1537,227.629 142.8387,227.779 C140.2137,228.048 137.7637,228.298 135.6647,228.513 C133.5667,228.709 131.8147,228.809 130.5917,228.893 C129.3667,228.961 128.6667,229 128.6667,229" id="Fill-51" fill="#1A1918"></path>
            <path d="M190,203.6666 C190,203.6666 190.306,203.8876 190.772,204.3526 C191.012,204.5816 191.277,204.8776 191.579,205.2256 C191.858,205.5856 192.209,205.9786 192.508,206.4586 C192.836,206.9226 193.164,207.4456 193.461,208.0266 C193.79,208.5936 194.051,209.2346 194.335,209.8936 C194.544,210.5766 194.857,211.2616 194.998,212.0076 C195.08,212.3776 195.162,212.7506 195.245,213.1246 C195.317,213.5016 195.342,213.8886 195.392,214.2706 C195.498,215.0366 195.491,215.8116 195.467,216.5716 C195.497,217.3336 195.3,218.0706 195.217,218.7846 C195.155,219.5046 194.865,220.1586 194.7,220.7906 C194.544,221.4286 194.255,221.9846 194.011,222.4996 C193.759,223.0106 193.569,223.4926 193.294,223.8686 C193.043,224.2556 192.807,224.5806 192.617,224.8476 C192.233,225.3796 192,225.6666 192,225.6666 C192,225.6666 192.087,225.2936 192.261,224.6706 C192.351,224.3606 192.453,223.9836 192.591,223.5666 C192.741,223.1526 192.787,222.6426 192.925,222.1266 C193.038,221.6016 193.19,221.0456 193.249,220.4376 C193.289,220.1376 193.331,219.8296 193.374,219.5146 C193.393,219.3576 193.418,219.2006 193.446,219.0426 L193.471,218.5546 C193.491,217.8986 193.577,217.2296 193.527,216.5436 C193.505,215.8606 193.512,215.1676 193.403,214.4786 C193.361,213.7836 193.229,213.1016 193.106,212.4256 C193.004,211.7456 192.806,211.0936 192.668,210.4486 C192.447,209.8286 192.322,209.1926 192.099,208.6246 C191.897,208.0476 191.706,207.4976 191.501,206.9996 C191.104,205.9966 190.729,205.1636 190.45,204.5836 C190.179,203.9976 190,203.6666 190,203.6666" id="Fill-53" fill="#1A1918"></path>
            <path d="M221.3334,205 C221.3334,205 221.2974,205.405 221.2774,206.104 C221.2504,206.802 221.2294,207.793 221.2614,208.966 C221.2674,209.553 221.3154,210.185 221.3514,210.85 C221.3804,211.515 221.4994,212.21 221.5504,212.927 C221.6744,213.638 221.7484,214.379 221.9174,215.112 C221.9914,215.481 222.0654,215.852 222.1404,216.225 C222.2264,216.595 222.3464,216.958 222.4464,217.325 C222.6094,218.071 222.8744,218.785 223.1264,219.492 C223.3534,220.209 223.6794,220.871 223.9524,221.536 C224.2094,222.21 224.5874,222.794 224.8724,223.395 C225.1584,223.997 225.5024,224.523 225.8094,225.021 C226.1324,225.505 226.3694,226.005 226.6604,226.385 C226.9474,226.767 227.1844,227.118 227.3854,227.405 C227.7814,227.984 228.0004,228.333 228.0004,228.333 C228.0004,228.333 227.6684,228.109 227.1004,227.683 C226.8184,227.468 226.4704,227.208 226.0864,226.891 C225.6884,226.586 225.3254,226.16 224.8974,225.719 C224.4724,225.274 223.9994,224.795 223.6144,224.2 C223.2214,223.615 222.7124,223.044 222.3844,222.339 C222.0404,221.647 221.5784,220.972 221.3264,220.192 C221.0304,219.431 220.7174,218.66 220.5194,217.854 C220.4204,217.451 220.3044,217.052 220.2224,216.648 C220.1534,216.241 220.0844,215.837 220.0154,215.435 C219.8434,214.636 219.8744,213.826 219.7994,213.06 C219.7914,212.288 219.7954,211.541 219.8644,210.839 C219.9144,210.136 220.0024,209.476 220.1224,208.874 C220.3294,207.667 220.6414,206.691 220.8894,206.025 C221.1364,205.357 221.3334,205 221.3334,205" id="Fill-55" fill="#1A1918"></path>
            <path d="M254.6667,215.6666 C254.6667,215.6666 256.5607,216.5706 259.4757,217.7566 C260.2047,218.0526 260.9937,218.3736 261.8277,218.7126 C262.6637,219.0486 263.5707,219.3456 264.5057,219.6546 C265.4327,219.9766 266.3917,220.3096 267.3657,220.6486 C268.3437,220.9726 269.3197,221.3356 270.2837,221.7306 C272.2207,222.4916 274.0927,223.4156 275.8997,224.1586 C276.8057,224.5126 277.6727,224.9066 278.5167,225.1906 C279.3597,225.4826 280.1507,225.8056 280.9007,226.0046 C281.6497,226.2126 282.3317,226.4626 282.9537,226.5636 C283.5727,226.6786 284.1137,226.8436 284.5647,226.8796 C285.4787,226.9566 285.9997,226.9996 285.9997,226.9996 C285.9997,226.9996 285.4737,227.0326 284.5527,227.0896 C284.0867,227.1166 283.5317,227.0406 282.8837,227.0036 C282.2307,226.9806 281.5237,226.8206 280.7337,226.7066 C279.9397,226.6016 279.1117,226.3816 278.2177,226.1966 C277.3207,226.0166 276.4067,225.7366 275.4407,225.4956 C274.4787,225.2436 273.5047,224.9326 272.5007,224.6436 C271.5057,224.3326 270.5167,223.9626 269.5317,223.5816 C268.5627,223.1656 267.5977,222.7366 266.6797,222.2476 C265.7617,221.7586 264.8487,221.2996 263.9897,220.8056 C263.1347,220.3036 262.3047,219.8306 261.5107,219.3986 C260.7147,218.9716 259.9617,218.5686 259.2667,218.1956 C256.5067,216.6786 254.6667,215.6666 254.6667,215.6666" id="Fill-57" fill="#1A1918"></path>
            <path d="M134.6667,301.6667 C134.6667,301.6667 152.6667,312.9997 157.9997,314.9997 C163.3337,316.9997 181.9997,320.9997 187.3337,319.6667 C192.6667,318.3337 202.6667,313.6667 208.6667,316.3337 C214.6667,318.9997 215.9997,319.4997 219.9997,319.4997 C223.9997,319.4997 237.4997,314.9997 241.9997,315.4997 C246.4997,315.9997 263.9997,319.4997 267.4997,317.9997 C270.9997,316.4997 281.4997,313.9997 283.4997,311.4997 C285.4997,308.9997 286.4997,303.9997 287.9997,301.9997 C289.4997,299.9997 284.9997,289.4997 288.4997,292.9997 C290.3617,294.8617 294.0637,299.4127 296.9697,303.8667 C299.5267,307.7847 301.4677,311.6277 300.9997,313.4997 C299.9997,317.4997 294.4997,309.9997 293.9997,306.4997 C293.4997,302.9997 289.9997,310.9997 286.4997,313.4997 C282.9997,315.9997 254.9997,325.4997 245.9997,324.4997 C236.9997,323.4997 232.4997,329.9997 225.9997,328.4997 C219.4997,326.9997 211.4997,323.9997 202.4997,324.9997 C193.4997,325.9997 158.4997,322.4997 153.9997,317.9997 C149.4997,313.4997 133.9997,303.4997 132.4997,303.9997 C130.9997,304.4997 128.9997,313.4997 127.4997,310.9997 C125.9997,308.4997 124.9997,302.9997 129.9997,299.4997 C134.9997,295.9997 139.9997,294.9997 139.4997,296.9997 C138.9997,298.9997 136.8337,299.3337 134.6667,301.6667" id="Fill-59" fill="#1A1918"></path>
            <path d="M134.6667,301.6667 C134.6667,301.6667 152.6667,312.9997 157.9997,314.9997 C163.3337,316.9997 181.9997,320.9997 187.3337,319.6667 C192.6667,318.3337 202.6667,313.6667 208.6667,316.3337 C214.6667,318.9997 215.9997,319.4997 219.9997,319.4997 C223.9997,319.4997 237.4997,314.9997 241.9997,315.4997 C246.4997,315.9997 263.9997,319.4997 267.4997,317.9997 C270.9997,316.4997 281.4997,313.9997 283.4997,311.4997 C285.4997,308.9997 286.4997,303.9997 287.9997,301.9997 C289.4997,299.9997 284.9997,289.4997 288.4997,292.9997 C290.3617,294.8617 294.0637,299.4127 296.9697,303.8667 C299.5267,307.7847 301.4677,311.6277 300.9997,313.4997 C299.9997,317.4997 294.4997,309.9997 293.9997,306.4997 C293.4997,302.9997 289.9997,310.9997 286.4997,313.4997 C282.9997,315.9997 254.9997,325.4997 245.9997,324.4997 C236.9997,323.4997 232.4997,329.9997 225.9997,328.4997 C219.4997,326.9997 211.4997,323.9997 202.4997,324.9997 C193.4997,325.9997 158.4997,322.4997 153.9997,317.9997 C149.4997,313.4997 133.9997,303.4997 132.4997,303.9997 C130.9997,304.4997 128.9997,313.4997 127.4997,310.9997 C125.9997,308.4997 124.9997,302.9997 129.9997,299.4997 C134.9997,295.9997 139.9997,294.9997 139.4997,296.9997 C138.9997,298.9997 136.8337,299.3337 134.6667,301.6667 Z" id="Stroke-61" stroke="#1A1918" stroke-linecap="round" stroke-linejoin="round"></path>
            <path d="M190,340.5 C190,340.5 191.026,340.786 192.83,341.23 C194.629,341.693 197.223,342.249 200.337,342.855 C203.454,343.454 207.101,344.063 211.027,344.538 C212.987,344.797 215.023,344.956 217.086,345.146 C219.153,345.296 221.255,345.426 223.357,345.458 C225.459,345.532 227.563,345.524 229.63,345.452 C231.697,345.376 233.73,345.272 235.692,345.086 C237.652,344.889 239.545,344.668 241.331,344.386 C243.112,344.086 244.801,343.799 246.34,343.44 C247.89,343.12 249.284,342.722 250.539,342.419 C251.773,342.044 252.849,341.718 253.736,341.449 C255.483,340.831 256.5,340.5 256.5,340.5 C256.5,340.5 255.559,340.991 253.878,341.811 C253.018,342.176 251.972,342.618 250.774,343.125 C249.55,343.568 248.18,344.123 246.631,344.551 C245.098,345.039 243.406,345.462 241.604,345.854 C239.801,346.241 237.884,346.586 235.887,346.837 C233.89,347.077 231.819,347.304 229.707,347.382 C227.597,347.477 225.449,347.513 223.305,347.456 C221.161,347.4 219.022,347.244 216.92,347.068 C214.821,346.867 212.763,346.593 210.782,346.277 C208.797,345.985 206.898,345.586 205.101,345.209 C203.306,344.815 201.621,344.399 200.078,343.968 C196.984,343.135 194.47,342.229 192.716,341.6 C190.967,340.952 190,340.5 190,340.5" id="Fill-63" fill="#1A1918"></path>
            <path d="M107.439,201.4208 C107.439,201.4208 108.907,199.7258 111.445,197.5968 C112.71,196.5278 114.233,195.3398 115.948,194.1858 C117.681,193.0578 119.61,191.9778 121.532,190.8918 C125.376,188.7288 129.357,186.7568 132.547,185.7708 C133.338,185.5158 134.077,185.3148 134.741,185.1788 C135.4,185.0258 135.992,184.9538 136.475,184.9088 C136.962,184.8668 137.344,184.8598 137.606,184.8838 C137.867,184.8948 138.006,184.8998 138.006,184.8998 C138.061,184.9028 138.104,184.9488 138.101,185.0038 C138.099,185.0558 138.058,185.0968 138.007,185.0988 L137.994,185.0998 C137.994,185.0998 137.859,185.1068 137.606,185.1198 C137.353,185.1198 136.984,185.1598 136.519,185.2438 C136.055,185.3298 135.493,185.4508 134.866,185.6588 C134.236,185.8478 133.536,186.1098 132.788,186.4278 C132.038,186.7408 131.239,187.1138 130.409,187.5408 C129.577,187.9628 128.704,188.4198 127.816,188.9208 C126.038,189.9178 124.183,191.0608 122.364,192.2588 C120.541,193.4548 118.788,194.7548 117.108,195.9158 C115.409,197.0498 113.786,198.0568 112.375,198.8988 C109.564,200.5948 107.561,201.5788 107.561,201.5788 C107.51,201.6038 107.449,201.5828 107.424,201.5328 C107.406,201.4948 107.413,201.4508 107.439,201.4208" id="Fill-65" fill="#1A1918"></path>
            <path d="M271.5057,180.9001 C271.5057,180.9001 271.9757,180.8971 272.8207,180.9721 C273.6557,181.0411 274.8377,181.1821 276.2547,181.3771 C279.0927,181.7531 282.8457,182.4541 286.5707,183.3611 C287.5007,183.6001 288.4307,183.8391 289.3467,184.0741 C290.2587,184.3381 291.1647,184.5641 292.0117,184.8991 C292.8567,185.2301 293.6747,185.5441 294.4117,185.9531 C294.7827,186.1461 295.1447,186.3331 295.4937,186.5141 C295.8377,186.7051 296.1567,186.9291 296.4677,187.1231 C297.0907,187.5101 297.6397,187.9021 298.0937,188.3081 C298.5467,188.7091 298.9587,189.0151 299.2267,189.3741 C299.7927,190.0391 300.0707,190.4291 300.0707,190.4291 C300.1027,190.4741 300.0927,190.5371 300.0477,190.5701 C300.0157,190.5921 299.9757,190.5941 299.9437,190.5781 L299.9297,190.5711 C299.9297,190.5711 299.4827,190.3461 298.7817,189.9371 C298.4507,189.7131 297.9647,189.5401 297.4617,189.2921 C297.1997,189.1811 296.9477,189.0281 296.6517,188.9101 C296.3537,188.7951 296.0407,188.6761 295.7227,188.5391 C294.4477,187.9991 292.9107,187.4631 291.2787,186.8491 C290.4637,186.5271 289.6207,186.1931 288.7647,185.8551 C287.9067,185.5131 287.0127,185.2181 286.1267,184.8981 C284.3347,184.3171 282.5287,183.7621 280.8167,183.3001 C279.1077,182.8311 277.5027,182.4161 276.1227,182.0771 C274.7427,181.7371 273.5817,181.4951 272.7727,181.3221 C271.9737,181.1541 271.4947,181.1001 271.4947,181.1001 C271.4397,181.0931 271.3997,181.0441 271.4057,180.9891 C271.4117,180.9381 271.4557,180.9001 271.5057,180.9001" id="Fill-67" fill="#1A1918"></path>
        </g>
    </g>
</svg>