<?xml version="1.0" encoding="UTF-8"?>
<svg width="432px" height="502px" viewBox="0 0 432 502" version="1.1" xmlns="http://www.w3.org/2000/svg" xmlns:xlink="http://www.w3.org/1999/xlink">
    <!-- Generator: Sketch 44.1 (41455) - http://www.bohemiancoding.com/sketch -->
    <title>Ruhig</title>
    <desc>Created with Sketch.</desc>
    <defs></defs>
    <g id="Page-1" stroke="none" stroke-width="1" fill="none" fill-rule="evenodd">
        <g id="Ruhig">
            <g id="Group-37" transform="translate(0.000000, 0.890000)">
                <path d="M336.3983,438.1493 C312.8083,498.7993 181.8983,482.8093 148.5783,474.2793 C115.2583,465.7593 101.4083,466.2893 99.5983,450.0093 C99.5983,450.0093 97.4683,440.9293 101.9383,434.7593 C105.1183,430.3693 122.0183,423.0493 131.4683,419.2093 C132.4583,416.1293 132.8583,414.0393 132.8583,414.0393 C134.7283,402.3393 134.9483,378.2793 135.2183,363.6193 C141.8483,370.2393 148.4083,376.3493 153.4683,380.4793 C166.2583,390.9393 192.9683,413.2893 216.4883,409.3293 C233.7983,406.4193 249.2083,402.6493 264.4283,389.1893 C269.6883,385.0893 290.1283,366.7893 304.7583,345.1493 C304.0283,360.0793 303.6783,388.5793 311.8483,409.6493 C312.6483,411.7293 313.5383,413.7393 314.5283,415.6493 C322.2883,418.2193 340.9883,425.8193 336.3983,438.1493" id="Fill-1" fill="#D0C7B2"></path>
                <g id="Group-6" transform="translate(332.000000, 198.000000)">
                    <path d="M6.9377,11.0426 C6.9377,11.0426 15.4987,-1.5094 20.5697,1.2356 C25.6407,3.9806 27.1317,24.7626 23.5527,32.2126 C19.9727,39.6636 18.5467,50.3236 17.3537,61.6956 C16.1607,73.0666 19.8077,72.5236 15.3337,81.5426 C10.8597,90.5606 0.1277,90.9326 0.1277,90.9326" id="Fill-3" fill="#D0C7B2"></path>
                    <path d="M6.9377,11.0426 C6.9377,11.0426 15.4987,-1.5094 20.5697,1.2356 C25.6407,3.9806 27.1317,24.7626 23.5527,32.2126 C19.9727,39.6636 18.5467,50.3236 17.3537,61.6956 C16.1607,73.0666 19.8077,72.5236 15.3337,81.5426 C10.8597,90.5606 0.1277,90.9326 0.1277,90.9326" id="Stroke-5" stroke="#1A1918" stroke-width="2.293" stroke-linecap="round"></path>
                </g>
                <g id="Group-10" transform="translate(65.000000, 192.000000)">
                    <path d="M23.5319,19.2037 C23.5319,19.2037 15.6589,-5.6913 8.4479,2.6087 C1.2369,10.9097 -2.6821,25.3257 4.7839,40.9127 C9.4069,50.5647 5.9629,57.9957 10.2889,75.2347 C14.6159,92.4737 19.2369,99.8517 27.1639,93.6437" id="Fill-7" fill="#D0C7B2"></path>
                    <path d="M23.5319,19.2037 C23.5319,19.2037 15.6589,-5.6913 8.4479,2.6087 C1.2369,10.9097 -2.6821,25.3257 4.7839,40.9127 C9.4069,50.5647 5.9629,57.9957 10.2889,75.2347 C14.6159,92.4737 19.2369,99.8517 27.1639,93.6437" id="Stroke-9" stroke="#1A1918" stroke-width="2.305" stroke-linecap="round" stroke-linejoin="round"></path>
                </g>
                <path d="M303.843,348.2467 C303.888,353.7147 301.581,419.1157 337.38,433.5877" id="Stroke-11" stroke="#1A1918" stroke-width="2" stroke-linecap="round" stroke-linejoin="round"></path>
                <path d="M135.367,362.3049 C135.367,362.3049 136.813,396.0639 133.118,413.5719 C133.118,413.5719 128.247,439.1749 110.053,443.2919" id="Stroke-13" stroke="#1A1918" stroke-width="2" stroke-linecap="round" stroke-linejoin="round"></path>
                <path d="M317.0013,414.4991 C317.0013,414.4991 342.4193,422.2221 336.6543,437.6781 C313.0663,498.3321 182.1573,482.3351 148.8363,473.8111 C115.5163,465.2881 101.6653,465.8131 99.8573,449.5401 C99.8573,449.5401 97.7293,440.4541 102.1913,434.2921 C106.6533,428.1301 131.4743,416.5281 131.4743,416.5281" id="Stroke-15" stroke="#1A1918" stroke-width="2" stroke-linecap="round" stroke-linejoin="round"></path>
                <path d="M313.9037,410.3504 L313.9047,410.3434 L313.9047,410.3394 L313.9197,410.2574 C313.9317,410.2024 313.9507,410.1404 313.9787,410.0754 C314.0337,409.9444 314.1367,409.7954 314.2727,409.6864 C314.3807,409.5834 314.6277,409.4944 314.5997,409.5084 C314.9047,409.4244 315.0087,409.4644 315.0917,409.4644 C315.2637,409.4844 315.3807,409.5144 315.5427,409.5544 C315.8547,409.6344 316.2657,409.7594 316.7947,409.9334 C317.8497,410.2804 319.3627,410.8194 321.2727,411.5394 C325.0897,412.9794 330.4907,415.1424 336.8907,417.9224 C349.6837,423.4794 366.5027,431.5134 382.4537,441.1014 C390.4247,445.8914 398.1727,451.0724 405.0267,456.4704 C411.8817,461.8584 417.8277,467.4934 422.1977,472.9434 C424.3857,475.6614 426.1797,478.3244 427.5527,480.8044 C428.9307,483.2834 429.8827,485.5754 430.5047,487.5114 C431.1297,489.4484 431.4347,491.0224 431.5957,492.0974 C431.7577,493.1744 431.7937,493.7544 431.7937,493.7544 C431.7937,493.7544 431.7497,493.1754 431.5737,492.1014 C431.3977,491.0294 431.0717,489.4614 430.4237,487.5384 C429.7777,485.6164 428.7977,483.3444 427.3927,480.8954 C425.9907,478.4434 424.1697,475.8174 421.9557,473.1404 C417.5327,467.7744 411.5377,462.2444 404.6377,456.9704 C397.7397,451.6864 389.9517,446.6284 381.9447,441.9614 C365.9207,432.6214 349.0467,424.8384 336.2287,419.4744 C329.8177,416.7914 324.4117,414.7104 320.6087,413.3344 C318.7087,412.6474 317.2057,412.1354 316.1897,411.8164 C315.6827,411.6564 315.2937,411.5454 315.0597,411.4894 C314.9497,411.4614 314.8577,411.4474 314.8877,411.4524 C314.8997,411.4434 314.9487,411.4854 315.2197,411.4094 C315.1867,411.4234 315.4307,411.3394 315.5357,411.2374 C315.6677,411.1304 315.7677,410.9834 315.8197,410.8544 C315.8467,410.7904 315.8637,410.7294 315.8747,410.6754 L315.8877,410.5994 C315.8887,410.5914 315.8877,410.5964 315.8877,410.5964 L315.8877,410.6004 L315.8867,410.6064 C315.8477,411.1574 315.3697,411.5714 314.8187,411.5314 C314.2687,411.4924 313.8547,411.0144 313.8937,410.4634 C313.8947,410.4614 313.8947,410.4584 313.8947,410.4554 L313.9037,410.3504 Z" id="Fill-17" fill="#1A1918"></path>
                <path d="M132.4284,412.6712 C132.4284,412.6712 130.0064,413.5292 125.7814,415.1252 C121.5564,416.7202 115.5364,419.0502 108.3674,421.9872 C94.0374,427.8682 75.0814,436.1622 56.8564,445.9012 C47.7494,450.7702 38.8234,455.9912 30.8264,461.4462 C22.8384,466.9002 15.7694,472.6022 10.5074,478.2822 C7.8824,481.1212 5.7304,483.9622 4.1394,486.6702 C2.5424,489.3752 1.5364,491.9522 1.0214,494.1482 C0.4604,496.3452 0.5114,498.1442 0.5124,499.3492 C0.6414,500.5552 0.7104,501.1972 0.7104,501.1972 C0.7104,501.1972 0.6294,500.5552 0.4794,499.3522 C0.4554,498.1452 0.3724,496.3392 0.8964,494.1202 C1.3734,491.9022 2.3394,489.2862 3.8994,486.5322 C5.4534,483.7742 7.5694,480.8732 10.1604,477.9672 C15.3534,472.1532 22.3584,466.2912 30.2844,460.6662 C38.2194,455.0412 47.0864,449.6372 56.1374,444.5842 C74.2524,434.4792 93.1144,425.8152 107.3864,419.6542 C114.5264,416.5762 120.5264,414.1282 124.7424,412.4482 C128.9584,410.7682 131.3984,409.8542 131.3984,409.8542 C132.1734,409.5612 133.0384,409.9522 133.3314,410.7282 C133.6234,411.5032 133.2324,412.3682 132.4574,412.6612 C132.4504,412.6632 132.4344,412.6692 132.4284,412.6712" id="Fill-19" fill="#1A1918"></path>
                <path d="M336.8873,223.6339 C340.3873,220.0829 343.8863,216.5319 347.3863,212.9809 C348.7133,211.6349 350.4393,210.1709 352.2603,210.6779 C353.2953,210.9659 354.1033,211.9359 354.2003,213.0059 C354.2643,213.7179 353.9883,214.4999 353.3713,214.8599" id="Stroke-21" stroke="#1A1918" stroke-linecap="round" stroke-linejoin="round"></path>
                <path d="M337.8202,241.6702 C339.6672,241.1042 342.6842,244.2732 343.2622,246.1162 C343.8392,247.9602 343.5242,250.4662 343.1062,252.3522 C342.5372,254.9192 343.7592,256.5672 343.1902,259.1332" id="Stroke-23" stroke="#1A1918" stroke-linecap="round" stroke-linejoin="round"></path>
                <path d="M86.2827,218.3586 C83.2727,214.2366 80.2627,210.1146 77.2517,205.9936 C76.8127,205.3916 76.3277,204.7556 75.6197,204.5246 C73.7467,203.9136 72.4357,206.3556 71.9797,208.2726 C71.1277,211.8566 70.2747,215.4406 69.4227,219.0236" id="Stroke-25" stroke="#1A1918" stroke-linecap="round" stroke-linejoin="round"></path>
                <path d="M83.4516,237.6712 C81.1566,237.5952 79.1066,239.3562 78.1896,241.4622 C77.2726,243.5672 77.2766,245.9502 77.4416,248.2402 C77.6796,251.5362 78.2206,254.8102 79.0546,258.0082" id="Stroke-27" stroke="#1A1918" stroke-linecap="round" stroke-linejoin="round"></path>
                <path d="M216.75,408.86 C234.051,405.95 249.462,402.176 264.683,388.722 C271.163,383.661 300.744,357.02 314.026,329.145 C327.315,301.253 337.776,285.153 337.776,258.409 C337.776,248.418 334.595,230.843 337.133,215.958 C341.388,190.999 355.398,157.241 353.213,136.846 C349.724,104.288 355.578,63.092 306.741,24.72 C279.098,3.001 214.726,-3.195 192.591,2.691 C171.292,8.355 144.931,19.467 117.159,39.406 C90.493,58.551 81.025,99.787 77.536,126.531 C74.048,153.275 92.638,204.307 90.313,221.749 C87.987,239.191 89.742,250.867 90.313,267.424 C90.834,282.533 96.67,316.923 109.663,334.505 C118.459,346.408 140.935,369.539 153.726,380.004 C166.517,390.469 193.227,412.816 216.75,408.86" id="Fill-29" fill="#D0C7B2"></path>
                <path d="M216.75,408.86 C234.051,405.95 249.462,402.176 264.683,388.722 C271.163,383.661 300.744,357.02 314.026,329.145 C327.315,301.253 337.776,285.153 337.776,258.409 C337.776,248.418 334.595,230.843 337.133,215.958 C341.388,190.999 355.398,157.241 353.213,136.846 C349.724,104.288 355.578,63.092 306.741,24.72 C279.098,3.001 214.726,-3.195 192.591,2.691 C171.292,8.355 144.931,19.467 117.159,39.406 C90.493,58.551 81.025,99.787 77.536,126.531 C74.048,153.275 92.638,204.307 90.313,221.749 C87.987,239.191 89.742,250.867 90.313,267.424 C90.834,282.533 96.67,316.923 109.663,334.505 C118.459,346.408 140.935,369.539 153.726,380.004 C166.517,390.469 193.227,412.816 216.75,408.86 Z" id="Stroke-31" stroke="#1A1918" stroke-width="2"></path>
                <path d="M117.8037,216.2104 C117.8037,216.2104 138.6497,200.3964 144.4007,200.3964 C150.1507,200.3964 156.6207,206.1464 166.6837,210.4594 C176.7477,214.7724 176.7477,217.6484 167.4027,218.3664 C158.0577,219.0854 158.0577,222.6794 147.2757,222.6794 C136.4937,222.6794 113.4907,220.5234 117.8037,216.2104" id="Fill-33" fill="#FFFFFF"></path>
                <path d="M235.7082,215.2493 C235.7082,215.2493 264.7932,201.3043 269.1762,202.4993 C273.5592,203.6943 283.9182,208.0773 287.1062,211.2653 C290.2932,214.4523 296.2702,220.4293 296.2702,220.4293 C296.2702,220.4293 291.0902,222.0223 283.9182,222.4213 C276.7462,222.8193 254.0362,224.8113 250.4502,222.0223 C246.8642,219.2333 233.7162,218.4363 237.3022,216.0463" id="Fill-35" fill="#FFFFFF"></path>
            </g>
            <g id="Group-84" transform="translate(93.000000, 172.890000)">
                <path d="M123.2383,29.0661 C123.2383,29.0661 123.2473,29.4151 123.2483,30.0141 C123.2393,30.6071 123.2273,31.4551 123.2133,32.4721 C123.1943,33.4741 123.1723,34.6431 123.1493,35.8961 C123.1393,37.1431 123.1083,38.4801 123.1773,39.7391 C123.2453,41.0041 123.4463,42.2101 123.8773,43.2361 C123.9023,43.3181 124.0023,43.5031 124.0613,43.6291 C124.1283,43.7571 124.1853,43.8581 124.2413,43.9781 C124.3743,44.2181 124.5143,44.4511 124.6663,44.6731 C124.9743,45.1111 125.2953,45.5231 125.6143,45.8961 C126.2623,46.6321 126.8563,47.2421 127.2673,47.6781 C127.6783,48.1141 127.9073,48.3771 127.9073,48.3771 C127.9073,48.3771 127.5833,48.2541 127.0343,48.0011 C126.4893,47.7421 125.7103,47.3631 124.8453,46.7501 C124.4123,46.4441 123.9523,46.0821 123.5173,45.6271 C123.2973,45.4021 123.0823,45.1561 122.8703,44.8931 C122.7653,44.7541 122.6523,44.5991 122.5633,44.4581 C122.4753,44.3101 122.4103,44.2281 122.3013,44.0221 C121.9613,43.3991 121.6663,42.7181 121.4993,42.0051 C121.3183,41.2961 121.2243,40.5671 121.1813,39.8521 C121.1033,38.4111 121.2353,37.0441 121.3973,35.7661 C121.5633,34.4861 121.8083,33.3051 122.0813,32.3091 C122.6093,30.3121 123.2383,29.0661 123.2383,29.0661" id="Fill-38" fill="#1A1918"></path>
                <path d="M96.1762,28.1703 C96.1762,28.1703 96.3072,28.5243 96.5702,29.1043 C96.8212,29.6783 97.2332,30.4753 97.7852,31.3843 C98.3672,32.2913 99.0452,33.3503 99.7722,34.4843 C100.5022,35.6453 101.2672,36.9333 101.8072,38.4113 C101.9292,38.7413 102.0452,39.1063 102.1562,39.4963 C102.2672,39.8743 102.3452,40.2393 102.4222,40.6093 C102.5852,41.3453 102.6432,42.0803 102.7102,42.7833 C102.8102,44.1923 102.7572,45.4963 102.6392,46.5983 C102.4162,48.8023 102.0192,50.2363 102.0192,50.2363 C102.0192,50.2363 101.9452,49.8713 101.8442,49.2333 C101.7462,48.5963 101.6202,47.6883 101.4912,46.6123 C101.3502,45.5363 101.1892,44.2963 100.9622,43.0013 C100.8472,42.3543 100.6952,41.6963 100.5302,41.0393 C100.4482,40.7133 100.3492,40.3783 100.2562,40.0633 C100.1652,39.7583 100.0562,39.4323 99.9242,39.0813 C99.4662,37.8283 98.8292,36.5563 98.2372,35.3393 C97.6382,34.1253 97.0952,32.9323 96.7462,31.8603 C96.5612,31.3283 96.4392,30.8213 96.3442,30.3723 C96.2552,29.9213 96.2052,29.5243 96.1842,29.1923 C96.1442,28.8643 96.1732,28.6113 96.1712,28.4363 C96.1742,28.2633 96.1762,28.1703 96.1762,28.1703" id="Fill-40" fill="#1A1918"></path>
                <path d="M141.4236,38.7562 C141.4236,38.7562 142.4396,38.1082 144.2166,36.9752 C146.0006,35.8492 148.5806,34.2922 151.7216,32.4952 C154.8626,30.6982 158.5726,28.6712 162.6366,26.6712 C164.6676,25.6702 166.7706,24.6312 169.0286,23.7332 C171.2806,22.8412 173.6936,22.1002 176.2326,21.8072 C177.5116,21.6512 178.7356,21.6402 180.0576,21.7152 C181.3296,21.7872 182.5806,21.9882 183.8016,22.2472 C186.2526,22.7592 188.5356,23.6592 190.6476,24.6452 C192.7416,25.6712 194.6656,26.8362 196.3886,28.0112 C198.1376,29.1782 199.7166,30.3232 201.1756,31.3762 C202.6376,32.4202 203.9636,33.3832 205.1676,34.1922 C206.3646,35.0092 207.4346,35.6812 208.3256,36.2272 C210.1166,37.2992 211.1976,37.8512 211.1976,37.8512 C211.2726,37.8882 211.3036,37.9782 211.2666,38.0532 C211.2346,38.1172 211.1616,38.1482 211.0956,38.1332 C211.0956,38.1332 210.7986,38.0612 210.2426,37.9272 C209.6866,37.7912 208.8786,37.5562 207.8666,37.2002 C206.8576,36.8412 205.6476,36.3512 204.2986,35.7152 C202.9526,35.0752 201.4616,34.3002 199.8836,33.3992 C198.3006,32.5112 196.6156,31.5012 194.8586,30.4762 C193.0766,29.4582 191.2366,28.4072 189.2756,27.4532 C187.3366,26.4632 185.2726,25.6012 183.1216,24.9742 C182.0456,24.6692 180.9436,24.4172 179.8256,24.2992 C178.7616,24.1772 177.5696,24.1172 176.4526,24.1962 C174.1916,24.3502 171.9306,24.9182 169.7456,25.6692 C167.5606,26.4202 165.4316,27.3492 163.3726,28.2472 C159.2596,30.0622 155.4526,31.8402 152.2236,33.4382 C148.9916,35.0302 146.3416,36.4472 144.4826,37.4342 C142.6336,38.4392 141.5766,39.0142 141.5766,39.0142 C141.5046,39.0542 141.4136,39.0282 141.3726,38.9552 C141.3346,38.8862 141.3586,38.7992 141.4236,38.7562" id="Fill-42" fill="#1A1918"></path>
                <path d="M142.7931,43.3187 C142.7931,43.3187 146.9061,41.2977 153.0751,38.2647 C156.1621,36.7547 159.7611,34.9877 163.6381,33.1387 C165.5741,32.2087 167.5741,31.2477 169.6071,30.2707 C170.6291,29.7827 171.6971,29.2767 172.8701,28.8927 C174.0331,28.5087 175.3441,28.2607 176.6581,28.3307 C177.9611,28.3877 179.1881,28.6887 180.3331,29.0447 C180.9531,29.2547 181.4221,29.4057 181.9971,29.6217 C182.5581,29.8447 183.1401,30.0567 183.6661,30.3037 C185.8251,31.2507 187.8341,32.4177 189.6361,33.7037 C191.4331,34.9977 193.0591,36.3677 194.5131,37.7377 C195.9811,39.0927 197.3001,40.4247 198.4941,41.6677 C203.2831,46.6107 206.1861,50.2147 206.1861,50.2147 C206.2391,50.2797 206.2291,50.3757 206.1631,50.4277 C206.1101,50.4707 206.0361,50.4717 205.9831,50.4347 C205.9831,50.4347 202.1631,47.8177 196.8661,43.4307 C195.5481,42.3457 194.1211,41.1717 192.6121,39.9297 C191.0931,38.7217 189.5071,37.4547 187.8161,36.2437 C186.1381,35.0157 184.3541,33.8477 182.4511,32.8377 C181.9731,32.5717 181.5011,32.3667 181.0241,32.1337 C180.5501,31.9157 179.9461,31.6847 179.4961,31.4997 C178.4861,31.1217 177.4801,30.8247 176.4931,30.7247 C174.5521,30.5087 172.5081,31.2787 170.4531,32.1537 C168.3751,33.0297 166.3311,33.8907 164.3521,34.7247 C160.3981,36.4017 156.6901,37.9277 153.5141,39.2397 C147.1551,41.8507 142.9161,43.5927 142.9161,43.5927 C142.8401,43.6237 142.7521,43.5867 142.7201,43.5107 C142.6901,43.4367 142.7231,43.3537 142.7931,43.3187" id="Fill-44" fill="#1A1918"></path>
                <path d="M158.3868,50.5384 C158.3868,50.5384 158.9358,50.5114 159.8928,50.4984 C160.3708,50.4924 160.9508,50.4844 161.6168,50.4764 C161.9498,50.4714 162.3038,50.4664 162.6758,50.4604 C163.0488,50.4564 163.4328,50.5384 163.8388,50.5614 C167.0788,50.8514 171.4048,51.1574 175.7278,51.1364 C176.8068,51.1134 177.8878,51.1104 178.9488,51.0454 C180.0108,51.0074 181.0508,50.9124 182.0588,50.8324 C183.0628,50.7204 184.0358,50.6294 184.9498,50.4824 C185.8648,50.3454 186.7298,50.2124 187.5188,50.0434 C188.3048,49.8564 189.0418,49.7744 189.6988,49.6914 C190.3558,49.6124 190.9288,49.5334 191.3948,49.4414 C192.3398,49.2884 192.8798,49.2004 192.8798,49.2004 C192.8798,49.2004 192.3828,49.4274 191.4968,49.8004 C191.0548,49.9944 190.5088,50.1964 189.8758,50.4204 C189.5598,50.5344 189.2228,50.6564 188.8678,50.7844 C188.5108,50.9094 188.1118,50.9284 187.7118,51.0244 C186.9058,51.1964 186.0258,51.3324 185.0938,51.4724 C184.1628,51.6214 183.1738,51.7144 182.1528,51.8274 C181.1298,51.9094 180.0728,52.0054 178.9958,52.0444 C177.9208,52.1104 176.8268,52.1134 175.7338,52.1364 C171.3598,52.1574 167.0048,51.8484 163.7518,51.5574 C163.3458,51.5074 162.9518,51.5234 162.5848,51.4514 C162.2178,51.3754 161.8708,51.3024 161.5438,51.2344 C160.8918,51.0974 160.3228,50.9774 159.8548,50.8784 C158.9188,50.6744 158.3868,50.5384 158.3868,50.5384" id="Fill-46" fill="#1A1918"></path>
                <path d="M150.5905,59.2027 C150.5905,59.2027 151.2365,59.4887 152.3755,59.9577 C152.9495,60.1797 153.6375,60.4607 154.4535,60.7207 C155.2605,61.0007 156.1895,61.2627 157.1995,61.5447 C158.2125,61.8197 159.3195,62.0807 160.5015,62.3007 C161.6795,62.5387 162.9365,62.7077 164.2335,62.8987 C166.8305,63.2627 169.6305,63.4477 172.4325,63.5467 C175.2355,63.6737 178.0495,63.7567 180.6655,63.6627 C181.9725,63.6017 183.2345,63.5267 184.4255,63.3947 C185.6145,63.2547 186.7285,63.0497 187.7455,62.8117 C188.7525,62.5437 189.6765,62.2827 190.4675,61.9687 C190.8675,61.8227 191.2355,61.6717 191.5665,61.5087 C191.9025,61.3567 192.2115,61.2147 192.4755,61.0587 C193.0185,60.7727 193.4335,60.5257 193.7075,60.3417 C193.9875,60.1657 194.1375,60.0717 194.1375,60.0717 C194.1375,60.0717 193.9985,60.1817 193.7395,60.3867 C193.4825,60.5957 193.1015,60.9007 192.5735,61.2267 C192.3185,61.4057 192.0205,61.5737 191.6915,61.7547 C191.3695,61.9467 191.0075,62.1307 190.6135,62.3117 C189.8355,62.6977 188.9145,63.0417 187.8925,63.3547 C185.8395,63.9517 183.3665,64.3947 180.7055,64.5287 C178.0425,64.6667 175.2185,64.6317 172.3915,64.5447 C169.5665,64.3997 166.7385,64.1667 164.1095,63.7557 C161.4785,63.3567 159.0645,62.7307 157.0395,62.0827 C156.0265,61.7587 155.1125,61.4167 154.3225,61.0667 C153.5235,60.7407 152.8495,60.4007 152.2925,60.1327 C151.7345,59.8667 151.3255,59.6047 151.0325,59.4507 C150.7445,59.2887 150.5905,59.2027 150.5905,59.2027" id="Fill-48" fill="#1A1918"></path>
                <path d="M46.5776,57.958 C46.5776,57.958 46.9626,58.23 47.7046,58.543 C48.0696,58.713 48.5396,58.857 49.0706,59.021 C49.6176,59.145 50.2256,59.293 50.9066,59.382 C51.5766,59.515 52.3276,59.516 53.1056,59.564 C53.8916,59.537 54.7156,59.556 55.5686,59.453 C55.9936,59.41 56.4276,59.385 56.8636,59.326 C57.2986,59.253 57.7396,59.179 58.1826,59.104 C59.0766,58.995 59.9586,58.728 60.8516,58.528 C61.7516,58.356 62.6146,58.019 63.4846,57.778 C64.3556,57.535 65.1866,57.205 65.9996,56.915 C66.8106,56.617 67.6046,56.354 68.3306,56.031 C69.0656,55.727 69.7596,55.439 70.4006,55.174 C71.0466,54.916 71.6106,54.618 72.1316,54.397 C72.6476,54.164 73.0966,53.96 73.4666,53.792 C74.2146,53.466 74.6426,53.28 74.6426,53.28 C74.6426,53.28 74.2486,53.529 73.5596,53.963 C73.2106,54.175 72.7876,54.433 72.3026,54.728 C71.8116,55.014 71.2806,55.384 70.6456,55.68 C70.0206,55.996 69.3426,56.337 68.6256,56.698 C67.9156,57.078 67.1356,57.414 66.3176,57.736 C65.5006,58.056 64.6766,58.446 63.7836,58.696 C62.8956,58.955 62.0206,59.309 61.0946,59.497 C60.1726,59.693 59.2666,59.953 58.3386,60.056 C57.8786,60.121 57.4226,60.185 56.9716,60.248 C56.5176,60.293 56.0646,60.302 55.6226,60.329 C54.7396,60.415 53.8766,60.321 53.0666,60.289 C52.2596,60.18 51.4916,60.121 50.8026,59.933 C50.1046,59.801 49.4916,59.568 48.9526,59.371 C48.4246,59.137 47.9686,58.933 47.6176,58.716 C47.2546,58.521 47.0036,58.311 46.8296,58.179 C46.6586,58.04 46.5776,57.958 46.5776,57.958" id="Fill-50" fill="#1A1918"></path>
                <path d="M18.0136,34.865 C18.0136,34.865 21.8466,31.906 28.1286,28.342 C29.6956,27.445 31.4166,26.512 33.2656,25.578 C35.1076,24.626 37.0946,23.707 39.1886,22.83 C41.3016,21.996 43.5026,21.159 45.8276,20.504 C48.1626,19.87 50.5326,19.201 53.1936,19.16 C53.8626,19.159 54.5606,19.217 55.2926,19.402 L57.0256,19.917 C58.1706,20.269 59.3106,20.619 60.4416,20.966 C62.7026,21.694 64.9496,22.471 67.0176,23.537 C69.0896,24.578 70.9626,25.934 72.4176,27.498 C72.7676,27.877 73.1126,28.25 73.4526,28.617 C73.7916,29.001 74.1356,29.299 74.4736,29.609 C75.1596,30.224 75.8976,30.789 76.6116,31.301 C79.5066,33.337 82.1876,34.68 84.0496,35.61 C85.9226,36.529 87.0266,36.981 87.0266,36.981 C87.1036,37.013 87.1406,37.1 87.1086,37.177 C87.0786,37.25 86.9956,37.286 86.9216,37.262 C86.9216,37.262 85.7796,36.886 83.8326,36.094 C81.8876,35.299 79.1256,34.097 76.0186,32.189 C75.2436,31.701 74.4606,31.176 73.6666,30.546 C73.2706,30.225 72.8556,29.897 72.5106,29.551 C72.1516,29.206 71.7866,28.855 71.4166,28.5 C69.9786,27.146 68.2436,25.978 66.2616,25.103 C64.2946,24.202 62.1096,23.555 59.8606,22.947 C58.7246,22.656 57.5796,22.363 56.4306,22.068 L54.7106,21.643 C54.2756,21.561 53.7756,21.533 53.2496,21.559 C51.1136,21.706 48.8406,22.416 46.6946,23.178 C44.5376,23.971 42.4206,24.829 40.3916,25.715 C38.3456,26.579 36.3686,27.415 34.4936,28.208 C32.6156,29.017 30.8396,29.783 29.2006,30.489 C27.5556,31.196 26.0466,31.845 24.7106,32.42 C23.3646,32.986 22.1916,33.479 21.2256,33.885 C19.2866,34.691 18.1606,35.126 18.1606,35.126 C18.0826,35.157 17.9946,35.118 17.9646,35.04 C17.9396,34.976 17.9616,34.905 18.0136,34.865" id="Fill-52" fill="#1A1918"></path>
                <path d="M23.0808,45.0983 C23.0808,45.0983 23.6968,44.1793 24.9358,42.7093 C25.5568,41.9743 26.3298,41.0983 27.2648,40.1363 C28.2048,39.1803 29.2828,38.1123 30.5378,37.0303 C31.7858,35.9393 33.1938,34.8143 34.7608,33.7173 C36.3348,32.5983 38.0118,31.5913 39.8348,30.5713 C41.6518,29.5833 43.5858,28.6543 45.6148,27.8333 C47.6448,27.0183 49.7458,26.2463 51.9768,25.7503 C53.0808,25.4813 54.2438,25.3313 55.4298,25.2853 C56.6228,25.2883 57.9048,25.4403 59.0948,26.0733 C61.0368,27.1613 62.7378,28.5123 64.3368,29.7733 C65.9128,31.0633 67.4358,32.3103 68.8808,33.4933 C70.3148,34.6613 71.6848,35.7743 73.0218,36.5563 C78.6288,39.8783 82.3678,42.0923 82.3678,42.0923 C82.4398,42.1333 82.4648,42.2253 82.4238,42.2973 C82.3838,42.3653 82.2958,42.3903 82.2258,42.3563 C82.2258,42.3563 78.3458,40.4153 72.5268,37.5033 C70.9958,36.7363 69.5508,35.7023 68.0188,34.6183 C66.5148,33.5183 64.9278,32.3593 63.2868,31.1593 C61.6318,29.9883 59.9588,28.7983 58.1178,27.8913 C57.3838,27.5573 56.4738,27.4673 55.5138,27.5153 C54.5448,27.6083 53.5518,27.7793 52.5608,28.0783 C48.5798,29.2233 44.8278,31.3743 41.3478,33.3063 C39.6188,34.2653 37.8958,35.2393 36.3408,36.1513 C34.7858,37.0913 33.3368,38.0353 32.0058,38.9293 C29.3528,40.7303 27.1978,42.3553 25.6768,43.4893 C24.1638,44.6443 23.2988,45.3043 23.2988,45.3043 C23.2328,45.3553 23.1368,45.3423 23.0858,45.2753 C23.0458,45.2223 23.0458,45.1513 23.0808,45.0983" id="Fill-54" fill="#1A1918"></path>
                <path d="M73.3669,33.72 C73.3669,33.72 73.5949,33.742 73.9829,33.805 C74.1759,33.837 74.4119,33.876 74.6759,33.933 C74.8089,33.961 74.9499,33.99 75.0989,34.021 C75.2469,34.055 75.3629,34.168 75.5129,34.228 C76.6639,34.813 78.1909,35.608 79.6949,36.453 C81.1999,37.299 82.6819,38.192 83.7469,38.986 C83.8689,39.102 84.0299,39.156 84.1209,39.288 C84.2129,39.417 84.3009,39.54 84.3829,39.656 C84.5439,39.892 84.6659,40.114 84.7479,40.308 C84.9319,40.702 84.8419,40.962 84.8479,40.949 C84.8479,40.949 84.7669,40.73 84.4499,40.541 C84.3009,40.441 84.1019,40.338 83.8749,40.223 C83.7589,40.169 83.6339,40.112 83.5029,40.052 C83.3659,40.001 83.2799,39.869 83.1479,39.787 C82.1499,39.042 80.6899,38.158 79.2059,37.325 C77.7189,36.49 76.2029,35.7 75.0599,35.12 C74.9239,35.035 74.7649,35.009 74.6509,34.911 C74.5379,34.811 74.4309,34.715 74.3299,34.626 C74.1289,34.443 73.9549,34.284 73.8109,34.153 C73.5259,33.884 73.3669,33.72 73.3669,33.72" id="Fill-56" fill="#1A1918"></path>
                <path d="M33.8207,48.1777 C33.8207,48.1777 34.4277,48.2877 35.4707,48.3877 C35.9947,48.4387 36.6327,48.4837 37.3657,48.5127 C37.7317,48.5217 38.1217,48.5317 38.5327,48.5417 C38.9437,48.5477 39.3647,48.6477 39.8147,48.6717 C43.3957,49.0077 48.2177,49.1257 53.0207,48.9017 C57.8207,48.6767 62.6147,48.0917 66.0627,47.1617 C66.9137,46.8947 67.7077,46.7207 68.4167,46.5517 C69.1167,46.3627 69.7137,46.1547 70.1987,45.9587 C70.6677,45.7387 71.0557,45.5797 71.2897,45.4227 C71.5347,45.2777 71.6657,45.2007 71.6657,45.2007 C71.6657,45.2007 71.5557,45.3067 71.3497,45.5037 C71.1497,45.7127 70.8177,45.9717 70.3757,46.2867 C69.9247,46.5827 69.3587,46.9167 68.6817,47.2537 C68.3407,47.4077 67.9787,47.5897 67.5887,47.7517 C67.1997,47.9137 66.7627,48.0057 66.3207,48.1277 C62.7617,49.0857 57.9167,49.6727 53.0677,49.9007 C48.2177,50.1267 43.3587,50.0087 39.7227,49.6667 C39.2697,49.6167 38.8287,49.6127 38.4187,49.5307 C38.0107,49.4387 37.6237,49.3497 37.2597,49.2677 C36.5337,49.0917 35.9067,48.9177 35.3947,48.7627 C34.8817,48.6037 34.4847,48.4577 34.2247,48.3447 C33.9607,48.2357 33.8207,48.1777 33.8207,48.1777" id="Fill-58" fill="#1A1918"></path>
                <path d="M89.5256,87.7239 C89.5256,87.7239 88.2826,88.9509 86.3806,91.2999 C85.4426,92.4749 84.3206,93.9459 83.3716,95.7529 C82.9166,96.6469 82.4926,97.6779 82.4816,98.6559 C82.4806,99.1399 82.5946,99.5659 82.8536,99.8929 C82.9816,100.0729 83.1336,100.1869 83.3636,100.3589 C83.6236,100.5419 83.8856,100.7259 84.1506,100.9119 C86.2256,102.2899 88.7446,103.5759 91.3556,105.0099 C93.9796,106.4429 96.7806,107.9799 99.4986,109.9149 C100.1736,110.3749 100.8786,110.9249 101.5066,111.3889 C102.1726,111.8879 102.8416,112.3789 103.4916,112.7989 C104.8256,113.6699 106.2486,114.5169 107.7136,115.2739 C110.6416,116.7659 113.8196,118.0819 116.9726,118.6219 C117.7416,118.7279 118.5306,118.8349 119.2036,118.7719 C119.3656,118.7539 119.5626,118.7699 119.6896,118.7209 L119.9016,118.6739 L120.0086,118.6519 L120.0626,118.6429 L120.0896,118.6379 C120.1136,118.6319 119.9646,118.6849 120.0456,118.6549 C120.4496,118.4959 120.8736,118.3339 121.1476,118.1739 C122.4656,117.5019 123.9346,116.5119 125.3016,115.5679 C126.6866,114.6019 128.0666,113.6189 129.4726,112.6749 C130.8866,111.7299 132.2716,110.7929 133.8846,109.9999 C134.3376,109.8179 134.7056,109.6139 135.2986,109.4909 C135.4566,109.4559 135.5266,109.4299 135.7566,109.3939 L136.0566,109.3689 C136.2426,109.3489 136.4746,109.3389 136.7186,109.3349 C137.6396,109.3159 138.3856,109.3669 139.1336,109.3729 C140.5966,109.3839 141.8766,109.1909 142.8656,108.4999 C143.3786,108.1859 143.7966,107.7239 144.1906,107.2439 C144.3626,106.9749 144.5526,106.7249 144.7136,106.4489 L144.9376,106.0209 L145.0516,105.8089 L145.1086,105.7029 L145.1376,105.6509 L145.1516,105.6239 C145.1636,105.5989 145.1046,105.7529 145.1346,105.6729 L145.3176,105.1819 C145.3626,105.0359 145.3556,104.9609 145.3866,104.8479 C145.4166,104.6259 145.4546,104.3309 145.4196,104.0589 C145.3966,103.5029 145.2396,102.9259 145.0376,102.3709 C144.1756,100.1319 142.6966,98.2259 141.3796,96.6339 C140.0276,95.0459 138.7526,93.7219 137.6736,92.6629 C135.5106,90.5439 134.1746,89.4249 134.1746,89.4249 C134.1746,89.4249 134.5356,89.6669 135.2136,90.1209 C135.8826,90.5869 136.8716,91.2649 138.0666,92.2149 C139.2646,93.1609 140.7026,94.3419 142.2236,95.8559 C143.7266,97.3819 145.4376,99.1559 146.6336,101.7209 C146.9196,102.3679 147.1736,103.0709 147.2716,103.8669 C147.3396,104.2629 147.3386,104.6609 147.3026,105.1189 C147.2706,105.3449 147.2356,105.6169 147.1876,105.8059 L147.0396,106.3079 L146.9986,106.4179 L146.9836,106.4509 L146.9546,106.5169 L146.8956,106.6479 L146.7776,106.9119 L146.5346,107.4409 C146.3536,107.7899 146.1306,108.1299 145.9236,108.4789 C145.4416,109.1439 144.8886,109.8149 144.1556,110.3309 C142.7236,111.4449 140.8206,111.7839 139.1846,111.8439 C138.4166,111.8619 137.6406,111.8809 136.8566,111.8989 C136.0246,111.9329 135.7296,112.0469 135.0416,112.3759 C133.7516,113.0559 132.4076,114.0059 131.0716,114.9649 C129.7336,115.9379 128.3746,116.9489 126.9626,117.9419 C125.5256,118.9429 124.1586,119.9239 122.4056,120.8409 C121.9216,121.0999 121.5366,121.2449 121.1366,121.4089 C120.4476,121.6099 119.9656,121.7169 119.4286,121.7389 C118.3706,121.8319 117.4256,121.7079 116.4796,121.5799 C112.7856,120.8969 109.4976,119.4589 106.3676,117.8359 C104.8016,117.0189 103.3316,116.0919 101.8986,115.0829 C101.1576,114.5679 100.5026,114.0529 99.8616,113.5419 C99.1776,113.0029 98.6046,112.5239 97.9506,112.0469 C95.4076,110.1499 92.7776,108.4929 90.2416,106.9439 C87.6946,105.3939 85.2706,103.9429 83.1166,102.2799 C82.8636,102.0739 82.6126,101.8699 82.3636,101.6689 C82.0996,101.4459 81.7636,101.1429 81.5556,100.7959 C81.0896,100.1029 80.9656,99.2659 81.0426,98.5749 C81.2046,97.1719 81.8106,96.1199 82.3806,95.1859 C83.5586,93.3319 84.8656,91.9919 85.9386,90.9029 C87.0186,89.8179 87.9366,89.0439 88.5566,88.5149 C89.1886,87.9989 89.5256,87.7239 89.5256,87.7239" id="Fill-60" fill="#1A1918"></path>
                <path d="M44.8766,131.0972 C44.8766,131.0972 61.2046,144.0742 66.3076,144.4992 C71.4106,144.9242 94.6286,138.7512 101.0066,139.1762 C107.3856,139.6022 112.0626,144.2792 113.7636,144.2792 C115.4646,144.2792 120.0686,140.7022 124.8196,140.8772 C133.2496,141.1882 135.0246,145.9802 140.5526,145.5552 C146.0806,145.1302 175.8466,134.4992 178.8236,130.6722 C181.7996,126.8452 185.2016,131.9472 181.7996,134.0742 C178.3986,136.2002 148.9456,148.0502 141.2916,150.1762 C133.6376,152.3022 124.8196,152.3582 120.9926,152.7842 C117.1656,153.2092 106.1096,153.2092 102.7076,150.2322 C99.3056,147.2562 85.6986,145.9802 78.8946,147.6812 C72.0916,149.3822 57.5496,147.7102 53.2976,142.6072 C49.0456,137.5042 42.3256,135.7752 44.8766,131.0972" id="Fill-62" fill="#1A1918"></path>
                <path d="M44.8766,131.0972 C44.8766,131.0972 61.2046,144.0742 66.3076,144.4992 C71.4106,144.9242 94.6286,138.7512 101.0066,139.1762 C107.3856,139.6022 112.0626,144.2792 113.7636,144.2792 C115.4646,144.2792 120.0686,140.7022 124.8196,140.8772 C133.2496,141.1882 135.0246,145.9802 140.5526,145.5552 C146.0806,145.1302 175.8466,134.4992 178.8236,130.6722 C181.7996,126.8452 185.2016,131.9472 181.7996,134.0742 C178.3986,136.2002 148.9456,148.0502 141.2916,150.1762 C133.6376,152.3022 124.8196,152.3582 120.9926,152.7842 C117.1656,153.2092 106.1096,153.2092 102.7076,150.2322 C99.3056,147.2562 85.6986,145.9802 78.8946,147.6812 C72.0916,149.3822 57.5496,147.7102 53.2976,142.6072 C49.0456,137.5042 42.3256,135.7752 44.8766,131.0972 Z" id="Stroke-64" stroke="#1A1918" stroke-linecap="round"></path>
                <path d="M58.9041,34.8241 C56.9611,35.5301 53.9521,35.0011 52.9611,32.2271 C51.9711,29.4541 55.1401,28.8601 55.1401,28.8601 C55.9691,27.8411 59.9641,29.5251 61.5531,30.9381 C63.1431,32.3511 60.8471,34.1181 58.9041,34.8241 M68.6601,34.3881 C64.6051,30.4251 63.6671,28.1331 56.4761,26.4651 C52.2881,25.4941 48.1391,27.7161 44.8481,29.5351 C42.5651,30.7961 41.9921,33.8221 41.9921,36.4191 C41.9921,42.5881 48.0111,47.5881 55.4361,47.5881 C62.8621,47.5881 68.8811,42.5881 68.8811,36.4191 C68.8811,35.7251 69.1421,34.8591 68.6601,34.3881" id="Fill-66" fill="#1A1918"></path>
                <path d="M58.9041,34.8241 C56.9611,35.5301 53.9521,35.0011 52.9611,32.2271 C51.9711,29.4541 55.1401,28.8601 55.1401,28.8601 C55.9691,27.8411 59.9641,29.5251 61.5531,30.9381 C63.1431,32.3511 60.8471,34.1181 58.9041,34.8241 Z M68.6601,34.3881 C64.6051,30.4251 63.6671,28.1331 56.4761,26.4651 C52.2881,25.4941 48.1391,27.7161 44.8481,29.5351 C42.5651,30.7961 41.9921,33.8221 41.9921,36.4191 C41.9921,42.5881 48.0111,47.5881 55.4361,47.5881 C62.8621,47.5881 68.8811,42.5881 68.8811,36.4191 C68.8811,35.7251 69.1421,34.8591 68.6601,34.3881 Z" id="Stroke-68" stroke="#1A1918" stroke-width="1.16" stroke-linecap="round"></path>
                <path d="M178.6053,38.4332 C176.6623,39.1392 173.6533,38.6102 172.6623,35.8362 C171.6723,33.0632 174.8413,32.4692 174.8413,32.4692 C175.6703,31.4502 179.6653,33.1342 181.2543,34.5472 C182.8443,35.9602 180.5483,37.7272 178.6053,38.4332 M187.4773,34.5202 C183.4223,30.5572 183.3683,31.7422 176.1773,30.0742 C171.9893,29.1032 167.8403,31.3252 164.5493,33.1442 C162.2663,34.4052 161.6933,37.4312 161.6933,40.0282 C161.6933,46.1972 167.7123,51.1972 175.1373,51.1972 C182.5633,51.1972 188.5823,46.1972 188.5823,40.0282 C188.5823,39.3342 187.9593,34.9912 187.4773,34.5202" id="Fill-70" fill="#1A1918"></path>
                <path d="M178.6053,38.4332 C176.6623,39.1392 173.6533,38.6102 172.6623,35.8362 C171.6723,33.0632 174.8413,32.4692 174.8413,32.4692 C175.6703,31.4502 179.6653,33.1342 181.2543,34.5472 C182.8443,35.9602 180.5483,37.7272 178.6053,38.4332 Z M187.4773,34.5202 C183.4223,30.5572 183.3683,31.7422 176.1773,30.0742 C171.9893,29.1032 167.8403,31.3252 164.5493,33.1442 C162.2663,34.4052 161.6933,37.4312 161.6933,40.0282 C161.6933,46.1972 167.7123,51.1972 175.1373,51.1972 C182.5633,51.1972 188.5823,46.1972 188.5823,40.0282 C188.5823,39.3342 187.9593,34.9912 187.4773,34.5202 Z" id="Stroke-72" stroke="#1A1918" stroke-width="1.16" stroke-linecap="round"></path>
                <path d="M97.9474,169.4541 C97.9474,169.4541 98.5454,169.5301 99.5904,169.6631 C100.6314,169.7901 102.1084,169.9651 103.8694,170.1451 C104.7474,170.2281 105.6984,170.3171 106.7054,170.4111 C107.7064,170.5141 108.7714,170.5381 109.8584,170.6391 C110.9534,170.6671 112.0764,170.7761 113.2214,170.7871 C114.3664,170.8091 115.5254,170.8691 116.6854,170.8331 L118.4234,170.8361 C119.0004,170.8131 119.5754,170.7911 120.1454,170.7681 C121.2884,170.7531 122.4064,170.6571 123.4934,170.5801 C124.5844,170.5301 125.6294,170.4101 126.6274,170.3001 C127.1274,170.2491 127.6144,170.1991 128.0854,170.1501 C128.5534,170.0821 129.0064,170.0151 129.4404,169.9511 C130.3184,169.8281 131.1234,169.7151 131.8364,169.6151 C132.5394,169.4671 133.1654,169.3661 133.6814,169.2761 C134.7154,169.1001 135.3284,169.0291 135.3284,169.0291 C135.3284,169.0291 134.8134,169.3431 133.8774,169.8401 C133.4084,170.0861 132.8384,170.3941 132.1684,170.7141 C131.4944,171.0181 130.7134,171.3101 129.8554,171.6231 C129.4254,171.7801 128.9774,171.9431 128.5134,172.1121 C128.0384,172.2381 127.5464,172.3681 127.0414,172.5011 C126.0284,172.7671 124.9564,173.0671 123.8234,173.2201 C122.6954,173.4101 121.5254,173.6101 120.3254,173.6731 C119.7264,173.7181 119.1214,173.7631 118.5154,173.8091 L116.6884,173.8321 C115.4674,173.8511 114.2504,173.7801 113.0544,173.6871 C111.8574,173.6231 110.6914,173.4201 109.5624,173.2751 C107.3174,172.8711 105.2434,172.4071 103.5164,171.8231 C102.6444,171.5711 101.8674,171.2561 101.1784,170.9951 C100.4904,170.7251 99.9034,170.4601 99.4234,170.2321 C98.4634,169.7801 97.9474,169.4541 97.9474,169.4541" id="Fill-74" fill="#1A1918"></path>
                <path d="M1.5226,21.6311 C1.5226,21.6311 27.8586,4.6401 41.8766,3.7901 C55.8946,2.9411 68.6376,5.9141 73.7346,8.4631 C78.8326,11.0121 96.6726,19.9321 91.1506,19.5071 C85.6286,19.0821 74.1596,17.8081 71.6116,14.8351 C69.0626,11.8611 64.8146,9.7371 60.5666,9.7371 C56.3186,9.7371 45.6996,8.0381 40.1776,10.5871 C34.6556,13.1351 13.4166,19.9321 9.1686,21.2061 C4.9206,22.4811 -3.1504,26.7281 1.5226,21.6311" id="Fill-76" fill="#1A1918"></path>
                <path d="M1.5226,21.6311 C1.5226,21.6311 27.8586,4.6401 41.8766,3.7901 C55.8946,2.9411 68.6376,5.9141 73.7346,8.4631 C78.8326,11.0121 96.6726,19.9321 91.1506,19.5071 C85.6286,19.0821 74.1596,17.8081 71.6116,14.8351 C69.0626,11.8611 64.8146,9.7371 60.5666,9.7371 C56.3186,9.7371 45.6996,8.0381 40.1776,10.5871 C34.6556,13.1351 13.4166,19.9321 9.1686,21.2061 C4.9206,22.4811 -3.1504,26.7281 1.5226,21.6311 Z" id="Stroke-78" stroke="#1A1918" stroke-width="1.16" stroke-linecap="round"></path>
                <path d="M137.8766,13.1355 C137.8766,13.1355 161.2396,0.8165 172.7086,0.3925 C184.1776,-0.0325 199.0446,2.9405 204.5666,5.9145 C210.0886,8.8875 224.9566,16.1085 221.9826,18.6575 C219.0096,21.2065 204.1426,14.4095 201.5936,12.2855 C199.0446,10.1625 187.5756,3.3655 183.3276,4.6395 C179.0806,5.9145 156.9916,11.0115 152.3186,13.9855 C147.6466,16.9585 131.5046,21.2065 137.8766,13.1355" id="Fill-80" fill="#1A1918"></path>
                <path d="M137.8766,13.1355 C137.8766,13.1355 161.2396,0.8165 172.7086,0.3925 C184.1776,-0.0325 199.0446,2.9405 204.5666,5.9145 C210.0886,8.8875 224.9566,16.1085 221.9826,18.6575 C219.0096,21.2065 204.1426,14.4095 201.5936,12.2855 C199.0446,10.1625 187.5756,3.3655 183.3276,4.6395 C179.0806,5.9145 156.9916,11.0115 152.3186,13.9855 C147.6466,16.9585 131.5046,21.2065 137.8766,13.1355 Z" id="Stroke-82" stroke="#1A1918" stroke-width="1.16" stroke-linecap="round"></path>
            </g>
        </g>
    </g>
</svg>