<?xml version="1.0" encoding="UTF-8"?>
<svg width="393px" height="454px" viewBox="0 0 393 454" version="1.1" xmlns="http://www.w3.org/2000/svg" xmlns:xlink="http://www.w3.org/1999/xlink">
    <!-- Generator: Sketch 44.1 (41455) - http://www.bohemiancoding.com/sketch -->
    <title>Friedlich</title>
    <desc>Created with Sketch.</desc>
    <defs></defs>
    <g id="Page-1" stroke="none" stroke-width="1" fill="none" fill-rule="evenodd">
        <g id="Friedlich" transform="translate(0.000000, 1.000000)">
            <path d="M263.0963,207.453 C258.4383,210.32 242.3143,216.411 234.4313,214.978 C226.5483,213.544 209.7083,204.228 209.3493,197.779 C209.3493,197.779 233.3563,190.612 236.9393,188.463 C240.5223,186.313 245.5393,187.029 250.5553,190.254 C255.5713,193.479 265.6043,197.779 266.6793,198.495 C267.7543,199.212 267.7543,204.587 263.0963,207.453 M158.5293,208.4 C153.1473,210.814 151.0333,210.561 142.4803,212.637 C131.4623,215.311 110.2833,212.53 107.2883,210.497 C104.0903,208.327 94.5463,201.157 94.5463,201.157 C94.5463,201.157 117.4833,186.67 123.5193,186.67 C129.5563,186.67 133.1773,184.255 138.6103,188.481 C144.0423,192.706 154.9073,197.535 157.9263,201.76 C160.9443,205.986 163.9543,205.968 158.5293,208.4 M297.3463,176.277 C298.8013,157.051 303.6983,138.372 302.0983,123.458 C298.9633,94.205 297.9213,54.512 254.0413,20.03 C229.2083,0.525 185.1313,-1.972 165.2403,3.319 C146.1123,8.405 123.3373,12.564 98.3883,30.479 C74.4263,47.684 70.1773,69.139 67.0413,93.163 C63.9063,117.187 69.1343,162.109 67.0413,177.786 C66.3763,182.773 65.3973,188.604 64.4633,194.668 C62.4773,207.686 60.7253,221.801 62.8633,231.063 C64.4003,237.73 68.9553,250.416 74.3093,262.733 C79.8623,275.527 86.2863,287.907 91.0743,292.696 C96.4293,298.06 105.4313,310.467 114.3083,321.877 C121.0103,330.493 127.6403,338.552 132.5823,342.595 C144.0823,352.002 167.4593,373.753 188.6623,370.635 C206.7303,367.985 218.0233,365.191 231.6973,353.107 C236.0903,349.675 250.6633,328.247 263.7083,307.736 C267.9403,301.087 272.0103,294.538 275.5233,288.725 C281.5963,278.689 286.2683,270.702 289.7453,263.371 C295.5583,251.099 298.0103,240.686 298.0103,225.646 C298.0103,217.03 296.9053,204.488 296.8603,191.128 C296.8433,186.241 296.9683,181.236 297.3463,176.277" id="Fill-1" fill="#D0C7B2"></path>
            <path d="M312.0443,182.611 C316.5993,185.073 317.9473,203.751 314.7303,210.444 C311.5143,217.138 305.3513,224.532 304.2733,234.747 C303.2033,244.962 303.0693,247.622 299.0443,255.726 C295.0283,263.829 289.9163,263.452 289.9163,263.452 L289.7453,263.371 C295.5583,251.099 298.0103,240.686 298.0103,225.646 C298.0103,217.03 296.9053,204.488 296.8603,191.128 C298.2893,189.691 307.8393,180.329 312.0443,182.611" id="Fill-3" fill="#D0C7B2"></path>
            <path d="M310.5342,381.0862 C314.8372,393.6282 319.8602,396.4942 311.9712,412.6302 C304.0832,428.7572 278.6402,433.7792 263.2222,439.1522 C247.8052,444.5332 179.7042,452.7722 157.8362,448.1092 C135.9772,443.4552 119.1232,428.0382 101.9182,412.6302 C84.7132,397.2132 101.4952,382.2992 101.4952,382.2992 C111.9982,375.6412 117.8652,355.2472 117.8652,355.2472 C120.1112,339.3272 114.7922,319.8852 114.7922,319.8852 L115.0352,319.6962 C121.7372,328.3122 128.3682,336.3712 133.3092,340.4142 C144.8092,349.8202 168.1862,371.5722 189.3892,368.4542 C207.4572,365.8042 218.7502,363.0102 232.4242,350.9262 C236.8182,347.4942 251.3902,326.0662 264.4352,305.5552 C264.4442,312.0502 264.4082,347.3142 295.4582,360.4222 C298.3062,361.6172 306.2402,368.5352 310.5342,381.0862" id="Fill-5" fill="#D0C7B2"></path>
            <path d="M74.3098,262.7333 L72.9708,263.3173 C65.8558,268.8963 61.4708,262.8683 57.5808,247.3793 C53.6998,231.8903 52.3338,226.2123 48.1838,217.5333 C41.4718,203.5353 44.9938,190.5803 51.4718,183.1233 C57.9498,175.6663 63.8698,194.5783 63.8698,194.5783 L64.4628,194.6683 C62.4778,207.6863 60.7258,221.8003 62.8638,231.0633 C64.3998,237.7303 68.9548,250.4153 74.3098,262.7333" id="Fill-7" fill="#D0C7B2"></path>
            <path d="M114.308,321.8772 C121.01,330.4932 127.641,338.5522 132.582,342.5952 C144.082,352.0012 167.459,373.7532 188.662,370.6352 C206.73,367.9852 218.023,365.1902 231.697,353.1072 C236.091,349.6752 250.663,328.2472 263.709,307.7362 C267.94,301.0872 272.01,294.5382 275.523,288.7252 C281.596,278.6892 286.268,270.7022 289.745,263.3712 C295.558,251.0982 298.011,240.6862 298.011,225.6462 C298.011,217.0302 296.906,204.4882 296.861,191.1282 C296.843,186.2402 296.969,181.2362 297.346,176.2772 C298.801,157.0502 303.698,138.3722 302.099,123.4582 C298.963,94.2052 297.921,54.5122 254.041,20.0302 C229.209,0.5252 185.132,-1.9718 165.24,3.3192 C146.113,8.4052 123.337,12.5642 98.388,30.4792 C74.427,47.6842 70.177,69.1392 67.041,93.1632 C63.906,117.1872 69.135,162.1092 67.041,177.7862 C66.377,182.7732 65.397,188.6032 64.463,194.6682 C62.477,207.6862 60.725,221.8002 62.864,231.0632 C64.4,237.7302 68.955,250.4162 74.31,262.7332 C79.862,275.5272 86.286,287.9072 91.074,292.6962 C96.429,298.0602 105.431,310.4672 114.308,321.8772 Z" id="Stroke-9" stroke="#1A1918" stroke-width="2"></path>
            <path d="M296.6811,191.3078 L296.8611,191.1278 C298.2891,189.6908 307.8401,180.3288 312.0441,182.6108 C316.5991,185.0728 317.9471,203.7508 314.7311,210.4448 C311.5141,217.1378 305.3511,224.5318 304.2731,234.7468 C303.2041,244.9618 303.0691,247.6218 299.0441,255.7258 C295.0281,263.8298 289.9161,263.4518 289.9161,263.4518" id="Stroke-11" stroke="#1A1918" stroke-width="2.293" stroke-linecap="round"></path>
            <path d="M63.87,194.5781 C63.87,194.5781 57.949,175.6661 51.472,183.1231 C44.994,190.5801 41.472,203.5351 48.183,217.5331 C52.334,226.2121 53.7,231.8901 57.581,247.3791 C61.471,262.8681 65.856,268.8961 72.971,263.3171" id="Stroke-13" stroke="#1A1918" stroke-width="2.305" stroke-linecap="round" stroke-linejoin="round"></path>
            <path d="M114.0654,322.0658 C114.0654,322.0658 119.3844,341.5078 117.1384,357.4278 C117.1384,357.4278 111.2714,377.8228 100.7684,384.4798 C100.7684,384.4798 83.9854,399.3938 101.1904,414.8108 C118.3954,430.2188 135.2504,445.6368 157.1094,450.2898 C178.9774,454.9528 247.0784,446.7148 262.4954,441.3328 C277.9124,435.9598 303.3564,430.9378 311.2444,414.8108 C319.1324,398.6748 314.1104,395.8088 309.8074,383.2668 C305.5124,370.7158 297.5794,363.7978 294.7314,362.6028 C263.6814,349.4948 263.7174,314.2318 263.7084,307.7358 L263.7084,307.2418" id="Stroke-15" stroke="#1A1918" stroke-width="2" stroke-linecap="round" stroke-linejoin="round"></path>
            <path d="M280.3322,353.0664 C280.3322,353.0664 280.3522,353.0364 280.3912,352.9764 C280.4772,352.8414 280.6992,352.6174 281.0162,352.5414 C281.0922,352.5234 281.1682,352.5124 281.2402,352.5104 L281.3562,352.5124 L281.4072,352.5184 C281.5832,352.5374 281.6832,352.5654 281.8392,352.6024 C282.1342,352.6774 282.5192,352.7924 283.0162,352.9524 C284.0062,353.2714 285.4262,353.7654 287.2202,354.4244 C290.8062,355.7434 295.8812,357.7224 301.9022,360.2604 C313.9372,365.3354 329.7762,372.6544 344.8702,381.3644 C352.4132,385.7154 359.7632,390.4184 366.3012,395.3174 C372.8372,400.2084 378.5512,405.3234 382.7952,410.3014 C384.9212,412.7834 386.6782,415.2234 388.0302,417.5094 C389.3812,419.7944 390.3422,421.9124 390.9512,423.7174 C391.5802,425.5174 391.8662,426.9934 392.0302,427.9974 C392.1102,428.5004 392.1562,428.8884 392.1802,429.1504 C392.2082,429.4124 392.2222,429.5474 392.2222,429.5474 C392.2222,429.5474 392.2062,429.4124 392.1742,429.1514 C392.1472,428.8894 392.0952,428.5024 392.0072,428.0014 C391.8302,427.0004 391.5232,425.5314 390.8702,423.7464 C390.2372,421.9564 389.2502,419.8594 387.8722,417.6044 C386.4932,415.3484 384.7102,412.9464 382.5592,410.5064 C378.2652,405.6134 372.5042,400.6034 365.9252,395.8264 C359.3452,391.0414 351.9552,386.4614 344.3772,382.2334 C329.2122,373.7714 313.3182,366.7024 301.2582,361.8204 C295.2252,359.3784 290.1452,357.4814 286.5722,356.2254 C284.7872,355.5984 283.3772,355.1314 282.4232,354.8384 C281.9482,354.6924 281.5822,354.5914 281.3662,354.5404 C281.2662,354.5144 281.1712,354.5004 281.2132,354.5074 L281.2182,354.5064 L281.3132,354.5084 C281.3782,354.5054 281.4482,354.4964 281.5172,354.4774 C281.8092,354.4034 282.0102,354.1804 282.0802,354.0464 C282.1322,353.9494 282.1142,353.9794 282.1142,353.9794 L282.1092,353.9854 L282.1062,353.9904 L281.9802,354.1714 C281.6692,354.6224 281.0512,354.7354 280.6002,354.4234 C280.1572,354.1174 280.0412,353.5154 280.3322,353.0664" id="Fill-17" fill="#1A1918"></path>
            <path d="M108.1777,377.8746 C108.1777,377.8746 108.0417,377.8786 107.7777,377.8866 C107.5167,377.8956 107.1077,377.8986 106.6567,377.9416 C105.7347,377.9986 104.2667,378.1646 102.4417,378.4886 C98.7717,379.1276 93.5257,380.4156 87.3437,382.3916 C74.9767,386.3166 58.8207,392.8946 43.6157,401.2916 C36.0227,405.4946 28.6677,410.1496 22.2397,415.1386 C19.0217,417.6266 16.0567,420.2166 13.4077,422.8376 C10.7557,425.4546 8.4747,428.1546 6.6057,430.8136 C4.7297,433.4676 3.3437,436.1316 2.4267,438.6056 C1.5037,441.0816 1.0807,443.3716 0.9687,445.2646 C0.8817,446.2126 0.9467,447.0616 0.9567,447.7996 C1.0337,448.5336 1.0927,449.1606 1.1707,449.6646 C1.3697,450.6646 1.4767,451.1986 1.4767,451.1986 C1.4767,451.1986 1.3587,450.6666 1.1377,449.6696 C1.0487,449.1676 0.9757,448.5406 0.8827,447.8056 C0.8567,447.0656 0.7727,446.2136 0.8397,445.2586 C0.9117,443.3516 1.2877,441.0326 2.1657,438.5126 C3.0387,435.9936 4.3817,433.2706 6.2187,430.5496 C8.0477,427.8236 10.2937,425.0476 12.9117,422.3496 C15.5267,419.6486 18.4607,416.9716 21.6487,414.3956 C28.0187,409.2286 35.3237,404.3816 42.8757,399.9866 C58.0027,391.2036 74.1097,384.2346 86.5517,379.9876 C92.7717,377.8516 98.0917,376.4176 101.9157,375.6666 C103.8357,375.2856 105.3427,375.0766 106.4567,374.9816 C107.0207,374.9216 107.3947,374.9126 107.6607,374.8976 C107.9237,374.8836 108.0597,374.8766 108.0597,374.8766 C108.8877,374.8346 109.5927,375.4706 109.6347,376.2976 C109.6777,377.1256 109.0417,377.8306 108.2137,377.8736 C108.2057,377.8736 108.1857,377.8746 108.1777,377.8746" id="Fill-19" fill="#1A1918"></path>
            <path d="M296.628,200.6467 C296.628,200.6467 296.931,200.4847 297.461,200.2027 C297.968,199.9237 298.705,199.5097 299.567,198.9757 C301.292,197.9127 303.501,196.3267 305.53,194.5057 C306.037,194.0507 306.536,193.5857 307.014,193.1137 C307.493,192.6497 307.949,192.1537 308.452,191.7107 C308.952,191.2697 309.511,190.8827 310.122,190.6877 C310.718,190.4687 311.401,190.5377 311.886,190.7797 C312.381,191.0157 312.763,191.3837 312.943,191.7937 C313.146,192.2027 313.061,192.6277 312.957,192.8977 C312.885,193.1767 312.893,193.4297 312.97,193.5637 C313.076,193.6957 313.191,193.5807 313.179,193.5987 C313.189,193.5767 313.088,193.7127 312.951,193.5767 C312.855,193.4357 312.825,193.1837 312.874,192.8767 C312.953,192.5857 312.988,192.2237 312.778,191.8757 C312.589,191.5307 312.217,191.2337 311.765,191.0677 C311.304,190.9007 310.793,190.8887 310.283,191.1227 C309.777,191.3367 309.317,191.7157 308.89,192.1677 C308.462,192.6177 308.058,193.1457 307.61,193.6677 C307.168,194.1907 306.704,194.7097 306.23,195.2197 C304.333,197.2627 302.209,199.1037 300.523,200.3657 C299.682,200.9997 298.959,201.4977 298.44,201.8477 C297.934,202.1787 297.645,202.3687 297.645,202.3687 C297.183,202.6717 296.562,202.5427 296.259,202.0807 C295.956,201.6187 296.085,200.9977 296.547,200.6947 C296.572,200.6787 296.602,200.6607 296.628,200.6467" id="Fill-21" fill="#1A1918"></path>
            <path d="M64.1425,201.9121 C64.1425,201.9121 64.1305,201.9621 64.1075,202.0591 C64.0865,202.1301 64.0575,202.2101 64.0175,202.2921 C63.9865,202.3511 63.9485,202.4121 63.9025,202.4761 C63.8115,202.5991 63.6885,202.7171 63.5465,202.8061 C63.2625,202.9841 62.9375,203.0611 62.5795,203.0281 C62.3995,203.0091 62.2025,202.9611 61.9915,202.8471 C61.8955,202.7981 61.7625,202.6991 61.6945,202.6321 C61.6985,202.6381 61.5305,202.4681 61.5005,202.4161 C61.2605,202.0981 61.1695,201.7651 61.1105,201.5061 C61.0645,201.2931 61.0155,201.0631 60.9635,200.8171 C60.8625,200.4141 60.6955,199.9021 60.4625,199.3781 C60.0015,198.3181 59.2405,197.1381 58.3145,195.9081 C57.8515,195.2991 57.3625,194.6341 56.8635,194.0471 C56.3625,193.4661 55.7925,192.9411 55.1355,192.6791 C54.4745,192.4091 53.7055,192.3791 53.1365,192.7181 C52.5545,193.0571 52.1825,193.7561 51.8865,194.4501 C51.2815,195.8691 50.8285,197.2471 50.5015,198.4451 C50.1775,199.6441 49.9775,200.6631 49.8555,201.3791 C49.7455,202.0991 49.6835,202.5101 49.6835,202.5101 C49.6835,202.5101 49.7145,202.0941 49.7705,201.3681 C49.8385,200.6431 49.9615,199.6061 50.1975,198.3741 C50.4355,197.1431 50.7875,195.7171 51.2965,194.2231 C51.5565,193.4891 51.8795,192.6211 52.6905,192.0371 C53.5125,191.4641 54.5825,191.4511 55.4695,191.7361 C56.3935,192.0301 57.1195,192.6331 57.7305,193.2371 C58.3395,193.8561 58.8515,194.4551 59.3785,195.0491 C60.4195,196.2351 61.3485,197.4461 61.9775,198.6341 C62.2955,199.2301 62.5345,199.7901 62.7205,200.3591 C62.7915,200.6041 62.8595,200.8331 62.9215,201.0451 C62.9695,201.2101 63.0175,201.2651 63.0055,201.2331 C63.0315,201.2531 62.9245,201.1481 62.9925,201.2111 C62.9875,201.2021 62.9235,201.1531 62.8995,201.1401 C62.8315,201.1021 62.7855,201.0911 62.7445,201.0841 C62.6695,201.0741 62.5865,201.0791 62.4655,201.1511 C62.4065,201.1861 62.3435,201.2431 62.2965,201.3061 C62.2705,201.3381 62.2515,201.3711 62.2365,201.4031 C62.2075,201.4561 62.1885,201.5091 62.1775,201.5571 C62.1625,201.6271 62.1665,201.6151 62.1685,201.5981 L62.1715,201.5751 C62.1735,201.5621 62.1745,201.5561 62.1745,201.5561 L62.1765,201.5391 C62.2545,200.9911 62.7605,200.6101 63.3085,200.6871 C63.8565,200.7641 64.2375,201.2711 64.1605,201.8181 C64.1555,201.8501 64.1495,201.8821 64.1425,201.9121" id="Fill-23" fill="#1A1918"></path>
            <path d="M164.4948,311.9532 C164.4948,311.9532 164.6208,312.1062 164.8578,312.3932 C165.0878,312.6852 165.4408,313.1122 165.9408,313.5692 C166.1758,313.8122 166.4468,314.0672 166.7828,314.3082 C167.1088,314.5562 167.4358,314.8482 167.8468,315.0852 C168.2408,315.3412 168.6558,315.6142 169.1348,315.8372 C169.3678,315.9572 169.6058,316.0812 169.8498,316.2072 C170.1038,316.3142 170.3638,316.4242 170.6298,316.5352 C171.6868,316.9862 172.8928,317.3282 174.1718,317.6462 C175.4638,317.9282 176.8408,318.1552 178.2828,318.3002 C179.7228,318.4582 181.2228,318.5052 182.7498,318.5242 C184.2758,318.5582 185.8308,318.4742 187.3828,318.3782 C188.9358,318.2702 190.4898,318.1422 192.0128,317.9332 C193.5358,317.7332 195.0348,317.5232 196.4788,317.2692 C197.9188,316.9952 199.3168,316.7482 200.6288,316.4472 C201.9428,316.1562 203.1788,315.8492 204.3178,315.5542 C205.4518,315.2412 206.4898,314.9442 207.4028,314.6542 C208.3128,314.3562 209.1028,314.0822 209.7498,313.8422 C210.3858,313.5812 210.9008,313.3962 211.2348,313.2342 C211.5748,313.0842 211.7568,313.0032 211.7568,313.0032 C211.7568,313.0032 211.5938,313.1172 211.2878,313.3292 C210.9838,313.5492 210.5238,313.8452 209.9208,314.2012 C209.3128,314.5432 208.5668,314.9532 207.6838,315.3662 C206.8028,315.7822 205.7948,316.2222 204.6728,316.6462 C202.4338,317.5062 199.7528,318.3332 196.8248,318.9962 C195.3578,319.3072 193.8398,319.6402 192.2748,319.8462 C190.7148,320.0832 189.1168,320.2432 187.5148,320.3722 C185.9088,320.4492 184.3008,320.5112 182.7128,320.4532 C181.1258,320.4252 179.5638,320.2622 178.0618,320.0422 C176.5568,319.8422 175.1218,319.4782 173.7828,319.0822 C172.4478,318.6602 171.2128,318.1642 170.1398,317.5682 C169.8718,317.4212 169.6088,317.2772 169.3518,317.1362 C169.1078,316.9732 168.8698,316.8142 168.6368,316.6592 C168.1668,316.3602 167.7628,316.0132 167.3858,315.6912 C166.9948,315.3872 166.6798,315.0412 166.3888,314.7282 C166.0868,314.4282 165.8428,314.1162 165.6378,313.8232 C165.1868,313.2682 164.9468,312.7832 164.7688,312.4542 C164.5898,312.1272 164.4948,311.9532 164.4948,311.9532" id="Fill-25" fill="#1A1918"></path>
            <path d="M162.8175,245.1228 C162.8175,245.1228 161.6095,246.1318 159.8005,248.1558 C158.9025,249.1648 157.8605,250.4518 156.9425,252.0428 C156.4885,252.8368 156.0985,253.7278 155.8915,254.6688 C155.7025,255.6138 155.7415,256.5828 156.1995,257.4198 C157.1655,259.3278 159.0695,260.8588 161.2455,262.2428 C163.4355,263.6568 165.9735,264.7568 168.6005,266.3558 C168.9295,266.5628 169.2605,266.7808 169.5935,267.0298 L170.4925,267.7068 C171.0965,268.1628 171.6455,268.5518 172.2565,268.9518 C173.4545,269.7508 174.7125,270.4308 176.0075,270.9638 C178.5915,272.0558 181.4965,272.1978 184.5025,271.9678 L185.0665,271.9288 L185.3485,271.9088 L185.4185,271.9038 C185.2905,271.9198 185.4045,271.9058 185.3855,271.9078 L185.4215,271.9028 L185.5665,271.8838 C185.9335,271.8258 186.3845,271.7948 186.6675,271.7098 C187.2785,271.5838 187.9955,271.3818 188.6795,271.1428 C190.0595,270.6678 191.4325,270.0528 192.7985,269.4058 C194.1655,268.7558 195.5295,268.0698 196.9385,267.4458 C198.3495,266.8228 199.7775,266.2128 201.3775,265.8408 L201.9945,265.7268 L202.5425,265.6358 C202.9045,265.5818 203.1225,265.5278 203.4585,265.4458 C204.0745,265.2848 204.6795,265.0528 205.2735,264.7988 C206.4615,264.2858 207.5755,263.6168 208.5675,262.8588 C209.5585,262.0998 210.4255,261.2388 211.0995,260.3228 C211.7735,259.4128 212.2305,258.4188 212.2965,257.4758 C212.3505,256.4848 212.0525,255.5218 211.6765,254.5668 C211.3025,253.6258 210.8245,252.7588 210.3485,251.9608 C209.3735,250.3728 208.3905,249.0458 207.5455,247.9848 C206.6925,246.9288 205.9975,246.1108 205.4975,245.5788 C205.0025,245.0408 204.7065,244.7848 204.7065,244.7848 C204.7065,244.7848 206.0145,245.6618 207.9825,247.5908 C208.9585,248.5608 210.1255,249.7678 211.2875,251.3278 C211.8645,252.1098 212.4575,252.9688 212.9745,253.9678 C213.2355,254.4648 213.4755,254.9988 213.6595,255.5858 C213.7525,255.8848 213.8375,256.1668 213.8975,256.5218 C213.9655,256.9298 213.9905,257.0438 214.0005,257.5088 C214.0185,258.9198 213.4915,260.2658 212.7695,261.4408 C212.0355,262.6218 211.0765,263.6618 209.9985,264.6038 C208.9145,265.5408 207.6985,266.3778 206.3405,267.0668 C205.6605,267.4108 204.9385,267.7028 204.1735,267.9388 C203.8165,268.0458 203.3345,268.1688 202.9805,268.2318 L202.6835,268.2868 L202.4565,268.3378 L201.9995,268.4358 C199.4785,269.1258 196.8455,270.6918 194.0545,272.0178 C192.6525,272.6978 191.2045,273.3698 189.6515,273.9238 C188.8705,274.2018 188.0925,274.4438 187.1775,274.6358 C186.7055,274.7548 186.3735,274.7708 185.9725,274.8388 L185.8275,274.8598 L185.6095,274.8838 L185.3085,274.9088 L184.7065,274.9578 C183.0955,275.0628 181.4455,275.0758 179.7795,274.8908 C178.1145,274.7168 176.4445,274.2808 174.9085,273.6328 C173.3625,272.9948 171.9785,272.1208 170.7015,271.2128 C169.4025,270.3178 168.2445,269.2258 167.1925,268.5218 C164.8705,267.0008 162.2905,265.6448 160.0415,264.0388 C157.7895,262.4638 155.7365,260.5138 154.7175,258.1288 C154.4475,257.4948 154.2925,256.8068 154.2845,256.1538 C154.2845,255.5008 154.4035,254.8888 154.5675,254.3248 C154.9255,253.2068 155.4585,252.2718 156.0225,251.4638 C157.1525,249.8438 158.3865,248.6858 159.4025,247.7578 C160.4285,246.8358 161.3025,246.1998 161.8935,245.7638 C162.4885,245.3348 162.8175,245.1228 162.8175,245.1228" id="Fill-27" fill="#1A1918"></path>
            <path d="M94.9418,201.2214 C97.6828,200.2454 100.2668,198.9064 102.7248,197.3764 C105.1938,195.8614 107.5758,194.2114 109.9488,192.5344 L113.4708,189.9464 C114.6348,189.0854 115.7578,188.2064 117.0288,187.3534 C118.2938,186.4984 119.7758,185.7844 121.2558,185.3244 C122.6858,184.8824 124.2678,184.5604 125.7998,184.4504 C128.8878,184.2084 132.0078,184.6584 134.8768,185.6614 C136.3168,186.1504 137.7068,186.7464 139.0458,187.4244 C139.7208,187.7594 140.3618,188.1214 141.0238,188.5024 C141.6438,188.8654 142.2748,189.2594 142.9088,189.6684 C147.8698,192.9324 152.1108,196.9674 156.2618,201.0324 L156.2668,201.0374 C156.2908,201.0614 156.2908,201.1004 156.2668,201.1244 C156.2468,201.1454 156.2148,201.1494 156.1908,201.1344 L155.1508,200.5014 L156.2498,201.0244 L156.1798,201.1264 C151.6168,197.5314 147.0678,193.8604 142.0148,191.1814 C141.3948,190.8564 140.7618,190.5364 140.0958,190.2224 C139.4688,189.9354 138.8128,189.6424 138.1588,189.3914 C136.8498,188.8764 135.5148,188.4494 134.1648,188.1284 C131.4608,187.4964 128.7198,187.2444 126.0128,187.4244 C124.6478,187.5214 123.3558,187.6914 121.9748,187.9874 C120.6428,188.2584 119.4258,188.6924 118.2038,189.3394 C116.9818,189.9784 115.7238,190.7674 114.4258,191.4484 C113.1398,192.1354 111.8688,192.8274 110.6088,193.5584 C108.0978,195.0254 105.5928,196.5244 102.9938,197.8534 C101.6968,198.5224 100.3798,199.1524 99.0338,199.7104 C97.6968,200.2864 96.3318,200.8014 94.9418,201.2214" id="Fill-29" fill="#1A1918"></path>
            <path d="M97.1503,192.2394 C97.7363,191.9304 98.3263,191.6284 98.9203,191.3404 L100.6423,190.3944 C101.7813,189.7524 102.9123,189.0884 104.0333,188.4114 C106.2743,187.0504 108.5023,185.6564 110.7873,184.3114 C111.9313,183.6444 113.1023,183.0104 114.2863,182.3934 C115.4693,181.7714 116.7073,181.2444 117.9493,180.7254 C118.5793,180.4834 119.2113,180.2474 119.8493,180.0264 L121.7923,179.4344 L123.7723,178.9594 L125.7853,178.6294 C126.4603,178.5514 127.1423,178.5144 127.8193,178.4554 C128.5523,178.4094 129.1573,178.4464 129.8333,178.4384 C130.5103,178.4724 131.2063,178.5344 131.8863,178.5914 C132.5543,178.6984 133.2273,178.7774 133.8893,178.9084 C135.2113,179.1784 136.5163,179.5134 137.7863,179.9464 C139.0573,180.3714 140.3043,180.8594 141.5143,181.4194 C142.7353,181.9564 143.9103,182.5844 145.0693,183.2294 C146.2313,183.8724 147.3633,184.5614 148.4823,185.2674 C150.7173,186.6824 152.8833,188.1924 155.0343,189.7164 L155.4163,189.9864 L154.9563,189.9624 L153.5573,189.8904 C153.5023,189.8884 153.4603,189.8414 153.4623,189.7854 C153.4653,189.7324 153.5103,189.6904 153.5633,189.6904 L154.9633,189.6934 L154.8843,189.9394 C150.4443,187.1134 145.9373,184.3374 141.1023,182.3734 C139.9013,181.8704 138.6733,181.4424 137.4313,181.0774 C136.1913,180.7054 134.9273,180.4314 133.6593,180.2204 C133.0243,180.1194 132.3843,180.0694 131.7483,179.9904 C131.1143,179.9634 130.4953,179.9284 129.8563,179.9174 C129.2153,179.9494 128.4983,179.9404 127.9203,180.0054 C127.2873,180.0854 126.6523,180.1414 126.0233,180.2424 L124.1503,180.6324 L122.3073,181.1614 L120.4993,181.8174 L118.7203,182.5644 C117.5393,183.0814 116.3853,183.6634 115.2213,184.2394 C114.0553,184.8134 112.9043,185.4274 111.7473,186.0434 C109.4223,187.2544 107.0953,188.5134 104.6873,189.6364 C103.4873,190.2074 102.2613,190.7244 101.0183,191.2094 C99.7553,191.6724 98.5083,192.0944 97.2233,192.4254 C97.1703,192.4404 97.1143,192.4084 97.1003,192.3544 C97.0873,192.3094 97.1103,192.2614 97.1503,192.2394" id="Fill-31" fill="#1A1918"></path>
            <path d="M94.925,202.7574 C95.454,202.4984 96.137,202.5164 96.713,202.7074 C97.299,202.8994 97.818,203.2254 98.304,203.5654 C98.804,203.9114 99.221,204.2894 99.678,204.6434 C100.126,205.0144 100.585,205.3504 101.042,205.6804 C101.944,206.3634 102.891,207.0024 103.831,207.6424 C104.316,207.9394 104.78,208.2724 105.276,208.5534 C105.767,208.8434 106.256,209.1384 106.764,209.3994 C107.765,209.9494 108.81,210.4154 109.863,210.8614 C110.922,211.2944 112.001,211.6824 113.099,212.0104 C114.198,212.3354 115.306,212.6424 116.435,212.8584 C117.56,213.0984 118.701,213.2534 119.847,213.3844 L119.785,213.5014 L119.31,212.8694 C119.293,212.8474 119.297,212.8164 119.319,212.7994 C119.341,212.7834 119.371,212.7874 119.388,212.8074 L119.898,213.4104 L120.005,213.5374 L119.836,213.5284 C118.681,213.4614 117.524,213.3694 116.377,213.1924 C115.227,213.0344 114.087,212.7994 112.958,212.5164 C111.83,212.2304 110.718,211.8824 109.621,211.4864 C108.529,211.0804 107.445,210.6434 106.394,210.1324 C105.861,209.8934 105.345,209.6184 104.826,209.3484 C104.304,209.0844 103.805,208.7774 103.296,208.4864 C102.804,208.1704 102.3,207.8684 101.826,207.5234 C101.361,207.1654 100.875,206.8434 100.43,206.4524 C99.978,206.0694 99.533,205.6854 99.121,205.2864 L97.875,204.0984 C97.464,203.7164 97.029,203.3654 96.544,203.1214 C96.062,202.8554 95.525,202.7464 94.951,202.8544 C94.924,202.8594 94.898,202.8414 94.892,202.8144 C94.888,202.7914 94.9,202.7694 94.92,202.7604 L94.925,202.7574 Z" id="Fill-33" fill="#1A1918"></path>
            <path d="M207.4063,192.6365 C207.4063,192.6365 207.5953,192.5735 207.9503,192.4545 C208.3003,192.3265 208.8343,192.1805 209.4763,191.9205 C210.1253,191.6755 210.9073,191.3665 211.7883,190.9655 C212.6703,190.5715 213.6533,190.0995 214.7033,189.5405 C216.8083,188.4315 219.1883,187.0015 221.7243,185.4265 C224.2593,183.8505 226.9523,182.1275 229.7603,180.5445 C231.1703,179.7585 232.5783,178.9755 234.0723,178.3125 C235.5673,177.6715 237.1613,177.1535 238.7993,177.0435 C240.4183,176.9625 241.8633,177.0815 243.2753,177.2575 C244.6733,177.4265 245.9753,177.7135 247.1623,178.0225 C249.5323,178.6685 251.4143,179.5325 252.6123,180.3205 C253.2153,180.7055 253.6733,181.0295 253.9533,181.2915 C254.2393,181.5435 254.3913,181.6775 254.3913,181.6775 C254.4323,181.7135 254.4363,181.7765 254.4003,181.8185 C254.3693,181.8535 254.3183,181.8615 254.2783,181.8415 L254.2713,181.8375 C254.2713,181.8375 254.0953,181.7455 253.7643,181.5725 C253.4363,181.4025 252.9503,181.1615 252.3103,180.9155 C251.6773,180.6545 250.8743,180.4225 249.9643,180.1615 C249.0403,179.9315 247.9963,179.6945 246.8403,179.5235 C245.6893,179.3285 244.4283,179.2075 243.0983,179.1175 C242.4333,179.0795 241.7443,179.0555 241.0553,179.0555 C240.3913,179.0485 239.6033,179.0565 238.9653,179.1105 C237.6163,179.2345 236.2093,179.5855 234.7963,180.1145 C233.3763,180.6245 231.9453,181.3065 230.5323,182.0005 C227.7033,183.4035 224.9433,184.9945 222.3253,186.4485 C219.7163,187.9185 217.2183,189.2105 215.0173,190.1855 C213.9203,190.6805 212.8953,191.0935 211.9793,191.4335 C211.0663,191.7795 210.2533,192.0415 209.5803,192.2465 C208.9133,192.4675 208.3773,192.5765 208.0183,192.6815 C207.6563,192.7775 207.4633,192.8285 207.4633,192.8285 C207.4103,192.8425 207.3553,192.8105 207.3413,192.7565 C207.3273,192.7055 207.3573,192.6535 207.4063,192.6365" id="Fill-35" fill="#1A1918"></path>
            <path d="M211.1446,197.4152 C211.1446,197.4152 211.3846,197.3542 211.8356,197.2392 C212.2876,197.1322 212.9476,196.9562 213.7716,196.6942 C215.4246,196.1802 217.7386,195.2902 220.3856,193.9602 C221.7096,193.2952 223.1206,192.5292 224.6026,191.6982 C226.0836,190.8612 227.6076,189.9052 229.1956,188.9152 C230.7926,187.9432 232.4726,186.9772 234.2316,186.0492 C235.9776,185.1092 237.9216,184.2362 240.1146,183.8572 C241.2036,183.6682 242.3746,183.6702 243.4216,183.7842 C244.6176,183.9222 245.6176,184.2262 246.6276,184.6152 C248.6146,185.4082 250.3006,186.5392 251.8336,187.6682 C253.3616,188.8092 254.7406,189.9792 256.0556,191.0482 C257.3706,192.1232 258.6356,193.0742 259.8466,193.9302 C262.2626,195.6302 264.3946,196.8892 265.9006,197.7462 C267.4126,198.5942 268.3036,199.0362 268.3036,199.0362 C268.3036,199.0362 267.3696,198.7012 265.7616,198.0302 C264.1546,197.3592 261.8856,196.3192 259.2686,194.8462 C257.9656,194.1132 256.5566,193.2632 255.1276,192.3182 C253.6916,191.3762 252.2126,190.3622 250.6546,189.4302 C249.0966,188.5082 247.4496,187.6542 245.7386,187.1742 C244.9066,186.9282 243.9856,186.7362 243.2116,186.7042 C242.2966,186.6272 241.4666,186.6532 240.6016,186.8152 C238.8696,187.0852 237.1106,187.7452 235.3146,188.4232 C233.5196,189.1132 231.7706,189.8802 230.0576,190.6002 C228.3356,191.3042 226.6756,192.0122 225.1126,192.7092 C223.5496,193.4072 222.0606,194.0482 220.6686,194.5952 C219.2726,195.1322 217.9906,195.6162 216.8316,195.9792 C215.6776,196.3542 214.6566,196.6302 213.8126,196.8432 C212.9696,197.0602 212.3026,197.1972 211.8446,197.2792 C211.3876,197.3682 211.1446,197.4152 211.1446,197.4152" id="Fill-37" fill="#1A1918"></path>
            <path d="M227.3361,213.7168 C227.3361,213.7168 227.9671,213.7768 229.0721,213.8818 C230.1771,213.9798 231.7571,214.1068 233.6551,214.1818 C237.4451,214.3298 242.5341,214.2898 247.4901,213.3588 C249.9641,212.9008 252.3881,212.2138 254.5941,211.4148 C255.7081,211.0428 256.7551,210.6048 257.7471,210.1888 C258.7431,209.7778 259.6531,209.3208 260.4891,208.8878 C261.3181,208.4438 262.0761,208.0288 262.7321,207.6308 C263.3791,207.2208 263.9461,206.8618 264.4041,206.5508 C264.6301,206.3938 264.8571,206.2688 264.9801,206.1368 C265.1231,206.0158 265.1031,205.8348 265.0721,205.8278 C265.0051,205.7958 264.8791,205.8808 264.8811,205.9038 C264.8641,205.9098 264.9071,205.9348 264.9031,205.9328 C264.9291,205.9418 264.9421,205.9708 264.9321,205.9968 C264.9231,206.0228 264.8941,206.0358 264.8681,206.0258 C264.8861,206.0138 264.7781,206.0458 264.7641,205.8838 C264.8001,205.7668 264.8891,205.6478 265.1211,205.6588 C265.4021,205.7798 265.3201,206.1148 265.1771,206.2968 C265.0261,206.5008 264.8241,206.6398 264.6191,206.8298 C264.2061,207.2088 263.6751,207.6318 263.0531,208.1048 C262.4211,208.5628 261.7071,209.0838 260.8801,209.5778 C260.0511,210.0668 259.1431,210.5858 258.1461,211.0618 C257.1581,211.5568 256.0721,211.9858 254.9401,212.3968 C252.6631,213.1868 250.1531,213.7708 247.6231,214.1478 C242.5591,214.9368 237.4301,214.8508 233.6341,214.5318 C231.7331,214.3808 230.1561,214.1918 229.0541,214.0498 C227.9531,213.9008 227.3241,213.8158 227.3241,213.8158 C227.2971,213.8128 227.2781,213.7868 227.2811,213.7598 C227.2851,213.7328 227.3091,213.7148 227.3361,213.7168" id="Fill-39" fill="#1A1918"></path>
            <path d="M276.6375,209.5334 C276.6375,209.5334 276.9865,209.5874 277.5965,209.6814 C277.8995,209.7364 278.2605,209.8454 278.6875,209.9444 C279.1135,210.0494 279.5625,210.2334 280.0805,210.3884 C280.5795,210.5794 281.1255,210.7844 281.6895,211.0314 C282.2615,211.2714 282.8635,211.5254 283.4865,211.7874 C284.1115,212.0564 284.7265,212.3864 285.3525,212.7244 C285.9905,213.0474 286.5805,213.4594 287.1665,213.8774 C287.7255,214.3284 288.2865,214.7784 288.7815,215.2874 C289.2855,215.7854 289.7665,216.2894 290.2215,216.7864 C291.1385,217.7704 291.9425,218.7344 292.6045,219.5754 C293.2635,220.4234 293.7705,221.1584 294.0985,221.6874 C294.4145,222.2234 294.5955,222.5294 294.5955,222.5294 C294.5955,222.5294 293.6645,221.4524 292.0795,220.0714 C291.2845,219.3834 290.3355,218.6094 289.2775,217.8384 C288.7515,217.4484 288.2005,217.0584 287.6295,216.6794 C287.0725,216.2834 286.5005,215.8934 285.9565,215.4684 C285.4045,215.0544 284.8765,214.6064 284.3635,214.1554 C283.8465,213.7054 283.3295,213.2734 282.8225,212.8594 C281.8475,211.9634 280.7945,211.3414 279.8895,210.8104 C279.4255,210.5734 278.9985,210.3374 278.6075,210.1784 C278.2135,210.0244 277.8725,209.8654 277.5755,209.7824 C276.9785,209.6244 276.6375,209.5334 276.6375,209.5334" id="Fill-41" fill="#1A1918"></path>
            <path d="M72.8633,233.5242 C72.8633,233.5242 72.9463,233.1762 73.0913,232.5682 C73.2383,231.9632 73.4553,231.0862 73.7753,230.0542 C73.9213,229.5322 74.1103,228.9772 74.3173,228.3902 C74.5163,227.7942 74.7263,227.1662 74.9433,226.5162 C75.1903,225.8762 75.4563,225.2142 75.7733,224.5642 C76.0583,223.8932 76.4493,223.2702 76.8443,222.6512 C77.2813,222.0592 77.7203,221.4692 78.2263,220.9492 C78.7153,220.4162 79.2373,219.9292 79.7273,219.4512 C80.2403,218.9932 80.7193,218.5402 81.2093,218.1482 C81.6913,217.7482 82.1493,217.3772 82.5903,217.0582 C83.4553,216.4002 84.2113,215.9052 84.7513,215.5812 C85.2903,215.2562 85.5973,215.0702 85.5973,215.0702 C85.5973,215.0702 85.3363,215.3162 84.8803,215.7472 C84.4293,216.1812 83.7893,216.8032 83.0753,217.5932 C82.7103,217.9802 82.3393,218.4202 81.9523,218.8882 C81.5583,219.3482 81.1833,219.8692 80.7843,220.3902 C80.4073,220.9322 80.0073,221.4782 79.6463,222.0652 C79.2633,222.6342 78.8933,223.2222 78.4893,223.7862 C78.1033,224.3612 77.6803,224.9122 77.2633,225.4612 C76.8333,226.0022 76.4603,226.5682 76.0613,227.1012 C75.6793,227.6412 75.2933,228.1652 75.0053,228.7012 C74.7093,229.2332 74.4343,229.7412 74.2073,230.2232 C73.9603,230.6992 73.7713,231.1482 73.6053,231.5492 C73.4323,231.9482 73.2873,232.2992 73.1903,232.5972 C72.9823,233.1872 72.8633,233.5242 72.8633,233.5242" id="Fill-43" fill="#1A1918"></path>
            <path d="M135.4599,213.2153 C135.4599,213.2153 136.4009,213.0803 137.7839,212.9213 C139.1699,212.7593 141.0019,212.5313 142.8249,212.2523 C144.6489,211.9783 146.4659,211.6513 147.8379,211.3953 C149.2079,211.1363 150.1449,210.9883 150.1449,210.9883 C150.1449,210.9883 149.3179,211.4553 147.9919,211.9483 C147.3309,212.2033 146.5429,212.4503 145.6889,212.6783 C144.8339,212.9063 143.9059,213.0853 142.9749,213.2403 C142.0399,213.3673 141.1009,213.4713 140.2169,213.5073 C139.3329,213.5423 138.5069,213.5403 137.8009,213.4923 C136.3849,213.4153 135.4599,213.2153 135.4599,213.2153" id="Fill-45" fill="#1A1918"></path>
            <path d="M239.4806,278.9713 C239.4806,278.9713 240.0326,279.2893 240.7226,279.9463 C241.0736,280.2673 241.4436,280.6793 241.8106,281.1453 C242.1786,281.6113 242.5166,282.1473 242.8346,282.6953 C243.1276,283.2563 243.3996,283.8293 243.5956,284.3893 C243.7926,284.9493 243.9426,285.4823 244.0246,285.9503 C244.2086,286.8813 244.1816,287.5223 244.1816,287.5223 C244.1816,287.5223 243.8796,286.9583 243.4806,286.1323 C243.0776,285.3053 242.5396,284.2283 241.9586,283.1763 C241.3826,282.1233 240.7626,281.0903 240.2796,280.3073 C239.7996,279.5313 239.4806,278.9713 239.4806,278.9713" id="Fill-47" fill="#1A1918"></path>
            <path d="M274.6879,273.153 C274.6879,273.153 275.2429,272.799 276.0539,272.328 C276.8699,271.853 277.9359,271.223 278.9779,270.56 C280.0229,269.902 281.0479,269.208 281.8269,268.674 C282.6029,268.14 283.1589,267.794 283.1589,267.794 C283.1589,267.794 282.8479,268.372 282.2089,269.103 C281.5819,269.842 280.6059,270.709 279.5119,271.405 C278.9579,271.739 278.3919,272.054 277.8349,272.296 C277.2789,272.537 276.7469,272.731 276.2769,272.854 C275.3389,273.12 274.6879,273.153 274.6879,273.153" id="Fill-49" fill="#1A1918"></path>
            <path d="M88.3669,274.5163 C88.3669,274.5163 89.0119,274.8623 89.8929,275.4803 C90.7779,276.0923 91.9029,276.9713 92.9749,277.9113 C94.0419,278.8563 95.0569,279.8603 95.7749,280.6623 C96.4979,281.4583 96.9219,282.0563 96.9219,282.0563 C96.9219,282.0563 96.2759,281.7113 95.3949,281.0933 C94.5089,280.4823 93.3849,279.6013 92.3139,278.6613 C91.2469,277.7163 90.2329,276.7103 89.5149,275.9093 C88.7909,275.1133 88.3669,274.5163 88.3669,274.5163" id="Fill-51" fill="#1A1918"></path>
            <path d="M81.7186,168.4495 C81.7186,168.4495 107.9386,158.4315 113.8226,159.2155 C119.7066,160.0005 136.7166,157.9365 141.4236,159.8975 C146.1306,161.8585 159.5966,167.4755 158.1206,171.4835 C157.2626,173.8115 152.6886,172.1325 149.9426,169.7795 C147.1966,167.4255 140.1676,164.5265 136.6376,164.9185 C135.0416,165.0965 127.8836,164.5835 120.2966,165.0085 C111.1036,165.5245 101.2676,167.0205 99.7636,167.6645 C97.0176,168.8415 80.1496,172.3725 81.7186,168.4495" id="Fill-53" fill="#000105"></path>
            <path d="M81.7186,168.4495 C81.7186,168.4495 107.9386,158.4315 113.8226,159.2155 C119.7066,160.0005 136.7166,157.9365 141.4236,159.8975 C146.1306,161.8585 159.5966,167.4755 158.1206,171.4835 C157.2626,173.8115 152.6886,172.1325 149.9426,169.7795 C147.1966,167.4255 140.1676,164.5265 136.6376,164.9185 C135.0416,165.0965 127.8836,164.5835 120.2966,165.0085 C111.1036,165.5245 101.2676,167.0205 99.7636,167.6645 C97.0176,168.8415 80.1496,172.3725 81.7186,168.4495 Z" id="Stroke-55" stroke="#1A1918" stroke-linecap="round"></path>
            <path d="M209.3042,167.4184 C209.3042,167.4184 232.0562,156.8264 238.3332,157.6114 C244.6092,158.3964 274.4222,167.0264 277.1682,168.9874 C279.9142,170.9484 277.1682,172.9104 273.6382,172.5184 C270.1072,172.1254 244.2172,161.9264 239.1172,162.7114 C234.0182,163.4954 219.8962,168.9874 214.7962,170.5564 C209.6962,172.1254 206.9502,170.5564 209.3042,167.4184" id="Fill-57" fill="#000105"></path>
            <path d="M209.3042,167.4184 C209.3042,167.4184 232.0562,156.8264 238.3332,157.6114 C244.6092,158.3964 274.4222,167.0264 277.1682,168.9874 C279.9142,170.9484 277.1682,172.9104 273.6382,172.5184 C270.1072,172.1254 244.2172,161.9264 239.1172,162.7114 C234.0182,163.4954 219.8962,168.9874 214.7962,170.5564 C209.6962,172.1254 206.9502,170.5564 209.3042,167.4184 Z" id="Stroke-59" stroke="#1A1918" stroke-linecap="round"></path>
            <path d="M136.1378,291.2106 C136.1378,291.2106 142.9648,296.7246 146.9028,297.5126 C150.8418,298.2996 168.1708,299.8756 173.4218,298.8246 C178.6738,297.7746 182.3488,300.6626 185.2378,300.6626 C188.1258,300.6626 191.2768,296.7246 195.4778,296.9866 C199.6788,297.2496 203.7398,299.5516 206.3658,299.0256 C208.9908,298.5006 217.5328,296.4616 220.9458,294.6236 C224.3598,292.7856 230.3558,289.5216 231.4058,288.2086 C232.4558,286.8956 227.5108,281.2336 228.2978,280.7076 C229.0858,280.1826 237.4878,285.9596 237.7508,288.5846 C238.0128,291.2106 235.1248,289.1096 233.2868,289.8976 C231.4488,290.6856 228.2978,293.5736 225.1468,295.4116 C221.9968,297.2496 213.1768,302.4316 208.3688,302.8326 C204.1498,303.1836 197.0528,301.9756 193.9018,302.7636 C190.7508,303.5516 187.0758,305.1266 182.8748,303.8136 C178.6738,302.5006 177.6228,300.9256 172.8968,302.2386 C168.1708,303.5516 151.8918,301.7136 148.2158,300.9256 C144.5398,300.1376 136.6628,295.9366 136.1378,291.2106" id="Fill-61" fill="#000105"></path>
            <path d="M136.1378,291.2106 C136.1378,291.2106 142.9648,296.7246 146.9028,297.5126 C150.8418,298.2996 168.1708,299.8756 173.4218,298.8246 C178.6738,297.7746 182.3488,300.6626 185.2378,300.6626 C188.1258,300.6626 191.2768,296.7246 195.4778,296.9866 C199.6788,297.2496 203.7398,299.5516 206.3658,299.0256 C208.9908,298.5006 217.5328,296.4616 220.9458,294.6236 C224.3598,292.7856 230.3558,289.5216 231.4058,288.2086 C232.4558,286.8956 227.5108,281.2336 228.2978,280.7076 C229.0858,280.1826 237.4878,285.9596 237.7508,288.5846 C238.0128,291.2106 235.1248,289.1096 233.2868,289.8976 C231.4488,290.6856 228.2978,293.5736 225.1468,295.4116 C221.9968,297.2496 213.1768,302.4316 208.3688,302.8326 C204.1498,303.1836 197.0528,301.9756 193.9018,302.7636 C190.7508,303.5516 187.0758,305.1266 182.8748,303.8136 C178.6738,302.5006 177.6228,300.9256 172.8968,302.2386 C168.1708,303.5516 151.8918,301.7136 148.2158,300.9256 C144.5398,300.1376 136.6628,295.9366 136.1378,291.2106 Z" id="Stroke-63" stroke="#1A1918" stroke-linecap="round" stroke-linejoin="round"></path>
            <path d="M244.1376,198.5773 C242.2036,198.5773 238.8266,196.3923 238.8266,194.4583 C238.8266,192.5243 242.2036,191.5743 244.1376,191.5743 C246.0716,191.5743 247.6396,193.1423 247.6396,195.0753 C247.6396,197.0093 246.0716,198.5773 244.1376,198.5773 M235.3606,195.1163 C234.0076,195.1163 232.9106,194.3623 232.9106,193.4323 C232.9106,192.5023 234.0076,191.7483 235.3606,191.7483 C236.7136,191.7483 237.8106,192.5023 237.8106,193.4323 C237.8106,194.3623 236.7136,195.1163 235.3606,195.1163 M241.7166,185.0413 C234.6396,185.0413 228.9016,190.7793 228.9016,197.8573 C228.9016,204.9353 234.6396,210.6733 241.7166,210.6733 C248.7946,210.6733 254.5326,204.9353 254.5326,197.8573 C254.5326,190.7793 248.7946,185.0413 241.7166,185.0413" id="Fill-65" fill="#000105"></path>
            <path d="M244.1376,198.5773 C242.2036,198.5773 238.8266,196.3923 238.8266,194.4583 C238.8266,192.5243 242.2036,191.5743 244.1376,191.5743 C246.0716,191.5743 247.6396,193.1423 247.6396,195.0753 C247.6396,197.0093 246.0716,198.5773 244.1376,198.5773 Z M235.3606,195.1163 C234.0076,195.1163 232.9106,194.3623 232.9106,193.4323 C232.9106,192.5023 234.0076,191.7483 235.3606,191.7483 C236.7136,191.7483 237.8106,192.5023 237.8106,193.4323 C237.8106,194.3623 236.7136,195.1163 235.3606,195.1163 Z M241.7166,185.0413 C234.6396,185.0413 228.9016,190.7793 228.9016,197.8573 C228.9016,204.9353 234.6396,210.6733 241.7166,210.6733 C248.7946,210.6733 254.5326,204.9353 254.5326,197.8573 C254.5326,190.7793 248.7946,185.0413 241.7166,185.0413 Z" id="Stroke-67" stroke="#1A1918" stroke-linecap="round"></path>
            <path d="M125.8636,199.3959 C123.8326,199.3959 122.1866,197.7499 122.1866,195.7189 C122.1866,193.6889 123.8326,192.0429 125.8636,192.0429 C127.8946,192.0429 131.1346,193.4489 131.1346,195.4799 C131.1346,197.5099 127.8946,199.3959 125.8636,199.3959 M119.0846,197.1059 C117.5206,197.1059 116.2526,196.2149 116.2526,195.1159 C116.2526,194.0169 117.5206,193.1259 119.0846,193.1259 C120.6486,193.1259 121.9176,194.0169 121.9176,195.1159 C121.9176,196.2149 120.6486,197.1059 119.0846,197.1059 M124.3356,186.9109 C117.7096,186.9109 112.3386,192.2819 112.3386,198.9079 C112.3386,205.5349 117.7096,210.9059 124.3356,210.9059 C130.9616,210.9059 136.3336,205.5349 136.3336,198.9079 C136.3336,192.2819 130.9616,186.9109 124.3356,186.9109" id="Fill-69" fill="#000105"></path>
            <path d="M125.8636,199.3959 C123.8326,199.3959 122.1866,197.7499 122.1866,195.7189 C122.1866,193.6889 123.8326,192.0429 125.8636,192.0429 C127.8946,192.0429 131.1346,193.4489 131.1346,195.4799 C131.1346,197.5099 127.8946,199.3959 125.8636,199.3959 Z M119.0846,197.1059 C117.5206,197.1059 116.2526,196.2149 116.2526,195.1159 C116.2526,194.0169 117.5206,193.1259 119.0846,193.1259 C120.6486,193.1259 121.9176,194.0169 121.9176,195.1159 C121.9176,196.2149 120.6486,197.1059 119.0846,197.1059 Z M124.3356,186.9109 C117.7096,186.9109 112.3386,192.2819 112.3386,198.9079 C112.3386,205.5349 117.7096,210.9059 124.3356,210.9059 C130.9616,210.9059 136.3336,205.5349 136.3336,198.9079 C136.3336,192.2819 130.9616,186.9109 124.3356,186.9109 Z" id="Stroke-71" stroke="#1A1918" stroke-linecap="round"></path>
            <path d="M192.2063,199.2475 C192.2063,199.2475 192.2283,199.6925 192.2923,200.4575 C192.3433,201.2225 192.4523,202.3095 192.5813,203.5985 C192.6733,204.2425 192.7343,204.9385 192.8493,205.6675 C192.9423,206.3995 193.0803,207.1625 193.2203,207.9495 C193.3263,208.7425 193.5693,209.5335 193.7193,210.3535 C193.9093,211.1645 194.1423,211.9785 194.3813,212.7855 C194.6683,213.5735 194.8633,214.4035 195.2123,215.1505 C195.5573,215.8985 195.7933,216.6895 196.1963,217.3645 C196.5653,218.0575 196.8743,218.7625 197.2923,219.3525 C197.6973,219.9485 198.0053,220.5825 198.4253,221.0585 C198.8223,221.5555 199.1733,222.0305 199.4883,222.4565 C199.8483,222.8405 200.1633,223.1745 200.4223,223.4495 C200.9393,224.0135 201.2333,224.3585 201.2333,224.3585 C201.2333,224.3585 200.8463,224.1555 200.1733,223.7605 C199.8403,223.5595 199.4223,223.3235 198.9673,223.0175 C198.5493,222.6715 198.0733,222.2755 197.5683,221.8225 C197.0253,221.3995 196.5853,220.8125 196.0763,220.2195 C195.5433,219.6405 195.1003,218.9475 194.6563,218.2195 C194.1763,217.5085 193.8053,216.7115 193.4313,215.8985 C193.0343,215.0935 192.7953,214.2185 192.4703,213.3715 C192.2363,212.4995 192.0113,211.6235 191.8333,210.7565 C191.6803,209.8845 191.5393,209.0235 191.4803,208.1855 C191.4453,207.7675 191.3983,207.3575 191.3803,206.9545 C191.3753,206.5505 191.3703,206.1565 191.3653,205.7725 C191.3333,205.0065 191.4063,204.2805 191.4383,203.6155 C191.6373,200.9485 192.2063,199.2475 192.2063,199.2475" id="Fill-73" fill="#1A1918"></path>
            <path d="M170.5419,199.2475 C170.5419,199.2475 171.2679,200.5405 171.7529,202.6825 C172.0159,203.7485 172.1999,205.0205 172.2779,206.3965 C172.3019,207.0845 172.3209,207.8005 172.2889,208.5255 C172.2249,209.2495 172.2039,209.9905 172.0619,210.7205 C171.9369,211.4505 171.8149,212.1825 171.5949,212.8825 C171.4999,213.2355 171.4009,213.5845 171.2919,213.9245 C171.1599,214.2585 171.0299,214.5885 170.9019,214.9125 C170.7679,215.2335 170.6599,215.5575 170.5109,215.8585 C170.3499,216.1525 170.1919,216.4405 170.0389,216.7205 C169.8849,216.9975 169.7349,217.2675 169.5889,217.5285 C169.4339,217.7825 169.2459,218.0085 169.0869,218.2345 C168.7609,218.6825 168.4569,219.0855 168.1669,219.4235 C167.8569,219.7495 167.5719,220.0185 167.3419,220.2395 C166.8779,220.6795 166.6029,220.9115 166.6029,220.9115 C166.6029,220.9115 166.7499,220.5695 167.0229,220.0025 C167.1619,219.7215 167.3239,219.3785 167.5279,219.0035 C167.6929,218.6085 167.8799,218.1625 168.0829,217.6755 C168.3079,217.2055 168.4819,216.6665 168.6779,216.1065 C168.7759,215.8285 168.8769,215.5425 168.9799,215.2505 C169.0639,214.9515 169.1499,214.6475 169.2369,214.3375 C169.3259,214.0295 169.4149,213.7155 169.5059,213.3985 C169.5689,213.0735 169.6349,212.7455 169.7109,212.4185 C169.8739,211.7655 169.9809,211.0895 170.0859,210.4125 C170.2309,209.7425 170.2519,209.0515 170.3569,208.3825 C170.4099,207.7085 170.4889,207.0425 170.5209,206.3945 C170.5309,205.7455 170.5999,205.1155 170.5959,204.5165 C170.6029,203.9135 170.6109,203.3435 170.6169,202.8185 C170.6119,201.7625 170.5979,200.8705 170.5759,200.2425 C170.5619,199.6125 170.5419,199.2475 170.5419,199.2475" id="Fill-75" fill="#1A1918"></path>
        </g>
    </g>
</svg>