<?xml version="1.0" encoding="UTF-8"?>
<svg width="393px" height="459px" viewBox="0 0 393 459" version="1.1" xmlns="http://www.w3.org/2000/svg" xmlns:xlink="http://www.w3.org/1999/xlink">
    <!-- Generator: Sketch 44.1 (41455) - http://www.bohemiancoding.com/sketch -->
    <title>Energiegeladen</title>
    <desc>Created with Sketch.</desc>
    <defs></defs>
    <g id="Page-1" stroke="none" stroke-width="1" fill="none" fill-rule="evenodd">
        <g id="Energiegeladen" transform="translate(0.000000, 1.000000)">
            <g id="Group-49" transform="translate(0.000000, 0.890000)">
                <path d="M308.2295,398.5309 C286.7315,453.8019 167.4315,439.2299 137.0665,431.4569 C106.7015,423.6919 94.0795,424.1749 92.4295,409.3389 C92.4295,409.3389 90.4885,401.0639 94.5625,395.4419 C97.4605,391.4409 112.8615,384.7699 121.4735,381.2709 C122.3755,378.4639 122.7405,376.5589 122.7405,376.5589 C124.4445,365.8969 124.6445,343.9699 124.8905,330.6109 C130.9325,336.6439 136.9115,342.2119 141.5225,345.9749 C153.1785,355.5079 177.5195,375.8759 198.9535,372.2669 C214.7285,369.6149 228.7715,366.1789 242.6425,353.9129 C247.4355,350.1769 266.0625,333.4989 279.3955,313.7789 C278.7305,327.3849 278.4115,353.3569 285.8565,372.5579 C286.5855,374.4539 287.3965,376.2859 288.2995,378.0259 C295.3705,380.3679 312.4125,387.2949 308.2295,398.5309" id="Fill-1" fill="#D0C7B2"></path>
                <g id="Group-6" transform="translate(306.000000, 164.000000)">
                    <path d="M2.2206,18.8741 C2.2206,18.8741 7.7916,-0.1769 12.9596,0.7741 C20.7206,2.2021 26.5206,22.7651 23.2586,29.5551 C19.9966,36.3441 17.3306,43.2561 16.2426,53.6191 C15.1556,63.9821 15.0146,66.6771 10.9376,74.8961 C6.8596,83.1151 0.5396,83.1781 0.5396,83.1781" id="Fill-3" fill="#D0C7B2"></path>
                    <path d="M2.2206,18.8741 C2.2206,18.8741 7.7916,-0.1769 12.9596,0.7741 C20.7206,2.2021 26.5206,22.7651 23.2586,29.5551 C19.9966,36.3441 17.3306,43.2561 16.2426,53.6191 C15.1556,63.9821 15.0146,66.6771 10.9376,74.8961 C6.8596,83.1151 0.5396,83.1781 0.5396,83.1781" id="Stroke-5" stroke="#1A1918" stroke-width="2.293" stroke-linecap="round"></path>
                </g>
                <g id="Group-10" transform="translate(56.000000, 174.000000)">
                    <path d="M21.6685,17.2442 C21.6685,17.2442 14.4935,-5.4428 7.9225,2.1212 C1.3505,9.6852 -2.2205,22.8232 4.5825,37.0272 C8.7965,45.8232 5.6575,52.5962 9.6005,68.3062 C13.5425,84.0172 16.3315,91.2032 23.5555,85.5452" id="Fill-7" fill="#D0C7B2"></path>
                    <path d="M21.6685,17.2442 C21.6685,17.2442 14.4935,-5.4428 7.9225,2.1212 C1.3505,9.6852 -2.2205,22.8232 4.5825,37.0272 C8.7965,45.8232 5.6575,52.5962 9.6005,68.3062 C13.5425,84.0172 16.3315,91.2032 23.5555,85.5452" id="Stroke-9" stroke="#1A1918" stroke-width="2.305" stroke-linecap="round" stroke-linejoin="round"></path>
                </g>
                <path d="M278.5613,316.6013 C278.6023,321.5843 276.4993,381.1853 309.1243,394.3743" id="Stroke-11" stroke="#1A1918" stroke-width="2" stroke-linecap="round" stroke-linejoin="round"></path>
                <path d="M125.0265,329.4128 C125.0265,329.4128 126.3435,360.1778 122.9775,376.1328 C122.9775,376.1328 118.5375,399.4658 101.9575,403.2178" id="Stroke-13" stroke="#1A1918" stroke-width="2" stroke-linecap="round" stroke-linejoin="round"></path>
                <path d="M290.5527,376.9781 C290.5527,376.9781 313.7167,384.0161 308.4627,398.1011 C286.9667,453.3771 167.6667,438.7981 137.3017,431.0301 C106.9357,423.2631 94.3137,423.7411 92.6657,408.9111 C92.6657,408.9111 90.7267,400.6311 94.7927,395.0151 C98.8597,389.4001 121.4787,378.8271 121.4787,378.8271" id="Stroke-15" stroke="#1A1918" stroke-width="2" stroke-linecap="round" stroke-linejoin="round"></path>
                <path d="M285.2094,367.6433 C285.2094,367.6433 285.2274,367.6143 285.2614,367.5573 C285.3454,367.4183 285.5714,367.1813 285.8974,367.1033 C286.3194,367.0373 286.2274,367.0883 286.2844,367.0783 C286.4694,367.0983 286.5594,367.1253 286.7164,367.1623 C287.0064,367.2373 287.3814,367.3513 287.8644,367.5113 C288.8274,367.8293 290.2064,368.3203 291.9464,368.9783 C295.4264,370.2933 300.3474,372.2683 306.1794,374.8063 C317.8374,379.8793 333.1614,387.2113 347.6944,395.9603 C354.9564,400.3313 362.0154,405.0573 368.2584,409.9823 C374.5034,414.8973 379.9204,420.0373 383.9004,425.0073 C385.8934,427.4863 387.5254,429.9153 388.7774,432.1753 C390.0314,434.4353 390.8944,436.5273 391.4634,438.2913 C392.0324,440.0563 392.3024,441.4923 392.4524,442.4713 C392.5294,442.9613 392.5704,443.3393 392.5944,443.5943 C392.6214,443.8493 392.6354,443.9813 392.6354,443.9813 C392.6354,443.9813 392.6194,443.8493 392.5894,443.5953 C392.5604,443.3403 392.5144,442.9633 392.4304,442.4753 C392.2664,441.4993 391.9754,440.0693 391.3814,438.3173 C390.7884,436.5683 389.8984,434.4973 388.6164,432.2663 C387.3374,430.0343 385.6774,427.6423 383.6584,425.2043 C379.6244,420.3193 374.1594,415.2833 367.8704,410.4823 C361.5824,405.6713 354.4834,401.0683 347.1854,396.8203 C332.5794,388.3193 317.1994,381.2373 305.5184,376.3583 C299.6744,373.9183 294.7484,372.0243 291.2834,370.7733 C289.5514,370.1483 288.1834,369.6833 287.2584,369.3933 C286.7984,369.2483 286.4434,369.1473 286.2364,369.0983 C286.1444,369.0743 286.0444,369.0593 286.0994,369.0683 C286.1244,369.0533 286.0034,369.0993 286.4014,369.0373 C286.7024,368.9613 286.9084,368.7253 286.9764,368.5873 C287.0274,368.4853 287.0014,368.5323 287.0054,368.5253 L287.0014,368.5323 L286.9984,368.5373 L286.9054,368.6873 C286.6154,369.1553 286.0014,369.2993 285.5344,369.0093 C285.0684,368.7203 284.9244,368.1103 285.2094,367.6433" id="Fill-17" fill="#1A1918"></path>
                <path d="M120.9638,376.6985 C120.9638,376.6985 118.7578,377.4775 114.9068,378.9285 C111.0558,380.3785 105.5688,382.4965 99.0338,385.1665 C85.9728,390.5135 68.6938,398.0565 52.0798,406.9145 C43.7788,411.3435 35.6408,416.0945 28.3498,421.0575 C21.0678,426.0195 14.6238,431.2095 9.8248,436.3795 C7.4308,438.9645 5.4688,441.5505 4.0178,444.0165 C2.5598,446.4785 1.6418,448.8265 1.1708,450.8265 C0.6578,452.8275 0.7018,454.4665 0.7028,455.5645 C0.8188,456.6635 0.8808,457.2495 0.8808,457.2495 C0.8808,457.2495 0.8078,456.6645 0.6688,455.5665 C0.6468,454.4675 0.5688,452.8215 1.0448,450.7975 C1.4788,448.7755 2.3568,446.3905 3.7778,443.8775 C5.1908,441.3625 7.1188,438.7165 9.4778,436.0655 C14.2078,430.7605 20.5878,425.4115 27.8078,420.2775 C35.0368,415.1435 43.1148,410.2105 51.3608,405.5985 C67.8648,396.3725 85.0498,388.4605 98.0528,382.8335 C104.5588,380.0225 110.0258,377.7865 113.8678,376.2515 C117.7098,374.7165 119.9338,373.8815 119.9338,373.8815 C120.7078,373.5875 121.5738,373.9785 121.8668,374.7535 C122.1608,375.5285 121.7698,376.3935 120.9948,376.6875 C120.9878,376.6895 120.9708,376.6955 120.9638,376.6985" id="Fill-19" fill="#1A1918"></path>
                <path d="M309.2815,194.0398 C312.4705,190.8038 315.6605,187.5678 318.8495,184.3318 C320.0585,183.1048 321.6315,181.7708 323.2915,182.2328 C324.2345,182.4948 324.9705,183.3788 325.0585,184.3538 C325.1175,185.0028 324.8665,185.7158 324.3035,186.0438" id="Stroke-21" stroke="#1A1918" stroke-linecap="round" stroke-linejoin="round"></path>
                <path d="M310.1776,206.9124 C311.8606,206.3964 313.6416,207.8214 314.1676,209.5014 C314.6936,211.1824 314.3156,212.9964 313.9336,214.7154 C313.4156,217.0544 312.8966,219.3924 312.3786,221.7314" id="Stroke-23" stroke="#1A1918" stroke-linecap="round" stroke-linejoin="round"></path>
                <path d="M75.6188,197.7646 C72.8758,194.0086 70.1318,190.2516 67.3888,186.4956 C66.9888,185.9476 66.5468,185.3686 65.9018,185.1576 C64.1938,184.6006 62.9998,186.8266 62.5838,188.5736 C61.8078,191.8396 61.0308,195.1046 60.2538,198.3706" id="Stroke-25" stroke="#1A1918" stroke-linecap="round" stroke-linejoin="round"></path>
                <path d="M73.0387,215.3645 C70.9477,215.2955 69.0787,216.9005 68.2437,218.8185 C67.4077,220.7375 67.4117,222.9095 67.5617,224.9965 C67.7787,227.9995 68.2717,230.9835 69.0317,233.8975" id="Stroke-27" stroke="#1A1918" stroke-linecap="round" stroke-linejoin="round"></path>
                <path d="M199.1921,371.8391 C214.9591,369.1871 229.0031,365.7481 242.8741,353.4871 C248.7791,348.8751 275.7371,324.5971 287.8411,299.1931 C299.9521,273.7751 306.8561,255.8581 306.8561,231.4851 C306.8561,222.3801 308.4481,208.0031 307.7511,194.2601 C306.6441,172.4331 305.5181,163.9851 305.7991,145.6801 C306.2581,115.8431 320.5961,60.8151 270.6441,23.7071 C244.9261,4.6031 197.3481,-3.6729 177.1761,1.6911 C157.7661,6.8531 133.7421,16.9791 108.4331,35.1501 C84.1321,52.5971 75.5031,90.1761 72.3241,114.5481 C69.1451,138.9201 82.7461,189.6691 80.6271,205.5641 C78.5071,221.4601 80.6271,231.3441 81.5011,245.3271 C82.3601,259.0781 89.7611,288.0561 101.6021,304.0781 C109.6181,314.9251 130.1011,336.0051 141.7571,345.5421 C153.4141,355.0791 177.7551,375.4441 199.1921,371.8391" id="Fill-29" fill="#D0C7B2"></path>
                <path d="M199.1921,371.8391 C214.9591,369.1871 229.0031,365.7481 242.8741,353.4871 C248.7791,348.8751 275.7371,324.5971 287.8411,299.1931 C299.9521,273.7751 306.8561,255.8581 306.8561,231.4851 C306.8561,222.3801 308.4481,208.0031 307.7511,194.2601 C306.6441,172.4331 305.5181,163.9851 305.7991,145.6801 C306.2581,115.8431 320.5961,60.8151 270.6441,23.7071 C244.9261,4.6031 197.3481,-3.6729 177.1761,1.6911 C157.7661,6.8531 133.7421,16.9791 108.4331,35.1501 C84.1321,52.5971 75.5031,90.1761 72.3241,114.5481 C69.1451,138.9201 82.7461,189.6691 80.6271,205.5641 C78.5071,221.4601 80.6271,231.3441 81.5011,245.3271 C82.3601,259.0781 89.7611,288.0561 101.6021,304.0781 C109.6181,314.9251 130.1011,336.0051 141.7571,345.5421 C153.4141,355.0791 177.7551,375.4441 199.1921,371.8391 Z" id="Stroke-31" stroke="#1A1918" stroke-width="2"></path>
                <path d="M128.5693,279.4568 L146.1053,263.4458" id="Fill-33" fill="#1A1918"></path>
                <path d="M128.5693,279.4567 C128.5693,279.4567 129.4403,278.2087 130.9243,276.5327 C131.6593,275.6867 132.5463,274.7327 133.5253,273.7417 C134.5023,272.7477 135.5673,271.7127 136.6633,270.7127 C137.7593,269.7117 138.8833,268.7427 139.9633,267.8607 C141.0373,266.9747 142.0693,266.1777 142.9783,265.5227 C144.7823,264.1977 146.1053,263.4457 146.1053,263.4457 C146.1053,263.4457 145.2363,264.6947 143.7523,266.3707 C143.0173,267.2167 142.1313,268.1717 141.1503,269.1617 C140.1753,270.1567 139.1073,271.1887 138.0113,272.1897 C136.9163,273.1907 135.7883,274.1567 134.7103,275.0397 C133.6343,275.9247 132.6033,276.7217 131.6943,277.3767 C129.8913,278.7027 128.5693,279.4567 128.5693,279.4567" id="Fill-35" fill="#1A1918"></path>
                <path d="M256.6599,254.2961 L277.2459,263.8271" id="Fill-37" fill="#1A1918"></path>
                <path d="M256.6599,254.2961 C256.6599,254.2961 258.0869,254.5881 260.1169,255.2661 C261.1359,255.5961 262.3059,256.0211 263.5429,256.5151 C264.7799,257.0041 266.0869,257.5581 267.3729,258.1541 C268.6599,258.7491 269.9289,259.3841 271.1019,260.0121 C272.2789,260.6341 273.3599,261.2521 274.2709,261.8161 C276.1009,262.9261 277.2459,263.8271 277.2459,263.8271 C277.2459,263.8271 275.8179,263.5361 273.7879,262.8581 C272.7689,262.5291 271.5979,262.1051 270.3619,261.6101 C269.1239,261.1221 267.8189,260.5641 266.5329,259.9681 C265.2459,259.3731 263.9789,258.7361 262.8049,258.1091 C261.6279,257.4861 260.5469,256.8681 259.6359,256.3041 C257.8059,255.1951 256.6599,254.2961 256.6599,254.2961" id="Fill-39" fill="#1A1918"></path>
                <path d="M233.0241,282.8877 C233.0241,282.8877 194.5211,289.3687 188.4211,289.3687 C182.3211,289.3687 172.7911,285.5567 173.1721,282.8877 C173.1721,282.8877 189.5651,279.4567 193.3771,279.4567 C197.1891,279.4567 198.7141,280.6007 203.2891,279.8377 C207.8631,279.0757 215.1071,277.1697 218.9191,277.1697 C222.7311,277.1697 234.9301,274.8817 236.4551,275.2637 C237.9801,275.6447 233.0241,282.8877 233.0241,282.8877 M234.9301,272.9757 C228.8311,272.9757 213.5821,272.2137 206.7201,272.5947 C199.8581,272.9757 200.2391,274.5007 194.5211,273.7387 C188.8021,272.9757 188.0401,276.0257 174.6971,277.1697 C161.3541,278.3127 134.6691,288.6057 134.6691,288.6057 C134.2881,290.1307 133.9061,289.7497 138.1001,289.7497 C142.2931,289.7497 148.7741,285.9377 152.9671,285.9377 C157.1611,285.9377 161.7351,291.6557 166.3101,292.4187 C170.8851,293.1807 187.2771,305.3797 194.1391,306.5237 C201.0011,307.6667 216.2501,304.2357 222.3501,302.7117 C228.4491,301.1867 234.9301,294.7057 237.9801,292.7997 C241.0301,290.8937 244.8421,279.0757 246.7481,277.1697 C248.6541,275.2637 263.7021,274.7517 264.0831,271.7017 C264.4641,268.6517 241.0301,272.9757 234.9301,272.9757" id="Fill-41" fill="#1A1918"></path>
                <path d="M233.0241,282.8877 C233.0241,282.8877 194.5211,289.3687 188.4211,289.3687 C182.3211,289.3687 172.7911,285.5567 173.1721,282.8877 C173.1721,282.8877 189.5651,279.4567 193.3771,279.4567 C197.1891,279.4567 198.7141,280.6007 203.2891,279.8377 C207.8631,279.0757 215.1071,277.1697 218.9191,277.1697 C222.7311,277.1697 234.9301,274.8817 236.4551,275.2637 C237.9801,275.6447 233.0241,282.8877 233.0241,282.8877 Z M234.9301,272.9757 C228.8311,272.9757 213.5821,272.2137 206.7201,272.5947 C199.8581,272.9757 200.2391,274.5007 194.5211,273.7387 C188.8021,272.9757 188.0401,276.0257 174.6971,277.1697 C161.3541,278.3127 134.6691,288.6057 134.6691,288.6057 C134.2881,290.1307 133.9061,289.7497 138.1001,289.7497 C142.2931,289.7497 148.7741,285.9377 152.9671,285.9377 C157.1611,285.9377 161.7351,291.6557 166.3101,292.4187 C170.8851,293.1807 187.2771,305.3797 194.1391,306.5237 C201.0011,307.6667 216.2501,304.2357 222.3501,302.7117 C228.4491,301.1867 234.9301,294.7057 237.9801,292.7997 C241.0301,290.8937 244.8421,279.0757 246.7481,277.1697 C248.6541,275.2637 263.7021,274.7517 264.0831,271.7017 C264.4641,268.6517 241.0301,272.9757 234.9301,272.9757 Z" id="Stroke-43" stroke="#1A1918" stroke-linecap="round" stroke-linejoin="round"></path>
                <path d="M114.0264,174.7695 C114.0264,174.7695 127.1384,159.0345 134.2564,158.6605 C141.3754,158.2855 151.4904,158.2855 152.2394,160.5335 C152.9884,162.7815 161.6054,172.1475 164.6024,174.3945 C167.5994,176.6425 169.8474,176.6425 167.2254,179.2655 C164.6024,181.8875 148.8674,198.7465 138.7524,196.1235 C128.6374,193.5015 118.5224,189.3805 115.8994,186.3835 C113.2774,183.3865 113.2774,175.8935 114.0264,174.7695" id="Fill-45" fill="#FFFFFF"></path>
                <path d="M221.9221,168.7752 C221.9221,168.7752 238.0311,150.7922 244.4001,151.5422 C250.7691,152.2912 267.6281,159.0342 271.0001,165.7782 C274.3711,172.5212 277.3681,172.1472 275.4951,175.5182 C273.6221,178.8902 264.6311,188.2562 261.6341,188.6312 C258.6371,189.0052 251.8931,192.0032 245.1501,191.2532 C238.4061,190.5042 220.0491,179.6402 221.9221,168.7752" id="Fill-47" fill="#FFFFFF"></path>
            </g>
            <g id="Group-90" transform="translate(91.000000, 125.890000)">
                <path d="M17.3368,46.133 C17.3368,46.133 19.5468,42.729 23.7238,38.362 C24.7638,37.267 25.9268,36.114 27.2078,34.942 C28.4748,33.756 29.8818,32.576 31.4038,31.428 C32.9358,30.294 34.5948,29.206 36.3738,28.23 C38.1568,27.262 40.0408,26.35 42.1178,25.769 C43.1668,25.503 44.2518,25.276 45.4168,25.328 L45.5238,25.328 C45.6478,25.331 45.6108,25.334 45.6628,25.337 L45.8478,25.356 L46.2178,25.393 L46.9558,25.466 C47.4348,25.498 47.9688,25.612 48.4748,25.692 C50.5128,26.038 52.3958,26.563 54.2018,27.187 C56.0088,27.788 57.6988,28.503 59.2728,29.233 C60.8328,29.993 62.2878,30.745 63.5808,31.529 C64.8858,32.288 66.0348,33.066 67.0298,33.784 C68.0228,34.506 68.8468,35.193 69.4918,35.798 C69.8278,36.082 70.0808,36.395 70.3238,36.636 C70.5668,36.877 70.7548,37.103 70.8948,37.297 C71.1848,37.673 71.3398,37.874 71.3398,37.874 L71.0978,38.051 C71.0978,38.051 70.9318,37.871 70.6218,37.532 C70.4738,37.358 70.2758,37.157 70.0178,36.942 C69.7608,36.727 69.4988,36.45 69.1438,36.2 C68.4668,35.669 67.6138,35.062 66.5958,34.425 C65.5738,33.794 64.3988,33.116 63.0688,32.467 C61.7538,31.793 60.2788,31.163 58.7108,30.534 C57.1278,29.944 55.4598,29.319 53.6878,28.848 C51.9348,28.348 50.0578,27.946 48.2138,27.739 C47.7488,27.694 47.3138,27.615 46.8058,27.609 L46.0648,27.577 L45.6928,27.561 L45.5078,27.553 C45.4968,27.553 45.3998,27.546 45.4608,27.553 L45.3818,27.559 C44.5548,27.565 43.6748,27.794 42.8138,28.066 C41.0868,28.68 39.3988,29.596 37.8218,30.639 C36.2428,31.689 34.7358,32.817 33.2828,33.925 C31.8278,35.045 30.4208,36.127 29.0868,37.154 C27.7608,38.209 26.5068,39.207 25.3488,40.129 C23.0238,41.995 21.0858,43.551 19.7288,44.64 C18.3468,45.72 17.5568,46.337 17.5568,46.337 L17.3368,46.133 Z" id="Fill-50" fill="#1A1918"></path>
                <path d="M72.1051,32.9399 C72.1051,32.9399 72.4681,33.3879 73.0841,34.0129 C73.2391,34.1689 73.4081,34.3369 73.5861,34.5149 C73.7661,34.6919 73.9871,34.8579 74.2221,35.0249 C74.4471,35.1999 74.6571,35.3939 74.8761,35.5879 C75.1011,35.7789 75.2971,35.9929 75.4531,36.2339 C75.7801,36.7059 75.9331,37.2899 76.1301,37.8039 C76.3181,38.3239 76.4941,38.8079 76.6451,39.2239 C76.9541,40.0499 77.1281,40.6219 77.1281,40.6219 C77.1281,40.6219 76.6731,40.2339 76.0411,39.6189 C75.7211,39.3139 75.3471,38.9589 74.9471,38.5779 C74.5551,38.1919 74.0811,37.8159 73.7801,37.3279 C73.6211,37.0889 73.5041,36.8229 73.4201,36.5409 C73.3291,36.2619 73.2361,35.9909 73.1661,35.7159 C73.1071,35.4329 73.0441,35.1639 72.9541,34.9279 C72.8621,34.6939 72.7761,34.4719 72.6961,34.2669 C72.3701,33.4519 72.1051,32.9399 72.1051,32.9399" id="Fill-52" fill="#1A1918"></path>
                <path d="M22.9429,50.278 C22.9429,50.278 24.9269,46.622 29.0449,41.966 C30.0709,40.8 31.2349,39.578 32.5469,38.354 C33.8449,37.115 35.3199,35.903 36.9719,34.778 C38.6319,33.673 40.4979,32.662 42.6489,32.053 L43.4699,31.849 L44.3249,31.712 C44.8869,31.646 45.5569,31.615 46.0219,31.631 C47.0229,31.636 48.0889,31.667 49.1289,31.721 C51.2059,31.825 53.2829,32.031 55.3159,32.396 C57.3449,32.77 59.3449,33.26 61.2019,34.23 C61.6639,34.478 62.1169,34.765 62.5359,35.139 C62.7449,35.33 62.9519,35.517 63.1249,35.776 C63.3279,36.042 63.4069,36.176 63.5459,36.388 C64.0359,37.116 64.5629,37.804 65.0949,38.507 C66.1519,39.891 67.1829,41.186 68.1389,42.376 C72.0039,47.113 74.5799,50.271 74.5799,50.271 L74.3569,50.472 C74.3569,50.472 71.4919,47.567 67.3299,43.074 C66.2889,41.95 65.1669,40.728 63.9989,39.406 C63.4219,38.753 62.8119,38.046 62.2339,37.276 C62.1129,37.11 61.9339,36.859 61.8409,36.767 C61.7529,36.637 61.6029,36.521 61.4589,36.403 C61.1649,36.168 60.8009,35.96 60.4119,35.779 C58.8319,35.057 56.9259,34.675 55.0019,34.437 C53.0679,34.199 51.0719,34.11 49.0749,34.121 C48.0769,34.133 47.1049,34.165 46.0769,34.226 C45.5269,34.246 45.1849,34.296 44.7479,34.372 L44.1179,34.524 L43.4899,34.735 C41.8179,35.362 40.2179,36.337 38.7209,37.368 C35.6989,39.416 33.0209,41.697 30.7369,43.668 C28.4579,45.652 26.5939,47.38 25.2649,48.574 C23.9369,49.777 23.1779,50.465 23.1779,50.465 L22.9429,50.278 Z" id="Fill-54" fill="#1A1918"></path>
                <path d="M127.5398,39.338 C127.5398,39.338 128.2668,38.485 129.5958,37.046 C130.9238,35.606 132.8748,33.597 135.3318,31.295 C137.7958,29.004 140.7588,26.397 144.3048,24.03 C146.0788,22.85 147.9898,21.711 150.1298,20.845 C151.1948,20.408 152.3218,20.039 153.5298,19.844 C153.8278,19.786 154.1308,19.739 154.4448,19.725 L154.9118,19.69 L155.0288,19.681 L155.0878,19.677 L155.1168,19.675 L155.2078,19.677 L155.4168,19.683 L157.0898,19.735 C159.5538,19.948 161.7858,20.547 163.9628,21.285 C166.1348,22.019 168.1558,22.991 170.0328,24.038 C171.9018,25.102 173.6298,26.242 175.1858,27.413 C176.7508,28.553 178.1908,29.73 179.4528,30.704 C179.7878,30.942 180.1158,31.175 180.4368,31.402 C180.8148,31.706 181.1728,32.025 181.4448,32.311 C182.0178,32.902 182.5148,33.47 182.9328,34.036 C183.7858,35.152 184.4398,36.161 184.9588,37.002 C185.4788,37.842 185.8658,38.51 186.1308,38.96 C186.3958,39.414 186.5508,39.629 186.5508,39.629 L186.3388,39.841 C186.3388,39.841 186.1038,39.656 185.7198,39.288 C185.3328,38.921 184.7928,38.365 184.1108,37.665 C183.4268,36.968 182.6058,36.116 181.6338,35.214 C181.1438,34.767 180.6278,34.298 180.0638,33.873 C179.7708,33.644 179.5108,33.484 179.2408,33.315 C178.8818,33.119 178.5148,32.918 178.1398,32.713 C176.6238,31.817 175.1538,30.824 173.5468,29.807 C171.9418,28.803 170.2608,27.756 168.4888,26.755 C166.7258,25.743 164.8878,24.729 162.9478,23.906 C161.0248,23.075 158.9358,22.439 156.9578,22.132 L155.2898,21.995 L155.0808,21.978 C155.0158,21.976 155.1398,21.979 155.1188,21.979 L155.0958,21.98 L155.0508,21.981 L154.9588,21.984 L154.5918,21.994 C154.3478,21.99 154.0988,22.015 153.8488,22.052 C152.8528,22.159 151.8418,22.429 150.8578,22.777 C148.8798,23.461 146.9968,24.449 145.2348,25.5 C141.7128,27.627 138.6148,29.994 136.0348,32.099 C133.4558,34.212 131.4048,36.099 129.9718,37.421 C128.5438,38.75 127.7598,39.542 127.7598,39.542 L127.5398,39.338 Z" id="Fill-56" fill="#1A1918"></path>
                <path d="M130.7922,43.7672 C130.7922,43.7672 131.4512,43.0482 132.6032,41.7892 C133.7642,40.5382 135.4652,38.7922 137.5692,36.7512 C139.6792,34.7182 142.1842,32.3782 145.1272,30.1302 C146.6032,29.0102 148.1652,27.8862 149.9472,26.9422 C150.8412,26.4742 151.7742,26.0292 152.8692,25.7642 C153.1392,25.6942 153.4382,25.6602 153.7242,25.6102 C154.0182,25.5782 154.3552,25.5862 154.6502,25.5832 L156.1082,25.6662 C158.0552,25.7582 160.1092,25.9432 162.0932,26.4012 C164.0832,26.8472 165.9662,27.5882 167.6752,28.4662 C169.3422,29.4052 170.8922,30.4072 172.2142,31.5122 C173.5802,32.5682 174.7532,33.6832 175.8182,34.7212 C176.8652,35.7772 177.7992,36.7642 178.5712,37.6862 C179.3542,38.5982 180.0252,39.3982 180.5332,40.0982 C181.5722,41.4732 182.1222,42.2912 182.1222,42.2912 L181.9042,42.4972 C181.9042,42.4972 181.0982,41.9192 179.7662,40.8532 C179.1072,40.3122 178.2862,39.6822 177.3582,38.9532 C176.4502,38.2002 175.3762,37.4212 174.2452,36.5342 C173.6862,36.0812 173.0612,35.6732 172.4402,35.2172 C171.8322,34.7432 171.1742,34.3032 170.4992,33.8532 C169.1572,32.9382 167.7092,32.0692 166.1992,31.2202 C164.6752,30.4132 163.0762,29.6602 161.3642,29.1152 C159.6512,28.5582 157.8242,28.2842 155.8962,28.0572 L154.4492,27.8902 C154.2592,27.8902 154.1082,27.8682 153.9192,27.8752 C153.7262,27.9032 153.5392,27.9052 153.3382,27.9462 C152.5342,28.0862 151.6812,28.4192 150.8612,28.7932 C149.2062,29.5482 147.6312,30.5402 146.1442,31.5412 C143.1772,33.5732 140.5202,35.6902 138.2832,37.5462 C136.0462,39.4062 134.2432,41.0342 132.9752,42.1682 C131.7232,43.3182 131.0072,43.9762 131.0072,43.9762 L130.7922,43.7672 Z" id="Fill-58" fill="#1A1918"></path>
                <path d="M153.0587,67.5077 C153.0587,67.5077 154.3477,66.9047 156.3217,66.2307 C157.3067,65.8837 158.4637,65.5177 159.7077,65.1567 C160.9517,64.7937 162.2827,64.4317 163.6187,64.0987 C166.2907,63.4317 168.9847,62.8867 171.0027,62.4667 C172.0097,62.2517 172.8467,62.0737 173.4287,61.9127 C173.7307,61.8467 173.9267,61.7417 174.0897,61.6907 C174.2477,61.6307 174.3307,61.5987 174.3307,61.5987 C174.3307,61.5987 174.2697,61.6607 174.1547,61.7777 C174.0337,61.8797 173.8717,62.1087 173.6077,62.2677 C173.3507,62.4367 173.0407,62.6837 172.6597,62.8837 C172.2817,63.0877 171.8537,63.3447 171.3707,63.5547 C170.8917,63.7727 170.3707,64.0297 169.8057,64.2337 C169.2447,64.4497 168.6537,64.6957 168.0287,64.8867 C167.4057,65.0867 166.7677,65.3207 166.1067,65.4977 C165.4487,65.6927 164.7747,65.8697 164.1007,66.0387 C162.7507,66.3767 161.3867,66.6507 160.1017,66.8687 C158.8177,67.0927 157.6087,67.2507 156.5657,67.3477 C154.4827,67.5597 153.0587,67.5077 153.0587,67.5077" id="Fill-60" fill="#1A1918"></path>
                <path d="M27.1965,62.1896 C27.1965,62.1896 28.5885,62.7556 30.5685,63.7116 C31.5635,64.1836 32.7115,64.7426 33.9275,65.3586 C34.5375,65.6596 35.1675,65.9706 35.8075,66.2866 C36.4515,66.5906 37.0865,66.9396 37.7425,67.2386 C38.3895,67.5586 39.0365,67.8766 39.6785,68.1706 C40.3195,68.4746 40.9415,68.7856 41.5615,69.0426 C42.7875,69.5956 43.9475,70.0636 44.9595,70.4196 C45.4655,70.6196 45.9355,70.7436 46.3585,70.8666 C46.7815,70.9916 47.1535,71.1096 47.4665,71.1456 C48.0915,71.2626 48.4685,71.3486 48.4685,71.3486 C48.4685,71.3486 48.1135,71.4316 47.4545,71.5436 C47.1225,71.6156 46.7225,71.6386 46.2605,71.6256 C45.7975,71.6276 45.2635,71.6386 44.7075,71.5406 C44.1445,71.4686 43.5205,71.4036 42.8995,71.2296 C42.2665,71.0836 41.5935,70.9326 40.9345,70.6886 C40.2635,70.4706 39.5705,70.2436 38.8975,69.9466 C38.2075,69.6806 37.5365,69.3546 36.8635,69.0336 C36.1885,68.7136 35.5405,68.3496 34.8985,67.9966 C34.2555,67.6466 33.6565,67.2446 33.0605,66.8866 C31.8905,66.1326 30.8325,65.3796 29.9635,64.6816 C28.2095,63.3066 27.1965,62.1896 27.1965,62.1896" id="Fill-62" fill="#1A1918"></path>
                <path d="M84.514,48.3034 C84.514,48.3034 85.481,49.3534 86.482,51.2074 C87.001,52.1244 87.513,53.2434 87.979,54.4764 C88.438,55.7124 88.848,57.0654 89.119,58.4524 C89.391,59.8374 89.566,61.2484 89.571,62.5784 C89.605,63.2414 89.582,63.8834 89.521,64.4914 C89.481,65.0994 89.436,65.6704 89.32,66.1924 C89.231,66.7164 89.127,67.1914 89.034,67.6084 C88.916,68.0234 88.789,68.3794 88.691,68.6714 C88.488,69.2534 88.355,69.5754 88.355,69.5754 C88.355,69.5754 88.323,69.2184 88.298,68.6114 C88.288,68.3074 88.272,67.9414 88.273,67.5284 C88.236,67.1094 88.195,66.6414 88.173,66.1354 C88.161,65.6304 88.074,65.0834 88.028,64.5094 C87.989,63.9354 87.895,63.3344 87.815,62.7124 C87.755,62.0894 87.624,61.4534 87.519,60.8054 C87.425,60.1554 87.287,59.5014 87.158,58.8454 C87.054,58.1854 86.868,57.5394 86.748,56.8904 C86.596,56.2464 86.447,55.6124 86.302,54.9994 C86.144,54.3854 85.992,53.7924 85.847,53.2304 C85.697,52.6654 85.554,52.1314 85.423,51.6384 C84.878,49.6374 84.514,48.3034 84.514,48.3034" id="Fill-64" fill="#1A1918"></path>
                <path d="M111.1046,48.8943 C111.1046,48.8943 111.5036,50.0353 111.9946,51.7073 C112.2386,52.5373 112.5236,53.5053 112.8286,54.5423 C112.9596,55.0633 113.1566,55.5833 113.2976,56.1253 C113.4606,56.6603 113.6256,57.2043 113.7916,57.7473 C113.9646,58.2863 114.1376,58.8253 114.3076,59.3563 C114.5066,59.8743 114.6276,60.4183 114.8316,60.9053 C115.0326,61.3933 115.1636,61.9003 115.3586,62.3453 C115.5526,62.7893 115.6866,63.2433 115.8606,63.6333 C116.0376,64.0213 116.1836,64.3923 116.3136,64.7253 C116.4606,65.0493 116.5886,65.3313 116.6946,65.5633 C116.9036,66.0373 117.0136,66.3263 117.0136,66.3263 C117.0136,66.3263 116.7756,66.1473 116.3756,65.8013 C115.9596,65.4663 115.4366,64.9253 114.8696,64.2143 C114.5736,63.8663 114.3126,63.4543 114.0266,63.0203 C113.7276,62.5913 113.4766,62.1083 113.2156,61.6053 C112.9456,61.1063 112.7166,60.5723 112.4866,60.0253 C112.2516,59.4813 112.0816,58.9063 111.8816,58.3403 C111.5346,57.1933 111.2706,56.0243 111.1126,54.9173 C110.9376,53.8133 110.8716,52.7693 110.8646,51.8753 C110.8356,50.0853 111.1046,48.8943 111.1046,48.8943" id="Fill-66" fill="#1A1918"></path>
                <path d="M0.6059,37.0762 C0.6059,37.0762 35.1739,9.3042 41.3779,9.3042 C47.5829,9.3042 76.8319,15.8042 79.1959,21.1222 C81.5599,26.4402 76.5369,22.5992 73.5819,22.0082 C70.6279,21.4172 48.1739,11.9632 43.1509,14.0312 C38.1279,16.0992 10.9469,37.0762 7.1059,37.9622 C3.2649,38.8492 0.0149,42.3942 0.6059,37.0762" id="Fill-68" fill="#1A1918"></path>
                <path d="M0.6059,37.0762 C0.6059,37.0762 35.1739,9.3042 41.3779,9.3042 C47.5829,9.3042 76.8319,15.8042 79.1959,21.1222 C81.5599,26.4402 76.5369,22.5992 73.5819,22.0082 C70.6279,21.4172 48.1739,11.9632 43.1509,14.0312 C38.1279,16.0992 10.9469,37.0762 7.1059,37.9622 C3.2649,38.8492 0.0149,42.3942 0.6059,37.0762 Z" id="Stroke-70" stroke="#1A1918" stroke-width="2"></path>
                <path d="M123.5136,17.281 C123.5136,17.281 152.7636,-2.219 159.5586,0.736 C166.3536,3.69 190.2856,17.576 190.5806,19.94 C190.8766,22.304 162.8086,6.054 158.3766,7.236 C153.9446,8.417 124.6956,22.895 123.5136,17.281" id="Fill-72" fill="#1A1918"></path>
                <path d="M123.5136,17.281 C123.5136,17.281 152.7636,-2.219 159.5586,0.736 C166.3536,3.69 190.2856,17.576 190.5806,19.94 C190.8766,22.304 162.8086,6.054 158.3766,7.236 C153.9446,8.417 124.6956,22.895 123.5136,17.281 Z" id="Stroke-74" stroke="#1A1918" stroke-width="2"></path>
                <path d="M82.7413,101.78 C82.7413,101.78 81.7483,103.138 80.1313,105.585 C79.3213,106.807 78.3633,108.309 77.3583,110.077 C76.3803,111.848 75.2673,113.892 74.5673,116.208 C74.2463,117.358 74.0113,118.626 74.6433,119.502 L74.9083,119.937 L75.1873,120.294 C75.3533,120.537 75.5903,120.77 75.8083,121.007 C76.2583,121.477 76.7813,121.895 77.3303,122.293 C79.5773,123.843 82.4433,124.76 85.4393,125.173 C86.1923,125.271 86.9553,125.331 87.7253,125.37 L88.8863,125.385 L90.1393,125.431 C91.9663,125.556 93.6373,126.131 95.1963,126.911 C96.7513,127.681 98.1403,128.612 99.5613,129.292 C100.9753,129.996 102.4453,130.351 103.9633,130.324 C105.5413,130.294 107.0123,129.902 108.5753,129.397 C110.1133,128.888 111.6303,128.266 113.1243,127.603 C114.6243,126.919 116.1113,126.242 117.5813,125.572 C119.0823,124.913 120.5153,124.22 122.2243,123.789 C123.2663,123.587 123.9283,123.684 124.6463,123.577 C125.3793,123.502 126.1103,123.379 126.8243,123.234 C128.2523,122.939 129.6353,122.52 130.8213,121.913 C131.3993,121.604 131.9373,121.241 132.2763,120.826 C132.3383,120.72 132.4343,120.62 132.4803,120.515 C132.5053,120.421 132.5773,120.284 132.5873,120.233 C132.6363,119.892 132.6853,119.553 132.7343,119.217 C132.8053,118.057 132.5573,116.792 132.1803,115.657 C131.3673,113.373 130.1623,111.402 129.0553,109.703 C127.9373,108.003 126.8883,106.558 126.0453,105.353 C125.1923,104.155 124.5683,103.179 124.1443,102.515 C123.7333,101.843 123.5133,101.485 123.5133,101.485 C123.5133,101.485 123.7643,101.821 124.2333,102.453 C124.7083,103.081 125.4373,103.974 126.3563,105.119 C127.2763,106.263 128.4203,107.633 129.6643,109.274 C130.8993,110.915 132.2743,112.83 133.2593,115.262 C133.7213,116.491 134.0973,117.818 134.0623,119.382 C134.0283,119.72 133.9933,120.061 133.9583,120.404 C133.8643,120.93 133.6683,121.321 133.4053,121.685 C132.8753,122.377 132.2093,122.826 131.5373,123.223 C130.1763,123.979 128.7103,124.468 127.1863,124.842 C126.4243,125.028 125.6463,125.181 124.8423,125.277 C124.0313,125.4 123.1113,125.366 122.6143,125.506 C121.2733,125.87 119.8073,126.582 118.3653,127.261 C116.9143,127.959 115.4343,128.68 113.9133,129.365 C112.3923,130.053 110.8293,130.709 109.1973,131.263 C107.5953,131.801 105.7803,132.292 103.9933,132.322 C102.1533,132.354 100.2773,131.864 98.7083,131.06 C97.1183,130.28 95.7363,129.337 94.3323,128.636 C92.9473,127.93 91.4603,127.42 90.0473,127.286 L88.8823,127.217 L87.6373,127.174 C86.8123,127.116 85.9953,127.034 85.1893,126.912 C81.9753,126.415 78.9173,125.317 76.4583,123.498 C75.8543,123.029 75.2793,122.535 74.7773,121.975 C74.5313,121.688 74.2803,121.423 74.0633,121.09 L73.7333,120.614 L73.4873,120.165 C73.3423,119.922 73.0963,119.405 73.0583,119.033 C72.9783,118.629 72.9863,118.244 73.0183,117.881 C73.0803,117.148 73.2643,116.489 73.4763,115.867 C74.3443,113.388 75.6143,111.423 76.7263,109.691 C77.8613,107.973 78.9223,106.531 79.8153,105.36 C80.7033,104.186 81.4533,103.304 81.9563,102.698 C82.4683,102.099 82.7413,101.78 82.7413,101.78" id="Fill-76" fill="#1A1918"></path>
                <path d="M87.2356,190.717 L96.6546,192.314 C99.4756,192.793 102.7626,193.354 106.2846,193.887 C108.0436,194.161 109.8676,194.393 111.7136,194.622 C113.5596,194.855 115.4346,195.009 117.2906,195.071 C119.1676,195.133 120.8156,194.959 122.6016,194.358 C124.2846,193.824 126.0176,193.151 127.6206,192.431 C130.8606,191.006 133.8336,189.499 136.3906,188.219 C138.9416,186.926 141.0796,185.853 142.5976,185.138 C144.1116,184.414 145.0176,184.092 145.0176,184.092 C145.0176,184.092 144.1856,184.565 142.7906,185.486 C141.3876,186.394 139.3976,187.717 136.9516,189.222 C135.7306,189.979 134.3956,190.782 132.9596,191.594 C131.5186,192.399 129.9986,193.254 128.3606,194.03 C126.7196,194.819 125.0446,195.607 123.1446,196.212 C122.6656,196.379 122.1976,196.518 121.7456,196.621 L121.0566,196.796 C120.7426,196.869 120.5286,196.873 120.2586,196.913 C119.2156,197.086 118.2386,197.05 117.2416,197.069 C115.2806,196.98 113.3506,196.796 111.4706,196.536 C109.5866,196.294 107.7556,195.947 105.9876,195.618 C102.4526,194.939 99.1906,194.165 96.4136,193.431 C90.8546,191.986 87.2356,190.717 87.2356,190.717" id="Fill-78" fill="#1A1918"></path>
                <path d="M105.6376,202.1263 C105.6376,202.1263 106.9486,201.8513 108.8916,201.6473 C109.8636,201.5373 110.9946,201.4383 112.2036,201.3633 C113.4126,201.2813 114.6986,201.2093 115.9826,201.1643 C116.6246,201.1423 117.2656,201.1213 117.8966,201.0993 C118.5246,201.0613 119.1516,201.0893 119.7476,201.0513 C120.3476,201.0343 120.9266,201.0173 121.4766,201.0013 C122.0246,200.9723 122.5486,200.9763 123.0246,200.9433 C123.5016,200.9113 123.9496,200.9133 124.3336,200.8683 C124.7176,200.8203 125.0776,200.8333 125.3486,200.7773 C125.9046,200.6923 126.2476,200.6543 126.2476,200.6543 C126.2476,200.6543 125.9836,200.8433 125.4746,201.1553 C125.2206,201.3193 124.8946,201.4453 124.5166,201.6113 C124.1396,201.7873 123.7056,201.9303 123.2256,202.0743 C122.7466,202.2363 122.2236,202.3653 121.6646,202.4823 C121.1066,202.6163 120.5186,202.7203 119.9046,202.8053 C118.6806,202.9953 117.3696,203.1083 116.0586,203.1623 C114.7476,203.2103 113.4376,203.1893 112.2126,203.1193 C110.9876,203.0523 109.8466,202.9383 108.8716,202.7903 C106.9206,202.5193 105.6376,202.1263 105.6376,202.1263" id="Fill-80" fill="#1A1918"></path>
                <path d="M53.9655,41.041 C54.4215,41.895 54.6885,42.925 54.6885,44.035 C54.6885,46.982 52.8105,49.372 50.4945,49.372 C48.1785,49.372 46.3015,46.982 46.3015,44.035 C46.3015,42.394 46.8955,40.945 47.8105,39.966 C42.9155,40.655 39.1455,44.849 39.1455,49.935 C39.1455,55.501 43.6575,60.014 49.2245,60.014 C54.7915,60.014 59.3045,55.501 59.3045,49.935 C59.3045,46.082 57.1415,42.738 53.9655,41.041" id="Fill-82" fill="#1A1918"></path>
                <path d="M53.9655,41.041 C54.4215,41.895 54.6885,42.925 54.6885,44.035 C54.6885,46.982 52.8105,49.372 50.4945,49.372 C48.1785,49.372 46.3015,46.982 46.3015,44.035 C46.3015,42.394 46.8955,40.945 47.8105,39.966 C42.9155,40.655 39.1455,44.849 39.1455,49.935 C39.1455,55.501 43.6575,60.014 49.2245,60.014 C54.7915,60.014 59.3045,55.501 59.3045,49.935 C59.3045,46.082 57.1415,42.738 53.9655,41.041 Z" id="Stroke-84" stroke="#1A1918" stroke-linecap="round" stroke-linejoin="round"></path>
                <path d="M159.9453,37.9913 C160.4013,38.8453 160.6683,39.8753 160.6683,40.9853 C160.6683,43.9323 158.7903,46.3223 156.4743,46.3223 C154.1583,46.3223 152.2813,43.9323 152.2813,40.9853 C152.2813,39.3443 152.8753,37.8953 153.7903,36.9163 C148.8953,37.6053 145.1253,41.7993 145.1253,46.8853 C145.1253,52.4513 149.6373,56.9643 155.2043,56.9643 C160.7713,56.9643 165.2843,52.4513 165.2843,46.8853 C165.2843,43.0323 163.1213,39.6883 159.9453,37.9913" id="Fill-86" fill="#1A1918"></path>
                <path d="M159.9453,37.9913 C160.4013,38.8453 160.6683,39.8753 160.6683,40.9853 C160.6683,43.9323 158.7903,46.3223 156.4743,46.3223 C154.1583,46.3223 152.2813,43.9323 152.2813,40.9853 C152.2813,39.3443 152.8753,37.8953 153.7903,36.9163 C148.8953,37.6053 145.1253,41.7993 145.1253,46.8853 C145.1253,52.4513 149.6373,56.9643 155.2043,56.9643 C160.7713,56.9643 165.2843,52.4513 165.2843,46.8853 C165.2843,43.0323 163.1213,39.6883 159.9453,37.9913 Z" id="Stroke-88" stroke="#1A1918" stroke-linecap="round" stroke-linejoin="round"></path>
            </g>
        </g>
    </g>
</svg>