<?xml version="1.0" encoding="UTF-8"?>
<svg width="429px" height="506px" viewBox="0 0 429 506" version="1.1" xmlns="http://www.w3.org/2000/svg" xmlns:xlink="http://www.w3.org/1999/xlink">
    <!-- Generator: Sketch 44.1 (41455) - http://www.bohemiancoding.com/sketch -->
    <title>Hochmotiviert</title>
    <desc>Created with Sketch.</desc>
    <defs></defs>
    <g id="Page-1" stroke="none" stroke-width="1" fill="none" fill-rule="evenodd">
        <g id="Hochmotiviert">
            <g id="Group-49" transform="translate(0.000000, 0.890000)">
                <path d="M337.1483,438.1493 C313.5583,498.7993 182.6483,482.8093 149.3283,474.2793 C116.0083,465.7593 102.1583,466.2893 100.3483,450.0093 C100.3483,450.0093 98.2183,440.9293 102.6883,434.7593 C105.8683,430.3693 122.7683,423.0493 132.2183,419.2093 C133.2083,416.1293 133.6083,414.0393 133.6083,414.0393 C135.4783,402.3393 135.6983,378.2793 135.9683,363.6193 C142.5983,370.2393 149.1583,376.3493 154.2183,380.4793 C167.0083,390.9393 193.7183,413.2893 217.2383,409.3293 C234.5483,406.4193 249.9583,402.6493 265.1783,389.1893 C270.4383,385.0893 290.8783,366.7893 305.5083,345.1493 C304.7783,360.0793 304.4283,388.5793 312.5983,409.6493 C313.3983,411.7293 314.2883,413.7393 315.2783,415.6493 C323.0383,418.2193 341.7383,425.8193 337.1483,438.1493" id="Fill-1" fill="#D0C7B2"></path>
                <g id="Group-6" transform="translate(330.000000, 198.000000)">
                    <path d="M12.9847,10.4844 C12.9847,10.4844 21.5457,-2.0676 26.6167,0.6774 C31.6877,3.4224 33.1787,24.2044 29.5997,31.6544 C26.0197,39.1054 19.1597,47.3394 17.9667,58.7114 C16.7727,70.0824 16.6187,73.0394 12.1447,82.0584 C7.6707,91.0774 0.2817,90.9554 0.2817,90.9554" id="Fill-3" fill="#D0C7B2"></path>
                    <path d="M12.9847,10.4844 C12.9847,10.4844 21.5457,-2.0676 26.6167,0.6774 C31.6877,3.4224 33.1787,24.2044 29.5997,31.6544 C26.0197,39.1054 19.1597,47.3394 17.9667,58.7114 C16.7727,70.0824 16.6187,73.0394 12.1447,82.0584 C7.6707,91.0774 0.2817,90.9554 0.2817,90.9554" id="Stroke-5" stroke="#1A1918" stroke-width="2.293" stroke-linecap="round"></path>
                </g>
                <g id="Group-10" transform="translate(69.000000, 192.000000)">
                    <path d="M23.3123,19.0702 C23.3123,19.0702 15.4393,-5.8248 8.2283,2.4752 C1.0173,10.7762 -2.9017,25.1922 4.5643,40.7792 C9.1873,50.4312 5.7433,57.8622 10.0693,75.1012 C14.3963,92.3402 15.8983,99.7642 23.8253,93.5552" id="Fill-7" fill="#D0C7B2"></path>
                    <path d="M23.3123,19.0702 C23.3123,19.0702 15.4393,-5.8248 8.2283,2.4752 C1.0173,10.7762 -2.9017,25.1922 4.5643,40.7792 C9.1873,50.4312 5.7433,57.8622 10.0693,75.1012 C14.3963,92.3402 15.8983,99.7642 23.8253,93.5552" id="Stroke-9" stroke="#1A1918" stroke-width="2.305" stroke-linecap="round" stroke-linejoin="round"></path>
                </g>
                <path d="M304.593,348.2467 C304.638,353.7147 302.331,419.1157 338.13,433.5877" id="Stroke-11" stroke="#1A1918" stroke-width="2" stroke-linecap="round" stroke-linejoin="round"></path>
                <path d="M136.117,362.3049 C136.117,362.3049 137.563,396.0639 133.868,413.5719 C133.868,413.5719 128.997,439.1749 110.803,443.2919" id="Stroke-13" stroke="#1A1918" stroke-width="2" stroke-linecap="round" stroke-linejoin="round"></path>
                <path d="M317.7513,414.4991 C317.7513,414.4991 343.1693,422.2221 337.4043,437.6781 C313.8163,498.3321 182.9073,482.3351 149.5863,473.8111 C116.2663,465.2881 102.4153,465.8131 100.6073,449.5401 C100.6073,449.5401 98.4793,440.4541 102.9413,434.2921 C107.4033,428.1301 132.2243,416.5281 132.2243,416.5281" id="Stroke-15" stroke="#1A1918" stroke-width="2" stroke-linecap="round" stroke-linejoin="round"></path>
                <path d="M310.3365,400.6367 L310.3375,400.6297 L310.3375,400.6257 L310.3525,400.5437 C310.3645,400.4887 310.3835,400.4267 310.4115,400.3617 C310.4665,400.2307 310.5695,400.0817 310.7055,399.9727 C310.8135,399.8697 311.0605,399.7807 311.0325,399.7947 C311.3375,399.7107 311.4415,399.7507 311.5245,399.7507 C311.6965,399.7707 311.8135,399.8007 311.9755,399.8407 C312.2875,399.9207 312.6985,400.0457 313.2275,400.2197 C314.2825,400.5667 315.7955,401.1057 317.7055,401.8257 C321.5225,403.2657 326.9235,405.4287 333.3235,408.2087 C346.1165,413.7657 362.9355,421.7997 378.8865,431.3877 C386.8575,436.1777 394.6055,441.3587 401.4595,446.7567 C408.3145,452.1447 414.2605,457.7797 418.6305,463.2297 C420.8185,465.9477 422.6125,468.6107 423.9855,471.0907 C425.3635,473.5697 426.3155,475.8617 426.9375,477.7977 C427.5625,479.7347 427.8675,481.3087 428.0285,482.3837 C428.1905,483.4607 428.2265,484.0407 428.2265,484.0407 C428.2265,484.0407 428.1825,483.4617 428.0065,482.3877 C427.8305,481.3157 427.5045,479.7477 426.8565,477.8247 C426.2105,475.9027 425.2305,473.6317 423.8255,471.1817 C422.4235,468.7307 420.6025,466.1037 418.3885,463.4267 C413.9655,458.0607 407.9705,452.5307 401.0705,447.2567 C394.1725,441.9727 386.3845,436.9147 378.3775,432.2487 C362.3535,422.9077 345.4795,415.1247 332.6615,409.7607 C326.2505,407.0777 320.8445,404.9967 317.0415,403.6207 C315.1415,402.9337 313.6385,402.4217 312.6225,402.1027 C312.1155,401.9427 311.7265,401.8317 311.4925,401.7757 C311.3825,401.7477 311.2905,401.7337 311.3205,401.7387 C311.3325,401.7297 311.3815,401.7717 311.6525,401.6957 C311.6195,401.7097 311.8635,401.6257 311.9685,401.5237 C312.1005,401.4167 312.2005,401.2697 312.2525,401.1407 C312.2795,401.0767 312.2965,401.0157 312.3075,400.9617 L312.3205,400.8857 C312.3215,400.8777 312.3205,400.8827 312.3205,400.8827 L312.3205,400.8867 L312.3195,400.8927 C312.2805,401.4437 311.8025,401.8577 311.2515,401.8177 C310.7015,401.7787 310.2875,401.3007 310.3265,400.7497 C310.3275,400.7477 310.3275,400.7447 310.3275,400.7417 L310.3365,400.6367 Z" id="Fill-17" fill="#1A1918"></path>
                <path d="M132.4588,416.6286 C132.4588,416.6286 130.0368,417.4866 125.8118,419.0826 C121.5868,420.6776 115.5668,423.0076 108.3978,425.9446 C94.0678,431.8256 75.1118,440.1196 56.8868,449.8586 C47.7798,454.7276 38.8538,459.9486 30.8568,465.4036 C22.8688,470.8576 15.7998,476.5596 10.5378,482.2396 C7.9128,485.0786 5.7608,487.9196 4.1698,490.6276 C2.5728,493.3326 1.5668,495.9096 1.0518,498.1056 C0.4908,500.3026 0.5418,502.1016 0.5428,503.3066 C0.6718,504.5126 0.7408,505.1546 0.7408,505.1546 C0.7408,505.1546 0.6598,504.5126 0.5098,503.3096 C0.4858,502.1026 0.4028,500.2966 0.9268,498.0776 C1.4038,495.8596 2.3698,493.2436 3.9298,490.4896 C5.4838,487.7316 7.5998,484.8306 10.1908,481.9246 C15.3838,476.1106 22.3888,470.2486 30.3148,464.6236 C38.2498,458.9986 47.1168,453.5946 56.1678,448.5416 C74.2828,438.4366 93.1448,429.7726 107.4168,423.6116 C114.5568,420.5336 120.5568,418.0856 124.7728,416.4056 C128.9888,414.7256 131.4288,413.8116 131.4288,413.8116 C132.2038,413.5186 133.0688,413.9096 133.3618,414.6856 C133.6538,415.4606 133.2628,416.3256 132.4878,416.6186 C132.4808,416.6206 132.4648,416.6266 132.4588,416.6286" id="Fill-19" fill="#1A1918"></path>
                <path d="M339.3522,225.8513 C342.8522,222.3003 346.3512,218.7493 349.8512,215.1983 C351.1782,213.8523 352.9042,212.3883 354.7252,212.8953 C355.7602,213.1833 356.5682,214.1533 356.6652,215.2233 C356.7292,215.9353 356.4532,216.7173 355.8362,217.0773" id="Stroke-21" stroke="#1A1918" stroke-linecap="round" stroke-linejoin="round"></path>
                <path d="M339.4008,243.4041 C341.2478,242.8381 343.2018,244.4021 343.7788,246.2451 C344.3558,248.0891 343.9408,250.0801 343.5228,251.9661 C342.9538,254.5331 342.3848,257.0991 341.8158,259.6651" id="Stroke-23" stroke="#1A1918" stroke-linecap="round" stroke-linejoin="round"></path>
                <path d="M90.063,218.2251 C87.053,214.1031 84.043,209.9811 81.032,205.8601 C80.593,205.2581 80.108,204.6221 79.4,204.3911 C77.527,203.7801 76.216,206.2221 75.76,208.1391 C74.908,211.7231 74.055,215.3071 73.203,218.8901" id="Stroke-25" stroke="#1A1918" stroke-linecap="round" stroke-linejoin="round"></path>
                <path d="M87.2319,237.5377 C84.9369,237.4617 82.8869,239.2227 81.9699,241.3287 C81.0529,243.4337 81.0569,245.8167 81.2219,248.1067 C81.4599,251.4027 82.0009,254.6767 82.8349,257.8747" id="Stroke-27" stroke="#1A1918" stroke-linecap="round" stroke-linejoin="round"></path>
                <path d="M217.5,408.86 C234.801,405.95 250.212,402.176 265.433,388.722 C271.913,383.661 301.494,357.02 314.776,329.145 C328.065,301.253 336.194,282.486 336.194,255.741 C336.194,245.751 338.413,232.572 340.951,217.687 C345.207,192.728 351.97,155.858 349.785,135.463 C346.297,102.905 356.328,63.092 307.491,24.72 C279.848,3.001 215.476,-3.195 193.341,2.691 C172.042,8.355 145.681,19.467 117.909,39.406 C91.243,58.551 84.176,97.846 80.688,124.591 C77.2,151.335 95.245,202.284 92.92,219.726 C90.594,237.168 94.234,256.586 92.874,274.254 C91.715,289.328 97.42,316.923 110.413,334.505 C119.209,346.408 141.685,369.539 154.476,380.004 C167.267,390.469 193.977,412.816 217.5,408.86" id="Fill-29" fill="#D0C7B2"></path>
                <path d="M217.5,408.86 C234.801,405.95 250.212,402.176 265.433,388.722 C271.913,383.661 301.494,357.02 314.776,329.145 C328.065,301.253 336.194,282.486 336.194,255.741 C336.194,245.751 338.413,232.572 340.951,217.687 C345.207,192.728 351.97,155.858 349.785,135.463 C346.297,102.905 356.328,63.092 307.491,24.72 C279.848,3.001 215.476,-3.195 193.341,2.691 C172.042,8.355 145.681,19.467 117.909,39.406 C91.243,58.551 84.176,97.846 80.688,124.591 C77.2,151.335 95.245,202.284 92.92,219.726 C90.594,237.168 94.234,256.586 92.874,274.254 C91.715,289.328 97.42,316.923 110.413,334.505 C119.209,346.408 141.685,369.539 154.476,380.004 C167.267,390.469 193.977,412.816 217.5,408.86 Z" id="Stroke-31" stroke="#1A1918" stroke-width="2"></path>
                <path d="M193.4604,255.1254 C193.4604,255.1254 193.4424,255.2434 193.3724,255.4634 C193.3044,255.6854 193.1714,256.0074 192.9344,256.3924 C192.4654,257.1644 191.5924,258.1784 190.3604,259.3114 C189.1324,260.4504 187.5824,261.7604 185.8584,263.2824 C184.1734,264.8104 182.2044,266.6084 180.9544,268.9204 C180.3534,270.0724 180.0864,271.3624 180.4754,272.5564 C180.6584,273.1564 180.9964,273.7324 181.4274,274.2764 L181.7584,274.6644 L182.1684,275.1044 C182.4474,275.4094 182.6984,275.6394 182.9774,275.9094 C184.1004,276.9504 185.3734,277.8304 186.8004,278.3074 C188.2244,278.8044 189.8054,278.8554 191.5124,278.7594 C193.2174,278.6604 195.0434,278.4254 196.9454,278.3544 C198.8434,278.2704 200.8274,278.3764 202.7514,278.6764 C206.6164,279.2814 210.2954,280.6044 213.8644,281.5994 C215.6514,282.0844 217.4154,282.4984 219.1514,282.6424 C220.0194,282.7144 220.8774,282.7134 221.7214,282.6334 C222.1334,282.5934 222.5824,282.5294 222.9524,282.4564 C223.4024,282.3564 223.8924,282.2704 224.3054,282.1594 C227.6864,281.3434 230.8524,279.6294 234.2574,278.1934 C235.9714,277.4884 237.8184,276.9344 239.7344,276.8024 C241.5374,276.6954 243.3024,276.8644 244.8774,276.9554 C246.4624,277.0504 247.8644,276.9904 248.9664,276.3974 C249.5234,276.1104 250.0284,275.7104 250.4744,275.2274 C250.6954,274.9844 250.9084,274.7294 251.1034,274.4584 L251.2504,274.2554 L251.2864,274.2054 C251.2304,274.3024 251.2814,274.2154 251.2734,274.2294 L251.2904,274.2004 L251.3584,274.0834 C251.4484,273.9304 251.5574,273.7594 251.5814,273.6644 C252.0254,272.7084 251.9704,271.3664 251.6894,270.2104 C251.4264,269.0234 250.9764,267.9064 250.4934,266.8884 C249.5104,264.8504 248.4084,263.1644 247.4574,261.8174 C246.4924,260.4774 245.6814,259.4544 245.0914,258.7894 C244.5074,258.1184 244.1494,257.8024 244.1494,257.8024 C244.1494,257.8024 245.7204,258.9134 247.9404,261.4344 C249.0444,262.6954 250.3404,264.2834 251.5384,266.3344 C252.1344,267.3614 252.7184,268.5004 253.1334,269.8234 C253.5134,271.1454 253.8194,272.6784 253.1874,274.4014 C253.1034,274.6484 253.0224,274.7824 252.9424,274.9464 L252.8814,275.0674 L252.8194,275.1814 L252.7804,275.2434 L252.6244,275.4924 C252.4164,275.8264 252.1804,276.1544 251.9224,276.4764 C251.4044,277.1164 250.7574,277.7304 249.9724,278.1954 C248.3704,279.1524 246.4594,279.2604 244.8104,279.2424 C243.1244,279.2244 241.5324,279.1484 239.9124,279.3254 C238.4044,279.4794 236.8584,279.9684 235.3044,280.6644 C233.7414,281.3574 232.1494,282.2124 230.4394,283.0054 C228.7204,283.8034 226.9354,284.4894 224.9584,285.0014 C224.4694,285.1344 224.0354,285.2124 223.5694,285.3204 C223.0204,285.4344 222.5374,285.5044 222.0134,285.5614 C220.9834,285.6694 219.9454,285.6784 218.9264,285.6034 C216.8844,285.4564 214.9264,285.0054 213.0594,284.4664 C209.3254,283.3804 205.8244,282.0934 202.2844,281.5114 C200.5184,281.1944 198.7844,281.0484 197.0164,281.0774 C195.2514,281.0934 193.4744,281.2734 191.6204,281.3324 C189.7814,281.4034 187.7894,281.2474 185.9864,280.5294 C184.1794,279.8294 182.6934,278.6694 181.4844,277.4414 C181.1884,277.1314 180.8624,276.7904 180.6114,276.4894 L180.2214,276.0314 C180.0604,275.8304 179.9404,275.6744 179.8064,275.4874 C179.2944,274.7584 178.8714,273.9394 178.6564,273.0514 C178.4334,272.1674 178.4384,271.2384 178.6204,270.3994 C178.8034,269.5584 179.1384,268.8034 179.5334,268.1364 C180.3254,266.7964 181.3204,265.7624 182.2924,264.8514 C183.2714,263.9444 184.2484,263.1664 185.1744,262.4554 C187.0254,261.0334 188.6984,259.9084 190.0014,258.8894 C191.3104,257.8814 192.2784,257.0134 192.8114,256.3074 C193.0824,255.9604 193.2464,255.6604 193.3364,255.4514 C193.4294,255.2414 193.4604,255.1254 193.4604,255.1254" id="Fill-33" fill="#1A1918"></path>
                <path d="M189.6028,333.0163 C189.6028,333.0163 190.5288,333.2593 192.1308,333.7283 C192.9298,333.9613 193.8998,334.2773 195.0168,334.5473 C196.1378,334.8213 197.3738,335.1783 198.7438,335.5093 C200.1288,335.7963 201.6068,336.1753 203.1858,336.4913 C204.7758,336.7663 206.4288,337.1433 208.1668,337.3803 C209.0318,337.5123 209.9118,337.6463 210.8018,337.7833 C211.6968,337.8813 212.6038,337.9653 213.5128,338.0833 C215.3308,338.3493 217.1948,338.3803 219.0488,338.5293 C220.9038,338.5553 222.7648,338.6993 224.5868,338.5923 C225.0428,338.5783 225.4968,338.5653 225.9488,338.5523 C226.4018,338.5513 226.8528,338.5453 227.2968,338.5013 C228.1878,338.4353 229.0678,338.3703 229.9338,338.3053 C230.8008,338.2423 231.6328,338.0623 232.4658,337.9793 C232.8808,337.9273 233.2908,337.8753 233.6968,337.8253 C234.0958,337.7443 234.4898,337.6653 234.8778,337.5873 C235.6558,337.4243 236.4138,337.2663 237.1458,337.1133 C237.8658,336.9123 238.5608,336.7183 239.2288,336.5313 C239.9128,336.3723 240.5198,336.1113 241.1118,335.8873 C241.7088,335.6643 242.2748,335.4543 242.8068,335.2553 C243.7998,334.7293 244.7148,334.3183 245.4378,333.9233 C246.7988,333.0203 247.6238,332.5023 247.6238,332.5023 C247.6238,332.5023 246.9868,333.1933 245.7888,334.4063 C245.1428,334.9463 244.3158,335.5573 243.3538,336.2653 C242.8398,336.5603 242.2928,336.8733 241.7168,337.2043 C241.1368,337.5383 240.5198,337.8813 239.8398,338.1423 C239.1648,338.4273 238.4618,338.7253 237.7338,339.0333 C236.9938,339.3013 236.2078,339.5103 235.4068,339.7633 C235.0048,339.8833 234.5968,340.0053 234.1848,340.1283 C233.7658,340.2213 233.3418,340.3153 232.9138,340.4093 C232.0558,340.5943 231.1758,340.7973 230.2748,340.9253 C228.4698,341.1563 226.6008,341.4593 224.6898,341.4873 C222.7798,341.6303 220.8448,341.5263 218.9058,341.5243 C216.9798,341.3363 215.0408,341.2643 213.1638,340.9563 C212.2208,340.8303 211.2878,340.6943 210.3698,340.5343 C209.4588,340.3433 208.5598,340.1543 207.6748,339.9683 C205.8938,339.6513 204.2328,339.0813 202.6378,338.6543 C201.0478,338.2033 199.5908,337.6203 198.2338,337.1463 C196.8808,336.6503 195.6768,336.0733 194.6058,335.6123 C193.5218,335.1703 192.6478,334.6603 191.9058,334.2783 C190.4338,333.4913 189.6028,333.0163 189.6028,333.0163" id="Fill-35" fill="#1A1918"></path>
                <path d="M242.4529,160.986 C242.4529,160.986 268.3319,146.439 280.3959,146.841 C292.4599,147.243 328.9129,158.171 330.1199,159.78 C331.3259,161.388 329.3159,161.79 325.6959,160.584 C322.0769,159.377 288.3949,151.17 283.1669,152.778 C280.6549,153.551 273.2989,155.007 266.2159,157.659 C258.5569,160.527 249.5619,164.51 247.6819,164.928 C244.0629,165.732 240.8439,164.203 242.4529,160.986" id="Fill-37" fill="#000105"></path>
                <path d="M242.4529,160.986 C242.4529,160.986 268.3319,146.439 280.3959,146.841 C292.4599,147.243 328.9129,158.171 330.1199,159.78 C331.3259,161.388 329.3159,161.79 325.6959,160.584 C322.0769,159.377 288.3949,151.17 283.1669,152.778 C280.6549,153.551 273.2989,155.007 266.2159,157.659 C258.5569,160.527 249.5619,164.51 247.6819,164.928 C244.0629,165.732 240.8439,164.203 242.4529,160.986 Z" id="Stroke-39" stroke="#1A1918" stroke-linecap="round" stroke-linejoin="round"></path>
                <path d="M107.7417,166.1246 C107.7417,166.1246 134.6597,150.9886 147.5277,151.3906 C160.3967,151.7936 192.5937,162.5056 193.7997,164.9186 C195.0067,167.3306 191.7897,167.7336 187.7677,166.5266 C183.7467,165.3206 164.4647,162.5476 161.2477,158.9286 C158.0297,155.3096 147.6807,155.5296 141.6827,156.7706 C135.9567,157.9546 119.3907,163.6666 111.3607,168.5376 C108.0987,170.5156 105.9647,168.1876 107.7417,166.1246" id="Fill-41" fill="#000105"></path>
                <path d="M107.7417,166.1246 C107.7417,166.1246 134.6597,150.9886 147.5277,151.3906 C160.3967,151.7936 192.5937,162.5056 193.7997,164.9186 C195.0067,167.3306 191.7897,167.7336 187.7677,166.5266 C183.7467,165.3206 164.4647,162.5476 161.2477,158.9286 C158.0297,155.3096 147.6807,155.5296 141.6827,156.7706 C135.9567,157.9546 119.3907,163.6666 111.3607,168.5376 C108.0987,170.5156 105.9647,168.1876 107.7417,166.1246 Z" id="Stroke-43" stroke="#1A1918" stroke-linecap="round" stroke-linejoin="round"></path>
                <path d="M114.5618,218.8534 C114.5618,218.8534 135.0888,200.3384 143.5408,198.3264 C151.9938,196.3144 168.4958,197.5214 175.7408,202.7534 C182.9848,207.9864 190.6328,212.4134 192.2428,217.2434 C193.8528,222.0734 179.3628,228.9154 174.1308,228.9154 C168.8978,228.9154 156.8238,226.9034 153.2008,227.3054 C149.5788,227.7084 135.0888,232.1354 133.4788,232.1354 C131.8688,232.1354 112.5498,224.0854 114.5618,218.8534" id="Fill-45" fill="#FFFFFF"></path>
                <path d="M244.9689,205.1687 C244.9689,205.1687 266.7039,184.2387 276.3629,183.8367 C286.0229,183.4337 298.9029,189.0687 302.5249,191.8867 C306.1479,194.7037 308.5629,193.8987 311.7829,200.3387 C315.0019,206.7787 317.0149,209.9987 310.9779,212.0107 C304.9399,214.0237 297.2929,211.6087 292.8649,213.6207 C288.4379,215.6337 280.7909,218.4507 275.9609,219.6587 C271.1309,220.8657 244.9689,214.4257 244.9689,205.1687" id="Fill-47" fill="#FFFFFF"></path>
            </g>
            <g id="Group-90" transform="translate(109.000000, 170.890000)">
                <path d="M38.541,134.2062 C38.541,134.2062 52.675,139.2322 61.47,144.2572 C70.265,149.2832 90.682,152.7382 101.675,153.0522 C112.669,153.3662 143.136,151.1672 153.187,146.7702 C163.239,142.3732 174.232,128.8662 175.803,126.6682 C177.373,124.4692 161.354,133.8922 161.354,133.8922 L141.252,134.5202 C141.252,134.5202 138.111,142.0592 135.598,142.0592 C133.085,142.0592 119.265,141.4302 116.438,142.0592 C113.611,142.6872 89.425,143.3152 87.226,142.3732 C85.028,141.4302 79.06,133.2642 79.06,133.2642 L62.727,136.4052 L38.541,134.2062 Z" id="Fill-50" fill="#000105"></path>
                <path d="M38.541,134.2062 C38.541,134.2062 52.675,139.2322 61.47,144.2572 C70.265,149.2832 90.682,152.7382 101.675,153.0522 C112.669,153.3662 143.136,151.1672 153.187,146.7702 C163.239,142.3732 174.232,128.8662 175.803,126.6682 C177.373,124.4692 161.354,133.8922 161.354,133.8922 L141.252,134.5202 C141.252,134.5202 138.111,142.0592 135.598,142.0592 C133.085,142.0592 119.265,141.4302 116.438,142.0592 C113.611,142.6872 89.425,143.3152 87.226,142.3732 C85.028,141.4302 79.06,133.2642 79.06,133.2642 L62.727,136.4052 L38.541,134.2062 Z" id="Stroke-52" stroke="#1A1918" stroke-linecap="round"></path>
                <path d="M172.0999,100.6665 C172.0999,100.6665 175.1609,101.6855 179.5249,103.7605 C180.6159,104.2795 181.7969,104.8465 183.0149,105.5115 C184.2399,106.1605 185.5269,106.8615 186.8139,107.6725 C187.4639,108.0665 188.1189,108.4795 188.7679,108.9245 C189.4299,109.3475 190.0779,109.8165 190.7159,110.3145 C191.9999,111.2965 193.2679,112.3755 194.3699,113.7405 C194.9379,114.4675 195.3239,115.1055 195.7729,115.7635 C196.2029,116.3645 196.6659,116.9675 197.1669,117.5445 C198.1549,118.7075 199.2629,119.7375 200.2579,121.1085 C200.7369,121.8085 201.1089,122.6985 201.1479,123.5705 C201.2189,124.4475 201.0279,125.2315 200.8159,125.9405 C200.5809,126.6575 200.3239,127.2845 200.0609,127.8725 C199.7859,128.4805 199.5089,129.0535 199.2369,129.5975 C198.1369,131.7705 197.0389,133.4695 196.2359,134.6285 C195.4289,135.7865 194.9119,136.4055 194.9119,136.4055 C194.9119,136.4055 195.2879,135.6935 195.8919,134.4285 C196.4969,133.1655 197.3269,131.3465 198.1879,129.1315 C198.3989,128.5745 198.6089,127.9955 198.8089,127.3985 C198.9109,127.0915 199.0139,126.7805 199.1189,126.4635 C199.2229,126.1615 199.2869,125.8545 199.3759,125.5455 C199.6989,124.2735 199.5949,123.1385 198.8189,122.1245 C198.0169,121.0805 196.7729,120.0485 195.7119,118.8145 C195.1709,118.2075 194.6529,117.5595 194.1469,116.8685 C193.6889,116.2135 193.2219,115.4935 192.7909,114.9665 C191.8999,113.8245 190.7329,112.7785 189.5279,111.8335 C188.3259,110.8815 187.0949,109.9705 185.8599,109.1475 C184.6319,108.3175 183.4289,107.5225 182.2689,106.7985 C181.1029,106.0775 180.0009,105.3965 178.9839,104.7675 C174.8529,102.3075 172.0999,100.6665 172.0999,100.6665" id="Fill-54" fill="#1A1918"></path>
                <path d="M32.9442,115.4946 C32.9442,115.4946 30.5462,117.6726 26.9502,120.9396 C26.0582,121.7576 25.0922,122.6436 24.0712,123.5806 C23.0682,124.5306 22.0112,125.5336 20.9172,126.5696 C20.3872,127.0996 19.8472,127.6386 19.3012,128.1836 C18.7752,128.7416 18.2422,129.3056 17.7062,129.8756 C16.6652,131.0236 15.6412,132.2406 14.9102,133.5016 C14.7772,133.8046 14.6472,134.1076 14.5072,134.3976 L14.1752,135.5586 C13.9652,136.3206 13.7572,137.0876 13.5742,137.8496 C13.2142,139.3736 12.8492,140.8736 12.6692,142.3176 C12.5712,143.0366 12.5222,143.7476 12.5442,144.3896 C12.5762,145.0376 12.6822,145.5976 12.9492,145.7566 C14.0182,146.5606 15.1202,147.3166 16.1022,148.0166 C20.0822,150.7926 22.6782,152.7546 22.6782,152.7546 C22.6782,152.7546 19.7362,151.3696 15.4902,148.9886 C14.4252,148.3846 13.2852,147.7636 12.0782,146.9696 C11.9402,146.8976 11.6602,146.6196 11.5102,146.4266 C11.3892,146.2166 11.2302,145.9786 11.1772,145.7726 C11.0142,145.3376 10.9472,144.9256 10.9022,144.5196 C10.8052,143.7056 10.8542,142.9196 10.9182,142.1316 C11.0612,140.5586 11.3242,138.9796 11.6952,137.4046 C11.8732,136.6156 12.0732,135.8296 12.2802,135.0346 L12.5972,133.8626 C12.7772,133.4116 12.9592,132.9666 13.1602,132.5346 C14.0782,131.0016 15.1842,129.7586 16.2932,128.5616 C17.4062,127.3736 18.5882,126.3116 19.7222,125.2826 C20.8662,124.2646 22.0092,123.3276 23.1002,122.4536 C24.1902,121.5766 25.2422,120.7776 26.2252,120.0566 C30.1412,117.1526 32.9442,115.4946 32.9442,115.4946" id="Fill-56" fill="#1A1918"></path>
                <path d="M119.6313,43.6355 C119.6313,43.6355 119.5903,43.7585 119.5373,43.9935 C119.4733,44.2245 119.4073,44.5715 119.3143,45.0065 C119.2113,45.4375 119.1483,45.9785 119.0343,46.5775 C118.9713,47.1905 118.8553,47.8675 118.8193,48.6165 C118.7423,49.3605 118.7553,50.1675 118.7443,51.0135 C118.7183,51.4365 118.7923,51.8695 118.8163,52.3105 C118.8683,52.7495 118.8413,53.2035 118.9393,53.6525 C119.0123,54.1025 119.0853,54.5605 119.1593,55.0245 C119.2263,55.4875 119.4003,55.9345 119.4993,56.3995 C119.6823,57.3385 120.0883,58.2215 120.4323,59.1225 C120.7763,60.0245 121.3043,60.8465 121.7193,61.7045 C122.2823,62.4765 122.7793,63.2805 123.3143,64.0265 C123.9323,64.7065 124.5043,65.3915 125.0543,66.0425 C125.6413,66.6575 126.2603,67.1825 126.7913,67.7145 C127.3303,68.2405 127.8283,68.7265 128.3293,69.0845 C128.8113,69.4725 129.2313,69.8125 129.5773,70.0915 C130.2663,70.6635 130.6573,71.0105 130.6573,71.0105 C130.6573,71.0105 130.1873,70.8125 129.3693,70.4305 C128.9613,70.2365 128.4623,70.0045 127.8993,69.7165 C127.6203,69.5685 127.3043,69.4375 127.0043,69.2485 C126.7113,69.0485 126.4033,68.8375 126.0813,68.6175 C125.4463,68.1645 124.7133,67.7165 124.0303,67.1295 C123.3713,66.5135 122.6673,65.8625 121.9663,65.1595 C121.3433,64.3885 120.6953,63.5805 120.0823,62.7285 C119.8273,62.2685 119.5693,61.8045 119.3113,61.3385 C119.0653,60.8655 118.7593,60.4185 118.5933,59.9055 C118.2283,58.8955 117.8113,57.9045 117.6263,56.8605 C117.3373,55.8415 117.2763,54.8035 117.1903,53.8095 C117.1253,53.3135 117.1653,52.8215 117.1753,52.3435 C117.2033,51.8655 117.1813,51.3965 117.2583,50.9475 C117.3573,50.0435 117.4853,49.1985 117.6903,48.4365 C117.8403,47.6655 118.1053,46.9895 118.2973,46.3875 C118.5283,45.7955 118.7323,45.2835 118.9403,44.8785 C119.1303,44.4675 119.3143,44.1595 119.4383,43.9505 C119.5573,43.7405 119.6313,43.6355 119.6313,43.6355" id="Fill-58" fill="#1A1918"></path>
                <path d="M162.5947,58.4636 C162.5947,58.4636 163.4157,57.9846 164.7267,57.4586 C166.0347,56.9256 167.8317,56.3436 169.6947,55.9876 C170.6267,55.8206 171.5707,55.6906 172.4687,55.6666 C173.3647,55.6336 174.2137,55.6906 174.9257,55.8466 C175.6407,55.9926 176.2087,56.2566 176.5537,56.5026 C176.9057,56.7416 177.0317,56.9586 177.0427,56.9426 C177.0357,56.9546 176.8447,56.8036 176.4617,56.6786 C176.0857,56.5446 175.5297,56.4396 174.8527,56.4166 C173.4987,56.3686 171.6847,56.6206 169.8797,56.9696 C168.0717,57.3076 166.2637,57.7186 164.8947,58.0056 C163.5277,58.2996 162.5947,58.4636 162.5947,58.4636" id="Fill-60" fill="#1A1918"></path>
                <path d="M23.8192,63.0261 C23.8192,63.0261 24.4252,62.6581 25.5072,62.0671 C26.0492,61.7731 26.7082,61.4171 27.4742,61.0381 C27.8572,60.8461 28.2642,60.6421 28.6942,60.4271 C29.1242,60.2151 29.6312,60.1651 30.1202,59.9861 C32.1132,59.3841 34.4432,58.6991 36.9672,58.0301 C38.2302,57.6981 39.5382,57.3631 40.8892,57.0701 C42.2382,56.7671 43.6152,56.4991 45.0992,56.3681 L45.6682,56.3341 L45.8102,56.3261 L45.9072,56.3241 L45.9722,56.3251 L46.2312,56.3331 C46.5772,56.3441 46.9152,56.3481 47.2852,56.3811 C48.0202,56.4261 48.7062,56.5011 49.3942,56.5731 C50.7512,56.7441 52.0862,56.9131 53.3782,57.0761 C55.9442,57.4171 58.3252,57.7031 60.3562,57.8351 C60.6092,57.8491 60.8592,57.8801 61.1002,57.8721 C61.3432,57.8591 61.5792,57.8701 61.8072,57.9251 C62.2672,58.0291 62.6992,58.0941 63.1112,58.1631 C63.5232,58.2421 63.9062,58.2791 64.2642,58.3251 C64.6222,58.3741 64.9552,58.4191 65.2512,58.4281 C65.5532,58.4481 65.8232,58.4661 66.0582,58.4821 C66.2932,58.4781 66.4932,58.4761 66.6552,58.4731 C66.9862,58.4671 67.1632,58.4641 67.1632,58.4641 C67.1632,58.4641 67.0022,58.5361 66.7012,58.6711 C66.3982,58.8181 65.9432,59.0121 65.3372,59.1801 C64.7362,59.3661 63.9882,59.5491 63.1252,59.6861 C62.6932,59.7561 62.2292,59.8381 61.7452,59.8901 C61.2572,59.9631 60.7512,59.8421 60.2252,59.8311 C58.1162,59.6941 55.6902,59.4001 53.1172,59.0591 C51.8382,58.8971 50.5162,58.7301 49.1722,58.5601 C48.5072,58.4911 47.8292,58.4181 47.1902,58.3781 C46.8742,58.3481 46.5212,58.3431 46.1772,58.3321 L45.9182,58.3251 L45.8532,58.3231 C45.8862,58.3231 45.8292,58.3251 45.8212,58.3261 L45.7042,58.3341 L45.2382,58.3631 C43.9692,58.4751 42.6222,58.7271 41.3182,59.0231 C40.0102,59.3071 38.7222,59.6371 37.4782,59.9631 C34.9902,60.6231 32.6772,61.3031 30.7002,61.9001 C30.1972,62.0231 29.7522,62.2591 29.2812,62.3301 C28.8082,62.3951 28.3592,62.4571 27.9372,62.5151 C27.0912,62.6281 26.3532,62.7261 25.7452,62.8071 C24.5252,62.9581 23.8192,63.0261 23.8192,63.0261" id="Fill-62" fill="#1A1918"></path>
                <path d="M91.496,48.198 C91.496,48.198 91.685,49.319 91.666,50.97 C91.667,51.797 91.62,52.757 91.51,53.778 C91.408,54.8 91.249,55.884 91.026,56.959 C90.917,57.495 90.786,58.031 90.65,58.555 C90.525,59.081 90.337,59.587 90.19,60.082 C89.867,61.068 89.48,61.972 89.091,62.72 C88.885,63.096 88.679,63.429 88.493,63.718 C88.283,64.006 88.084,64.239 87.926,64.428 C87.746,64.612 87.57,64.724 87.472,64.807 C87.369,64.885 87.314,64.927 87.314,64.927 C87.314,64.927 87.412,64.672 87.584,64.225 C87.642,63.991 87.704,63.71 87.793,63.408 C87.853,63.084 87.917,62.72 88.008,62.338 C88.068,61.938 88.142,61.512 88.234,61.066 C88.306,60.61 88.384,60.134 88.484,59.644 C88.654,58.656 88.853,57.605 89.068,56.554 C89.285,55.503 89.531,54.455 89.78,53.472 C90.028,52.49 90.284,51.575 90.537,50.794 C91.023,49.229 91.496,48.198 91.496,48.198" id="Fill-64" fill="#1A1918"></path>
                <path d="M83.1315,58.4636 C83.1315,58.4636 83.1095,58.7156 83.0425,59.1506 C82.9665,59.5826 82.8825,60.2076 82.7235,60.9416 C82.4185,62.4136 81.9055,64.3516 81.2385,66.2446 C80.8925,67.1856 80.5395,68.1266 80.1415,68.9836 C79.7555,69.8436 79.3545,70.6316 78.9535,71.2786 C78.7655,71.6076 78.5725,71.8976 78.3825,72.1446 C78.1965,72.3926 78.0525,72.6166 77.8985,72.7806 C77.6035,73.1146 77.4285,73.2916 77.4285,73.2916 C77.4285,73.2916 77.5355,73.0576 77.7355,72.6736 C77.8455,72.4886 77.9365,72.2356 78.0585,71.9606 C78.1825,71.6866 78.3025,71.3676 78.4395,71.0226 C78.9835,69.6446 79.6405,67.7816 80.2965,65.9116 C80.9615,64.0456 81.6295,62.1736 82.1755,60.7796 C82.4415,60.0806 82.6975,59.5066 82.8565,59.0986 C83.0245,58.6936 83.1315,58.4636 83.1315,58.4636" id="Fill-66" fill="#1A1918"></path>
                <path d="M5.0301,50.7381 C5.0301,50.7381 5.7411,49.4071 7.2461,47.2531 C7.9941,46.1731 8.9501,44.8951 10.1091,43.4751 C11.2761,42.0631 12.6351,40.4961 14.2311,38.8881 C15.0271,38.0831 15.8731,37.2581 16.7751,36.4271 C17.6861,35.6081 18.6501,34.7811 19.6701,33.9611 C21.6981,32.3071 23.9881,30.7251 26.5121,29.3141 C29.0421,27.9211 31.8321,26.7361 34.8101,25.9461 C37.7791,25.1531 40.9261,24.6851 44.0851,24.8141 L46.3711,25.0091 C47.1151,25.0901 47.8251,25.0991 48.6051,25.2611 C50.1271,25.5411 51.6781,25.7311 53.1091,26.1561 C53.8341,26.3441 54.5571,26.5311 55.2761,26.7161 C55.9791,26.9521 56.6781,27.1861 57.3731,27.4191 C58.7751,27.8491 60.0931,28.4461 61.4041,28.9851 C62.7151,29.5241 63.9361,30.2031 65.1651,30.7851 C66.3481,31.4571 67.5191,32.0891 68.6091,32.7841 C70.7861,34.1791 72.7851,35.5821 74.5191,37.0161 C74.9541,37.3711 75.3811,37.7181 75.7971,38.0571 C76.1971,38.4171 76.5881,38.7681 76.9681,39.1111 C77.7421,39.7811 78.4271,40.4701 79.0701,41.1171 C80.3591,42.4061 81.4021,43.6121 82.1991,44.6521 C82.6181,45.1541 82.9401,45.6471 83.2281,46.0681 C83.5181,46.4861 83.7621,46.8431 83.9231,47.1611 C84.2661,47.7761 84.4491,48.1041 84.4491,48.1041 C84.5021,48.2001 84.4681,48.3221 84.3721,48.3751 C84.2801,48.4261 84.1661,48.3981 84.1091,48.3121 L84.0951,48.2911 C84.0951,48.2911 83.8941,47.9871 83.5161,47.4171 C83.3411,47.1251 83.0761,46.7941 82.7611,46.4081 C82.4511,46.0191 82.1041,45.5671 81.6551,45.1051 C80.7981,44.1541 79.6981,43.0471 78.3591,41.8651 C77.6901,41.2741 76.9791,40.6451 76.1801,40.0391 C75.7871,39.7291 75.3841,39.4111 74.9721,39.0861 C74.5441,38.7811 74.1051,38.4701 73.6581,38.1511 C71.8811,36.8641 69.8471,35.6271 67.6561,34.4151 C66.5561,33.8181 65.3921,33.2681 64.2231,32.6761 C63.0101,32.1761 61.8081,31.5821 60.5261,31.1311 C59.2451,30.6801 57.9611,30.1721 56.6071,29.8331 C55.9381,29.6451 55.2641,29.4571 54.5861,29.2671 C53.8991,29.1261 53.2071,28.9851 52.5141,28.8431 C51.1251,28.5051 49.7401,28.4211 48.3541,28.2251 C47.6821,28.1091 46.9061,28.1321 46.1771,28.0901 L44.0321,28.0141 C41.2641,28.0741 38.5081,28.6161 35.9101,29.5281 C33.3081,30.4351 30.8491,31.6441 28.5351,32.9571 C26.2081,34.2481 24.0341,35.6651 21.9891,37.0581 C20.9681,37.7581 19.9941,38.4711 19.0661,39.1851 C18.1221,39.8791 17.2261,40.5761 16.3781,41.2621 C14.6801,42.6331 13.1341,43.9211 11.7901,45.1011 C10.4401,46.2731 9.2801,47.3261 8.3251,48.1971 C6.4221,49.9471 5.3481,50.9811 5.3481,50.9811 C5.2671,51.0581 5.1391,51.0561 5.0621,50.9751 C5.0001,50.9101 4.9901,50.8131 5.0301,50.7381" id="Fill-68" fill="#1A1918"></path>
                <path d="M136.4488,35.6705 C136.4488,35.6705 137.1528,34.6235 138.4968,32.8795 C139.8348,31.1295 141.8458,28.7025 144.4658,25.9615 C147.0918,23.2325 150.3288,20.1585 154.3228,17.4605 C156.3138,16.1105 158.4918,14.8485 160.8728,13.8465 C163.2498,12.8485 165.8458,12.1115 168.5668,11.9155 C169.2418,11.8265 169.9318,11.8805 170.6168,11.8655 C171.3208,11.8865 171.9498,11.9705 172.7158,12.0475 C173.9528,12.2705 175.1578,12.4265 176.4088,12.6795 C178.9448,13.1875 181.3668,13.7875 183.6458,14.5995 C185.9318,15.3875 188.0698,16.3475 190.0378,17.3605 C191.0168,17.8785 191.9588,18.3995 192.8628,18.9125 C193.7418,19.4775 194.6088,19.9805 195.4008,20.5385 C196.2028,21.0755 196.9568,21.6095 197.6468,22.1615 C198.3468,22.6935 199.0018,23.2125 199.5858,23.7425 C200.7748,24.7685 201.7358,25.7605 202.4848,26.6095 C202.8578,27.0395 203.1608,27.4545 203.4328,27.7975 C203.6848,28.1715 203.8908,28.4885 204.0498,28.7485 C204.3178,29.3105 204.4608,29.6095 204.4608,29.6095 C204.5078,29.7085 204.4658,29.8265 204.3668,29.8745 C204.2888,29.9115 204.1988,29.8925 204.1408,29.8345 L204.1108,29.8045 C204.1108,29.8045 203.8988,29.5885 203.4998,29.1845 C203.2798,29.0015 203.0078,28.7765 202.6888,28.5115 C202.3498,28.2685 201.9608,27.9895 201.5248,27.6755 C200.6238,27.0825 199.5338,26.3745 198.2248,25.6435 C196.9368,24.8885 195.4318,24.1195 193.7898,23.3035 C192.1428,22.4955 190.3298,21.6855 188.4038,20.8675 C186.4518,20.1035 184.4158,19.2615 182.2578,18.5285 C180.1248,17.7295 177.8678,17.0145 175.6178,16.3415 C174.4748,16.0035 173.2278,15.7345 172.0258,15.4375 C171.5538,15.3715 170.9468,15.2385 170.4028,15.1885 C169.8378,15.1685 169.2748,15.0715 168.7008,15.1125 C166.4118,15.1385 164.0858,15.6325 161.8698,16.4125 C159.6498,17.1915 157.5358,18.2475 155.5668,19.4175 C153.5928,20.5835 151.7738,21.8805 150.0798,23.1595 C148.3878,24.4435 146.8448,25.7435 145.4558,26.9855 C142.6738,29.4695 140.5248,31.7355 139.0378,33.3355 C137.5548,34.9415 136.7688,35.9105 136.7688,35.9105 C136.6998,35.9965 136.5738,36.0095 136.4878,35.9395 C136.4068,35.8735 136.3918,35.7555 136.4488,35.6705" id="Fill-70" fill="#1A1918"></path>
                <path d="M142.3653,11.1339 C142.3653,11.1339 146.4163,9.1169 152.7563,6.6639 C155.9253,5.4369 159.6633,4.0819 163.7963,2.9599 C165.8613,2.3949 168.0213,1.8759 170.2663,1.4839 C172.5133,1.0989 174.8383,0.8069 177.2743,0.9009 C178.4873,0.9269 179.7403,1.0839 181.0093,1.4349 L182.6273,1.8919 C183.1793,2.0639 183.7563,2.2849 184.3183,2.4809 C185.4833,2.8719 186.4723,3.3419 187.5253,3.7889 C188.5413,4.2649 189.5283,4.7709 190.4833,5.2839 C192.3663,6.3549 194.1343,7.4629 195.7253,8.6249 C197.3383,9.7569 198.8093,10.8909 200.1273,11.9849 C205.4343,16.3229 208.3463,19.9079 208.3463,19.9079 C208.4173,19.9959 208.4043,20.1239 208.3173,20.1949 C208.2513,20.2479 208.1623,20.2539 208.0923,20.2169 C208.0923,20.2169 207.0763,19.6839 205.3503,18.7069 C204.4923,18.2149 203.4513,17.6169 202.2563,16.9319 C201.0763,16.2399 199.7453,15.4589 198.2933,14.6069 C196.8503,13.7629 195.2873,12.8469 193.6333,11.8799 C191.9853,10.9389 190.2473,9.9469 188.4483,8.9199 C186.6713,7.9159 184.7903,6.8439 182.9343,5.9629 C182.4663,5.7499 182.0233,5.5199 181.5263,5.3109 L179.9483,4.7279 C179.0753,4.4119 178.0883,4.1919 177.0523,4.0939 C174.9853,3.8699 172.7933,3.9849 170.6503,4.2089 C168.5013,4.4389 166.3793,4.7999 164.3343,5.2149 C160.2473,6.0679 156.4473,7.0699 153.2143,8.0129 C149.9793,8.9579 147.3133,9.8569 145.4443,10.4799 C143.5763,11.1099 142.5223,11.5019 142.5223,11.5019 C142.4183,11.5399 142.3033,11.4879 142.2643,11.3839 C142.2283,11.2869 142.2753,11.1789 142.3653,11.1339" id="Fill-72" fill="#1A1918"></path>
                <path d="M0.8961,34.344 C0.8961,34.344 1.6321,33.572 3.0111,32.35 C3.6981,31.734 4.5511,31.014 5.5451,30.209 C6.5431,29.411 7.6781,28.519 8.9521,27.602 C10.2181,26.671 11.6191,25.707 13.1291,24.728 C14.6271,23.729 16.2621,22.762 17.9811,21.809 C19.7121,20.876 21.5501,19.997 23.4481,19.162 C25.3451,18.328 27.2781,17.483 29.2571,16.726 C31.2311,15.956 33.2381,15.246 35.2941,14.701 C36.3181,14.422 37.3691,14.209 38.4301,14.055 C38.9691,13.994 39.5051,13.935 40.0591,13.927 C40.6141,13.922 41.1961,13.942 41.6531,13.998 C43.5831,14.156 45.5451,14.425 47.3001,14.741 C49.0791,15.055 50.7411,15.429 52.2701,15.783 C55.3201,16.523 57.8271,17.241 59.5631,17.808 C61.3001,18.369 62.2791,18.731 62.2791,18.731 C62.3831,18.769 62.4361,18.885 62.3981,18.988 C62.3621,19.085 62.2581,19.137 62.1611,19.113 C62.1611,19.113 61.1571,18.861 59.3821,18.492 C57.6061,18.133 55.0681,17.622 52.0031,17.183 C50.4701,16.974 48.8091,16.759 47.0501,16.614 C45.2681,16.476 43.4871,16.323 41.5281,16.314 C41.0141,16.29 40.6141,16.316 40.1821,16.349 C39.7501,16.386 39.2961,16.47 38.8471,16.553 C37.9381,16.756 37.0131,17.01 36.0851,17.338 C34.2291,17.976 32.3661,18.787 30.5301,19.662 C28.6991,20.553 26.8831,21.499 25.1341,22.508 C23.3821,23.514 21.6571,24.504 19.9881,25.461 C18.2991,26.387 16.6611,27.276 15.0761,28.072 C14.2881,28.48 13.5221,28.876 12.7801,29.26 C12.0311,29.632 11.3071,29.992 10.6121,30.338 C9.2261,31.038 7.9301,31.643 6.7861,32.191 C5.6361,32.728 4.6271,33.19 3.7861,33.557 C2.1081,34.297 1.1171,34.677 1.1171,34.677 C1.0121,34.718 0.8931,34.665 0.8531,34.559 C0.8231,34.483 0.8431,34.4 0.8961,34.344" id="Fill-74" fill="#1A1918"></path>
                <path d="M140.9229,51.6199 C140.9229,51.6199 141.9039,51.4299 143.6209,51.0969 C144.4789,50.9399 145.5199,50.7499 146.7139,50.5329 C147.3109,50.4249 147.9449,50.3099 148.6139,50.1889 C149.2829,50.0739 149.9979,50.1219 150.7339,50.0399 C153.6879,49.8279 157.1339,49.5539 160.8069,49.1609 C162.6409,48.9579 164.5349,48.7339 166.4409,48.4439 C168.3449,48.1599 170.2759,47.8089 172.0849,47.2989 C172.5149,47.1389 172.9229,47.0169 173.3749,46.8349 L174.7399,46.2469 C175.6569,45.8559 176.5719,45.4799 177.4899,45.1189 C179.3239,44.3949 181.1699,43.7479 183.0319,43.2599 C183.9699,43.0299 184.9129,42.8379 185.8869,42.7519 C186.8509,42.6799 187.8979,42.6739 188.9579,43.1519 C190.4889,43.8949 191.9359,44.5979 193.2719,45.2469 C193.9259,45.6009 194.6109,45.8149 195.1809,46.1939 C195.7569,46.5599 196.3029,46.9079 196.8169,47.2339 C197.8399,47.8959 198.7319,48.4719 199.4659,48.9469 C200.9229,49.9219 201.7559,50.4789 201.7559,50.4789 C201.7559,50.4789 200.8079,50.1719 199.1479,49.6329 C198.3239,49.3509 197.3239,49.0079 196.1759,48.6149 C195.6039,48.4149 194.9959,48.2009 194.3539,47.9759 C193.7069,47.7639 193.1119,47.3559 192.4299,47.0609 C191.0949,46.4119 189.6479,45.7099 188.1169,44.9659 C187.6179,44.7249 186.8489,44.6729 186.0469,44.7459 C185.2399,44.8169 184.3879,44.9859 183.5249,45.1979 C181.7949,45.6509 180.0119,46.2729 178.2209,46.9799 C177.3259,47.3319 176.4229,47.7029 175.5269,48.0859 L174.1699,48.6699 C173.7059,48.8589 173.1669,49.0329 172.6679,49.2119 C170.6649,49.7769 168.6899,50.1289 166.7409,50.4219 C164.7929,50.7179 162.8759,50.9439 161.0209,51.1489 C157.3109,51.5469 153.8469,51.8209 150.8759,52.0349 C150.1319,52.0599 149.4269,52.2069 148.7449,52.1769 C148.0629,52.1419 147.4159,52.1089 146.8089,52.0779 C145.5939,52.0199 144.5349,51.9399 143.6629,51.8729 C141.9189,51.7349 140.9229,51.6199 140.9229,51.6199" id="Fill-76" fill="#1A1918"></path>
                <path d="M29.4806,129.5875 C29.2586,128.2545 54.4596,134.9395 65.2076,134.1125 C73.6726,133.4615 88.9376,126.0935 94.3426,127.4445 C99.7476,128.7955 105.7146,133.4625 108.8676,132.5615 C112.0206,131.6605 115.6856,125.1755 120.6406,126.9775 C125.5956,128.7795 146.9326,130.6745 154.3706,129.2535 C161.2626,127.9375 185.6096,117.0835 190.5856,114.5525 C195.8206,111.8905 169.5976,131.5145 165.4266,134.3365 C160.1356,137.9155 144.5416,136.0755 138.2346,134.2735 C131.9286,132.4715 122.8306,133.0115 120.5786,134.3625 C118.3266,135.7145 112.4346,139.1155 109.2806,139.1155 C106.1276,139.1155 96.5966,133.4385 93.7896,133.9265 C87.4516,135.0285 79.3936,137.1595 65.9006,138.1645 C60.1316,138.5935 54.4236,136.3135 46.2966,135.4735 C37.0846,134.5205 29.7286,131.0765 29.4806,129.5875" id="Fill-78" fill="#000105"></path>
                <path d="M29.4806,129.5875 C29.2586,128.2545 54.4596,134.9395 65.2076,134.1125 C73.6726,133.4615 88.9376,126.0935 94.3426,127.4445 C99.7476,128.7955 105.7146,133.4625 108.8676,132.5615 C112.0206,131.6605 115.6856,125.1755 120.6406,126.9775 C125.5956,128.7795 146.9326,130.6745 154.3706,129.2535 C161.2626,127.9375 185.6096,117.0835 190.5856,114.5525 C195.8206,111.8905 169.5976,131.5145 165.4266,134.3365 C160.1356,137.9155 144.5416,136.0755 138.2346,134.2735 C131.9286,132.4715 122.8306,133.0115 120.5786,134.3625 C118.3266,135.7145 112.4346,139.1155 109.2806,139.1155 C106.1276,139.1155 96.5966,133.4385 93.7896,133.9265 C87.4516,135.0285 79.3936,137.1595 65.9006,138.1645 C60.1316,138.5935 54.4236,136.3135 46.2966,135.4735 C37.0846,134.5205 29.7286,131.0765 29.4806,129.5875 Z" id="Stroke-80" stroke="#1A1918" stroke-linecap="round"></path>
                <path d="M50.2721,34.9383 C50.6221,35.4653 50.8181,36.0453 50.8181,36.6553 C50.8181,39.0443 49.4801,41.0393 45.8181,41.0393 C42.1551,41.0393 37.5551,39.0443 37.5551,36.6553 C37.5551,35.8913 37.8621,35.1743 38.3951,34.5513 C34.1491,36.2753 31.2121,39.9203 31.2121,44.1523 C31.2121,50.0443 36.8921,54.8203 43.8981,54.8203 C50.9051,54.8203 56.5851,50.0443 56.5851,44.1523 C56.5851,40.2163 54.0431,36.7873 50.2721,34.9383" id="Fill-82" fill="#000105"></path>
                <path d="M50.2721,34.9383 C50.6221,35.4653 50.8181,36.0453 50.8181,36.6553 C50.8181,39.0443 49.4801,41.0393 45.8181,41.0393 C42.1551,41.0393 37.5551,39.0443 37.5551,36.6553 C37.5551,35.8913 37.8621,35.1743 38.3951,34.5513 C34.1491,36.2753 31.2121,39.9203 31.2121,44.1523 C31.2121,50.0443 36.8921,54.8203 43.8981,54.8203 C50.9051,54.8203 56.5851,50.0443 56.5851,44.1523 C56.5851,40.2163 54.0431,36.7873 50.2721,34.9383 Z" id="Stroke-84" stroke="#1A1918" stroke-linecap="round" stroke-linejoin="round"></path>
                <path d="M175.9165,23.9804 C176.2665,24.5074 176.4625,25.0874 176.4625,25.6974 C176.4625,28.0864 172.4725,30.0844 168.8105,30.0844 C165.1475,30.0844 163.1995,28.0864 163.1995,25.6974 C163.1995,24.9334 163.5065,24.2164 164.0395,23.5934 C159.7935,25.3174 156.8565,28.9624 156.8565,33.1944 C156.8565,39.0864 162.5365,43.8624 169.5425,43.8624 C176.5495,43.8624 182.2295,39.0864 182.2295,33.1944 C182.2295,29.2584 179.6875,25.8294 175.9165,23.9804" id="Fill-86" fill="#000105"></path>
                <path d="M175.9165,23.9804 C176.2665,24.5074 176.4625,25.0874 176.4625,25.6974 C176.4625,28.0864 172.4725,30.0844 168.8105,30.0844 C165.1475,30.0844 163.1995,28.0864 163.1995,25.6974 C163.1995,24.9334 163.5065,24.2164 164.0395,23.5934 C159.7935,25.3174 156.8565,28.9624 156.8565,33.1944 C156.8565,39.0864 162.5365,43.8624 169.5425,43.8624 C176.5495,43.8624 182.2295,39.0864 182.2295,33.1944 C182.2295,29.2584 179.6875,25.8294 175.9165,23.9804 Z" id="Stroke-88" stroke="#1A1918" stroke-linecap="round" stroke-linejoin="round"></path>
            </g>
        </g>
    </g>
</svg>