<?xml version="1.0" encoding="UTF-8"?>
<svg width="429px" height="489px" viewBox="0 0 429 489" version="1.1" xmlns="http://www.w3.org/2000/svg" xmlns:xlink="http://www.w3.org/1999/xlink">
    <!-- Generator: Sketch 44.1 (41455) - http://www.bohemiancoding.com/sketch -->
    <title>Lustlos</title>
    <desc>Created with Sketch.</desc>
    <defs></defs>
    <g id="Page-1" stroke="none" stroke-width="1" fill="none" fill-rule="evenodd">
        <g id="Lustlos">
            <g id="Group-37" transform="translate(0.000000, 0.890000)">
                <path d="M331.0689,436.0357 C307.4789,496.6857 176.5689,480.6957 143.2489,472.1657 C109.9289,463.6457 96.0789,464.1757 94.2689,447.8957 C94.2689,447.8957 92.1389,438.8157 96.6089,432.6457 C99.7889,428.2557 116.6889,420.9357 126.1389,417.0957 C127.1289,414.0157 127.5289,411.9257 127.5289,411.9257 C129.3989,400.2257 129.6189,376.1657 129.8889,361.5057 C136.5189,368.1257 143.0789,374.2357 148.1389,378.3657 C160.9289,388.8257 187.6389,411.1757 211.1589,407.2157 C228.4689,404.3057 243.8789,400.5357 259.0989,387.0757 C264.3589,382.9757 284.7989,364.6757 299.4289,343.0357 C298.6989,357.9657 298.3489,386.4657 306.5189,407.5357 C307.3189,409.6157 308.2089,411.6257 309.1989,413.5357 C316.9589,416.1057 335.6589,423.7057 331.0689,436.0357" id="Fill-1" fill="#D0C7B2"></path>
                <g id="Group-6" transform="translate(323.000000, 198.000000)">
                    <path d="M6.2403,12.5262 C6.2403,12.5262 17.1983,-2.2698 22.2693,0.4752 C27.3403,3.2192 28.8313,24.0022 25.2523,31.4522 C21.6733,38.9022 14.8123,47.1372 13.6193,58.5082 C12.4263,69.8802 14.5133,73.0622 10.0393,82.0812 C5.5653,91.0992 0.6873,89.6792 0.6873,89.6792" id="Fill-3" fill="#D0C7B2"></path>
                    <path d="M6.2403,12.5262 C6.2403,12.5262 17.1983,-2.2698 22.2693,0.4752 C27.3403,3.2192 28.8313,24.0022 25.2523,31.4522 C21.6733,38.9022 14.8123,47.1372 13.6193,58.5082 C12.4263,69.8802 14.5133,73.0622 10.0393,82.0812 C5.5653,91.0992 0.6873,89.6792 0.6873,89.6792" id="Stroke-5" stroke="#1A1918" stroke-width="2.293" stroke-linecap="round"></path>
                </g>
                <g id="Group-10" transform="translate(57.000000, 192.000000)">
                    <path d="M23.4004,18.4405 C23.4004,18.4405 15.5274,-6.4545 8.3164,1.8455 C1.1054,10.1465 -2.8136,24.5625 4.6524,40.1495 C9.2754,49.8015 5.8314,57.2325 10.1574,74.4715 C14.4844,91.7105 19.1054,99.0885 27.0324,92.8805" id="Fill-7" fill="#D0C7B2"></path>
                    <path d="M23.4004,18.4405 C23.4004,18.4405 15.5274,-6.4545 8.3164,1.8455 C1.1054,10.1465 -2.8136,24.5625 4.6524,40.1495 C9.2754,49.8015 5.8314,57.2325 10.1574,74.4715 C14.4844,91.7105 19.1054,99.0885 27.0324,92.8805" id="Stroke-9" stroke="#1A1918" stroke-width="2.305" stroke-linecap="round" stroke-linejoin="round"></path>
                </g>
                <path d="M299.2472,342.2868 C299.2922,347.7548 298.5802,418.8658 334.3802,433.3378" id="Stroke-11" stroke="#1A1918" stroke-width="2" stroke-linecap="round" stroke-linejoin="round"></path>
                <path d="M132.367,362.0549 C132.367,362.0549 133.813,395.8139 130.118,413.3219 C130.118,413.3219 125.247,438.9249 107.053,443.0419" id="Stroke-13" stroke="#1A1918" stroke-width="2" stroke-linecap="round" stroke-linejoin="round"></path>
                <path d="M314.0013,414.2491 C314.0013,414.2491 339.4193,421.9721 333.6543,437.4281 C310.0663,498.0821 179.1573,482.0851 145.8363,473.5611 C112.5163,465.0381 98.6653,465.5631 96.8573,449.2901 C96.8573,449.2901 94.7293,440.2041 99.1913,434.0421 C103.6533,427.8801 128.4743,416.2781 128.4743,416.2781" id="Stroke-15" stroke="#1A1918" stroke-width="2" stroke-linecap="round" stroke-linejoin="round"></path>
                <path d="M132.2236,399.8424 C132.2236,399.8424 129.8016,400.7004 125.5766,402.2964 C121.3516,403.8914 115.3316,406.2214 108.1626,409.1584 C93.8326,415.0394 74.8766,423.3334 56.6516,433.0724 C47.5446,437.9414 38.6186,443.1624 30.6216,448.6174 C22.6336,454.0714 15.5646,459.7734 10.3026,465.4534 C7.6776,468.2924 5.5256,471.1334 3.9346,473.8414 C2.3376,476.5464 1.3316,479.1234 0.8166,481.3194 C0.2556,483.5164 0.3066,485.3154 0.3076,486.5204 C0.4366,487.7264 0.5056,488.3684 0.5056,488.3684 C0.5056,488.3684 0.4246,487.7264 0.2746,486.5234 C0.2506,485.3164 0.1666,483.5104 0.6916,481.2914 C1.1686,479.0734 2.1346,476.4574 3.6946,473.7034 C5.2486,470.9454 7.3646,468.0444 9.9556,465.1384 C15.1486,459.3244 22.1536,453.4624 30.0796,447.8374 C38.0146,442.2124 46.8816,436.8084 55.9326,431.7554 C74.0476,421.6504 92.9096,412.9864 107.1816,406.8254 C114.3216,403.7474 120.3216,401.2994 124.5376,399.6194 C128.7536,397.9394 131.1936,397.0254 131.1936,397.0254 C131.9686,396.7324 132.8336,397.1234 133.1266,397.8994 C133.4186,398.6744 133.0276,399.5394 132.2526,399.8324 C132.2456,399.8344 132.2296,399.8404 132.2236,399.8424" id="Fill-17" fill="#1A1918"></path>
                <path d="M328.005,225.6489 C331.505,222.0979 335.004,218.5469 338.504,214.9959 C339.831,213.6499 341.557,212.1859 343.378,212.6929 C344.413,212.9809 345.221,213.9509 345.318,215.0209 C345.382,215.7329 345.106,216.5149 344.489,216.8749" id="Stroke-19" stroke="#1A1918" stroke-linecap="round" stroke-linejoin="round"></path>
                <path d="M328.0536,243.2016 C329.9006,242.6356 331.8546,244.1986 332.4316,246.0426 C333.0086,247.8866 332.5936,249.8776 332.1756,251.7636 C331.6066,254.3306 331.0376,256.8966 330.4686,259.4626" id="Stroke-21" stroke="#1A1918" stroke-linecap="round" stroke-linejoin="round"></path>
                <path d="M78.1512,217.5955 C75.1412,213.4735 72.1312,209.3515 69.1202,205.2305 C68.6812,204.6285 68.1962,203.9925 67.4882,203.7615 C65.6152,203.1505 64.3042,205.5925 63.8482,207.5095 C62.9962,211.0935 62.1432,214.6775 61.2912,218.2605" id="Stroke-23" stroke="#1A1918" stroke-linecap="round" stroke-linejoin="round"></path>
                <path d="M75.32,236.9081 C73.025,236.8321 70.975,238.5931 70.058,240.6991 C69.141,242.8041 69.145,245.1871 69.31,247.4771 C69.548,250.7731 70.089,254.0471 70.923,257.2451" id="Stroke-25" stroke="#1A1918" stroke-linecap="round" stroke-linejoin="round"></path>
                <path d="M213.75,408.61 C231.051,405.7 246.462,401.926 261.683,388.472 C268.163,383.411 294.315,353.822 307.596,325.947 C320.886,298.055 327.921,284.038 327.921,257.294 C327.921,247.303 325.972,229.152 328.51,214.268 C332.766,189.308 333.281,167.478 335.925,143.68 C338.116,123.964 336.876,99.976 327.774,75.044 C321.851,58.822 314.85,41.797 295.6,26.672 C267.958,4.953 211.726,-3.445 189.591,2.441 C168.292,8.105 136.133,14.239 108.362,34.178 C81.695,53.323 77.71,98.406 74.221,125.15 C70.733,151.895 82.726,192.999 80.4,210.441 C78.075,227.882 72.399,250.784 75.841,265.911 C79.197,280.653 93.67,316.673 106.663,334.255 C115.459,346.158 137.935,369.289 150.726,379.754 C163.517,390.219 190.227,412.566 213.75,408.61" id="Fill-27" fill="#D0C7B2"></path>
                <path d="M213.75,408.61 C231.051,405.7 246.462,401.926 261.683,388.472 C268.163,383.411 294.315,353.822 307.596,325.947 C320.886,298.055 327.921,284.038 327.921,257.294 C327.921,247.303 325.972,229.152 328.51,214.268 C332.766,189.308 333.281,167.478 335.925,143.68 C338.116,123.964 336.876,99.976 327.774,75.044 C321.851,58.822 314.85,41.797 295.6,26.672 C267.958,4.953 211.726,-3.445 189.591,2.441 C168.292,8.105 136.133,14.239 108.362,34.178 C81.695,53.323 77.71,98.406 74.221,125.15 C70.733,151.895 82.726,192.999 80.4,210.441 C78.075,227.882 72.399,250.784 75.841,265.911 C79.197,280.653 93.67,316.673 106.663,334.255 C115.459,346.158 137.935,369.289 150.726,379.754 C163.517,390.219 190.227,412.566 213.75,408.61 Z" id="Stroke-29" stroke="#1A1918" stroke-width="2"></path>
                <path d="M305.1033,387.4418 C305.1033,387.4418 305.4233,387.8738 306.0223,388.6828 C306.6333,389.4928 307.5433,390.6778 308.7373,392.1558 C309.9333,393.6318 311.4123,395.4038 313.1853,397.3608 C314.9613,399.3108 317.0223,401.4658 319.4483,403.5698 C320.6623,404.6158 321.9703,405.6498 323.3933,406.5568 C324.8063,407.4478 326.3803,408.2538 327.9453,408.4638 C329.6633,408.6418 331.6383,408.6138 333.5883,408.5928 C335.5543,408.5628 337.5713,408.4998 339.6233,408.4248 C347.8453,408.0748 356.6153,407.7008 365.3853,407.3278 C369.7753,407.1688 374.1693,407.0388 378.4993,407.0048 C382.8293,406.9828 387.0953,406.9978 391.2323,407.3998 C392.2663,407.5068 393.2923,407.6408 394.3073,407.8598 C394.8153,407.9758 395.3203,408.0988 395.8203,408.3008 C396.3473,408.5118 396.7623,408.7808 397.1923,409.0288 C398.9163,410.0728 400.4973,411.1838 402.0423,412.2778 C405.1183,414.4728 407.9693,416.6158 410.6093,418.5838 C415.8793,422.5288 420.2933,425.7848 423.4953,427.9018 C425.0963,428.9608 426.3933,429.7328 427.3113,430.1938 C428.2273,430.6628 428.7623,430.8048 428.7623,430.8048 C428.7623,430.8048 428.2253,430.6738 427.2963,430.2238 C426.3673,429.7808 425.0513,429.0358 423.4263,428.0088 C420.1753,425.9578 415.6873,422.7918 410.3343,418.9588 C407.6543,417.0488 404.7583,414.9658 401.6483,412.8448 C400.0933,411.7908 398.4773,410.7088 396.7913,409.7358 C396.3603,409.4978 395.9253,409.2368 395.5163,409.0888 C395.0843,408.9248 394.6063,408.8168 394.1283,408.7188 C393.1623,408.5328 392.1603,408.4218 391.1463,408.3388 C387.0793,408.0318 382.8283,408.1058 378.5213,408.2218 C374.2123,408.3488 369.8333,408.5728 365.4563,408.8258 C356.6953,409.3888 347.9343,409.9508 339.7203,410.4778 C337.6623,410.5978 335.6363,410.7058 333.6443,410.7788 C331.6373,410.8388 329.7283,410.9248 327.6873,410.7608 C325.4873,410.4968 323.7133,409.5648 322.1153,408.6218 C320.5233,407.6528 319.1133,406.5808 317.8113,405.5068 C315.2153,403.3498 313.0523,401.1768 311.1853,399.2138 C309.3243,397.2448 307.7763,395.4678 306.5233,393.9858 C305.2713,392.5018 304.3183,391.3128 303.6723,390.4938 C303.0303,389.6628 302.6873,389.2198 302.6873,389.2198 C302.1803,388.5648 302.3003,387.6228 302.9553,387.1158 C303.6113,386.6088 304.5533,386.7288 305.0603,387.3838 C305.0653,387.3908 305.0703,387.3968 305.0743,387.4028 L305.1033,387.4418 Z" id="Fill-31" fill="#1A1918"></path>
                <path d="M113.6097,221.4715 C113.6097,221.4715 126.1007,210.4795 131.5967,209.9795 C137.0927,209.4805 144.5867,208.9805 150.5827,209.9795 C156.5787,210.9795 170.0687,216.9745 171.0677,220.4725 C172.0667,223.9695 175.2187,223.9265 171.7597,226.5205 C168.3007,229.1145 156.1937,237.1135 154.6807,237.7625 C153.1677,238.4105 128.3057,234.9515 127.0087,233.6545 C125.7117,232.3575 113.6097,221.4715 113.6097,221.4715" id="Fill-33" fill="#FFFFFF"></path>
                <path d="M233.3726,215.4952 C233.3726,215.4952 264.2876,199.4972 267.7466,199.9302 C271.2056,200.3622 290.0136,208.5772 292.1756,210.7392 C294.3376,212.9012 292.3916,218.5222 288.9326,219.8192 C285.4736,221.1162 262.2256,230.1172 256.9506,229.3642 C251.6756,228.6102 234.4106,222.4752 233.3726,215.4952" id="Fill-35" fill="#FFFFFF"></path>
            </g>
            <g id="Group-86" transform="translate(94.000000, 172.890000)">
                <path d="M0.9065,29.4185 C0.9065,29.4185 22.3955,11.2355 27.9065,10.6845 C33.4165,10.1335 61.5175,12.8885 67.5785,15.6435 C73.6395,18.3985 85.2115,22.8065 85.2115,25.0105 C85.2115,27.2145 87.4155,32.7245 74.1905,28.8675 C60.9665,25.0105 35.0695,12.8885 30.6615,15.6435 C26.2525,18.3985 0.9065,39.8875 0.9065,29.4185" id="Fill-38" fill="#1A1918"></path>
                <path d="M0.9065,29.4185 C0.9065,29.4185 22.3955,11.2355 27.9065,10.6845 C33.4165,10.1335 61.5175,12.8885 67.5785,15.6435 C73.6395,18.3985 85.2115,22.8065 85.2115,25.0105 C85.2115,27.2145 87.4155,32.7245 74.1905,28.8675 C60.9665,25.0105 35.0695,12.8885 30.6615,15.6435 C26.2525,18.3985 0.9065,39.8875 0.9065,29.4185 Z" id="Stroke-40" stroke="#1A1918"></path>
                <path d="M129.843,20.6024 C129.843,20.6024 170.618,-0.3356 176.128,0.2154 C181.638,0.7664 190.454,-0.3356 194.311,2.9704 C198.168,6.2764 227.923,23.3574 220.76,25.0104 C213.597,26.6634 191.005,2.9704 186.597,5.7254 C182.189,8.4804 153.536,17.2964 150.23,19.5004 C146.924,21.7044 129.292,32.7244 129.843,20.6024" id="Fill-42" fill="#1A1918"></path>
                <path d="M129.843,20.6024 C129.843,20.6024 170.618,-0.3356 176.128,0.2154 C181.638,0.7664 190.454,-0.3356 194.311,2.9704 C198.168,6.2764 227.923,23.3574 220.76,25.0104 C213.597,26.6634 191.005,2.9704 186.597,5.7254 C182.189,8.4804 153.536,17.2964 150.23,19.5004 C146.924,21.7044 129.292,32.7244 129.843,20.6024 Z" id="Stroke-44" stroke="#1A1918"></path>
                <path d="M67.1261,171.5558 C67.1261,171.5558 88.0781,155.0398 95.7921,155.5908 C103.5071,156.1418 113.6901,161.4648 116.4321,161.0738 C119.1741,160.6818 126.7201,160.4178 133.2751,158.7228 C141.2081,156.6728 142.8401,149.2918 147.9321,150.0758 C153.0241,150.8588 172.0541,161.4648 172.4451,164.9908 C172.8371,168.5158 152.5251,155.0158 149.0001,156.5818 C145.4741,158.1488 136.7201,166.3228 132.4111,167.1058 C128.1021,167.8898 120.7251,170.9188 116.1131,167.7488 C112.6541,165.3708 98.2471,158.4918 95.1131,159.6668 C91.9801,160.8418 65.6081,175.3788 67.1261,171.5558" id="Fill-46" fill="#1A1918"></path>
                <path d="M67.1261,171.5558 C67.1261,171.5558 88.0781,155.0398 95.7921,155.5908 C103.5071,156.1418 113.6901,161.4648 116.4321,161.0738 C119.1741,160.6818 126.7201,160.4178 133.2751,158.7228 C141.2081,156.6728 142.8401,149.2918 147.9321,150.0758 C153.0241,150.8588 172.0541,161.4648 172.4451,164.9908 C172.8371,168.5158 152.5251,155.0158 149.0001,156.5818 C145.4741,158.1488 136.7201,166.3228 132.4111,167.1058 C128.1021,167.8898 120.7251,170.9188 116.1131,167.7488 C112.6541,165.3708 98.2471,158.4918 95.1131,159.6668 C91.9801,160.8418 65.6081,175.3788 67.1261,171.5558 Z" id="Stroke-48" stroke="#1A1918"></path>
                <path d="M101.043,182.0938 C101.043,182.0938 101.672,182.0208 102.763,181.9328 C103.855,181.8468 105.41,181.7318 107.267,181.6468 C108.196,181.6078 109.201,181.5348 110.261,181.5158 C111.322,181.4798 112.44,181.4128 113.593,181.3948 C114.746,181.3608 115.936,181.3248 117.146,181.2888 C118.353,181.2358 119.583,181.2438 120.805,181.1808 C122.03,181.1498 123.254,181.1168 124.455,181.0628 C125.056,181.0428 125.653,181.0238 126.243,181.0048 C126.83,180.9728 127.41,180.9408 127.981,180.9098 C130.27,180.8198 132.395,180.6538 134.214,180.4658 C135.133,180.3928 135.956,180.2668 136.694,180.1548 C137.434,180.0438 138.093,179.9748 138.607,179.8288 C139.657,179.5898 140.294,179.4768 140.294,179.4768 C140.294,179.4768 139.78,179.8228 138.816,180.3878 C138.34,180.6928 137.729,180.9728 137.011,181.2578 C136.652,181.4078 136.269,181.5668 135.866,181.7348 C135.461,181.9048 135.021,182.0038 134.568,182.1518 C133.659,182.4318 132.666,182.7458 131.601,182.9368 C130.539,183.1698 129.414,183.4148 128.244,183.5578 C127.074,183.7388 125.863,183.8828 124.63,183.9678 C123.398,184.0908 122.145,184.1308 120.893,184.1788 C115.88,184.3398 110.889,183.9268 107.182,183.3598 C105.326,183.0918 103.79,182.7728 102.719,182.5248 C101.648,182.2798 101.043,182.0938 101.043,182.0938" id="Fill-50" fill="#1A1918"></path>
                <path d="M82.6336,80.003 C82.6336,80.003 83.2136,78.337 84.0826,75.837 C84.9406,73.333 86.1626,70.027 87.3416,66.706 C87.9416,65.049 88.4526,63.358 89.0466,61.82 C89.6596,60.29 90.3186,58.897 90.9196,57.717 C92.1126,55.354 93.0976,53.843 93.0976,53.843 L93.2876,53.906 C93.2876,53.906 93.2536,54.358 93.1296,55.139 C93.0026,55.916 92.7656,57.009 92.4126,58.293 C92.0606,59.577 91.5906,61.053 90.9826,62.592 C90.3516,64.121 89.5486,65.699 88.8246,67.307 C87.3546,70.516 85.8986,73.727 84.7406,76.109 C83.5876,78.491 82.8186,80.08 82.8186,80.08 L82.6336,80.003 Z" id="Fill-52" fill="#1A1918"></path>
                <path d="M125.5517,57.748 C125.5517,57.748 126.2627,58.713 127.3277,60.16 C128.4127,61.592 129.8037,63.534 131.2747,65.404 C131.9997,66.348 132.8147,67.218 133.4877,68.09 C133.8127,68.536 134.1317,68.955 134.3967,69.388 C134.6767,69.805 134.9427,70.193 135.1697,70.575 C135.4137,70.934 135.6277,71.27 135.8177,71.579 C136.0137,71.865 136.1917,72.114 136.3327,72.339 C136.6337,72.717 136.8447,72.972 136.8447,72.972 L136.7657,73.155 C136.7657,73.155 136.6877,73.139 136.5417,73.107 C136.3987,73.07 136.1577,73.021 135.8927,72.905 C135.6437,72.782 135.3357,72.621 134.9977,72.413 C134.6897,72.191 134.3287,71.939 133.9707,71.634 C133.2647,71.024 132.5057,70.251 131.8207,69.34 C131.4937,68.875 131.1657,68.383 130.8737,67.863 C130.5707,67.35 130.2627,66.83 129.9547,66.309 C128.7227,64.235 127.5377,62.147 126.7237,60.537 C125.8887,58.94 125.3797,57.85 125.3797,57.85 L125.5517,57.748 Z" id="Fill-54" fill="#1A1918"></path>
                <path d="M10.6715,55.066 C10.6715,55.066 11.8145,53.911 13.9135,52.005 C14.9525,51.039 16.2375,49.893 17.7415,48.611 C19.2465,47.332 20.9585,45.902 22.8855,44.409 C24.8005,42.901 26.9295,41.331 29.2965,39.779 C29.8855,39.389 30.4865,38.993 31.1295,38.626 C31.4485,38.44 31.7685,38.252 32.0905,38.064 C32.4325,37.89 32.7775,37.715 33.1235,37.539 C33.4645,37.36 33.8155,37.184 34.2275,37.039 C34.6375,36.894 34.9915,36.723 35.4595,36.613 C35.8225,36.525 36.1865,36.437 36.5525,36.348 C36.9585,36.275 37.3655,36.201 37.7745,36.127 C40.9385,35.685 44.1055,35.584 47.3485,35.699 C50.5855,35.844 53.8525,36.057 57.1575,36.78 C57.9865,36.969 58.8225,37.199 59.6845,37.554 C59.8965,37.632 60.1395,37.791 60.3615,37.911 L60.6985,38.109 L60.9245,38.266 C61.2215,38.466 61.5205,38.647 61.8675,38.848 C63.2185,39.624 64.6495,40.357 66.0535,41.096 C68.8705,42.575 71.6585,44.042 74.2575,45.702 C75.5525,46.54 76.8115,47.406 77.9355,48.495 C78.4865,49.05 79.0375,49.646 79.3795,50.516 C79.4275,50.617 79.4565,50.739 79.4805,50.862 L79.5175,51.046 L79.5335,51.137 C79.5375,51.194 79.5365,51.075 79.5445,51.276 L79.5435,51.309 C79.5295,51.492 79.5485,51.626 79.4685,51.932 C79.4375,52.062 79.4025,52.203 79.3605,52.318 L79.2275,52.608 C79.1435,52.808 79.0365,52.972 78.9315,53.138 C78.0655,54.43 77.0185,55.331 76.0035,56.195 C74.9795,57.044 73.9555,57.801 72.9595,58.505 C68.9605,61.295 65.4665,63.321 63.0455,64.778 C61.8345,65.503 60.8835,66.073 60.2355,66.461 C59.6005,66.865 59.2625,67.08 59.2625,67.08 L59.0885,66.836 C59.0885,66.836 59.4205,66.602 60.0435,66.164 C60.6735,65.745 61.5985,65.131 62.7765,64.349 C65.1235,62.784 68.5205,60.595 72.3345,57.662 C73.2815,56.923 74.2515,56.134 75.1975,55.271 C76.1285,54.413 77.0945,53.458 77.7225,52.406 C77.7965,52.275 77.8755,52.144 77.9175,52.018 L77.9965,51.827 C78.0095,51.777 78.0095,51.745 78.0245,51.706 C78.0655,51.677 78.0565,51.452 78.0565,51.283 L78.0565,51.25 C78.0655,51.429 78.0555,51.289 78.0555,51.324 L78.0435,51.286 L78.0225,51.209 C78.0115,51.159 78.0035,51.107 77.9685,51.049 C77.7755,50.592 77.3355,50.089 76.8435,49.642 C75.8435,48.735 74.6125,47.938 73.3425,47.181 C70.7855,45.669 67.9845,44.316 65.1275,42.94 C63.6955,42.249 62.2495,41.573 60.7835,40.799 C60.4285,40.61 60.0305,40.389 59.6525,40.15 L59.3765,39.972 L59.1835,39.88 C59.0455,39.821 58.9545,39.742 58.7855,39.688 C58.1455,39.453 57.4175,39.271 56.6675,39.13 C53.6355,38.596 50.4255,38.481 47.3175,38.509 C44.2115,38.576 41.1095,38.738 38.2905,39.209 L37.2865,39.379 C36.9235,39.465 36.5615,39.55 36.2015,39.635 C35.9435,39.688 35.6265,39.845 35.3405,39.935 C35.0515,40.02 34.7445,40.163 34.4355,40.315 C34.1285,40.459 33.8225,40.603 33.5185,40.746 C33.2145,40.913 32.9115,41.078 32.6105,41.243 C32.0055,41.559 31.4085,41.899 30.8235,42.246 C28.4865,43.633 26.2935,45.038 24.2825,46.361 C16.2295,51.724 10.8605,55.299 10.8605,55.299 L10.6715,55.066 Z" id="Fill-56" fill="#1A1918"></path>
                <path d="M69.2062,34.2487 C69.2062,34.2487 69.4632,34.3767 69.8992,34.6197 C70.3292,34.8707 70.9602,35.2057 71.6882,35.6507 C73.1512,36.5287 75.0532,37.7687 76.9082,39.0737 C78.7602,40.3847 80.5662,41.7607 81.8832,42.8457 C82.5462,43.3817 83.0722,43.8647 83.4532,44.1867 C83.8282,44.5157 84.0342,44.7157 84.0342,44.7157 C84.0342,44.7157 83.7772,44.5887 83.3412,44.3457 C82.9112,44.0937 82.2792,43.7597 81.5522,43.3147 C80.0882,42.4377 78.1872,41.1967 76.3322,39.8907 C74.4802,38.5787 72.6752,37.2027 71.3582,36.1177 C70.6952,35.5807 70.1682,35.0987 69.7872,34.7777 C69.4122,34.4477 69.2062,34.2487 69.2062,34.2487" id="Fill-58" fill="#1A1918"></path>
                <path d="M12.8678,48.077 C12.8678,48.077 16.4828,45.037 22.3648,41.173 C23.8318,40.201 25.4408,39.179 27.1708,38.139 C28.8928,37.083 30.7498,36.038 32.7188,35.018 C34.7188,34.025 36.7398,33.032 39.1678,32.3 C39.4648,32.206 39.8268,32.134 40.1788,32.067 C40.3938,32.041 40.6248,32.026 40.8458,32.016 L41.3038,32.037 C41.8698,32.06 42.4988,32.108 43.0878,32.149 C44.2638,32.244 45.4368,32.351 46.6078,32.478 C51.2898,32.97 55.9488,33.605 60.2868,34.573 C62.4518,35.094 64.5478,35.577 66.4848,36.677 C68.1908,37.778 69.7488,38.878 71.1828,39.887 C76.9118,43.942 80.6308,46.773 80.6308,46.773 L80.4598,47.019 C80.4598,47.019 79.4748,46.391 77.7518,45.291 C76.0238,44.202 73.5558,42.645 70.5938,40.778 C69.1018,39.86 67.4928,38.867 65.7608,37.896 C64.1388,37.107 62.0468,36.657 59.9428,36.278 C55.6888,35.54 51.0468,35.132 46.4208,34.871 C45.2628,34.81 44.1068,34.769 42.9588,34.741 C42.3858,34.735 41.8548,34.717 41.2638,34.731 L40.8548,34.739 C40.7888,34.759 40.7318,34.767 40.6598,34.777 C40.4508,34.84 40.2488,34.887 40.0018,34.984 C38.0688,35.719 36.0508,36.815 34.1498,37.796 C32.2208,38.794 30.3558,39.758 28.5878,40.672 C26.8078,41.586 25.1248,42.45 23.5708,43.248 C20.4498,44.83 17.8288,46.127 15.9668,46.992 C14.1098,47.867 13.0258,48.332 13.0258,48.332 L12.8678,48.077 Z" id="Fill-60" fill="#1A1918"></path>
                <path d="M199.5197,40.0407 C199.5197,40.0407 198.2457,39.3467 196.0157,38.1317 C194.8967,37.5427 193.5377,36.8267 191.9787,36.0067 C190.4227,35.1907 188.6527,34.3047 186.7167,33.3827 C184.7767,32.4707 182.6577,31.5267 180.3997,30.7227 C179.2677,30.3297 178.1017,29.9727 176.9317,29.7317 C175.7747,29.5007 174.5567,29.3617 173.6687,29.5937 C171.2817,30.2607 168.6157,31.3107 165.9607,32.2587 C163.2967,33.2387 160.6127,34.3107 157.9307,35.3887 C152.5857,37.5777 147.2437,39.8347 142.3857,42.1657 C141.7797,42.4587 141.1857,42.7557 140.6167,43.0637 L140.4007,43.1777 L140.2927,43.2347 C140.3287,43.2097 140.1757,43.3107 140.3657,43.1817 L140.3407,43.2007 L140.2907,43.2377 L140.0917,43.3877 C140.0377,43.4317 139.9227,43.5017 139.9617,43.5107 C139.9827,43.5367 139.8807,43.6327 139.8927,43.8277 C139.8767,44.1957 140.0977,44.7487 140.3987,45.2347 C140.6817,45.7357 141.0497,46.2197 141.4207,46.6857 C142.9537,48.5417 144.7057,50.1187 146.3287,51.5337 C149.6097,54.3477 152.5267,56.5007 154.5707,57.9927 C156.6207,59.4797 157.8197,60.2897 157.8197,60.2897 L157.6577,60.5427 C157.6577,60.5427 156.4147,59.7927 154.2837,58.4097 C152.1577,57.0197 149.1277,55.0187 145.6627,52.3467 C143.9427,50.9927 142.0917,49.5037 140.3467,47.6037 C139.9177,47.1177 139.4857,46.6177 139.1117,46.0217 C138.7447,45.4357 138.3547,44.7817 138.3087,43.8327 C138.2897,43.3747 138.4197,42.8217 138.8497,42.3297 C138.9627,42.1827 139.0047,42.1757 139.0737,42.1127 L139.2667,41.9557 L139.3147,41.9167 L139.3387,41.8967 C139.5447,41.7547 139.4117,41.8477 139.4647,41.8117 L139.5757,41.7477 L139.7967,41.6197 C140.3877,41.2697 140.9877,40.9407 141.5927,40.6187 C146.4387,38.0577 151.6907,35.5957 156.9827,33.1847 C159.6257,31.9747 162.2837,30.7977 164.9137,29.6507 C167.5647,28.5137 170.1057,27.4297 172.9287,26.5577 C174.7027,26.1637 176.2107,26.4167 177.5917,26.7327 C178.9757,27.0597 180.2457,27.5067 181.4357,28.0117 C183.8247,29.0017 185.9407,30.1397 187.8407,31.2617 C189.7457,32.3747 191.4217,33.4927 192.8867,34.5057 C194.3487,35.5237 195.5907,36.4527 196.5927,37.2477 C198.6117,38.8097 199.6927,39.7957 199.6927,39.7957 L199.5197,40.0407 Z" id="Fill-62" fill="#1A1918"></path>
                <path d="M143.7173,35.4222 C143.7173,35.4222 147.0833,33.0112 152.5743,30.2232 C153.2633,29.8792 153.9813,29.5222 154.7253,29.1522 C155.4803,28.8052 156.2603,28.4472 157.0633,28.0782 C158.6743,27.3482 160.4053,26.6472 162.2363,26.0022 C164.0693,25.3672 166.0093,24.8082 168.0433,24.3762 C168.5453,24.2572 169.0813,24.1892 169.5993,24.0942 C170.1123,23.9912 170.6583,23.9312 171.2133,23.8922 L172.0383,23.8212 L172.1743,23.8182 L172.1973,23.8202 L172.2453,23.8242 L172.3403,23.8312 L172.5303,23.8452 L172.9113,23.8732 C173.4153,23.9072 173.9183,23.9342 174.4963,24.0712 C175.0483,24.1812 175.6203,24.2812 176.1493,24.4112 L177.6623,24.8482 C178.6763,25.1232 179.6233,25.5112 180.5953,25.8342 C181.5413,26.2042 182.4793,26.5702 183.4063,26.9332 C184.3173,27.3232 185.2183,27.7092 186.1033,28.0882 C187.8553,28.8812 189.5453,29.6492 191.1193,30.4342 C192.6933,31.2172 194.1753,31.9672 195.5323,32.6812 C200.9693,35.5112 204.4743,37.6052 204.4743,37.6052 L204.3333,37.8702 C204.3333,37.8702 200.6623,36.0942 195.0713,33.6442 C193.6733,33.0312 192.1503,32.3912 190.5363,31.7262 C188.9193,31.0672 187.2163,30.3752 185.4423,29.6972 C184.5523,29.3722 183.6473,29.0422 182.7303,28.7082 C181.8073,28.4052 180.8743,28.0982 179.9323,27.7892 C178.9843,27.5322 178.0353,27.2022 177.0753,27.0012 L175.6373,26.6692 C175.1723,26.5832 174.7343,26.5362 174.2853,26.4612 C173.8653,26.3692 173.3483,26.3702 172.8343,26.3702 L172.1833,26.3632 L171.4953,26.4712 C170.5923,26.5712 169.6373,26.8632 168.7193,27.1042 C166.8643,27.6632 165.0413,28.3102 163.2743,28.9502 C159.7073,30.2222 156.3783,31.4092 153.5253,32.4262 C152.0853,32.9332 150.7663,33.3982 149.5963,33.8102 C148.4163,34.2082 147.3883,34.5552 146.5413,34.8412 C144.8393,35.4022 143.8483,35.6922 143.8483,35.6922 L143.7173,35.4222 Z" id="Fill-64" fill="#1A1918"></path>
                <path d="M174.7475,53.438 C174.7475,53.438 175.0895,53.303 175.6885,53.066 C175.9885,52.953 176.3525,52.816 176.7705,52.659 C176.9795,52.582 177.2015,52.5 177.4355,52.414 C177.6695,52.329 177.9335,52.325 178.1955,52.256 C180.3135,51.819 183.1315,51.198 185.9145,50.46 C188.6955,49.726 191.4495,48.868 193.3875,48.004 C193.8535,47.749 194.3175,47.61 194.7315,47.475 C195.1355,47.327 195.4795,47.176 195.7515,47.028 C196.0105,46.871 196.2385,46.752 196.3545,46.633 C196.4845,46.52 196.5535,46.46 196.5535,46.46 C196.5535,46.46 196.5115,46.542 196.4335,46.697 C196.3605,46.861 196.2045,47.07 195.9835,47.32 C195.7585,47.564 195.4615,47.838 195.1015,48.128 C194.9185,48.265 194.7255,48.422 194.5145,48.569 C194.3055,48.719 194.0425,48.794 193.7945,48.917 C191.7665,49.82 188.9795,50.684 186.1705,51.427 C183.3615,52.172 180.5275,52.796 178.3975,53.236 C178.1285,53.277 177.8825,53.377 177.6325,53.39 C177.3815,53.4 177.1435,53.41 176.9205,53.419 C176.4745,53.44 176.0835,53.444 175.7615,53.447 C175.1175,53.453 174.7475,53.438 174.7475,53.438" id="Fill-66" fill="#1A1918"></path>
                <path d="M132.4802,45.5537 C132.4802,45.5537 135.9122,48.8917 139.2772,52.2927 C140.1282,53.1337 140.9892,53.9657 141.7672,54.7717 C142.5252,55.5977 143.2152,56.3847 143.7752,57.0897 C144.3292,57.7987 144.7952,58.3867 145.0932,58.8237 C145.4012,59.2517 145.5642,59.5097 145.5642,59.5097 L145.4912,59.5777 C145.4912,59.5777 145.2442,59.3997 144.8372,59.0647 C144.4202,58.7377 143.8632,58.2357 143.1912,57.6367 C142.5242,57.0327 141.7832,56.2937 141.0082,55.4837 C140.2532,54.6547 139.4782,53.7427 138.6942,52.8397 C135.5172,49.2617 132.4072,45.6217 132.4072,45.6217 L132.4802,45.5537 Z" id="Fill-68" fill="#1A1918"></path>
                <path d="M93.8507,98.685 C93.8507,98.685 92.1397,100.093 89.2597,102.671 C87.8167,103.956 86.0957,105.551 84.1777,107.424 C82.2817,109.307 80.1567,111.489 78.2457,114.079 C77.7757,114.728 77.3367,115.411 76.9707,116.117 C76.6137,116.813 76.3257,117.583 76.3397,118.18 C76.3717,118.777 76.5627,118.983 77.2527,119.307 C77.6747,119.492 78.0997,119.678 78.5277,119.865 C78.9457,120.026 79.3667,120.188 79.7907,120.351 C83.2797,121.628 87.1457,122.624 91.1337,123.729 C93.1327,124.275 95.1747,124.825 97.2457,125.448 C98.2817,125.759 99.3247,126.092 100.3787,126.471 C100.9047,126.654 101.4387,126.881 101.9687,127.099 L102.7757,127.491 L103.5067,127.862 C105.3527,128.817 107.3247,129.628 109.3367,130.238 C111.3397,130.849 113.4297,131.28 115.3887,131.265 C115.8717,131.25 116.3487,131.222 116.7907,131.143 C117.2457,131.061 117.6017,130.967 118.1037,130.766 C118.9947,130.409 120.0017,129.907 120.9577,129.426 C122.9097,128.412 124.8537,127.402 126.7827,126.4 C128.7337,125.398 130.6907,124.422 132.7417,123.597 C133.7697,123.186 134.8157,122.805 135.9577,122.527 C136.5417,122.401 137.1407,122.285 137.8647,122.298 C138.2847,122.313 138.4827,122.351 138.7367,122.373 L139.4557,122.429 C141.4117,122.544 143.3797,122.43 145.1797,122.064 C146.9597,121.704 148.6527,120.956 149.3077,119.779 C149.4697,119.486 149.5897,119.175 149.6367,118.831 C149.6557,118.665 149.6787,118.471 149.6727,118.317 L149.6647,117.969 L149.6347,117.7 C149.5547,116.944 149.3187,116.1 149.0427,115.317 C148.4757,113.729 147.6917,112.238 146.8467,110.868 C145.1277,108.134 143.1787,105.838 141.2867,103.979 C139.3827,102.125 137.5487,100.683 135.9647,99.598 C134.3707,98.531 133.0537,97.772 132.1277,97.31 C131.2057,96.84 130.6997,96.614 130.6997,96.614 C130.6997,96.614 131.2247,96.787 132.1947,97.161 C133.1657,97.534 134.5777,98.132 136.2807,99.088 C137.9787,100.048 139.9827,101.348 142.0647,103.126 C144.1497,104.895 146.3337,107.122 148.2917,109.914 C149.2647,111.313 150.1907,112.846 150.9267,114.591 C151.2917,115.474 151.5927,116.382 151.7577,117.456 L151.8127,117.876 L151.8357,118.223 C151.8557,118.533 151.8357,118.807 151.8117,119.105 C151.7537,119.694 151.5687,120.293 151.2907,120.839 C150.7287,121.954 149.7687,122.742 148.8027,123.303 C147.8197,123.857 146.7857,124.218 145.7417,124.483 C143.6487,125 141.5107,125.139 139.3287,125.076 L138.4937,125.03 C138.2297,125.011 137.9097,124.978 137.8067,124.985 C137.4857,124.986 137.0457,125.064 136.6057,125.174 C135.7067,125.416 134.7607,125.779 133.8197,126.184 C131.9347,127.008 130.0317,127.978 128.1177,128.974 C126.1927,129.994 124.2517,131.022 122.3037,132.054 C121.2957,132.567 120.3347,133.069 119.1787,133.544 C118.6607,133.763 117.9477,133.979 117.3167,134.089 C116.6707,134.209 116.0417,134.25 115.4207,134.259 C112.9497,134.251 110.6637,133.728 108.4687,133.048 C106.2717,132.362 104.1747,131.48 102.1637,130.42 L101.8037,130.229 L101.4447,130.047 L100.7907,129.723 C100.3187,129.531 99.8627,129.318 99.3747,129.135 C98.4077,128.761 97.4147,128.417 96.4147,128.09 C94.4157,127.436 92.4007,126.84 90.4147,126.246 C86.4357,125.07 82.5847,123.863 78.9827,122.397 C78.5267,122.2 78.0757,122.005 77.6267,121.81 C77.2047,121.605 76.7847,121.402 76.3687,121.199 C75.8997,120.978 75.2927,120.602 74.9047,120.027 C74.4917,119.455 74.3467,118.733 74.3827,118.142 C74.4577,116.938 74.9257,116.056 75.3767,115.244 C75.8497,114.442 76.3707,113.726 76.9087,113.059 C79.0707,110.406 81.3767,108.381 83.4217,106.601 C85.4747,104.831 87.3457,103.395 88.8917,102.223 C90.4357,101.05 91.6907,100.184 92.5387,99.586 C93.3947,98.998 93.8507,98.685 93.8507,98.685" id="Fill-70" fill="#1A1918"></path>
                <path d="M149.0164,104.4642 C149.0164,104.4642 149.4644,104.5802 150.2054,104.8852 C150.9514,105.1812 151.9864,105.6662 153.1684,106.3582 C153.7464,106.7202 154.3994,107.0852 155.0294,107.5532 C155.6704,108.0062 156.3384,108.5002 156.9864,109.0642 C157.6574,109.6022 158.2964,110.2242 158.9374,110.8642 C159.5924,111.4922 160.1654,112.2242 160.7774,112.9152 C161.3274,113.6632 161.8974,114.3972 162.3814,115.1762 C162.6194,115.5692 162.8474,115.9642 163.0674,116.3572 C163.2924,116.7462 163.5124,117.1302 163.6744,117.5442 C164.0084,118.3602 164.4044,119.1042 164.5944,119.8992 C164.8034,120.6812 165.0454,121.3962 165.1284,122.0982 C165.2314,122.7942 165.2904,123.4332 165.3384,123.9912 C165.3784,124.5522 165.3024,125.0562 165.2854,125.4562 C165.2244,126.2612 165.1534,126.7062 165.1534,126.7062 C165.1534,126.7062 164.9624,126.2712 164.6934,125.5362 C164.5504,125.1692 164.4194,124.7232 164.2154,124.2312 C163.9834,123.7442 163.7264,123.2032 163.4834,122.6122 C163.2394,122.0222 162.8324,121.4332 162.5164,120.7832 C162.2174,120.1252 161.7244,119.5072 161.3404,118.8222 C160.9504,118.1382 160.4104,117.5022 159.9684,116.8032 C159.4764,116.1322 158.9494,115.4652 158.4374,114.7902 C157.8814,114.1432 157.3674,113.4652 156.8034,112.8362 C156.2414,112.2082 155.7104,111.5662 155.1514,110.9792 C154.6134,110.3732 154.0734,109.8022 153.5594,109.2562 C153.0444,108.7062 152.5574,108.1862 152.1074,107.7062 C151.6384,107.2452 151.2294,106.7872 150.8514,106.3982 C150.4734,106.0042 150.1444,105.6602 149.8734,105.3772 C149.3284,104.7962 149.0164,104.4642 149.0164,104.4642" id="Fill-72" fill="#1A1918"></path>
                <path d="M86.6563,104.6141 C86.6563,104.6141 85.9863,104.8111 84.8253,105.1081 C83.6793,105.3971 82.0423,105.8091 80.0783,106.3041 C79.1143,106.5601 78.0793,106.8401 77.0253,107.1691 C75.9923,107.5221 74.8883,107.8981 74.0323,108.3971 C73.6003,108.6261 73.2893,108.9211 73.1823,109.0561 L72.6593,109.9161 L72.0803,110.7991 C71.3303,111.9151 70.5673,113.0491 69.8053,114.1831 C68.3093,116.4461 66.8423,118.7161 65.5383,120.8851 C64.8773,121.9651 64.2893,123.0331 63.7083,124.0361 C63.1493,125.0491 62.6283,126.0111 62.1943,126.9201 C61.7463,127.8221 61.3883,128.6731 61.0953,129.4321 C60.8143,130.1961 60.5833,130.8681 60.4643,131.4361 C60.2903,132.0011 60.2763,132.4511 60.2443,132.7611 C60.2133,133.0721 60.1973,133.2371 60.1973,133.2371 L59.8983,133.2591 C59.8983,133.2591 59.8933,133.0851 59.8833,132.7601 C59.8763,132.4331 59.8353,131.9441 59.9413,131.3461 C59.9853,131.0471 60.0063,130.7041 60.0833,130.3471 C60.1683,129.9921 60.2593,129.6081 60.3573,129.1981 C60.5753,128.3851 60.8513,127.4731 61.2093,126.5061 C61.5543,125.5301 61.9793,124.4981 62.4373,123.4081 C62.9103,122.3271 63.4413,121.2021 64.0123,120.0521 C65.1493,117.7491 66.4393,115.3351 67.7503,112.9441 C68.3923,111.7441 69.0583,110.5511 69.6553,109.3791 L70.0793,108.5361 L70.5023,107.6591 C71.0353,106.6371 71.7933,106.1161 72.4493,105.7031 C73.8093,104.9331 75.0923,104.5971 76.3093,104.3571 C77.5213,104.1171 78.6593,103.9931 79.7083,103.9321 C83.8963,103.6881 86.6453,104.3141 86.6453,104.3141 L86.6563,104.6141 Z" id="Fill-74" fill="#1A1918"></path>
                <path d="M20.9659,49.6434 C20.9659,49.6434 21.2439,49.8234 21.7309,50.1394 C21.9689,50.3014 22.2579,50.4994 22.5899,50.7254 C22.7539,50.8404 22.9289,50.9624 23.1129,51.0904 C23.2959,51.2204 23.4259,51.4194 23.6089,51.5794 C24.9879,52.9464 26.8369,54.7584 28.7159,56.5354 C30.5939,58.3124 32.5049,60.0564 33.9889,61.2784 C34.3829,61.5574 34.6759,61.8854 34.9359,62.1864 C35.1969,62.4904 35.4419,62.7164 35.6469,62.9124 C36.0429,63.3134 36.3469,63.4494 36.3439,63.4694 C36.3439,63.4694 36.2639,63.4544 36.1129,63.4264 C35.9609,63.3974 35.7089,63.3604 35.4519,63.2304 C35.1819,63.1174 34.8419,62.9794 34.4869,62.7874 C34.3049,62.6944 34.1109,62.5954 33.9069,62.4904 C33.6969,62.3904 33.5549,62.1944 33.3539,62.0504 C31.8359,60.8014 29.9159,59.0474 28.0289,57.2614 C26.1419,55.4764 24.2869,53.6604 22.9049,52.2904 C22.7419,52.1094 22.5419,51.9794 22.4109,51.7964 C22.2809,51.6124 22.1579,51.4374 22.0429,51.2734 C21.8159,50.9414 21.6189,50.6514 21.4559,50.4134 C21.1369,49.9294 20.9659,49.6434 20.9659,49.6434" id="Fill-76" fill="#1A1918"></path>
                <path d="M168.4001,41.1204 C166.5031,41.1204 161.7461,40.8754 161.7461,39.0894 C161.7461,37.3034 162.6431,34.6984 164.5401,34.6984 C166.4381,34.6984 171.0301,33.0884 171.0301,34.8734 C171.0301,36.6594 170.2971,41.1204 168.4001,41.1204 M169.2191,30.0774 C165.8261,30.0774 152.2431,37.1184 152.2431,37.1184 C150.7001,40.6754 151.7931,43.6944 157.7551,47.2054 C161.5431,49.4354 167.3591,51.5024 171.9911,49.7324 C184.9391,44.7884 180.5631,39.1414 180.3641,35.3694 C180.1621,31.5304 172.6121,30.0774 169.2191,30.0774" id="Fill-78" fill="#000105"></path>
                <path d="M168.4001,41.1204 C166.5031,41.1204 161.7461,40.8754 161.7461,39.0894 C161.7461,37.3034 162.6431,34.6984 164.5401,34.6984 C166.4381,34.6984 171.0301,33.0884 171.0301,34.8734 C171.0301,36.6594 170.2971,41.1204 168.4001,41.1204 Z M169.2191,30.0774 C165.8261,30.0774 152.2431,37.1184 152.2431,37.1184 C150.7001,40.6754 151.7931,43.6944 157.7551,47.2054 C161.5431,49.4354 167.3591,51.5024 171.9911,49.7324 C184.9391,44.7884 180.5631,39.1414 180.3641,35.3694 C180.1621,31.5304 172.6121,30.0774 169.2191,30.0774 Z" id="Stroke-80" stroke="#1A1918" stroke-width="1.048" stroke-linecap="round" stroke-linejoin="round"></path>
                <path d="M43.4586,47.3761 C41.5576,47.3761 36.2056,46.7151 36.2056,44.9251 C36.2056,43.1361 37.7066,39.9961 39.6076,39.9961 C41.5096,39.9961 45.4986,40.3351 45.4986,42.1251 C45.4986,43.9141 45.3596,47.3761 43.4586,47.3761 M47.7786,38.7571 C44.3786,38.7571 33.7096,37.1021 28.7436,41.7121 C26.7336,44.3131 29.6946,52.0961 33.4726,54.3631 C37.2506,56.6301 46.8916,58.4991 51.2876,56.1831 C58.7766,52.2371 58.8126,47.8591 58.7066,44.2221 C58.5366,38.4021 51.1786,38.7571 47.7786,38.7571" id="Fill-82" fill="#000105"></path>
                <path d="M43.4586,47.3761 C41.5576,47.3761 36.2056,46.7151 36.2056,44.9251 C36.2056,43.1361 37.7066,39.9961 39.6076,39.9961 C41.5096,39.9961 45.4986,40.3351 45.4986,42.1251 C45.4986,43.9141 45.3596,47.3761 43.4586,47.3761 Z M47.7786,38.7571 C44.3786,38.7571 33.7096,37.1021 28.7436,41.7121 C26.7336,44.3131 29.6946,52.0961 33.4726,54.3631 C37.2506,56.6301 46.8916,58.4991 51.2876,56.1831 C58.7766,52.2371 58.8126,47.8591 58.7066,44.2221 C58.5366,38.4021 51.1786,38.7571 47.7786,38.7571 Z" id="Stroke-84" stroke="#1A1918" stroke-width="1.05" stroke-linecap="round" stroke-linejoin="round"></path>
            </g>
        </g>
    </g>
</svg>