<?xml version="1.0" encoding="UTF-8"?>
<svg width="383px" height="441px" viewBox="0 0 383 441" version="1.1" xmlns="http://www.w3.org/2000/svg" xmlns:xlink="http://www.w3.org/1999/xlink">
    <!-- Generator: Sketch 44.1 (41455) - http://www.bohemiancoding.com/sketch -->
    <title>Energielos</title>
    <desc>Created with Sketch.</desc>
    <defs></defs>
    <g id="Page-1" stroke="none" stroke-width="1" fill="none" fill-rule="evenodd">
        <g id="Energielos">
            <g id="Group-37" transform="translate(0.000000, 0.890000)">
                <path d="M303.7179,398.8798 C282.2199,454.1508 162.9199,439.5788 132.5549,431.8058 C102.1899,424.0408 89.5679,424.5238 87.9179,409.6878 C87.9179,409.6878 85.9769,401.4128 90.0509,395.7908 C92.9489,391.7898 108.3499,385.1188 116.9619,381.6198 C117.8639,378.8128 118.2289,376.9078 118.2289,376.9078 C119.9329,366.2458 120.1329,344.3198 120.3789,330.9598 C126.4219,336.9928 132.3999,342.5608 137.0109,346.3238 C148.6669,355.8568 173.0079,376.2248 194.4419,372.6158 C210.2169,369.9638 224.2599,366.5278 238.1309,354.2618 C242.9239,350.5258 261.5509,333.8488 274.8839,314.1278 C274.2189,327.7338 273.8999,353.7058 281.3449,372.9068 C282.0739,374.8028 282.8849,376.6348 283.7879,378.3748 C290.8589,380.7168 307.9009,387.6438 303.7179,398.8798" id="Fill-1" fill="#D0C7B2"></path>
                <g id="Group-6" transform="translate(300.000000, 180.000000)">
                    <path d="M8.0589,14.5555 C8.0589,14.5555 17.5159,-2.0235 22.1369,0.4775 C26.7579,2.9785 32.8519,21.6155 29.5899,28.4045 C26.3289,35.1945 20.0759,42.6985 18.9889,53.0615 C17.9019,63.4245 17.7609,66.1195 13.6839,74.3385 C9.6059,82.5575 0.2339,83.0275 0.2339,83.0275" id="Fill-3" fill="#D0C7B2"></path>
                    <path d="M8.0589,14.5555 C8.0589,14.5555 17.5159,-2.0235 22.1369,0.4775 C26.7579,2.9785 32.8519,21.6155 29.5899,28.4045 C26.3289,35.1945 20.0759,42.6985 18.9889,53.0615 C17.9019,63.4245 17.7609,66.1195 13.6839,74.3385 C9.6059,82.5575 0.2339,83.0275 0.2339,83.0275" id="Stroke-5" stroke="#1A1918" stroke-width="2.293" stroke-linecap="round"></path>
                </g>
                <g id="Group-10" transform="translate(52.000000, 174.000000)">
                    <path d="M21.1569,17.593 C21.1569,17.593 13.9819,-5.094 7.4109,2.47 C0.8389,10.034 -2.7321,23.172 4.0709,37.376 C8.2849,46.173 5.1459,52.945 9.0889,68.655 C13.0309,84.366 15.8199,91.552 23.0439,85.894" id="Fill-7" fill="#D0C7B2"></path>
                    <path d="M21.1569,17.593 C21.1569,17.593 13.9819,-5.094 7.4109,2.47 C0.8389,10.034 -2.7321,23.172 4.0709,37.376 C8.2849,46.173 5.1459,52.945 9.0889,68.655 C13.0309,84.366 15.8199,91.552 23.0439,85.894" id="Stroke-9" stroke="#1A1918" stroke-width="2.305" stroke-linecap="round" stroke-linejoin="round"></path>
                </g>
                <path d="M274.0497,316.9501 C274.0907,321.9331 271.9877,381.5341 304.6127,394.7231" id="Stroke-11" stroke="#1A1918" stroke-width="2" stroke-linecap="round" stroke-linejoin="round"></path>
                <path d="M120.5148,329.7616 C120.5148,329.7616 121.8318,360.5266 118.4658,376.4816 C118.4658,376.4816 114.0258,399.8146 97.4458,403.5666" id="Stroke-13" stroke="#1A1918" stroke-width="2" stroke-linecap="round" stroke-linejoin="round"></path>
                <path d="M286.041,377.327 C286.041,377.327 309.205,384.365 303.951,398.45 C282.455,453.726 163.155,439.147 132.79,431.379 C102.424,423.611 89.802,424.09 88.154,409.26 C88.154,409.26 86.215,400.98 90.281,395.364 C94.348,389.749 116.967,379.176 116.967,379.176" id="Stroke-15" stroke="#1A1918" stroke-width="2" stroke-linecap="round" stroke-linejoin="round"></path>
                <path d="M274.818,337.7534 C274.818,337.7534 274.836,337.7244 274.87,337.6674 C274.954,337.5284 275.18,337.2914 275.506,337.2134 C275.928,337.1474 275.836,337.1984 275.893,337.1884 C276.078,337.2084 276.168,337.2354 276.325,337.2724 C276.615,337.3474 276.99,337.4614 277.473,337.6214 C278.436,337.9394 279.815,338.4304 281.555,339.0884 C285.035,340.4034 289.956,342.3784 295.788,344.9164 C307.446,349.9894 322.77,357.3214 337.303,366.0704 C344.565,370.4414 351.624,375.1674 357.867,380.0924 C364.112,385.0074 369.529,390.1474 373.509,395.1174 C375.502,397.5964 377.134,400.0254 378.386,402.2854 C379.64,404.5454 380.503,406.6374 381.072,408.4014 C381.641,410.1664 381.911,411.6024 382.061,412.5814 C382.138,413.0714 382.179,413.4494 382.203,413.7044 C382.23,413.9594 382.244,414.0914 382.244,414.0914 C382.244,414.0914 382.228,413.9594 382.198,413.7054 C382.169,413.4504 382.123,413.0734 382.039,412.5854 C381.875,411.6094 381.584,410.1794 380.99,408.4274 C380.397,406.6784 379.507,404.6074 378.225,402.3764 C376.946,400.1444 375.286,397.7524 373.267,395.3144 C369.233,390.4294 363.768,385.3934 357.479,380.5924 C351.191,375.7814 344.092,371.1784 336.794,366.9304 C322.188,358.4294 306.808,351.3474 295.127,346.4684 C289.283,344.0284 284.357,342.1344 280.892,340.8834 C279.16,340.2584 277.792,339.7934 276.867,339.5034 C276.407,339.3584 276.052,339.2574 275.845,339.2084 C275.753,339.1844 275.653,339.1694 275.708,339.1784 C275.733,339.1634 275.612,339.2094 276.01,339.1474 C276.311,339.0714 276.517,338.8354 276.585,338.6974 C276.636,338.5954 276.61,338.6424 276.614,338.6354 L276.61,338.6424 L276.607,338.6474 L276.514,338.7974 C276.224,339.2654 275.61,339.4094 275.143,339.1194 C274.677,338.8304 274.533,338.2204 274.818,337.7534" id="Fill-17" fill="#1A1918"></path>
                <path d="M120.652,350.1684 C120.652,350.1684 118.446,350.9474 114.595,352.3984 C110.744,353.8484 105.257,355.9664 98.722,358.6364 C85.661,363.9834 68.382,371.5264 51.768,380.3844 C43.467,384.8134 35.329,389.5644 28.038,394.5274 C20.756,399.4894 14.312,404.6794 9.513,409.8494 C7.119,412.4344 5.157,415.0204 3.706,417.4864 C2.248,419.9484 1.33,422.2964 0.859,424.2964 C0.346,426.2974 0.39,427.9364 0.391,429.0344 C0.507,430.1334 0.569,430.7194 0.569,430.7194 C0.569,430.7194 0.496,430.1344 0.357,429.0364 C0.335,427.9374 0.257,426.2914 0.733,424.2674 C1.167,422.2454 2.045,419.8604 3.466,417.3474 C4.879,414.8324 6.807,412.1864 9.166,409.5354 C13.896,404.2304 20.276,398.8814 27.496,393.7474 C34.725,388.6134 42.803,383.6804 51.049,379.0684 C67.553,369.8424 84.738,361.9304 97.741,356.3034 C104.247,353.4924 109.714,351.2564 113.556,349.7214 C117.398,348.1864 119.622,347.3514 119.622,347.3514 C120.396,347.0574 121.262,347.4484 121.555,348.2234 C121.849,348.9984 121.458,349.8634 120.683,350.1574 C120.676,350.1594 120.659,350.1654 120.652,350.1684" id="Fill-19" fill="#1A1918"></path>
                <path d="M311.1388,204.9386 C314.3278,201.7026 317.5178,198.4666 320.7068,195.2306 C321.9158,194.0036 323.4888,192.6696 325.1488,193.1316 C326.0918,193.3936 326.8278,194.2776 326.9158,195.2526 C326.9748,195.9016 326.7238,196.6146 326.1608,196.9426" id="Stroke-21" stroke="#1A1918" stroke-linecap="round" stroke-linejoin="round"></path>
                <path d="M311.1831,220.9347 C312.8661,220.4187 314.6471,221.8437 315.1731,223.5237 C315.6991,225.2047 315.3211,227.0187 314.9391,228.7377 C314.4211,231.0767 313.9021,233.4147 313.3841,235.7537" id="Stroke-23" stroke="#1A1918" stroke-linecap="round" stroke-linejoin="round"></path>
                <path d="M71.1071,198.1134 C68.3641,194.3574 65.6211,190.6004 62.8771,186.8444 C62.4771,186.2964 62.0351,185.7174 61.3901,185.5064 C59.6831,184.9494 58.4881,187.1754 58.0721,188.9224 C57.2961,192.1884 56.5191,195.4534 55.7421,198.7194" id="Stroke-25" stroke="#1A1918" stroke-linecap="round" stroke-linejoin="round"></path>
                <path d="M68.527,215.7133 C66.436,215.6443 64.567,217.2493 63.732,219.1673 C62.896,221.0863 62.9,223.2583 63.05,225.3453 C63.267,228.3483 63.76,231.3323 64.52,234.2463" id="Stroke-27" stroke="#1A1918" stroke-linecap="round" stroke-linejoin="round"></path>
                <path d="M194.6805,372.188 C210.4475,369.536 224.4915,366.097 238.3625,353.836 C244.2675,349.224 271.2255,324.946 283.3295,299.542 C295.4405,274.124 306.2225,257.489 306.2225,233.117 C306.2225,224.012 305.7465,208.12 308.0585,194.555 C311.9375,171.809 314.9475,143.364 312.9555,124.778 C309.7765,95.107 314.0035,59.977 269.4975,25.008 C244.3065,5.215 192.8365,-3.324 172.6645,2.04 C153.2545,7.202 129.2305,17.328 103.9215,35.499 C79.6205,52.946 70.9915,90.525 67.8125,114.897 C64.6335,139.269 75.2765,175.698 73.1565,191.593 C71.0375,207.488 65.8645,228.359 69.0025,242.144 C72.0595,255.579 85.2495,288.405 97.0905,304.427 C105.1065,315.274 125.5895,336.354 137.2455,345.891 C148.9025,355.428 173.2435,375.793 194.6805,372.188" id="Fill-29" fill="#D0C7B2"></path>
                <path d="M194.6805,372.188 C210.4475,369.536 224.4915,366.097 238.3625,353.836 C244.2675,349.224 271.2255,324.946 283.3295,299.542 C295.4405,274.124 306.2225,257.489 306.2225,233.117 C306.2225,224.012 305.7465,208.12 308.0585,194.555 C311.9375,171.809 314.9475,143.364 312.9555,124.778 C309.7765,95.107 314.0035,59.977 269.4975,25.008 C244.3065,5.215 192.8365,-3.324 172.6645,2.04 C153.2545,7.202 129.2305,17.328 103.9215,35.499 C79.6205,52.946 70.9915,90.525 67.8125,114.897 C64.6335,139.269 75.2765,175.698 73.1565,191.593 C71.0375,207.488 65.8645,228.359 69.0025,242.144 C72.0595,255.579 85.2495,288.405 97.0905,304.427 C105.1065,315.274 125.5895,336.354 137.2455,345.891 C148.9025,355.428 173.2435,375.793 194.6805,372.188 Z" id="Stroke-31" stroke="#1A1918" stroke-width="2"></path>
                <path d="M106.4298,198.9023 C106.4298,198.9023 114.2578,198.2503 120.1298,198.2503 C126.0008,198.2503 142.9628,189.1163 146.2238,189.1163 C149.4858,189.1163 156.6618,187.1593 157.9668,189.7693 C159.2718,192.3783 161.8808,188.4643 156.6618,197.5973 C151.4428,206.7303 142.9628,215.2113 139.0478,215.2113 C135.1338,215.2113 118.8248,210.6453 115.5628,208.6883 C112.3008,206.7303 106.4298,198.9023 106.4298,198.9023" id="Fill-33" fill="#FFFFFF"></path>
                <path d="M214.0303,180.8772 C214.0303,180.8772 224.3513,186.3802 234.1373,186.3802 C243.9223,186.3802 257.7793,185.8552 266.2593,186.5072 C274.7403,187.1602 274.7403,188.4642 270.1743,191.7262 C265.6073,194.9882 258.4313,206.0782 246.6883,206.7312 C234.9463,207.3832 219.2893,200.8592 216.6803,196.2932 C214.0703,191.7262 208.1593,182.1822 214.0303,180.8772" id="Fill-35" fill="#FFFFFF"></path>
            </g>
            <g id="Group-92" transform="translate(86.000000, 146.890000)">
                <path d="M85.7802,101.9017 C85.7802,101.9017 84.8022,103.0287 82.7852,104.6667 C81.7882,105.4897 80.5542,106.4717 79.2942,107.6867 C78.6762,108.2997 78.0592,108.9927 77.6182,109.7837 C77.1692,110.5747 76.9762,111.4507 77.1642,112.3117 C77.3692,113.1927 77.9202,114.0087 78.7172,114.8557 C79.4562,115.6147 80.3542,116.3477 81.3532,116.8997 C83.3642,118.0507 85.9002,118.4247 88.6802,119.2347 C90.0652,119.6417 91.5202,120.1927 92.8712,121.0307 C93.2072,121.2397 93.5412,121.4597 93.8602,121.7007 L94.7182,122.3527 C95.2962,122.7867 95.8022,123.1437 96.3952,123.5157 C98.6932,124.9907 101.2512,125.9597 103.9082,126.0167 C105.2282,126.0607 106.5882,125.9057 107.9062,125.6157 C109.1162,125.3277 110.4252,124.7717 111.6692,124.1637 C114.1912,122.9297 116.5852,121.4107 119.1842,120.1497 C119.8422,119.8367 120.5122,119.5347 121.2762,119.2937 C121.6632,119.1787 122.0762,119.0747 122.5672,119.0337 C123.1502,119.0087 123.2892,119.0417 123.6352,119.0277 C124.8702,119.0047 126.0912,118.8547 127.2272,118.6047 C129.5032,118.1067 131.4372,116.9887 132.2132,115.3457 C132.6272,114.5267 132.7652,113.6457 132.7652,112.6927 C132.7952,112.1647 132.7472,111.7487 132.7232,111.3147 C132.6882,110.8817 132.6032,110.4417 132.5402,110.0217 C132.2252,108.3377 131.6232,106.9197 131.0742,105.7797 C130.5082,104.6437 129.9512,103.7977 129.5642,103.2267 C129.1692,102.6587 128.9262,102.3777 128.9262,102.3777 C128.9262,102.3777 129.2212,102.6027 129.7302,103.0837 C130.2402,103.5627 130.9602,104.3047 131.7342,105.3767 C132.5192,106.4417 133.3322,107.8587 133.9542,109.6517 C134.0942,110.1067 134.2272,110.5717 134.3302,111.0827 C134.4212,111.5967 134.5272,112.1527 134.5522,112.6357 C134.6782,113.6887 134.5822,114.9797 134.0842,116.1877 C133.5782,117.4007 132.6522,118.4847 131.5402,119.2657 C130.4282,120.0567 129.1582,120.5947 127.8422,120.9737 C126.5232,121.3547 125.1482,121.5637 123.7232,121.6367 C123.4042,121.6607 122.8732,121.6507 122.7842,121.6697 C122.6052,121.6927 122.3582,121.7537 122.0992,121.8427 C121.5712,122.0277 120.9922,122.3047 120.4132,122.6057 C118.0802,123.8547 115.6552,125.4407 112.9672,126.7837 C111.6092,127.4557 110.2222,128.0947 108.5742,128.5107 C107.0272,128.8657 105.4332,129.0787 103.8032,128.9997 C102.1802,128.9337 100.5552,128.6227 99.0422,128.0797 C97.5282,127.5357 96.1242,126.7957 94.8312,125.9597 C93.5312,125.1457 92.2962,124.0757 91.3502,123.4077 C90.3052,122.6987 89.1272,122.1847 87.8782,121.7607 C85.3942,120.9397 82.5692,120.3127 80.2212,118.7717 C79.0452,118.0147 78.0702,117.0987 77.2512,116.0527 C76.5102,115.0947 75.7512,113.9117 75.5692,112.5907 C75.3662,111.2537 75.8302,109.9597 76.4762,109.0707 C77.1152,108.1537 77.8662,107.4767 78.5812,106.8897 C80.0222,105.7267 81.3812,104.9317 82.4592,104.2207 C83.5432,103.5207 84.3932,102.9717 84.9452,102.5557 C85.4992,102.1457 85.7802,101.9017 85.7802,101.9017" id="Fill-38" fill="#1A1918"></path>
                <path d="M97.164,162.4274 C97.164,162.4274 99.431,162.4524 102.789,162.6154 C104.465,162.6974 106.42,162.7934 108.515,162.8974 C109.56,162.9484 110.639,163.0014 111.735,163.0554 C112.83,163.1164 113.943,163.1614 115.054,163.1964 C119.497,163.3784 123.932,163.4274 127.225,163.1084 C128.046,163.0244 128.799,162.9324 129.459,162.8094 C130.119,162.6904 130.693,162.5584 131.155,162.4164 C131.388,162.3444 131.596,162.2804 131.777,162.2244 C131.952,162.1524 132.101,162.0914 132.222,162.0414 C132.467,161.9394 132.598,161.8854 132.598,161.8854 C132.598,161.8854 132.487,161.9714 132.278,162.1344 C132.071,162.3074 131.755,162.5444 131.312,162.7814 C130.876,163.0314 130.324,163.3074 129.666,163.5454 C129.013,163.8024 128.257,164.0414 127.42,164.2404 C126.586,164.4504 125.672,164.6374 124.7,164.7684 C123.729,164.9174 122.702,165.0354 121.637,165.0994 C120.573,165.1684 119.474,165.2384 118.357,165.2354 C117.241,165.2404 116.108,165.2244 114.977,165.1934 C113.847,165.1344 112.719,165.0654 111.61,164.9804 C110.501,164.9034 109.415,164.7664 108.364,164.6474 C106.263,164.3934 104.314,164.0774 102.654,163.7504 C99.329,163.1134 97.164,162.4274 97.164,162.4274" id="Fill-40" fill="#1A1918"></path>
                <path d="M0.9095,28.3514 C1.3965,27.6674 43.8705,5.1574 62.4405,7.2654 C81.7835,9.4614 88.3965,15.4784 87.2165,17.7504 C86.0365,20.0214 74.9325,13.7554 68.6465,13.0854 C62.3605,12.4154 52.6495,11.1204 48.0185,14.4834 C43.3865,17.8464 -2.0665,35.7464 0.9095,28.3514" id="Fill-42" fill="#000105"></path>
                <path d="M0.9095,28.3514 C1.3965,27.6674 43.8705,5.1574 62.4405,7.2654 C81.7835,9.4614 88.3965,15.4784 87.2165,17.7504 C86.0365,20.0214 74.9325,13.7554 68.6465,13.0854 C62.3605,12.4154 52.6495,11.1204 48.0185,14.4834 C43.3865,17.8464 -2.0665,35.7464 0.9095,28.3514 Z" id="Stroke-44" stroke="#1A1918" stroke-linecap="round" stroke-linejoin="round"></path>
                <path d="M119.1417,13.3973 C119.1417,13.3973 139.1477,0.7333 143.7267,0.8043 C148.3047,0.8743 178.4187,8.1773 183.4987,12.8353 C188.5777,17.4933 206.4897,22.2343 201.3217,23.2993 C196.1537,24.3643 151.4097,4.8603 146.2237,7.0693 C141.0387,9.2793 117.3187,20.2383 119.1417,13.3973" id="Fill-46" fill="#000105"></path>
                <path d="M119.1417,13.3973 C119.1417,13.3973 139.1477,0.7333 143.7267,0.8043 C148.3047,0.8743 178.4187,8.1773 183.4987,12.8353 C188.5777,17.4933 206.4897,22.2343 201.3217,23.2993 C196.1537,24.3643 151.4097,4.8603 146.2237,7.0693 C141.0387,9.2793 117.3187,20.2383 119.1417,13.3973 Z" id="Stroke-48" stroke="#1A1918" stroke-linecap="round" stroke-linejoin="round"></path>
                <path d="M163.608,42.0818 C158.916,40.6268 158.962,41.0088 158.962,41.0088 C160.593,42.2438 157.445,45.9458 154.836,46.9418 C152.228,47.9388 149.473,44.8358 149.748,42.2488 C149.748,42.2488 150.378,42.3168 151.962,41.3468 C151.415,41.3218 148.558,41.3008 148.08,41.1018 C144.403,39.5648 140.086,43.5688 140.086,43.5688 C140.086,43.5688 137.744,49.0058 140.41,51.6078 C143.796,54.9128 149.071,55.5428 152.835,56.1188 C156.598,56.6958 164.881,54.5778 166.333,52.1808 C167.784,49.7848 168.3,43.5368 163.608,42.0818" id="Fill-50" fill="#000105"></path>
                <path d="M163.608,42.0818 C158.916,40.6268 158.962,41.0088 158.962,41.0088 C160.593,42.2438 157.445,45.9458 154.836,46.9418 C152.228,47.9388 149.473,44.8358 149.748,42.2488 C149.748,42.2488 150.378,42.3168 151.962,41.3468 C151.415,41.3218 148.558,41.3008 148.08,41.1018 C144.403,39.5648 140.086,43.5688 140.086,43.5688 C140.086,43.5688 137.744,49.0058 140.41,51.6078 C143.796,54.9128 149.071,55.5428 152.835,56.1188 C156.598,56.6958 164.881,54.5778 166.333,52.1808 C167.784,49.7848 168.3,43.5368 163.608,42.0818 Z" id="Stroke-52" stroke="#1A1918" stroke-linecap="round" stroke-linejoin="round"></path>
                <path d="M59.6211,46.6926 C56.3811,44.6646 52.3171,46.9276 52.3171,46.9276 C55.2041,49.7036 52.7401,52.3736 50.1321,53.3496 C47.5231,54.3256 44.0511,51.7146 44.3261,49.1786 C44.3261,49.1786 47.7461,48.3776 49.3291,47.4276 C48.7821,47.4036 46.3921,47.9896 45.8921,48.1196 C42.8151,48.9186 35.0901,51.9156 35.0901,51.9156 C35.0901,51.9156 32.5441,55.5616 34.9901,58.3496 C38.5901,62.4526 43.6531,62.2096 47.4161,62.7756 C51.1801,63.3416 59.4631,61.2686 60.9131,58.9196 C62.3641,56.5706 63.7791,49.2946 59.6211,46.6926" id="Fill-54" fill="#000105"></path>
                <path d="M59.6211,46.6926 C56.3811,44.6646 52.3171,46.9276 52.3171,46.9276 C55.2041,49.7036 52.7401,52.3736 50.1321,53.3496 C47.5231,54.3256 44.0511,51.7146 44.3261,49.1786 C44.3261,49.1786 47.7461,48.3776 49.3291,47.4276 C48.7821,47.4036 46.3921,47.9896 45.8921,48.1196 C42.8151,48.9186 35.0901,51.9156 35.0901,51.9156 C35.0901,51.9156 32.5441,55.5616 34.9901,58.3496 C38.5901,62.4526 43.6531,62.2096 47.4161,62.7756 C51.1801,63.3416 59.4631,61.2686 60.9131,58.9196 C62.3641,56.5706 63.7791,49.2946 59.6211,46.6926 Z" id="Stroke-56" stroke="#1A1918" stroke-linecap="round" stroke-linejoin="round"></path>
                <path d="M45.4205,156.6898 C45.4205,156.6898 52.9365,147.9488 58.8325,148.5318 C64.7275,149.1148 76.5195,150.2818 80.9465,150.3498 C85.3745,150.4188 101.2075,144.7588 103.6525,145.7808 C106.0965,146.8028 111.9315,151.3208 114.4065,150.3748 C116.8815,149.4298 118.9025,146.0158 124.3295,145.1158 C129.7555,144.2158 140.0715,145.3588 143.0225,145.4048 C145.9745,145.4508 155.8975,140.1908 160.3245,140.2598 C164.7525,140.3278 174.9765,147.3748 174.9235,150.8188 C174.8695,154.2618 167.1585,143.8098 164.2065,143.7638 C161.2555,143.7188 162.7765,140.7898 153.8605,144.5888 C144.9455,148.3868 130.2015,147.1748 127.7195,148.6128 C125.2365,150.0508 122.2165,154.4328 117.2975,154.3568 C112.3775,154.2808 108.2245,151.5478 105.0785,151.4998 C101.9325,151.4508 104.1095,150.9828 99.0475,151.7018 C93.9845,152.4218 74.7365,153.7148 69.6215,152.2838 C64.5075,150.8528 59.2045,150.4088 56.3605,152.0558 C53.5165,153.7028 47.1165,159.5398 45.4205,156.6898" id="Fill-58" fill="#000105"></path>
                <path d="M45.4205,156.6898 C45.4205,156.6898 52.9365,147.9488 58.8325,148.5318 C64.7275,149.1148 76.5195,150.2818 80.9465,150.3498 C85.3745,150.4188 101.2075,144.7588 103.6525,145.7808 C106.0965,146.8028 111.9315,151.3208 114.4065,150.3748 C116.8815,149.4298 118.9025,146.0158 124.3295,145.1158 C129.7555,144.2158 140.0715,145.3588 143.0225,145.4048 C145.9745,145.4508 155.8975,140.1908 160.3245,140.2598 C164.7525,140.3278 174.9765,147.3748 174.9235,150.8188 C174.8695,154.2618 167.1585,143.8098 164.2065,143.7638 C161.2555,143.7188 162.7765,140.7898 153.8605,144.5888 C144.9455,148.3868 130.2015,147.1748 127.7195,148.6128 C125.2365,150.0508 122.2165,154.4328 117.2975,154.3568 C112.3775,154.2808 108.2245,151.5478 105.0785,151.4998 C101.9325,151.4508 104.1095,150.9828 99.0475,151.7018 C93.9845,152.4218 74.7365,153.7148 69.6215,152.2838 C64.5075,150.8528 59.2045,150.4088 56.3605,152.0558 C53.5165,153.7028 47.1165,159.5398 45.4205,156.6898 Z" id="Stroke-60" stroke="#1A1918" stroke-linecap="round" stroke-linejoin="round"></path>
                <path d="M16.3179,54.8472 C16.3179,54.8472 16.4799,54.6802 16.7839,54.3662 C17.0909,54.0552 17.5569,53.6192 18.1849,53.1012 C18.8119,52.5792 19.6029,51.9832 20.5859,51.3692 C21.5819,50.7742 22.7319,50.1122 24.3409,49.7352 C25.7189,49.4202 27.1669,49.1732 28.6889,48.9292 C30.2109,48.6612 31.8209,48.4572 33.4839,48.2652 C36.8119,47.9192 40.3959,47.7962 43.8889,47.3022 C45.6479,47.0432 47.3129,46.7632 48.9379,46.2702 C50.5829,45.7722 52.1969,45.2162 53.7679,44.6392 C56.8899,43.4642 59.7859,42.2742 62.2069,41.1372 C63.4179,40.5682 64.5199,40.0272 65.4669,39.5012 C66.4199,38.9852 67.2319,38.5022 67.8729,38.0722 C68.2039,37.8662 68.4789,37.6632 68.7099,37.4762 C68.9429,37.2922 69.1569,37.1442 69.2889,36.9942 C69.5779,36.7092 69.7319,36.5572 69.7319,36.5572 L69.7579,36.5312 C69.8359,36.4542 69.9619,36.4552 70.0389,36.5332 C70.1099,36.6042 70.1149,36.7172 70.0539,36.7942 C70.0539,36.7942 69.9099,36.9782 69.6389,37.3232 C69.5099,37.5082 69.3139,37.6832 69.0929,37.9072 C68.8739,38.1352 68.6119,38.3832 68.3019,38.6352 C67.6989,39.1662 66.9249,39.7542 66.0089,40.3792 C65.0999,41.0192 64.0439,41.6862 62.8789,42.3932 C60.5499,43.8082 57.7629,45.3322 54.6849,46.8032 C53.1479,47.5312 51.5289,48.2782 49.8239,48.9232 C48.1019,49.5902 46.2379,50.0542 44.4639,50.4502 C42.6739,50.8742 40.8849,51.2012 39.1269,51.5562 C37.3699,51.9102 35.6369,52.1932 33.9529,52.4052 C32.2669,52.5912 30.6359,52.7282 29.0849,52.7782 C28.3129,52.8082 27.5609,52.8382 26.8339,52.8672 C26.1229,52.8802 25.4349,52.8932 24.7759,52.9052 C23.7149,52.9432 22.5429,53.2092 21.5429,53.5032 C20.5289,53.7902 19.6339,54.0982 18.8919,54.3492 C17.3959,54.8772 16.5409,55.1792 16.5409,55.1792 L16.5329,55.1822 C16.4269,55.2202 16.3099,55.1642 16.2719,55.0572 C16.2449,54.9822 16.2659,54.9012 16.3179,54.8472" id="Fill-62" fill="#1A1918"></path>
                <path d="M129.3278,32.153 C129.3278,32.153 130.0968,32.625 131.5108,33.347 C132.9258,34.059 134.9588,35.056 137.4838,36.014 C138.7468,36.493 140.1288,36.961 141.6028,37.399 C142.3428,37.599 143.1038,37.804 143.8808,38.014 C144.6648,38.185 145.4648,38.36 146.2778,38.537 C147.0968,38.664 147.9288,38.793 148.7718,38.924 C149.6188,38.99 150.4698,39.107 151.3288,39.159 C152.1888,39.169 153.0538,39.24 153.9178,39.205 C154.7998,39.152 155.6018,39.137 156.5478,39.059 C158.3438,38.882 160.2138,38.755 162.0268,38.629 C163.8378,38.499 165.6218,38.428 167.3408,38.443 C169.0608,38.473 170.7148,38.556 172.2768,38.707 C173.8388,38.834 175.3058,38.986 176.6558,39.148 C177.9968,39.301 179.2268,39.441 180.3168,39.565 C180.8588,39.627 181.3708,39.689 181.8338,39.714 C182.3028,39.761 182.7338,39.803 183.1158,39.808 C183.8948,39.859 184.4938,39.827 184.9058,39.795 C185.3218,39.744 185.5438,39.717 185.5438,39.717 L185.5838,39.712 C185.6938,39.699 185.7928,39.776 185.8068,39.886 C185.8158,39.964 185.7788,40.037 185.7178,40.077 C185.7178,40.077 185.5138,40.21 185.1308,40.459 C184.9358,40.604 184.6808,40.698 184.3768,40.835 C184.0718,40.979 183.7188,41.114 183.3168,41.228 C181.7068,41.756 179.3648,42.124 176.6038,42.347 C175.9158,42.395 175.1988,42.444 174.4558,42.495 C173.7178,42.521 172.9548,42.547 172.1708,42.575 C170.6058,42.643 168.9628,42.63 167.2708,42.609 C165.5778,42.56 163.8358,42.469 162.0638,42.376 C160.2938,42.279 158.5248,42.26 156.6858,42.256 C155.8148,42.264 154.7948,42.221 153.8648,42.203 C152.9168,42.168 151.9828,42.026 151.0548,41.942 C150.1328,41.815 149.2288,41.635 148.3358,41.473 C147.4578,41.254 146.5898,41.038 145.7368,40.825 C144.9028,40.562 144.0818,40.303 143.2788,40.049 C142.4918,39.756 141.7168,39.483 140.9788,39.182 C139.5058,38.57 138.1418,37.941 136.9068,37.316 C134.4408,36.058 132.4778,34.862 131.1508,33.956 C129.8228,33.058 129.1008,32.482 129.1008,32.482 C129.0128,32.415 128.9968,32.289 129.0638,32.202 C129.1268,32.12 129.2418,32.102 129.3278,32.153" id="Fill-64" fill="#1A1918"></path>
                <path d="M128.3286,48.063 C128.3286,48.063 128.8536,48.461 129.7726,49.157 C130.6876,49.853 131.9976,50.839 133.5776,51.995 C134.3736,52.561 135.2356,53.174 136.1476,53.822 C137.0616,54.461 138.0436,55.108 139.0636,55.753 C139.5696,56.083 140.0936,56.401 140.6326,56.701 C141.1646,57.019 141.7136,57.309 142.2656,57.598 C143.3646,58.198 144.5246,58.665 145.6826,59.041 C146.7766,59.344 148.1176,59.533 149.3926,59.745 C150.6596,59.962 151.9056,60.176 153.1116,60.383 C154.3146,60.571 155.4716,60.763 156.5716,60.889 C157.6716,61.024 158.7086,61.092 159.6716,61.14 C160.6276,61.144 161.5126,61.141 162.2866,61.05 C163.0636,60.972 163.7376,60.846 164.2846,60.704 C164.5586,60.63 164.8046,60.563 165.0176,60.505 C165.2256,60.428 165.4026,60.362 165.5456,60.309 C165.8356,60.201 165.9906,60.144 165.9906,60.144 C165.9906,60.144 165.8536,60.235 165.5956,60.406 C165.3406,60.587 164.9556,60.836 164.4206,61.078 C163.8926,61.329 163.2236,61.602 162.4276,61.803 C161.6346,62.029 160.7176,62.18 159.7116,62.287 C157.7006,62.476 155.3416,62.402 152.8766,62.129 C151.6416,61.991 150.3726,61.85 149.0966,61.653 C147.8236,61.458 146.5566,61.329 145.1116,60.957 C143.7826,60.505 142.5146,59.957 141.3566,59.299 C140.7666,58.987 140.1996,58.65 139.6646,58.286 C139.1156,57.94 138.5886,57.58 138.0836,57.211 C137.0526,56.501 136.1196,55.735 135.2446,55.005 C134.3616,54.284 133.5716,53.553 132.8476,52.875 C129.9516,50.159 128.3286,48.063 128.3286,48.063" id="Fill-66" fill="#1A1918"></path>
                <path d="M176.0199,52.7278 C176.0199,52.7278 176.5679,52.0658 177.4819,51.2808 C178.3839,50.4708 179.6559,49.5448 180.9609,48.6978 C181.6139,48.2748 182.2749,47.8708 182.8989,47.5028 C183.5269,47.1418 184.1139,46.8048 184.6169,46.5148 C184.8539,46.3588 185.1139,46.2428 185.3019,46.1108 C185.4899,45.9768 185.6949,45.8798 185.8289,45.7758 C186.1009,45.5698 186.2889,45.4388 186.2889,45.4388 C186.2889,45.4388 186.2579,45.6388 186.1479,46.0128 C186.0179,46.3628 185.7759,46.8618 185.3919,47.3628 C184.6519,48.4028 183.4039,49.4998 182.0479,50.3758 C180.6869,51.2518 179.2159,51.9238 178.0419,52.2778 C176.8799,52.6578 176.0199,52.7278 176.0199,52.7278" id="Fill-68" fill="#1A1918"></path>
                <path d="M186.5612,42.0545 C186.5612,42.0545 187.0432,41.8375 187.7682,41.6185 C188.4922,41.3915 189.4602,41.1565 190.4252,40.9495 C191.3902,40.7605 192.3552,40.5715 193.0792,40.4305 C193.4442,40.3605 193.7432,40.2865 193.9572,40.2295 C194.1762,40.1685 194.3012,40.1335 194.3012,40.1335 C194.3012,40.1335 194.2202,40.2325 194.0572,40.4005 C193.8922,40.5605 193.6302,40.7775 193.2882,40.9655 C192.6082,41.3685 191.6272,41.7165 190.6302,41.9275 C189.6302,42.1345 188.6132,42.2075 187.8452,42.1845 C187.0782,42.1705 186.5612,42.0545 186.5612,42.0545" id="Fill-70" fill="#1A1918"></path>
                <path d="M24.6163,58.1252 C24.6163,58.1252 25.2973,58.1622 26.1753,58.4492 C27.0683,58.7112 28.1533,59.2302 29.1483,59.8912 C30.1403,60.5562 31.0413,61.3642 31.6173,62.1072 C32.2143,62.8252 32.4703,63.4622 32.4703,63.4622 C32.4703,63.4622 31.8003,63.3562 30.9473,63.0392 C30.0773,62.7432 29.0193,62.2082 28.0373,61.5532 C27.0573,60.8942 26.1553,60.1142 25.5533,59.4082 C24.9373,58.7262 24.6163,58.1252 24.6163,58.1252" id="Fill-72" fill="#1A1918"></path>
                <path d="M47.3491,69.1344 C47.3491,69.1344 47.4831,69.1474 47.7311,69.1444 C47.9761,69.1514 48.3421,69.1174 48.7951,69.0804 C49.2511,69.0414 49.7951,68.9454 50.4121,68.8244 C50.7211,68.7804 51.0431,68.6634 51.3821,68.5794 C51.7221,68.4944 52.0761,68.4014 52.4371,68.2604 C53.1701,68.0344 53.9281,67.6914 54.7291,67.3434 C55.1361,67.1874 55.5171,66.9314 55.9251,66.7234 C56.3221,66.4924 56.7541,66.3144 57.1471,66.0354 C57.9571,65.5264 58.7861,64.9994 59.5781,64.3754 C59.9791,64.0724 60.3951,63.7854 60.7911,63.4654 L61.9411,62.4484 C62.7461,61.8124 63.4641,61.0724 64.1801,60.3544 C64.5321,59.9894 64.9081,59.6534 65.2521,59.2924 C65.5861,58.9214 65.9161,58.5544 66.2411,58.1934 C66.8761,57.4584 67.5621,56.8054 68.1031,56.0904 C68.6631,55.3914 69.2131,54.7434 69.7251,54.1444 C70.2491,53.5544 70.6601,52.9614 71.0631,52.4604 C71.4631,51.9564 71.8131,51.5164 72.1001,51.1544 C72.6881,50.4344 73.0421,50.0304 73.0421,50.0304 C73.0421,50.0304 72.8341,50.5184 72.4401,51.3624 C72.2401,51.7824 72.0011,52.2974 71.7061,52.8764 C71.4071,53.4524 71.1131,54.1324 70.6701,54.7984 C70.2531,55.4814 69.7981,56.2214 69.2941,56.9914 C68.8201,57.7824 68.2051,58.5384 67.5851,59.3314 C66.9671,60.1274 66.3341,60.9584 65.5661,61.6994 C64.8321,62.4674 64.0981,63.2604 63.2571,63.9534 L62.0141,65.0014 C61.5861,65.3324 61.1341,65.6324 60.6991,65.9454 C59.8491,66.6014 58.8931,67.0764 57.9991,67.5724 C57.5601,67.8334 57.0841,68.0174 56.6281,68.2064 C56.1651,68.3824 55.7371,68.6034 55.2781,68.7254 C54.8281,68.8614 54.3901,68.9924 53.9661,69.1204 C53.5401,69.2344 53.1101,69.2894 52.7101,69.3704 C51.9121,69.5434 51.1491,69.5544 50.4921,69.5814 C50.1621,69.5754 49.8521,69.5694 49.5661,69.5634 C49.2821,69.5314 49.0211,69.5024 48.7851,69.4754 C48.3171,69.4124 47.9571,69.3224 47.7141,69.2504 C47.4721,69.1834 47.3491,69.1344 47.3491,69.1344" id="Fill-74" fill="#1A1918"></path>
                <path d="M86.7423,43.8925 C86.7423,43.8925 86.9363,43.8565 87.2833,43.8775 C87.6243,43.9055 88.1153,43.9995 88.6623,44.2395 C89.2043,44.4815 89.8053,44.8635 90.3363,45.3945 C90.6033,45.6565 90.8503,45.9565 91.0823,46.2725 C91.2893,46.6005 91.5263,46.9295 91.6803,47.2895 C91.8393,47.6485 92.0153,48.0035 92.1073,48.3755 C92.2163,48.7415 92.3263,49.1035 92.3653,49.4615 C92.4903,50.1735 92.4953,50.8425 92.4423,51.4115 C92.4233,51.9765 92.2753,52.4455 92.1993,52.7675 C92.1103,53.0905 92.0393,53.2715 92.0393,53.2715 C92.0393,53.2715 91.9413,53.0955 91.8023,52.7945 C91.6553,52.4945 91.5143,52.0635 91.3043,51.5715 C91.0983,51.0765 90.8973,50.5105 90.6543,49.9295 C90.5573,49.6295 90.4033,49.3465 90.2863,49.0465 C90.1723,48.7425 90.0213,48.4585 89.8833,48.1665 C89.7683,47.8615 89.5803,47.6065 89.4503,47.3155 C89.2893,47.0465 89.1303,46.7815 88.9773,46.5255 C88.6563,46.0165 88.3073,45.5725 87.9933,45.1675 C87.6613,44.7905 87.3593,44.4645 87.1263,44.2405 C86.8953,44.0205 86.7423,43.8925 86.7423,43.8925" id="Fill-76" fill="#1A1918"></path>
                <path d="M105.8383,40.7862 C105.8383,40.7862 105.7623,41.0002 105.6283,41.3752 C105.4933,41.7422 105.3193,42.2642 105.1163,42.8672 C104.9233,43.4772 104.7193,44.1752 104.5343,44.9122 C104.4523,45.2822 104.3703,45.6632 104.2983,46.0462 C104.2543,46.4342 104.1553,46.8202 104.1483,47.2122 L104.0893,47.7962 C104.0963,47.9902 104.0883,48.1842 104.0863,48.3762 C104.0603,48.7642 104.1073,49.1392 104.1253,49.5102 C104.1223,49.8862 104.2143,50.2352 104.2533,50.5832 C104.2823,50.9352 104.3623,51.2592 104.4333,51.5642 C104.5163,51.8642 104.5383,52.1702 104.6233,52.4172 C104.7063,52.6632 104.7633,52.8922 104.8143,53.0812 C104.9133,53.4622 104.9583,53.6982 104.9583,53.6982 C104.9583,53.6982 104.7763,53.5622 104.4773,53.2922 C104.3303,53.1552 104.1443,52.9892 103.9513,52.7822 C103.7433,52.5832 103.5783,52.3122 103.3803,52.0222 C103.1793,51.7332 102.9593,51.4132 102.8153,51.0322 C102.6623,50.6572 102.4603,50.2632 102.3793,49.8212 C102.2763,49.3842 102.1543,48.9282 102.1473,48.4542 L102.1073,47.7382 L102.1573,47.0212 C102.2363,46.0612 102.5173,45.1402 102.8643,44.3322 C103.2283,43.5282 103.6673,42.8372 104.1183,42.3092 C104.9933,41.2272 105.8383,40.7862 105.8383,40.7862" id="Fill-78" fill="#1A1918"></path>
                <path d="M120.871,52.1504 C120.871,52.1504 121.58,53.6464 122.645,55.8904 C123.713,58.0804 125.069,60.9524 126.746,63.5364 C127.151,64.1934 127.604,64.8084 128.041,65.4194 C128.504,66.0074 128.955,66.5914 129.435,67.1154 C129.91,67.6424 130.388,68.1424 130.876,68.5774 C131.115,68.8044 131.354,69.0174 131.597,69.2094 C131.836,69.4094 132.062,69.6174 132.303,69.7784 C132.771,70.1274 133.222,70.4264 133.632,70.6944 C134.059,70.9454 134.431,71.1644 134.737,71.3454 C135.378,71.6614 135.759,71.8824 135.759,71.8824 C135.759,71.8824 135.34,71.9214 134.582,71.9214 C134.212,71.8874 133.746,71.8704 133.227,71.7684 C132.709,71.6674 132.114,71.5414 131.5,71.3024 C130.879,71.0824 130.211,70.7994 129.557,70.4104 C128.892,70.0374 128.232,69.5714 127.596,69.0384 C126.315,67.9774 125.159,66.6234 124.223,65.1584 C122.333,62.2184 121.336,58.8944 121.002,56.3814 C120.812,55.1254 120.78,54.0624 120.793,53.3194 C120.805,52.5764 120.871,52.1504 120.871,52.1504" id="Fill-80" fill="#1A1918"></path>
                <path d="M63.11,76.4076 C63.11,76.4076 63.441,76.0286 64.02,75.3666 C64.31,75.0436 64.663,74.6506 65.068,74.2006 C65.478,73.7616 65.916,73.2386 66.427,72.7126 C66.92,72.1706 67.453,71.5826 68.018,70.9606 C68.57,70.3306 69.185,69.7036 69.777,69.0176 C70.383,68.3436 71.01,67.6536 71.624,66.9346 C72.257,66.2306 72.867,65.4966 73.475,64.7596 C74.121,64.0496 74.651,63.2636 75.257,62.5466 C75.813,61.7956 76.36,61.0576 76.889,60.3436 C77.38,59.6036 77.854,58.8886 78.304,58.2096 C78.692,57.5036 79.089,56.8396 79.463,56.2206 C79.763,55.5796 80.044,54.9846 80.314,54.4536 C80.603,53.9266 80.727,53.4336 80.893,53.0326 C81.194,52.2256 81.405,51.7466 81.405,51.7466 C81.405,51.7466 81.457,52.2396 81.481,53.1336 C81.474,53.5746 81.553,54.1436 81.423,54.7476 C81.333,55.3616 81.243,56.0706 81.075,56.8286 C80.858,57.5636 80.617,58.3676 80.328,59.2126 C79.974,60.0156 79.593,60.8696 79.158,61.7316 C78.67,62.5526 78.192,63.4326 77.615,64.2526 C77.026,65.0606 76.451,65.9126 75.784,66.6736 C75.125,67.4456 74.468,68.2176 73.755,68.9106 C73.069,69.6326 72.347,70.2906 71.636,70.9106 C70.94,71.5486 70.205,72.0916 69.529,72.6276 C68.84,73.1476 68.162,73.6046 67.535,74.0216 C66.276,74.8476 65.172,75.4536 64.378,75.8396 C63.588,76.2336 63.11,76.4076 63.11,76.4076" id="Fill-82" fill="#1A1918"></path>
                <path d="M18.5965,44.2905 C18.5965,44.2905 20.3925,42.1845 23.6195,39.6575 C24.4215,39.0195 25.3115,38.3575 26.2765,37.6895 C27.2345,37.0125 28.2765,36.3425 29.3825,35.6975 C30.4905,35.0545 31.6735,34.4545 32.8865,33.8715 C34.1075,33.3025 35.3415,32.7165 36.6025,32.1845 C39.1105,31.0965 41.6785,30.1415 44.1415,29.4195 C45.3735,29.0615 46.5755,28.7545 47.7285,28.5195 C48.8845,28.2955 49.9825,28.1235 51.0025,28.0095 C52.0245,27.9115 52.9605,27.8325 53.7945,27.8325 C54.6255,27.7945 55.3515,27.8565 55.9465,27.8815 C56.5415,27.9155 57.0055,27.9965 57.3215,28.0265 C57.6375,28.0635 57.8065,28.0835 57.8065,28.0835 C57.8695,28.0915 57.9145,28.1485 57.9075,28.2115 C57.9005,28.2705 57.8495,28.3145 57.7905,28.3135 L57.7815,28.3125 C57.7815,28.3125 57.6135,28.3085 57.2985,28.3015 C56.9825,28.3025 56.5225,28.2665 55.9365,28.2895 C55.3495,28.3245 54.6395,28.3245 53.8295,28.4265 C53.0175,28.4915 52.1095,28.6445 51.1255,28.8215 C50.1425,29.0135 49.0885,29.2685 47.9845,29.5775 C46.8855,29.9045 45.7315,30.2585 44.5565,30.6885 C42.2065,31.5445 39.7655,32.6345 37.3895,33.8515 C35.0055,35.0575 32.7415,36.4835 30.5965,37.7685 C28.4215,39.0185 26.3915,40.1855 24.6515,41.1855 C21.1615,43.1915 18.7405,44.4705 18.7405,44.4705 C18.6835,44.5005 18.6125,44.4785 18.5815,44.4215 C18.5585,44.3785 18.5665,44.3255 18.5965,44.2905" id="Fill-84" fill="#1A1918"></path>
                <path d="M138.5771,25.204 C138.5771,25.204 139.1291,24.881 140.1611,24.486 C140.6761,24.281 141.3151,24.08 142.0591,23.876 C142.8061,23.697 143.6521,23.469 144.5901,23.338 C145.0591,23.269 145.5481,23.178 146.0561,23.118 C146.5671,23.072 147.0941,23.024 147.6361,22.975 C148.1801,22.908 148.7381,22.919 149.3101,22.906 C149.8811,22.906 150.4691,22.869 151.0611,22.899 C152.2441,22.976 153.4831,22.971 154.7171,23.149 C155.3381,23.22 155.9641,23.292 156.5921,23.364 C157.2191,23.441 157.8381,23.577 158.4641,23.681 L160.3391,24.007 C160.9551,24.148 161.5681,24.29 162.1761,24.43 C162.7851,24.572 163.3901,24.713 163.9871,24.852 C164.5831,24.996 165.1481,25.211 165.7161,25.388 C166.8331,25.791 167.9321,26.139 168.9121,26.616 C169.9001,27.072 170.8261,27.522 171.6701,27.954 C172.5261,28.36 173.2651,28.824 173.9211,29.23 C174.5751,29.639 175.1401,30.003 175.5991,30.314 C176.5181,30.931 177.0201,31.319 177.0201,31.319 C177.0721,31.358 177.0811,31.432 177.0421,31.483 C177.0131,31.521 176.9651,31.536 176.9221,31.526 L176.9161,31.524 C176.9161,31.524 176.2921,31.377 175.2381,31.058 C174.7101,30.901 174.0771,30.697 173.3581,30.454 C172.6421,30.204 171.8381,29.918 170.9471,29.65 C170.0591,29.372 169.1081,29.053 168.1121,28.697 C167.1121,28.348 166.0391,28.052 164.9551,27.665 C163.8771,27.254 162.7501,26.888 161.6011,26.511 C161.0261,26.323 160.4461,26.133 159.8641,25.943 L158.0841,25.485 C157.4871,25.343 156.8951,25.168 156.2951,25.053 C155.6941,24.941 155.0951,24.83 154.5011,24.72 C153.3151,24.463 152.1291,24.389 150.9851,24.233 C149.8391,24.146 148.7241,24.074 147.6691,24.063 C147.1401,24.064 146.6261,24.065 146.1281,24.066 C145.6311,24.08 145.1531,24.126 144.6921,24.152 C143.7671,24.198 142.9321,24.347 142.1891,24.456 C141.4501,24.593 140.8081,24.73 140.2871,24.873 C139.2421,25.155 138.6811,25.41 138.6811,25.41 C138.6231,25.436 138.5551,25.41 138.5291,25.352 C138.5041,25.298 138.5271,25.234 138.5771,25.204" id="Fill-86" fill="#1A1918"></path>
                <path d="M143.0787,104.5504 C143.0787,104.5504 144.2757,105.5404 146.1437,106.9394 C146.6127,107.2864 147.1207,107.6624 147.6577,108.0604 C148.1977,108.4554 148.7907,108.8424 149.4117,109.2344 C150.6167,110.0604 151.9337,110.9004 153.1247,111.8864 C153.7137,112.3874 154.2947,112.8964 154.8437,113.4274 C155.3937,113.9564 155.9357,114.4764 156.4597,114.9804 C157.5137,115.9814 158.5157,116.8944 159.3907,117.6584 C160.2677,118.4184 161.0227,119.0194 161.5697,119.4214 C161.8377,119.6314 162.0767,119.7394 162.2297,119.8424 C162.3877,119.9374 162.4717,119.9874 162.4717,119.9874 C162.4717,119.9874 162.3797,119.9544 162.2087,119.8934 C162.0427,119.8244 161.7697,119.7584 161.4647,119.6034 C160.8387,119.3194 159.9737,118.8514 158.9667,118.2434 C157.9617,117.6344 156.8037,116.8984 155.5807,116.0874 C154.9717,115.6784 154.3417,115.2564 153.7027,114.8274 C153.0687,114.3904 152.4467,113.9194 151.8467,113.4224 C150.6497,112.4254 149.5967,111.2594 148.5917,110.1924 C148.1047,109.6404 147.6337,109.1084 147.1647,108.6314 C146.6947,108.1544 146.2497,107.7044 145.8397,107.2884 C144.1977,105.6274 143.0787,104.5504 143.0787,104.5504" id="Fill-88" fill="#1A1918"></path>
                <path d="M68.5811,104.1085 C68.5811,104.1085 67.4401,105.6225 65.8621,107.9875 C65.4671,108.5785 65.0391,109.2175 64.5861,109.8945 C64.1371,110.5725 63.7101,111.3225 63.2661,112.0945 C62.8091,112.8555 62.3371,113.6425 61.8571,114.4415 C61.3961,115.2525 60.8751,116.0365 60.3471,116.8165 C59.8171,117.5915 59.2501,118.3455 58.6941,119.0865 C58.1341,119.8245 57.5651,120.5425 57.0541,121.2605 C56.0091,122.6845 55.0641,124.0395 54.3231,125.2395 C53.9481,125.8375 53.5991,126.3865 53.3381,126.8955 C53.0751,127.4025 52.7891,127.8265 52.6391,128.2085 C52.3001,128.9655 52.1071,129.3985 52.1071,129.3985 C52.1071,129.3985 52.2291,128.9385 52.4431,128.1335 C52.5361,127.7205 52.7411,127.2595 52.9341,126.7075 C53.1251,126.1545 53.3941,125.5565 53.6861,124.9005 C54.2591,123.5845 55.0131,122.0895 55.8571,120.5085 C56.2691,119.7095 56.7331,118.9115 57.1891,118.0875 C57.6481,117.2645 58.1751,116.4725 58.7041,115.6795 C59.7911,114.1145 61.0701,112.6895 62.2491,111.3475 C62.8641,110.6955 63.4461,110.0575 63.9811,109.4405 C64.5121,108.8195 65.0131,108.2335 65.4761,107.6925 C67.3391,105.5415 68.5811,104.1085 68.5811,104.1085" id="Fill-90" fill="#1A1918"></path>
            </g>
        </g>
    </g>
</svg>